<svg width="24" height="24" viewBox="0 0 24 24" fill="none" xmlns="http://www.w3.org/2000/svg">
<path fill-rule="evenodd" clip-rule="evenodd" d="M6.42072 4.83C6.20746 4.63128 5.92539 4.52309 5.63393 4.52824C5.34248 4.53338 5.06441 4.65145 4.85829 4.85757C4.65217 5.06369 4.5341 5.34176 4.52896 5.63321C4.52381 5.92467 4.632 6.20674 4.83072 6.42L10.4107 12L4.83072 17.58C4.72019 17.683 4.63154 17.8072 4.57005 17.9452C4.50856 18.0832 4.4755 18.2322 4.47283 18.3832C4.47017 18.5343 4.49795 18.6843 4.55453 18.8244C4.61112 18.9645 4.69533 19.0917 4.80216 19.1986C4.90899 19.3054 5.03624 19.3896 5.17632 19.4462C5.3164 19.5028 5.46645 19.5306 5.6175 19.5279C5.76856 19.5252 5.91753 19.4922 6.05553 19.4307C6.19352 19.3692 6.31773 19.2805 6.42072 19.17L12.0007 13.59L17.5807 19.17C17.6837 19.2805 17.8079 19.3692 17.9459 19.4307C18.0839 19.4922 18.2329 19.5252 18.3839 19.5279C18.535 19.5306 18.685 19.5028 18.8251 19.4462C18.9652 19.3896 19.0924 19.3054 19.1993 19.1986C19.3061 19.0917 19.3903 18.9645 19.4469 18.8244C19.5035 18.6843 19.5313 18.5343 19.5286 18.3832C19.5259 18.2322 19.4929 18.0832 19.4314 17.9452C19.3699 17.8072 19.2812 17.683 19.1707 17.58L13.5907 12L19.1707 6.42C19.3694 6.20674 19.4776 5.92467 19.4725 5.63321C19.4673 5.34176 19.3493 5.06369 19.1432 4.85757C18.937 4.65145 18.659 4.53338 18.3675 4.52824C18.076 4.52309 17.794 4.63128 17.5807 4.83L12.0007 10.41L6.42072 4.83Z" fill="#474751"/>
</svg>
