<svg width="272" height="277" viewBox="0 0 272 277" fill="none" xmlns="http://www.w3.org/2000/svg">
<path fill-rule="evenodd" clip-rule="evenodd" d="M123.045 0.834078C110.65 2.18213 92.0122 7.85853 78.5456 14.3875C50.6684 27.903 28.7658 49.7692 15.0496 77.781C8.70005 90.75 1.31019 113.189 2.84944 114.833C3.16751 115.172 6.21246 113.338 9.61778 110.755C18.0669 104.35 37.2893 95.1016 47.9065 92.3356C72.5753 85.9072 101.935 89.093 125.076 100.705L130.756 103.556L124.885 109.419L119.016 115.283L109.723 111.592C85.0688 101.798 58.9307 102.734 34.7754 114.278C24.2093 119.327 10.963 129.552 4.0006 138.034L0 142.906L1.76249 156.251C5.69305 186.022 18.8343 213.012 39.8819 234.546C60.6275 255.771 83.7119 268.495 111.709 274.139L125.905 277L131.607 272.491C148.346 259.248 160.949 240.046 166.141 219.873C169.227 207.883 168.455 181.912 164.69 171.052C159.786 156.905 153.169 145.408 144.488 135.945L135.709 126.375L156.947 104.993L178.183 83.6104L178.855 75.9112C179.642 66.8974 183.574 61.7894 191.531 59.4373C202.329 56.2471 214.963 65.0991 214.963 75.8573C214.963 86.9273 207.471 94.7344 196.401 95.2007C190.34 95.4558 189.186 96.2879 174.188 111.223L158.366 126.977L163.425 133.596C170.181 142.437 176.017 154.237 180.174 167.459C183.054 176.623 183.594 181.441 183.594 198.013C183.594 214.561 183.051 219.424 180.177 228.617C175.721 242.872 168.417 256.652 159.386 267.849L152.115 276.863L157.641 275.942C190.199 270.519 215.581 257.641 237.624 235.362C255.688 217.104 267.855 195.242 274.338 169.395C278.224 153.9 277.786 120.908 273.479 104.742C255.469 37.1412 192.042 -6.66984 123.045 0.834078ZM69.4735 140.259C77.0399 143.48 81.0741 148.912 81.754 156.794C82.8074 169.004 74.7157 177.853 62.4965 177.853C40.9164 177.853 35.3357 149.137 55.2015 140.319C60.8391 137.815 63.7046 137.804 69.4735 140.259ZM129.795 198.245C145.715 214.149 126.888 239.62 106.859 229.275C97.838 224.615 94.119 211.757 99.0432 202.248C104.886 190.961 120.47 188.932 129.795 198.245Z" fill="white" fill-opacity="0.02"/>
</svg>
