<svg width="360" height="321" viewBox="0 0 360 321" fill="none" xmlns="http://www.w3.org/2000/svg">
<g clip-path="url(#clip0_3732_69962)">
<path d="M168.391 339C135.153 339.119 102.629 329.363 74.9431 310.971C47.2573 292.579 25.6576 266.378 12.8837 235.693C0.109765 205.007 -3.26289 171.219 3.19351 138.614C9.64991 106.009 25.6445 76.0556 49.1485 52.5537C78.2579 23.2782 117.202 5.85592 158.428 3.66543C159.633 3.59751 160.838 3.7761 161.971 4.19028C163.104 4.60446 164.141 5.24551 165.018 6.07419C165.895 6.90288 166.593 7.90177 167.07 9.00972C167.548 10.1177 167.794 11.3114 167.794 12.5178V57.3772C167.786 59.6054 166.94 61.7492 165.423 63.3817C163.907 65.0143 161.831 66.0159 159.609 66.1873C105.103 70.4061 62.1 116.334 62.5219 172.008C62.9649 229.284 109.73 276.07 167.006 276.492C222.68 276.914 268.594 233.911 272.827 179.404C272.99 177.173 273.991 175.086 275.629 173.561C277.267 172.037 279.42 171.188 281.658 171.185H326.517C327.722 171.185 328.915 171.431 330.022 171.907C331.129 172.384 332.127 173.081 332.955 173.956C333.784 174.831 334.425 175.866 334.84 176.998C335.255 178.129 335.436 179.333 335.37 180.537C332.987 223.26 314.374 263.459 283.336 292.914C252.298 322.369 211.181 338.855 168.391 339Z" fill="#F9FAFE"/>
<path d="M351.134 146.344H305.571C303.324 146.342 301.161 145.489 299.519 143.955C297.876 142.422 296.875 140.323 296.719 138.082C292.781 86.578 252.134 45.3327 200.679 41.3319C198.446 41.1672 196.357 40.1652 194.83 38.5265C193.303 36.8878 192.452 34.7332 192.445 32.4937V-12.3657C192.447 -13.5706 192.693 -14.7626 193.17 -15.8691C193.647 -16.9756 194.344 -17.9734 195.219 -18.8016C196.094 -19.6299 197.128 -20.2713 198.259 -20.6868C199.39 -21.1022 200.594 -21.283 201.797 -21.2181C243.007 -18.9197 281.925 -1.51411 311.111 27.6713C340.296 56.8568 357.702 95.7747 360 136.985C360.066 138.19 359.886 139.396 359.47 140.528C359.054 141.661 358.411 142.697 357.582 143.573C356.752 144.449 355.752 145.146 354.643 145.623C353.535 146.099 352.34 146.344 351.134 146.344Z" fill="#F9FAFE"/>
<path d="M199.385 106.54H199.259C197.776 106.559 196.323 106.956 195.037 107.695C193.751 108.433 192.675 109.488 191.911 110.758C170.965 143.454 148.964 176.29 128.981 207.986C126.26 212.304 127.477 218.329 131.653 221.486C135.83 224.643 141.342 223.736 144.042 219.377C163.948 187.476 185.864 154.591 206.726 121.994C210.938 115.504 206.571 106.54 199.385 106.54Z" fill="#F9FAFE"/>
<path d="M226.35 177.33C220.62 171.284 213.694 168.267 205.77 168.267C197.845 168.267 190.962 171.333 185.182 177.344C179.402 183.356 176.562 190.641 176.625 199.261C176.688 207.881 179.592 215.334 185.224 221.339C190.856 227.344 197.578 230.388 205.481 230.367C213.511 230.367 220.345 227.323 226.055 221.353C231.764 215.383 234.745 207.994 234.851 199.191C234.977 195.162 234.289 191.15 232.829 187.394C231.368 183.638 229.164 180.215 226.35 177.33ZM213.124 208.219C212.238 209.33 211.11 210.225 209.826 210.835C208.541 211.444 207.135 211.752 205.713 211.734C204.28 211.771 202.858 211.487 201.549 210.903C200.24 210.319 199.078 209.45 198.148 208.359C196.193 206.081 195.202 203.114 195.195 199.359C195.065 196.206 196.15 193.123 198.225 190.746C199.162 189.684 200.314 188.833 201.605 188.25C202.896 187.667 204.297 187.366 205.713 187.366C207.13 187.366 208.53 187.667 209.821 188.25C211.112 188.833 212.265 189.684 213.202 190.746C215.213 193.151 216.251 196.221 216.113 199.352C216.089 202.919 215.093 205.875 213.124 208.219Z" fill="#F9FAFE"/>
<path d="M147.973 113.88C142.481 107.967 135.893 105.169 128.074 105.408C120.256 105.647 113.407 108.923 107.388 114.935C101.37 120.947 98.1563 128.126 97.868 136.451C97.5798 144.776 100.28 151.919 105.884 157.706C108.578 160.477 111.802 162.677 115.364 164.177C118.926 165.677 122.754 166.445 126.619 166.435C130.483 166.426 134.307 165.64 137.862 164.123C141.417 162.607 144.63 160.391 147.312 157.608C153.049 151.706 155.977 144.358 156.094 135.565C156.22 127.043 153.506 119.794 147.973 113.88ZM134.248 144.579C133.317 145.654 132.17 146.521 130.882 147.123C129.594 147.725 128.194 148.049 126.772 148.074C125.35 148.098 123.939 147.823 122.631 147.266C121.323 146.708 120.147 145.881 119.18 144.839C117.26 142.638 116.367 139.755 116.438 136.085C116.43 132.943 117.605 129.914 119.728 127.598C120.675 126.511 121.841 125.635 123.149 125.029C124.458 124.423 125.88 124.101 127.322 124.083C128.703 124.012 130.081 124.263 131.348 124.818C132.615 125.372 133.735 126.213 134.62 127.275C136.512 129.476 137.433 132.302 137.356 135.712C137.427 138.947 136.323 142.097 134.248 144.579Z" fill="#F9FAFE"/>
</g>
<defs>
<clipPath id="clip0_3732_69962">
<rect width="360" height="360" fill="white" transform="translate(0 -21)"/>
</clipPath>
</defs>
</svg>
