<svg width="200" height="200" viewBox="0 0 200 200" fill="none" xmlns="http://www.w3.org/2000/svg">
<rect width="200" height="200" rx="100" fill="#E55D5D"/>
<path d="M136.639 72.0413C138.088 69.9941 139.131 67.6097 139.615 64.9802C141.399 55.3026 135.002 46.0111 125.329 44.2268C122.994 43.7963 120.682 43.8462 118.493 44.3002C116.42 40.2301 112.547 37.1353 107.71 36.2432C99.4605 34.7219 92.0857 40.5109 90.565 48.7637L90.8578 49.3599C86.2524 50.4676 82.8291 54.6125 82.8291 59.5597C82.8291 61.6351 83.4338 63.5682 84.4733 65.1966C77.2231 66.0946 71.6094 72.2749 71.6094 79.7712C71.6094 87.8849 78.6382 91.7856 86.2946 94.4623C92.9609 96.7929 117.784 104.18 117.784 104.18C127.458 105.964 140.285 98.0323 142.068 88.3546C143.216 82.1215 140.968 76.0512 136.639 72.0413Z" fill="#453447"/>
<path d="M41.1784 77.2929C36.1574 74.8608 30.219 75.8787 30.219 75.8787C30.219 75.8787 21.4521 74.6056 21.0925 75.9964C20.318 78.9929 27.1438 81.8228 27.1438 81.8228L41.1784 77.2929Z" fill="#F7888A"/>
<path d="M33.1877 84.6497C25.1358 84.5602 20.6891 81.214 20.051 78.3484C19.7343 76.9272 20.9615 75.9471 21.8081 77.5205C22.5339 78.8694 24.7283 80.4106 24.9449 80.3882C23.8376 79.4459 22.414 78.0653 22.0343 76.9191C21.3888 74.971 21.6729 72.9289 22.9737 72.3929C23.4879 72.1809 23.8061 72.7724 23.8061 72.7724C23.8061 72.7724 23.9512 71.0318 25.1061 71.1194C26.6664 71.2378 26.687 73.3972 26.687 73.3972C26.687 73.3972 26.4187 71.632 27.869 71.7519C28.8982 71.837 29.1375 73.4955 29.6595 75.0707C30.3049 77.0188 34.7212 77.4365 35.536 77.1057C36.3508 76.7754 39.8437 75.8862 42.1807 77.9924C46.627 81.9994 52.3261 103.368 52.3261 103.368L39.3779 112.951L33.1877 84.6497Z" fill="#FDB6B4"/>
<path d="M26.8552 79.478C26.8288 79.478 26.8017 79.4721 26.7764 79.46C25.4771 78.8392 24.2756 77.5427 23.8054 76.6385C23.3575 75.7775 23.6118 72.8786 23.6228 72.7557C23.632 72.6549 23.72 72.5805 23.8219 72.5896C23.9227 72.5988 23.9971 72.6879 23.9879 72.7887C23.9153 73.5969 23.7995 75.8336 24.1305 76.4694C24.5102 77.1991 25.631 78.5067 26.9344 79.1296C27.026 79.1733 27.0645 79.2829 27.0209 79.3742C26.989 79.4395 26.9238 79.478 26.8552 79.478Z" fill="#6E3530"/>
<path d="M29.8176 78.6002C29.7912 78.6002 29.7641 78.5943 29.7388 78.5822C28.4398 77.9615 27.2383 76.6653 26.7673 75.7607C26.3176 74.8964 26.5002 73.4356 26.5082 73.3736C26.5214 73.2732 26.613 73.2031 26.7135 73.2152C26.8139 73.2281 26.8846 73.3201 26.8718 73.4206C26.87 73.4345 26.6962 74.8297 27.0925 75.5913C27.4722 76.321 28.5934 77.6289 29.8967 78.2515C29.9884 78.2951 30.0269 78.4044 29.9832 78.4957C29.9517 78.5617 29.8861 78.6002 29.8176 78.6002Z" fill="#6E3530"/>
<path d="M148.138 107.403C140.866 102.096 126.024 85.1569 116.17 84.2835C113.773 83.4717 109.153 82.0424 103.81 81.0857C96.3084 79.7429 87.7284 79.9387 86.3239 79.9816C86.3165 79.9809 86.3114 79.9791 86.3041 79.978C74.4697 77.9044 55.9294 108.908 55.9294 108.908C55.9294 108.908 52.4625 94.5496 48.8394 91.0527C48.8394 91.0527 50.264 88.0973 49.2048 87.5527C48.1455 87.0082 35.1376 90.0945 33.1667 91.1231C31.3371 92.0779 34.52 95.25 34.52 95.25C34.52 95.25 36.0916 118.661 45.6209 127.183C56.7138 137.103 64.1656 129.474 73.8884 115.848C74.0563 126.121 76.1077 142.943 81.0972 143.536C90.0284 144.597 109.797 144.683 119.248 143.781C122.468 143.473 125.615 127.475 126.665 118.955C136.879 127.374 149.329 132.835 153.569 130.557C158.665 127.819 156.86 113.767 148.138 107.403Z" fill="#5C75C9"/>
<path d="M73.8892 116.032C73.8027 116.032 73.7257 115.971 73.7092 115.883C71.4379 103.675 77.6644 95.7306 77.7278 95.6521C77.7909 95.5729 77.9063 95.5608 77.9855 95.6235C78.0643 95.6866 78.0771 95.8021 78.0141 95.8813C77.9521 95.959 71.8304 103.78 74.0699 115.816C74.0882 115.915 74.0226 116.011 73.9233 116.029C73.9116 116.031 73.9002 116.032 73.8892 116.032Z" fill="#453447"/>
<path d="M126.664 119.139C126.624 119.139 126.584 119.126 126.55 119.099C124.71 117.633 123.808 116.005 123.771 115.937C123.722 115.848 123.755 115.737 123.843 115.688C123.932 115.639 124.043 115.672 124.092 115.76C124.101 115.777 124.999 117.395 126.778 118.812C126.858 118.875 126.87 118.99 126.808 119.07C126.771 119.115 126.718 119.139 126.664 119.139Z" fill="#483C57"/>
<path d="M146.122 105.808C146.122 105.808 143.873 117.266 145.483 120.487C147.093 123.709 148.834 107.852 148.834 107.852L146.122 105.808Z" fill="#453447"/>
<path d="M55.9297 108.908C55.9297 108.908 58.0614 115.454 58.1259 117.36C58.1259 117.36 59.349 109.767 57.3492 106.635L55.9297 108.908Z" fill="#453447"/>
<path d="M35.2595 94.9395C35.2067 94.9395 35.1547 94.9171 35.1184 94.8731C35.0539 94.7954 35.0645 94.6802 35.1419 94.6153C35.1609 94.5995 35.6257 94.2171 36.7773 93.6942C36.8697 93.6517 36.9782 93.6935 37.0199 93.7855C37.0617 93.8776 37.021 93.9865 36.9287 94.0283C35.8298 94.5273 35.3805 94.894 35.3761 94.8977C35.3423 94.9259 35.3006 94.9395 35.2595 94.9395ZM38.5568 93.3734C38.4809 93.3734 38.4098 93.3257 38.3834 93.2498C38.3504 93.1541 38.4014 93.05 38.497 93.017C39.0472 92.8278 39.6402 92.6463 40.26 92.4776C40.3571 92.4508 40.4583 92.5088 40.4851 92.6063C40.5118 92.7042 40.4539 92.8047 40.3564 92.8314C39.7443 92.9983 39.1586 93.1772 38.6162 93.3639C38.5967 93.3701 38.5766 93.3734 38.5568 93.3734ZM42.0875 92.4032C42.0032 92.4032 41.9273 92.3445 41.9086 92.2591C41.887 92.1601 41.9497 92.0622 42.0483 92.0409C42.6256 91.9148 43.2325 91.7952 43.8531 91.686C43.9528 91.668 44.0477 91.7347 44.0653 91.8345C44.0829 91.9342 44.0165 92.0292 43.9168 92.0468C43.3014 92.1553 42.6992 92.2737 42.1267 92.3988C42.1139 92.4017 42.1003 92.4032 42.0875 92.4032ZM45.6948 91.7641C45.6047 91.7641 45.5266 91.6977 45.5134 91.6064C45.4995 91.5059 45.5691 91.4135 45.6692 91.3992C46.26 91.316 46.8736 91.2393 47.4927 91.1708C47.596 91.1612 47.6836 91.2327 47.695 91.3328C47.706 91.4333 47.6338 91.5239 47.533 91.5352C46.9176 91.6035 46.308 91.6797 45.7209 91.7622C45.7117 91.7637 45.7033 91.7641 45.6948 91.7641Z" fill="#BB4765"/>
<path d="M90.7297 135.317L86.2793 136.305L86.5019 137.309L90.9523 136.322L90.7297 135.317Z" fill="white" fill-opacity="0.16"/>
<path d="M115.984 107.321L111.533 108.308L111.756 109.312L116.206 108.325L115.984 107.321Z" fill="white" fill-opacity="0.16"/>
<path d="M136.622 116.358L132.172 117.345L132.394 118.349L136.845 117.362L136.622 116.358Z" fill="white" fill-opacity="0.16"/>
<path d="M121.146 137.809L116.695 138.796L116.918 139.801L121.368 138.813L121.146 137.809Z" fill="white" fill-opacity="0.16"/>
<path d="M102.636 105.602L101.613 105.707L102.077 110.244L103.1 110.139L102.636 105.602Z" fill="white" fill-opacity="0.16"/>
<path d="M53.4896 110.629L52.4668 110.734L52.9304 115.27L53.9531 115.166L53.4896 110.629Z" fill="white" fill-opacity="0.16"/>
<path d="M110.833 94.7705L107.846 98.2153L108.622 98.8893L111.61 95.4444L110.833 94.7705Z" fill="white" fill-opacity="0.16"/>
<path d="M121.299 91.4579L116.742 91.5737L116.768 92.6019L121.325 92.4861L121.299 91.4579Z" fill="white" fill-opacity="0.16"/>
<path d="M88.9391 116.385L88.8516 120.944L89.8795 120.964L89.967 116.405L88.9391 116.385Z" fill="white" fill-opacity="0.16"/>
<path d="M77.6422 128.318L76.8145 128.928L79.5185 132.6L80.3463 131.99L77.6422 128.318Z" fill="white" fill-opacity="0.16"/>
<path d="M40.9067 99.2075L40.6152 100.194L44.9868 101.487L45.2783 100.5L40.9067 99.2075Z" fill="white" fill-opacity="0.16"/>
<path d="M101.425 134.976L100.598 135.586L103.302 139.257L104.129 138.647L101.425 134.976Z" fill="white" fill-opacity="0.16"/>
<path d="M96.961 125.183L93.3867 128.013L94.0249 128.82L97.5992 125.989L96.961 125.183Z" fill="white" fill-opacity="0.16"/>
<path d="M87.6458 103.621L86.9141 104.344L90.1159 107.589L90.8476 106.867L87.6458 103.621Z" fill="white" fill-opacity="0.16"/>
<path d="M67.762 106.628L63.2988 107.556L63.508 108.563L67.9712 107.635L67.762 106.628Z" fill="white" fill-opacity="0.16"/>
<path d="M97.9963 90.9498L93.5938 92.1323L93.8603 93.1257L98.2629 91.9432L97.9963 90.9498Z" fill="white" fill-opacity="0.16"/>
<path d="M124.665 101.369L123.934 102.091L127.135 105.337L127.867 104.615L124.665 101.369Z" fill="white" fill-opacity="0.16"/>
<path d="M74.4153 85.2693L73.6836 85.9917L76.3371 88.6814L77.0688 87.959L74.4153 85.2693Z" fill="white" fill-opacity="0.16"/>
<path d="M120.598 120.164L119.59 120.366L120.484 124.838L121.492 124.636L120.598 120.164Z" fill="white" fill-opacity="0.16"/>
<path d="M141.485 105.99L140.477 106.192L141.371 110.664L142.379 110.462L141.485 105.99Z" fill="white" fill-opacity="0.16"/>
<path d="M98.8462 118.298L98.7812 119.324L103.331 119.612L103.396 118.586L98.8462 118.298Z" fill="white" fill-opacity="0.16"/>
<path d="M43.1655 113.246L39.8984 116.427L40.6154 117.164L43.8825 113.984L43.1655 113.246Z" fill="white" fill-opacity="0.16"/>
<path d="M81.9631 109.249L77.9102 111.335L78.3806 112.25L82.4336 110.163L81.9631 109.249Z" fill="white" fill-opacity="0.16"/>
<path d="M53.307 126.138L53.1484 127.154L57.6522 127.857L57.8107 126.841L53.307 126.138Z" fill="white" fill-opacity="0.16"/>
<path d="M82.2131 124.541L81.3789 123.816L82.4118 120.895L83.3809 121.237L82.2131 124.541Z" fill="white" fill-opacity="0.16"/>
<path d="M79.1745 97.9804L77.0703 102.026L77.9823 102.501L80.0865 98.4552L79.1745 97.9804Z" fill="white" fill-opacity="0.16"/>
<path d="M113.455 127.651L111.352 131.697L112.264 132.171L114.367 128.126L113.455 127.651Z" fill="white" fill-opacity="0.16"/>
<path d="M67.0881 117.4L64.9844 121.446L65.8964 121.92L68.0001 117.875L67.0881 117.4Z" fill="white" fill-opacity="0.16"/>
<path d="M76.0066 120.65L76.0883 121.717L74.2136 122.493L74.1289 121.351L76.0066 120.65Z" fill="white" fill-opacity="0.16"/>
<path d="M85.7359 59.7843C85.4295 60.9914 86.1596 62.2186 87.3662 62.5248C88.5728 62.8313 89.7995 62.1009 90.106 60.8938C90.4124 59.6867 89.6823 58.4595 88.4757 58.1533C87.2687 57.8471 86.0423 58.5768 85.7359 59.7843Z" fill="#EFC53D"/>
<path d="M108.907 82.1756L109.45 65.8311L96.8209 68.7153L95.1895 80.1262C95.1895 80.1262 92.7235 80.0126 89.4102 79.9484C96.4214 89.6161 110.441 87.0553 113.906 83.5535C112.16 82.9441 108.907 82.1756 108.907 82.1756Z" fill="#FDB6B4"/>
<path d="M106.387 70.4815C106.387 70.4815 102.008 78.0676 95.9277 74.908L96.818 68.7148L106.387 70.4815Z" fill="#F7888A"/>
<path d="M117.319 59.0172C117.741 50.7526 111.386 43.7107 103.125 43.2887C94.8634 42.8666 87.8244 49.2243 87.4025 57.4888C86.9807 65.7534 93.3357 72.7953 101.597 73.2173C109.858 73.6393 116.897 67.2817 117.319 59.0172Z" fill="#FDB6B4"/>
<path d="M104.34 55.9909C104.177 56.6334 104.565 57.2864 105.207 57.4492C105.85 57.6124 106.502 57.2237 106.665 56.5813C106.828 55.9389 106.44 55.2858 105.798 55.123C105.156 54.9602 104.503 55.3485 104.34 55.9909Z" fill="#090929"/>
<path d="M98.4164 59.9105C98.4013 59.9105 98.3863 59.9086 98.3709 59.9046C97.632 59.7169 97.1834 58.963 97.3707 58.2234C97.5587 57.4842 98.3123 57.0354 99.0516 57.2227C99.1498 57.2477 99.2092 57.3474 99.1842 57.4457C99.1593 57.5436 99.0585 57.6019 98.9614 57.5784C98.42 57.4402 97.8644 57.7706 97.7262 58.3136C97.5884 58.857 97.9179 59.4114 98.4611 59.5493C98.5593 59.5742 98.6187 59.674 98.5938 59.7722C98.5729 59.8551 98.4981 59.9105 98.4164 59.9105Z" fill="#6E3530"/>
<path d="M92.7755 53.0541C92.6124 53.6965 93.0009 54.3492 93.643 54.5124C94.2852 54.6756 94.938 54.2869 95.1007 53.6445C95.2638 53.0021 94.8753 52.349 94.2331 52.1858C93.5914 52.0234 92.9386 52.4121 92.7755 53.0541Z" fill="#090929"/>
<path d="M96.6598 66.8991C96.6173 66.8991 96.5748 66.8848 96.5403 66.8548C96.4637 66.7888 96.4549 66.6733 96.5205 66.5963C96.5477 66.5647 99.275 63.474 104.366 65.3958C104.461 65.4317 104.509 65.5373 104.473 65.6319C104.437 65.7269 104.332 65.7746 104.237 65.7386C99.3945 63.9107 96.9025 66.7147 96.7987 66.835C96.7624 66.8775 96.7111 66.8991 96.6598 66.8991Z" fill="#6E3530"/>
<path d="M106.043 43.7275C106.043 43.7275 107.352 57.1878 117.302 59.2822C117.302 59.2822 121.333 46.3031 106.043 43.7275Z" fill="#453447"/>
<path d="M106.043 43.7278C106.043 43.7278 99.419 51.3957 91.0586 47.975C91.0586 47.975 96.058 39.3159 106.043 43.7278Z" fill="#453447"/>
<path d="M101.091 55.0705C100.893 55.0705 100.702 54.963 100.603 54.7757C100.527 54.6323 100.256 54.2469 99.9223 54.1754C99.8494 54.1596 99.6254 54.112 99.249 54.4027C99.009 54.5883 98.6637 54.5439 98.4779 54.3034C98.2924 54.0628 98.3367 53.7174 98.5772 53.5319C99.2267 53.0303 99.7984 53.0208 100.163 53.1022C101.055 53.2994 101.528 54.1692 101.579 54.2674C101.718 54.5369 101.613 54.8692 101.343 55.0089C101.262 55.0507 101.176 55.0705 101.091 55.0705Z" fill="white"/>
<path d="M115.629 60.8343C115.54 60.8343 115.451 60.8126 115.368 60.7679L109.851 57.7813C109.584 57.6365 109.484 57.3028 109.629 57.0359C109.773 56.769 110.106 56.6692 110.374 56.8141L115.891 59.8003C116.158 59.9451 116.257 60.2788 116.113 60.5457C116.013 60.7294 115.824 60.8343 115.629 60.8343Z" fill="white"/>
<path d="M105.504 61.5471C105.077 61.5471 104.644 61.4946 104.211 61.385C102.85 61.0392 101.704 60.1838 100.986 58.9763C100.268 57.7688 100.062 56.3535 100.408 54.9913C101.122 52.1796 103.988 50.4724 106.799 51.1863C109.609 51.9002 111.315 54.7683 110.602 57.58C109.998 59.959 107.852 61.5471 105.504 61.5471ZM105.505 52.1246C103.648 52.1246 101.951 53.3805 101.473 55.2623C101.2 56.3395 101.362 57.4586 101.931 58.4138C102.499 59.3686 103.404 60.0455 104.481 60.3187C106.704 60.8834 108.972 59.5333 109.536 57.3094C110.1 55.0859 108.751 52.8173 106.528 52.253C106.186 52.1661 105.843 52.1246 105.505 52.1246Z" fill="white"/>
<path d="M93.94 58.6109C93.513 58.6109 93.0794 58.5585 92.6469 58.4489C89.8364 57.7349 88.1306 54.8664 88.8439 52.0552C89.5571 49.2435 92.4237 47.5374 95.235 48.2505C98.0455 48.9645 99.7516 51.8322 99.038 54.6442C98.434 57.0225 96.2883 58.6109 93.94 58.6109ZM93.9411 49.1881C92.0836 49.1881 90.3866 50.444 89.9093 52.3258C89.3449 54.5493 90.6944 56.8179 92.917 57.3826C95.1393 57.9472 97.4073 56.5972 97.9714 54.3733C98.5359 52.1494 97.1863 49.8811 94.9637 49.3165C94.6221 49.2296 94.2787 49.1881 93.9411 49.1881Z" fill="white"/>
<path d="M114.123 65.9803C114.123 65.9803 114.744 67.7807 118.427 68.0865C125.295 68.6559 125.068 60.0926 121.397 58.5977C117.726 57.1024 114.164 61.8263 114.164 61.8263L114.123 65.9803Z" fill="#FDB6B4"/>
<path d="M116.463 63.7406C116.395 63.7406 116.33 63.7032 116.298 63.6387C116.253 63.5481 116.29 63.4381 116.381 63.393L120.459 61.3675C120.55 61.322 120.66 61.3594 120.705 61.4504C120.75 61.5409 120.713 61.6509 120.622 61.696L116.544 63.7219C116.518 63.7344 116.49 63.7406 116.463 63.7406Z" fill="#6E3530"/>
<path d="M116.24 67.5319C115.933 68.739 116.663 69.9663 117.87 70.2725C119.077 70.579 120.303 69.8486 120.609 68.6415C120.916 67.4344 120.186 66.2071 118.979 65.901C117.773 65.5944 116.546 66.3245 116.24 67.5319Z" fill="#EFC53D"/>
<path d="M100.979 44.3879C100.771 45.3087 100.025 47.2726 99.5132 47.7496C99.0931 48.1409 94.2158 49.3461 91.7201 47.6686C89.2244 45.991 88.8927 44.711 88.8927 44.711C88.8587 44.4466 94.2118 45.4572 100.979 44.3879Z" fill="#282029"/>
<path d="M105.791 46.8763C106.495 46.2479 108.243 45.0837 108.937 44.9931C109.506 44.919 114.175 46.7737 115.232 49.5901C116.288 52.4065 115.814 53.6408 115.814 53.6408C115.689 53.8758 111.92 49.941 105.791 46.8763Z" fill="#282029"/>
<path d="M138.085 199.987C137.179 187.385 137.48 166.267 117.255 148.306C117.255 148.306 122.686 145.718 120.987 143.78C119.361 141.926 110.041 143.807 99.8176 143.78C90.9602 143.757 81.1252 141.455 78.7087 144.4C77.1521 146.296 81.3206 148.306 81.3206 148.306C68.2675 157.947 58.5799 187.524 56.5039 199.987L95.8442 199.995L99.4416 184.502L99.0117 200L138.085 199.987Z" fill="#FFD65A"/>
<path d="M131.647 168.58C130.001 168.58 124.859 166.704 113.707 148.511C113.654 148.425 113.681 148.312 113.767 148.259C113.853 148.205 113.966 148.233 114.019 148.319C127.479 170.276 132.032 168.163 132.077 168.14C132.165 168.092 132.276 168.123 132.325 168.21C132.374 168.297 132.346 168.406 132.26 168.457C132.224 168.478 132.03 168.58 131.647 168.58Z" fill="white"/>
<path d="M69.2954 169.59C67.549 169.59 66.4783 169.041 66.4102 169.006C66.3207 168.958 66.2866 168.848 66.3335 168.758C66.3805 168.669 66.4919 168.634 66.581 168.681C66.6051 168.693 69.055 169.939 72.585 168.58C76.3631 167.126 81.9585 162.437 87.1606 148.353C87.1958 148.257 87.3014 148.208 87.3963 148.244C87.4912 148.279 87.54 148.384 87.5048 148.479C82.2499 162.706 76.5541 167.452 72.7016 168.929C71.4008 169.427 70.2477 169.59 69.2954 169.59Z" fill="white"/>
<path d="M100.676 167.469C100.67 167.469 100.664 167.469 100.658 167.468C99.5036 167.353 98.5532 166.795 97.8337 165.812C94.5108 161.27 97.0218 149.103 97.1303 148.587C97.1512 148.487 97.248 148.425 97.3473 148.445C97.4463 148.466 97.5097 148.563 97.4888 148.662C97.4624 148.787 94.9026 161.185 98.1295 165.595C98.7485 166.441 99.5519 166.941 100.52 167.082L103.184 148.281C103.198 148.181 103.291 148.115 103.391 148.125C103.491 148.139 103.561 148.232 103.547 148.332L100.858 167.312C100.845 167.403 100.767 167.469 100.676 167.469Z" fill="white"/>
<path d="M116.428 148.49H82.3356C82.2344 148.49 82.1523 148.408 82.1523 148.306C82.1523 148.205 82.2344 148.123 82.3356 148.123H116.428C116.529 148.123 116.611 148.205 116.611 148.306C116.611 148.408 116.529 148.49 116.428 148.49Z" fill="white"/>
<path d="M99.4427 184.686C99.4229 184.686 99.4031 184.682 99.3836 184.676L96.2513 183.614C96.1557 183.582 96.1043 183.478 96.1366 183.382C96.1692 183.285 96.2729 183.235 96.369 183.267L99.4481 184.311L103.315 183.264C103.413 183.238 103.514 183.295 103.54 183.393C103.566 183.491 103.509 183.591 103.411 183.618L99.4899 184.68C99.4749 184.683 99.4588 184.686 99.4427 184.686Z" fill="white"/>
<path d="M158.908 85.5236C163.57 82.4582 169.59 82.6932 169.59 82.6932C169.59 82.6932 178.117 80.2889 178.654 81.6207C179.812 84.4907 173.413 88.1856 173.413 88.1856L158.908 85.5236Z" fill="#F7888A"/>
<path d="M167.788 91.776C175.759 90.6382 179.732 86.7412 179.992 83.8166C180.121 82.3661 178.777 81.5542 178.142 83.2248C177.598 84.657 175.623 86.471 175.405 86.4768C176.381 85.3985 177.612 83.8441 177.839 82.6579C178.226 80.6423 177.678 78.6546 176.319 78.2927C175.781 78.1497 175.543 78.7774 175.543 78.7774C175.543 78.7774 175.172 77.0705 174.039 77.3078C172.507 77.6286 172.768 79.7718 172.768 79.7718C172.768 79.7718 172.804 77.9869 171.381 78.2949C170.372 78.5134 170.35 80.1891 170.038 81.819C169.652 83.8346 165.327 84.8239 164.477 84.6024C163.626 84.3809 160.047 83.9545 158.004 86.3474C154.117 90.8997 148.492 115.009 148.492 115.009L162.334 118.671L167.788 91.776Z" fill="#FDB6B4"/>
<path d="M173.365 85.8257C173.305 85.8257 173.246 85.7964 173.211 85.7425C173.156 85.6574 173.18 85.5441 173.265 85.4887C174.476 84.7015 175.417 83.2586 175.699 82.486C175.944 81.8124 175.538 79.6098 175.361 78.8182C175.339 78.7192 175.401 78.6213 175.5 78.5993C175.6 78.5769 175.697 78.6392 175.719 78.7379C175.746 78.8585 176.375 81.6995 176.044 82.6114C175.695 83.5695 174.673 85.0113 173.465 85.7964C173.434 85.8162 173.4 85.8257 173.365 85.8257Z" fill="#6E3530"/>
<path d="M170.318 85.3404C170.258 85.3404 170.2 85.311 170.164 85.2568C170.109 85.1721 170.133 85.0584 170.218 85.003C171.43 84.2158 172.37 82.7729 172.652 82C172.946 81.1933 172.592 79.8325 172.589 79.819C172.563 79.7211 172.621 79.621 172.719 79.5949C172.817 79.5693 172.917 79.6272 172.943 79.7251C172.958 79.7856 173.33 81.2101 172.996 82.1254C172.648 83.0835 171.625 84.5256 170.418 85.3107C170.387 85.3308 170.352 85.3404 170.318 85.3404Z" fill="#6E3530"/>
<path d="M168.072 100.781C168.072 100.781 162.518 130.892 151.581 131.386C134.597 132.153 154.049 95.0607 154.049 95.0607C154.049 95.0607 152.698 92.3308 153.366 91.8563C156.09 89.9192 167.023 94.8476 170.172 97.8236C171.074 98.6761 168.072 100.781 168.072 100.781Z" fill="#5C75C9"/>
<path d="M155.682 95.473C155.672 95.473 155.662 95.4723 155.652 95.4708C155.091 95.3802 154.761 95.3483 154.758 95.348C154.657 95.3384 154.583 95.249 154.593 95.1481C154.602 95.0473 154.691 94.9714 154.792 94.9831C154.806 94.9842 155.136 95.0161 155.711 95.1089C155.811 95.125 155.879 95.2193 155.863 95.319C155.848 95.4092 155.77 95.473 155.682 95.473Z" fill="#453447"/>
<path d="M165.465 98.9993C165.432 98.9993 165.399 98.9909 165.369 98.9725C164.887 98.6781 164.379 98.3943 163.86 98.1288C163.77 98.0826 163.734 97.9722 163.78 97.882C163.826 97.7922 163.937 97.7566 164.027 97.8021C164.554 98.0716 165.07 98.3598 165.56 98.6594C165.646 98.7122 165.674 98.8251 165.621 98.9113C165.587 98.9681 165.526 98.9993 165.465 98.9993ZM162.365 97.4101C162.341 97.4101 162.317 97.4054 162.293 97.3955C161.772 97.1725 161.229 96.9609 160.68 96.7662C160.585 96.7325 160.535 96.6276 160.569 96.5323C160.603 96.4366 160.708 96.3871 160.803 96.4208C161.359 96.6181 161.909 96.8326 162.438 97.0585C162.531 97.0981 162.574 97.2059 162.534 97.299C162.504 97.3683 162.436 97.4101 162.365 97.4101ZM159.082 96.243C159.065 96.243 159.048 96.2408 159.031 96.2357C158.477 96.0751 157.912 95.9295 157.353 95.8019C157.255 95.7795 157.193 95.6813 157.216 95.5826C157.238 95.4836 157.336 95.4209 157.435 95.4444C158.001 95.5731 158.572 95.7205 159.133 95.8829C159.23 95.9112 159.286 96.0127 159.258 96.1103C159.235 96.1909 159.162 96.243 159.082 96.243Z" fill="#453447"/>
<path d="M167.642 100.529C167.601 100.529 167.561 100.516 167.527 100.488C167.29 100.297 167.05 100.112 166.807 99.9344C166.726 99.8746 166.708 99.7598 166.768 99.6781C166.828 99.5963 166.942 99.5787 167.024 99.6385C167.271 99.8196 167.516 100.007 167.757 100.202C167.836 100.266 167.849 100.381 167.785 100.46C167.748 100.506 167.695 100.529 167.642 100.529Z" fill="#453447"/>
<path d="M161.174 104.525L161.969 103.873L159.076 100.348L158.281 101.001L161.174 104.525Z" fill="white" fill-opacity="0.19"/>
<path d="M157.061 115.988L156.633 116.924L160.771 118.821L161.199 117.885L157.061 115.988Z" fill="white" fill-opacity="0.19"/>
<path d="M153.005 107.638L152.131 107.096L149.734 110.967L150.608 111.508L153.005 107.638Z" fill="white" fill-opacity="0.19"/>
<path d="M148.155 126.059L148.494 127.03L152.798 125.526L152.459 124.555L148.155 126.059Z" fill="white" fill-opacity="0.19"/>
<path d="M114.475 82.6586C114.187 82.5622 113.876 82.7173 113.779 83.0052C113.73 83.1522 109.097 96.6715 100.375 98.3747C100.073 97.4785 99.228 96.8321 98.2303 96.8321C97.3048 96.8321 96.5106 97.388 96.1594 98.1837C88.3535 95.5876 88.7069 80.0637 88.712 79.8943C88.7208 79.5907 88.4822 79.3373 88.1787 79.3285C87.8807 79.3171 87.6223 79.5584 87.6128 79.862C87.5912 80.5979 87.2272 96.6755 95.9762 99.2914C96.0748 100.452 97.0457 101.363 98.2307 101.363C99.3497 101.363 100.277 100.55 100.46 99.4828C109.874 97.7917 114.61 83.986 114.822 83.3553C114.918 83.0668 114.763 82.7551 114.475 82.6586Z" fill="#EFC53D"/>
<path d="M150.97 69.5763C153.118 68.9797 156.628 72.4173 156.783 74.5469C156.721 76.4815 153.001 80.8427 150.577 79.4655C148.234 78.1337 144.599 74.6397 147.918 71.949C148.989 70.9 149.591 70.0035 150.97 69.5763ZM157.175 63.4678C160.07 60.0831 163.15 62.5156 166.43 63.2152C169.553 63.5038 171.481 59.4242 168.777 57.3341C166.043 54.4979 164.979 56.4798 162.341 56.9605C159.374 56.8376 157.138 50.1642 160.543 49.3626C167.649 45.0615 177.839 51.5927 177.638 59.6907C178.086 67.6358 169.224 73.0978 162.603 69.2884C161.047 71.3271 159.128 70.5153 157.527 68.7744C155.542 67.1119 155.12 65.1483 157.175 63.4678Z" fill="white"/>
<path d="M50.0382 45.9416C49.9297 48.1695 45.5651 50.4231 43.4949 49.9013C41.6781 49.2354 38.7081 44.3322 40.7764 42.4626C42.7758 40.6559 47.2335 38.3012 48.7447 42.2979C49.4041 43.6451 50.066 44.4983 50.0382 45.9416ZM53.8856 53.7543C56.1884 57.5666 52.9124 59.7285 51.2184 62.6242C49.9637 65.4992 53.2295 68.6123 56.0624 66.7001C59.6129 64.994 58.0662 63.3615 58.4385 60.7046C59.0297 58.3102 65.0411 58.1214 65.7866 59.928C69.1733 68.3157 59.213 77.3487 51.0424 74.3757C43.3615 72.3058 40.9619 62.1735 46.6566 57.0815C45.211 54.9629 46.584 53.3953 48.7388 52.4218C50.9409 51.0585 52.9366 51.2748 53.8856 53.7543Z" fill="white"/>
</svg>
