<svg width="380" height="337" viewBox="0 0 380 337" fill="none" xmlns="http://www.w3.org/2000/svg">
<path d="M37.9999 84.5C137 112 -75.9999 252.5 52.9998 295.5" stroke="#D9DDF5" stroke-width="2" stroke-dasharray="4 4"/>
<path d="M59.7016 296.294C68.0995 304.692 68.0995 318.309 59.7016 326.706C51.309 335.099 37.6922 335.099 29.2945 326.701C20.9019 318.308 20.9017 304.692 29.2945 296.299C37.6922 287.901 51.309 287.901 59.7016 296.294Z" fill="#5C75C9"/>
<path d="M44.5096 337C37.9761 337 31.4424 334.512 26.4676 329.536C21.6522 324.72 19 318.315 19 311.5C19 304.685 21.6522 298.28 26.4676 293.464C36.4142 283.515 52.5957 283.511 62.5401 293.457C72.4866 303.406 72.4866 319.594 62.5401 329.543C57.5694 334.515 51.0397 337 44.5096 337ZM44.5096 287.108C38.2593 287.108 32.0106 289.488 27.2515 294.248C22.6456 298.855 20.1088 304.982 20.1088 311.5C20.1088 318.019 22.6456 324.146 27.2515 328.753C36.7644 338.269 52.2436 338.272 61.7566 328.759C71.2706 319.242 71.2706 303.758 61.7566 294.241C57.002 289.487 50.7551 287.108 44.5096 287.108Z" fill="#DDDDDD"/>
<path d="M34.2442 317H32C31.9996 312.199 33.8738 307.681 37.2774 304.278C40.681 300.874 45.1994 299 50 299V301.244C45.7986 301.244 41.844 302.885 38.8646 305.865C35.8852 308.844 34.2442 312.799 34.2442 317Z" fill="white"/>
<path d="M38.3253 317H36C36.0012 309.28 42.2808 303 50 303V305.325C43.5634 305.325 38.3253 310.562 38.3253 317Z" fill="white"/>
<path d="M49.7072 310.164C46.0992 310.165 43.1661 313.098 43.1657 316.702H41C41 314.381 41.9063 312.197 43.5532 310.551C45.1994 308.906 47.385 308 49.7072 308V310.164ZM52.0301 314.377C53.3165 315.663 53.3267 317.755 52.0401 319.041C50.7538 320.326 48.6606 320.316 47.3742 319.031C46.0877 317.745 46.0878 315.663 47.374 314.378C48.6606 313.092 50.7437 313.092 52.0301 314.377Z" fill="white"/>
<path d="M248.762 28.5569V285.443C248.762 300.66 244.552 313 229.317 313H113.149C97.9136 313 85.5591 300.66 85.5591 285.443V28.5569C85.5591 13.3399 97.9136 1 113.149 1H229.317C244.552 1 248.762 13.3399 248.762 28.5569Z" fill="#5C75C9"/>
<path d="M262.592 28.5569V285.443C262.592 300.66 250.238 313 235.003 313H126.979C111.744 313 99.3892 300.66 99.3892 285.443V28.5569C99.3892 13.3399 111.744 1 126.979 1H235.003C250.238 1 262.592 13.3399 262.592 28.5569Z" fill="#BEC8E9"/>
<path d="M262.592 98.902V28.5569C262.592 13.3399 250.238 1 235.002 1H198.829" stroke="#231826" stroke-width="0.49" stroke-miterlimit="10" stroke-linecap="round" stroke-linejoin="round" stroke-dasharray="3.92 3.92"/>
<path d="M257.385 28.5562V285.442C257.385 297.79 247.364 307.8 235.001 307.8H126.98C114.617 307.8 104.595 297.79 104.595 285.442V28.5562C104.595 16.2085 114.617 6.19873 126.98 6.19873H135.254C136.624 6.19874 137.968 6.57344 139.14 7.28219C140.312 7.99095 141.268 9.0067 141.903 10.2193L146.333 18.6776C146.968 19.8902 147.923 20.906 149.095 21.6148C150.267 22.3235 151.611 22.6982 152.981 22.6982H209.009C210.377 22.6982 211.719 22.3246 212.89 21.6179C214.061 20.9112 215.016 19.8983 215.652 18.6886L220.111 10.2083C220.747 8.99865 221.702 7.98569 222.873 7.27899C224.044 6.57229 225.386 6.19874 226.754 6.19873H235.002C247.364 6.19873 257.385 16.2085 257.385 28.5562Z" fill="white"/>
<path d="M130.024 33.8906H231.955V49.294H130.024V33.8906Z" fill="#E5E9F6"/>
<path d="M216.627 33.8906H231.955V49.294H216.627V33.8906Z" fill="#BEC8E9"/>
<path d="M236.57 33.8906H250.018V37.1232H236.57V33.8906ZM236.57 39.976H250.018V43.2086H236.57V39.976ZM236.57 46.0616H250.018V49.2942H236.57V46.0616ZM125.839 42.7741V49.3268H122.198V43.1887H117.56V49.3268H113.919V42.7741L119.883 37.0506L125.839 42.7741Z" fill="#E5E9F6"/>
<path d="M127.798 41.4657L126.793 42.513L119.876 35.8729L112.966 42.513L111.961 41.4657L119.876 33.8584L127.798 41.4657Z" fill="#E5E9F6"/>
<path d="M227.291 37.6968C225.391 35.7993 222.298 35.801 220.395 37.7014C218.493 39.6018 218.491 42.6916 220.391 44.589C222.06 46.2563 224.647 46.4597 226.542 45.2009L228.354 47.0105L229.715 45.6502L227.904 43.8406C229.164 41.9484 228.96 39.364 227.291 37.6968ZM225.929 43.2284C224.777 44.3787 222.904 44.3787 221.752 43.2286C220.603 42.0809 220.605 40.2117 221.757 39.0616C222.909 37.9113 224.78 37.9093 225.929 39.057C227.081 40.2069 227.081 42.0783 225.929 43.2284Z" fill="white"/>
<path d="M95.1769 55.9052V81.6595C95.1769 83.2887 93.8582 84.606 92.2618 84.606C90.6307 84.606 89.3118 83.2889 89.3118 81.6595V55.9052C89.3118 54.2762 90.6305 52.959 92.2618 52.959C93.858 52.959 95.1769 54.2762 95.1769 55.9052Z" fill="#BEC8E9"/>
<path d="M200.847 12.9635H161.134C159.503 12.9635 158.184 11.6463 158.184 10.052C158.184 8.42281 159.503 7.10547 161.134 7.10547H200.847C202.478 7.10547 203.797 8.42263 203.797 10.052C203.797 11.6463 202.478 12.9635 200.847 12.9635Z" fill="#5C75C9"/>
<path d="M350.106 6.56628C350.433 6.80833 350.659 7.15042 350.879 7.49047L352.273 9.64182C351.968 9.14566 352.524 8.46628 353.101 8.51232C353.683 8.56076 354.135 9.02909 354.498 9.48182C356.72 12.2416 357.966 15.766 357.973 19.3054C357.974 20.8747 357.746 22.4922 357.83 24.0551C357.871 24.9167 358.011 25.7652 358.331 26.5719L350.27 28.9818C350.098 28.7563 349.918 28.5341 349.746 28.3084C347.801 25.8168 345.869 23.3241 343.931 20.8292C343.561 20.3603 343.181 19.7182 343.485 19.2067C343.826 18.6363 344.676 18.7599 345.293 19.0051C346.805 19.6107 348.171 20.5302 349.301 21.7027C348.429 17.6139 347.06 13.512 345.005 9.86661C344.767 9.4382 344.512 9.00273 344.439 8.51975C344.36 8.03453 344.503 7.48453 344.916 7.22021C345.211 7.02939 345.63 7.06503 345.888 7.27868C345.715 7.00545 345.553 6.68915 345.501 6.40404C345.42 6.00588 345.542 5.54183 345.892 5.333C346.338 5.06905 346.908 5.315 347.314 5.62944C347.794 6.001 348.196 6.46387 348.497 6.99134C348.548 6.74874 348.748 6.49221 348.968 6.38566C349.335 6.21768 349.784 6.32683 350.106 6.56628Z" fill="#FDB6B4"/>
<path d="M357.831 24.055C357.871 24.9166 358.011 25.7651 358.331 26.5718L350.27 28.9817C350.098 28.7562 349.918 28.534 349.746 28.3083C350.525 26.9018 352.733 25.6931 353.772 25.137C355.018 24.4758 356.427 24.0433 357.831 24.055ZM350.694 17.5551C350.646 17.555 350.598 17.5377 350.561 17.5061C350.524 17.4744 350.499 17.4307 350.491 17.3825C349.892 13.769 348.196 10.2943 345.714 7.59838C345.676 7.558 345.657 7.50457 345.659 7.44981C345.661 7.39505 345.685 7.34342 345.726 7.30622C345.766 7.26949 345.82 7.25017 345.874 7.25243C345.929 7.25469 345.981 7.27833 346.018 7.31828C348.554 10.0731 350.287 13.6229 350.899 17.3145C350.904 17.3441 350.902 17.3745 350.894 17.4034C350.886 17.4324 350.872 17.4593 350.852 17.4822C350.833 17.5051 350.809 17.5235 350.782 17.5361C350.754 17.5487 350.725 17.5551 350.694 17.5551ZM352.333 16.2602C352.289 16.2602 352.245 16.2458 352.209 16.219C352.173 16.1922 352.147 16.1546 352.135 16.1117C351.23 13.0376 349.668 8.86488 348.244 7.22269C348.208 7.18126 348.19 7.12729 348.194 7.07263C348.198 7.01798 348.223 6.96713 348.265 6.93126C348.306 6.8954 348.36 6.87746 348.415 6.88139C348.47 6.88533 348.521 6.91081 348.557 6.95224C350.449 9.13402 352.2 14.868 352.532 15.9955C352.541 16.0263 352.543 16.0588 352.537 16.0904C352.531 16.1221 352.518 16.1519 352.499 16.1777C352.48 16.2034 352.455 16.2242 352.426 16.2386C352.397 16.2529 352.365 16.2603 352.333 16.2602ZM353.98 14.6789C353.929 14.6788 353.881 14.6601 353.843 14.6264C353.805 14.5927 353.781 14.5463 353.775 14.496C353.576 12.8034 352.983 11.1809 352.043 9.75882C352.015 9.71314 352.005 9.65839 352.017 9.6061C352.029 9.55381 352.06 9.50805 352.105 9.47846C352.149 9.44888 352.204 9.43777 352.257 9.44748C352.309 9.45719 352.356 9.48695 352.387 9.53051C353.363 11.0071 353.979 12.6914 354.186 14.4485C354.189 14.4775 354.186 14.5068 354.178 14.5346C354.169 14.5624 354.154 14.588 354.135 14.6098C354.115 14.6315 354.091 14.6489 354.065 14.6608C354.038 14.6727 354.009 14.6789 353.98 14.6789Z" fill="#F7888A"/>
<path d="M228.16 250.331C228.261 250.317 228.334 250.225 228.323 250.123C228.318 250.073 228.293 250.027 228.253 249.995C228.214 249.963 228.164 249.948 228.114 249.953C223.29 250.462 218.241 249.165 214.263 246.394C214.243 246.38 214.22 246.369 214.195 246.364C214.171 246.358 214.146 246.358 214.121 246.362C214.096 246.367 214.073 246.376 214.052 246.389C214.031 246.403 214.013 246.42 213.999 246.441C213.984 246.461 213.974 246.484 213.969 246.509C213.963 246.533 213.963 246.558 213.967 246.583C213.971 246.608 213.981 246.631 213.994 246.652C214.008 246.673 214.025 246.691 214.046 246.705C218.098 249.528 223.24 250.85 228.154 250.332C228.156 250.331 228.158 250.331 228.16 250.331Z" fill="#453447"/>
<path d="M175.88 150.929L134.297 132.239L134.357 122.531L175.94 141.22L175.88 150.929Z" fill="#D03C4B"/>
<path d="M175.94 141.219L134.356 122.53L188.302 110.076L229.885 128.765L175.94 141.219Z" fill="#CF6161"/>
<path d="M229.885 128.767L229.825 138.475L175.879 150.93L175.939 141.221L229.885 128.767Z" fill="#E55D5D"/>
<path d="M197.774 136.185V145.88L207.304 143.68L207.276 133.991L197.774 136.185Z" fill="#FFEB76"/>
<path d="M197.774 136.186L156.675 117.385L165.798 115.279L207.276 133.992L197.774 136.186Z" fill="#FFE45F"/>
<path d="M150.83 129.932V139.667L158.234 142.995L158.659 133.45L150.83 129.932Z" fill="#FFD05E"/>
<path d="M150.83 129.929L203.84 117.064L210.602 120.103L158.659 133.447L150.83 129.929Z" fill="#FFE45F"/>
<path d="M184.142 123.928L180.716 122.459C182.906 117.355 190.625 108.737 204.169 112.651C212.856 115.162 218.333 114.259 223.073 109.533L222.409 114.279L227.431 113.905C221.033 120.283 213.331 121.725 202.455 118.582C190.704 115.185 184.312 123.53 184.142 123.928Z" fill="#FFDB45"/>
<path d="M177.63 125.658L181.55 124.407C179.817 119.13 172.886 109.867 159.05 112.576C150.176 114.313 144.8 112.932 140.493 107.808L141.879 112.143L135.767 111.779C141.58 118.695 149.125 120.809 160.235 118.633C172.24 116.283 177.495 125.246 177.63 125.658Z" fill="#FFDB45"/>
<path d="M178.643 121.689C178.654 121.739 178.66 121.768 178.66 121.768C167 122.377 160.168 115.829 161.582 110.905C160.478 108.932 158.108 103.396 163.464 99.4365C162.737 99.6402 161.982 99.9151 161.195 100.273C146.97 106.757 157.964 125.468 181.239 124.224C181.239 124.224 181.236 124.177 181.228 124.095L178.643 121.689Z" fill="#FFD05E"/>
<path d="M161.582 110.905C162.05 109.276 163.42 107.824 165.818 106.869C174.551 103.39 178.369 120.405 178.643 121.689L181.228 124.096C181.04 122.044 178.308 95.284 163.464 99.4371C158.108 103.396 160.478 108.932 161.582 110.905Z" fill="#FFD05E"/>
<path d="M200.761 100.274C197.301 98.6976 194.428 98.6873 192.041 99.6791C196.33 101.391 205.468 106.387 199.783 115.31C199.513 115.789 199.183 116.26 198.79 116.717C198.785 116.722 198.782 116.727 198.778 116.732C198.783 116.727 198.786 116.722 198.79 116.717C196.164 119.76 190.85 122.147 183.602 121.769C183.602 121.769 183.608 121.733 183.621 121.668L180.741 123.957C180.724 124.131 180.717 124.226 180.717 124.226C203.992 125.469 214.986 106.758 200.761 100.274Z" fill="#FFD05E"/>
<path d="M196.138 106.869C200.603 108.647 201.568 112.145 199.783 115.309C205.467 106.387 196.329 101.39 192.041 99.6782C183.017 103.427 180.974 121.544 180.741 123.956L183.621 121.668C183.908 120.226 187.451 103.409 196.138 106.869Z" fill="#FFD05E"/>
<path d="M185.383 123.395C185.383 125.647 181.849 126.923 179.596 126.923C177.344 126.923 176.4 125.097 176.4 122.844C176.4 120.592 178.896 119.124 181.149 119.124C183.401 119.124 185.383 121.143 185.383 123.395Z" fill="#FFD05E"/>
<path d="M177.242 125.846C176.715 125.334 176.347 124.677 176.125 123.957C175.907 123.241 175.857 122.413 176.137 121.644C176.413 120.885 176.99 120.223 177.681 119.892C177.842 119.785 178.017 119.715 178.197 119.658L178.727 119.484C179.093 119.422 179.458 119.378 179.819 119.368C179.51 119.578 179.199 119.737 178.901 119.909L178.483 120.201C178.343 120.294 178.2 120.377 178.089 120.498C177.97 120.609 177.852 120.715 177.728 120.813L177.437 121.173C177.326 121.281 177.28 121.429 177.199 121.554C177.164 121.62 177.116 121.679 177.09 121.748L177.017 121.96C176.815 122.519 176.772 123.153 176.837 123.811C176.908 124.469 177.053 125.144 177.242 125.846Z" fill="white"/>
<path d="M183.346 119.794C183.885 119.961 184.347 120.282 184.754 120.668C185.153 121.061 185.496 121.541 185.689 122.111C185.882 122.679 185.887 123.34 185.667 123.904C185.466 124.483 185.01 124.895 184.538 125.168C184.721 124.632 184.935 124.186 184.954 123.719C184.997 123.266 184.94 122.84 184.801 122.409C184.505 121.543 183.932 120.729 183.346 119.794Z" fill="white"/>
<path d="M210.02 118.141C211.118 118.124 212.191 118.088 213.258 118.022C214.323 117.947 215.379 117.846 216.42 117.674L217.201 117.542L217.972 117.369C218.233 117.324 218.485 117.252 218.738 117.178C218.988 117.098 219.252 117.052 219.499 116.961C220.514 116.652 221.474 116.215 222.476 115.748C221.708 116.529 220.781 117.187 219.763 117.642C218.747 118.1 217.667 118.422 216.57 118.598C215.47 118.76 214.36 118.825 213.257 118.751C212.158 118.679 211.061 118.508 210.02 118.141Z" fill="white"/>
<path d="M142.854 114.973C144.753 115.604 146.59 116.2 148.472 116.605L149.177 116.752C149.413 116.799 149.651 116.821 149.887 116.864C150.359 116.961 150.837 116.98 151.315 117.043C152.276 117.129 153.234 117.106 154.244 117.071C153.331 117.485 152.322 117.725 151.306 117.774C150.289 117.822 149.267 117.731 148.275 117.52C147.288 117.292 146.322 116.982 145.41 116.556C144.498 116.134 143.62 115.629 142.854 114.973Z" fill="white"/>
<path d="M189.296 103.911C189.816 102.886 190.679 102.04 191.676 101.424C192.674 100.795 193.832 100.43 195.006 100.288C196.187 100.192 197.371 100.309 198.488 100.63C199.049 100.777 199.575 101.027 200.108 101.232C200.616 101.504 201.115 101.784 201.592 102.092C201.028 101.973 200.491 101.811 199.955 101.665L199.138 101.5C198.866 101.453 198.605 101.36 198.329 101.344C197.783 101.292 197.251 101.172 196.709 101.188C196.17 101.137 195.636 101.188 195.102 101.219C194.041 101.333 193.005 101.616 192.024 102.064C191.045 102.516 190.122 103.127 189.296 103.911Z" fill="white"/>
<path d="M156.173 107.33C156.36 106.099 156.99 104.952 157.798 103.984C158.608 103.005 159.647 102.232 160.762 101.634C161.888 101.047 163.109 100.69 164.337 100.472C164.952 100.366 165.578 100.344 166.193 100.292C166.814 100.307 167.433 100.326 168.045 100.385C167.44 100.534 166.841 100.638 166.246 100.749C165.66 100.906 165.071 101.025 164.496 101.186C163.932 101.389 163.345 101.501 162.807 101.752C162.534 101.867 162.25 101.952 161.983 102.076L161.193 102.465C160.153 103.004 159.185 103.673 158.33 104.48C157.482 105.295 156.728 106.23 156.173 107.33Z" fill="white"/>
<path d="M194.607 130.146C195.497 130.4 196.369 130.694 197.232 131.008C198.098 131.317 198.955 131.645 199.804 131.991C200.656 132.33 201.497 132.694 202.338 133.058C203.176 133.43 204.012 133.804 204.839 134.2L205.105 134.328L205.097 134.594C205.081 135.105 205.076 135.616 205.05 136.127C205.023 136.638 205.009 137.149 204.971 137.66C204.909 138.682 204.823 139.704 204.689 140.727C204.546 139.706 204.453 138.684 204.382 137.663C204.34 137.152 204.322 136.641 204.292 136.13C204.262 135.62 204.253 135.109 204.232 134.598L204.49 134.992C203.64 134.646 202.801 134.278 201.962 133.909C201.128 133.531 200.292 133.154 199.469 132.75C198.642 132.355 197.822 131.941 197.012 131.509C196.198 131.08 195.394 130.632 194.607 130.146Z" fill="white"/>
<path opacity="0.5" d="M181.196 271.738C218.308 271.738 248.393 263.666 248.393 253.709C248.393 243.753 218.308 235.681 181.196 235.681C144.085 235.681 114 243.753 114 253.709C114 263.666 144.085 271.738 181.196 271.738Z" fill="#BEC8E9"/>
<path d="M175.647 266.844L137.963 249.907L138.312 193.185L175.997 210.122L175.647 266.844Z" fill="#D03C4B"/>
<path d="M224.431 198.939L224.082 255.661L175.647 266.843L175.996 210.121L224.431 198.939Z" fill="#E55D5D"/>
<path d="M138.311 193.181L175.996 210.119L187.353 207.497L186.597 182.034L138.311 193.181Z" fill="#E55D5D"/>
<path d="M186.747 182L186.597 182.034L187.353 207.497L224.431 198.937L186.747 182Z" fill="#D03C4B"/>
<path d="M195.423 205.635V262.276L205.523 259.945V203.303L195.423 205.635Z" fill="#FFD05E"/>
<path d="M152.384 199.509V256.388L160.39 259.986L160.824 203.302L152.384 199.509Z" fill="#FFD05E"/>
<path d="M204.068 203.639L203.453 203.781C203.442 204.08 203.43 204.38 203.42 204.68C203.35 206.696 203.331 208.712 203.322 210.728C203.33 212.744 203.349 214.76 203.419 216.776C203.483 218.792 203.579 220.808 203.763 222.824C203.946 220.808 204.042 218.792 204.107 216.776C204.177 214.76 204.196 212.744 204.204 210.728C204.195 208.712 204.176 206.696 204.106 204.68C204.095 204.333 204.081 203.986 204.068 203.639Z" fill="white"/>
<path d="M230.607 143.943L228.701 142.158C228.822 141.925 231.718 136.448 236.943 136.069L237.068 139.188C232.964 139.485 230.63 143.898 230.607 143.943Z" fill="#FFE45F"/>
<path d="M239.807 152.648L238.913 151.21C239.082 151.019 243.113 146.587 248 149.88L247.376 151.555C243.321 148.821 239.948 152.491 239.807 152.648Z" fill="#FFE45F"/>
<path d="M216.18 150.973L214.818 150.572C214.851 150.367 215.673 145.532 219.469 144.522L219.739 146.36C216.856 147.128 216.206 150.817 216.18 150.973Z" fill="#FFE45F"/>
<path d="M233.14 169.285L231.442 167.154C231.597 166.931 235.296 161.72 240.646 164.178L239.895 167.133C235.954 165.322 233.167 169.246 233.14 169.285Z" fill="#FFE45F"/>
<path d="M220.834 186.98L219.687 185.916C219.776 185.741 221.927 181.647 225.802 182.604L225.55 184.447C222.55 183.703 220.851 186.947 220.834 186.98Z" fill="#FFE45F"/>
<path d="M200.805 203.125L199.476 202.561C199.513 202.403 200.411 198.696 203.448 198.213L203.612 200.074C201.485 200.412 200.832 203.015 200.805 203.125Z" fill="#FFE45F"/>
<path d="M187.216 210L185.823 209.929C185.827 209.764 185.961 205.871 188.793 204.32L189.318 206.056C187.336 207.141 187.22 209.884 187.216 210Z" fill="#FFE45F"/>
<path d="M187.216 191.334L185.823 191.269C185.827 191.104 185.961 187.209 188.793 185.659L189.318 187.395C187.313 188.492 187.217 191.306 187.216 191.334Z" fill="#FFE45F"/>
<path d="M189.219 154.348L187.826 154.283C187.83 154.118 187.964 150.224 190.796 148.674L191.321 150.409C189.316 151.507 189.22 154.32 189.219 154.348Z" fill="#FFE45F"/>
<path d="M203.609 191.884L201.307 191.465C201.33 191.239 201.912 185.889 205.974 184.275L206.633 187.27C203.997 188.317 203.613 191.848 203.609 191.884Z" fill="#FFE45F"/>
<path d="M200.603 152.694L199.222 152.44C199.243 152.23 199.783 147.267 203.56 145.766L203.955 147.563C201.059 148.713 200.62 152.533 200.603 152.694Z" fill="#FFE45F"/>
<path d="M213.854 196.176L212.708 195.108C212.797 194.934 214.954 190.834 218.824 191.799L218.571 193.641C215.598 192.907 213.923 196.042 213.854 196.176Z" fill="#FFE45F"/>
<path d="M240.923 185.368C238.763 179.966 234.312 180.403 234.265 180.412L234.148 178.544C234.365 178.522 239.561 178.006 242.151 184.48L240.923 185.368Z" fill="#FFE45F"/>
<path d="M235.133 199.946C234.478 194.342 230.575 192.871 230.409 192.811L230.996 189.79C231.222 189.868 236.532 191.8 237.428 199.46L235.133 199.946Z" fill="#FFE45F"/>
<path d="M131.093 143.879C131.069 143.834 128.697 139.414 124.629 139.119L124.754 136C129.979 136.379 132.876 141.856 132.996 142.089L131.093 143.879Z" fill="#FFE45F"/>
<path d="M109.959 165.683L109 164.322C111.62 160.989 115.028 161.639 115.173 161.669L114.966 163.523C114.938 163.516 112.073 162.992 109.959 165.683Z" fill="#FFE45F"/>
<path d="M156.827 199.074C156.821 199.04 156.189 195.687 153.839 194.237L154.421 192.533C157.403 194.374 158.152 198.466 158.183 198.639L156.827 199.074Z" fill="#FFE45F"/>
<path d="M166.346 199.554L165.205 198.478C165.219 198.45 166.665 195.59 165.913 192.264L167.246 191.718C168.201 195.939 166.422 199.408 166.346 199.554Z" fill="#FFE45F"/>
<path d="M151.235 153.039C151.231 153.004 150.845 149.586 148.61 147.836L149.311 146.217C152.147 148.437 152.598 152.607 152.616 152.784L151.235 153.039Z" fill="#FFE45F"/>
<path d="M158.748 145.803L157.461 145.083C157.467 145.061 158.107 142.895 157.258 140.861L158.473 139.944C159.663 142.791 158.785 145.682 158.748 145.803Z" fill="#FFE45F"/>
<path d="M166.329 153.684L164.936 153.625L165.633 153.654L164.936 153.629C164.936 153.603 164.963 150.944 163.439 149.24L164.33 147.799C166.388 150.1 166.333 153.539 166.329 153.684Z" fill="#FFE45F"/>
<path d="M179.493 204.115L177.205 203.572L178.349 203.844L177.205 203.582C177.208 203.55 177.57 200.417 175.996 198.072L177.721 195.979C180.069 199.48 179.518 203.927 179.493 204.115Z" fill="#FFE45F"/>
<path d="M124.894 152.648C124.753 152.491 121.381 148.822 117.325 151.555L116.7 149.879C121.587 146.585 125.618 151.019 125.787 151.209L124.893 152.646L125.34 151.928L124.894 152.648Z" fill="#FFE45F"/>
<path d="M133.737 171.449C133.603 171.315 130.426 168.203 126.804 170.856L125.693 168.114C130.657 164.477 134.958 168.773 135.138 168.958L133.737 171.449Z" fill="#FFE45F"/>
<path d="M157.733 188.878C157.679 188.666 156.366 183.685 152.263 183.123L152.498 180.016C158.122 180.786 159.865 187.599 159.936 187.888L157.733 188.878Z" fill="#FFE45F"/>
<path d="M122.79 184.969L121.562 184.081C124.152 177.609 129.346 178.122 129.566 178.145L129.45 180.013C129.268 179.991 124.939 179.597 122.79 184.969Z" fill="#FFE45F"/>
<path d="M143.41 184.418C143.341 184.272 141.697 180.862 138.582 181.479L138.379 179.625C142.416 178.829 144.505 183.239 144.592 183.427L143.408 184.415L144 183.921L143.41 184.418Z" fill="#FFE45F"/>
<path d="M175.617 185.793L174.224 185.761C174.225 185.636 174.221 182.68 172.141 181.403L172.72 179.698C175.645 181.494 175.62 185.618 175.617 185.793Z" fill="#FFE45F"/>
<path d="M128.58 197.45L126.285 196.966C127.18 189.304 132.491 187.372 132.717 187.293L133.305 190.315C133.138 190.374 129.235 191.846 128.58 197.45Z" fill="#FFE45F"/>
<path d="M159.187 177.161C158.359 177.161 157.631 177.077 157.002 176.908C156.373 176.724 155.829 176.494 155.369 176.218C154.909 175.927 154.526 175.605 154.219 175.252C153.928 174.899 153.69 174.547 153.506 174.194L156.312 171.595C156.419 171.825 156.557 172.055 156.726 172.285C156.91 172.515 157.125 172.73 157.37 172.929C157.615 173.128 157.891 173.289 158.198 173.412C158.505 173.535 158.857 173.596 159.256 173.596C159.777 173.596 160.191 173.481 160.498 173.251C160.805 173.021 160.958 172.707 160.958 172.308C160.958 171.879 160.789 171.534 160.452 171.273C160.115 170.997 159.693 170.752 159.187 170.537C158.681 170.322 158.137 170.1 157.554 169.87C156.971 169.625 156.427 169.318 155.921 168.95C155.415 168.582 154.993 168.114 154.656 167.547C154.319 166.98 154.15 166.259 154.15 165.385C154.15 164.618 154.288 163.944 154.564 163.361C154.84 162.763 155.223 162.265 155.714 161.866C156.205 161.467 156.787 161.168 157.462 160.969C158.137 160.77 158.88 160.67 159.693 160.67C160.475 160.67 161.15 160.762 161.717 160.946C162.3 161.115 162.79 161.329 163.189 161.59C163.588 161.851 163.91 162.134 164.155 162.441C164.416 162.748 164.607 163.024 164.73 163.269L162.062 165.638C161.755 165.193 161.41 164.848 161.027 164.603C160.659 164.358 160.23 164.235 159.739 164.235C159.356 164.235 159.034 164.319 158.773 164.488C158.528 164.641 158.405 164.894 158.405 165.247C158.405 165.646 158.574 165.96 158.911 166.19C159.264 166.42 159.693 166.635 160.199 166.834C160.705 167.018 161.257 167.217 161.855 167.432C162.468 167.647 163.028 167.938 163.534 168.306C164.04 168.659 164.462 169.126 164.799 169.709C165.152 170.276 165.328 171.012 165.328 171.917C165.328 172.76 165.182 173.512 164.891 174.171C164.6 174.815 164.178 175.359 163.626 175.804C163.089 176.249 162.445 176.586 161.694 176.816C160.943 177.046 160.107 177.161 159.187 177.161ZM171.949 160.9H175.468L181.816 177H177.469L176.434 174.171H170.753L169.741 177H165.716L171.949 160.9ZM171.926 170.974H175.284L173.605 166.328L171.926 170.974ZM187.565 173.55H192.441V177H183.425V160.9H187.565V173.55ZM194.386 160.9H203.862V164.35H198.526V166.949H202.873V170.284H198.526V173.55H204.092V177H194.386V160.9Z" fill="#2C2C35"/>
<path d="M256.596 237.806C257.371 237.696 258.123 237.326 258.586 236.778C259.297 235.938 259.482 234.694 259.047 233.683C258.612 232.672 257.581 231.95 256.481 231.887C255.387 231.823 254.256 232.391 253.525 233.366C252.741 234.414 252.555 235.668 252.538 236.534C252.538 236.585 252.557 236.634 252.592 236.67C252.627 236.706 252.675 236.727 252.725 236.729C252.75 236.729 252.775 236.725 252.799 236.716C252.822 236.707 252.843 236.693 252.862 236.676C252.88 236.659 252.894 236.638 252.904 236.615C252.914 236.592 252.919 236.567 252.92 236.542C252.935 235.731 253.106 234.561 253.83 233.594C254.485 232.719 255.493 232.211 256.46 232.267C257.419 232.322 258.318 232.951 258.697 233.833C259.077 234.715 258.916 235.8 258.295 236.533C257.695 237.244 256.479 237.621 255.53 237.391C255.429 237.366 255.325 237.428 255.299 237.531C255.288 237.58 255.296 237.631 255.322 237.675C255.348 237.718 255.39 237.749 255.439 237.761C255.808 237.85 256.205 237.861 256.596 237.806Z" fill="#AC4646"/>
<path d="M238.526 237.521C240.003 237.278 241.462 237.971 242.862 238.535C244.386 239.157 246.179 239.638 247.629 238.857C248.728 238.269 249.382 237.065 250.449 236.399C250.998 236.054 251.627 235.883 252.276 235.86L251.699 230.086C246.828 231.021 242.404 229.844 238.167 230.298L238.526 237.521Z" fill="#FDB6B4"/>
<path d="M251.838 231.606C249.57 235.179 246.008 237.357 238.41 235.184L237.984 229.844L251.568 230.925L251.838 231.606Z" fill="#F7888A"/>
<path d="M211.631 260.842C217.347 265.388 225.241 267.073 232.316 265.25C236.195 264.249 239.899 262.264 243.899 262.262C246.207 262.258 248.494 262.924 250.8 262.804C253.597 262.656 256.309 261.284 258.086 259.125C259.856 256.966 260.742 254.15 260.774 251.366C260.772 251.352 260.778 251.345 260.776 251.331C260.81 247.64 259.964 243.95 258.335 240.645C257.585 239.131 256.633 237.653 255.229 236.719C253.826 235.784 251.875 235.504 250.449 236.399C249.382 237.064 248.728 238.268 247.629 238.856C246.179 239.638 244.386 239.156 242.862 238.534C241.338 237.919 239.746 237.155 238.127 237.419C236.668 237.652 235.444 238.71 234.658 239.954C233.873 241.204 233.458 242.643 233.055 244.066C232.008 247.742 228.143 249.805 224.468 250.887C220.8 251.968 216.921 252.193 213.228 253.189C211.918 253.546 210.49 254.145 209.716 255.181C209.473 255.504 209.291 255.866 209.198 256.277C208.789 258.051 210.199 259.705 211.631 260.842Z" fill="#E55D5D"/>
<path d="M211.631 260.842C217.347 265.389 225.241 267.074 232.316 265.251C236.194 264.25 239.899 262.264 243.899 262.262C246.207 262.258 248.494 262.924 250.8 262.804C253.596 262.656 256.309 261.284 258.086 259.125C259.856 256.967 260.742 254.151 260.774 251.366C259.974 252.804 258.84 254.063 257.437 254.933C255.063 256.415 252.178 256.809 249.387 256.853C246.596 256.897 243.794 256.621 241.013 256.883C233.542 257.602 226.588 262.222 219.112 261.549C216.731 261.336 214.374 260.557 212.507 259.071C211.47 258.249 210.606 257.197 210.013 256.018C209.908 255.807 209.817 255.51 209.716 255.182C209.473 255.504 209.291 255.866 209.198 256.278C208.789 258.052 210.199 259.706 211.631 260.842Z" fill="#453447"/>
<path d="M260.585 248.107C257.514 245.137 252.747 244.588 249.171 246.489C247.37 247.408 245.863 248.884 244.972 250.718C244.084 252.551 243.665 254.659 243.884 256.769C243.312 254.72 243.479 252.442 244.324 250.424C245.147 248.379 246.794 246.691 248.753 245.68C250.715 244.662 253.035 244.329 255.183 244.771C257.339 245.176 259.325 246.392 260.585 248.107ZM236.904 246.244C235.873 245.324 234.632 244.671 233.29 244.339C233.14 244.302 232.988 244.269 232.835 244.24C231.888 244.061 230.898 244.044 229.941 244.027C229.419 244.017 228.88 244.008 228.349 243.972C226.429 243.844 225.024 243.345 224.053 242.448C222.935 241.414 222.369 239.468 223.405 238.128C223.938 237.438 224.856 237.01 225.854 236.983C226.655 236.96 227.509 237.171 228.465 237.626C230.68 238.679 232.499 240.996 233.468 243.992C234.838 244.344 236.103 245.019 237.158 245.96C237.185 245.985 237.204 246.016 237.214 246.051C237.224 246.086 237.223 246.123 237.213 246.157C237.202 246.192 237.182 246.223 237.155 246.246C237.127 246.27 237.093 246.285 237.058 246.29C237.03 246.294 237.002 246.292 236.976 246.284C236.949 246.276 236.925 246.262 236.904 246.244ZM223.707 238.359C222.831 239.494 223.312 241.245 224.311 242.168C225.216 243.004 226.545 243.47 228.375 243.592C228.896 243.627 229.431 243.636 229.948 243.646C230.921 243.664 231.927 243.681 232.906 243.867C232.949 243.874 232.991 243.883 233.033 243.892C232.089 241.137 230.337 238.937 228.302 237.969C227.402 237.541 226.604 237.342 225.864 237.362C225.738 237.366 225.613 237.376 225.491 237.394C224.754 237.498 224.104 237.846 223.707 238.359Z" fill="#453447"/>
<path d="M224.693 247.388C225.27 247.876 225.995 248.111 226.684 248.306C227.478 248.531 228.281 248.725 229.09 248.888C230.971 249.274 232.883 249.49 234.803 249.532L234.833 249.528C234.924 249.515 234.997 249.436 234.999 249.343C234.999 249.236 234.918 249.147 234.81 249.147C233.038 249.111 231.273 248.926 229.532 248.594C228.611 248.418 227.697 248.201 226.795 247.944C226.137 247.753 225.461 247.541 224.937 247.1C224.491 246.718 224.111 246.049 224.282 245.411C224.518 244.525 225.612 244.209 225.941 244.139C227.088 243.877 228.331 244.078 229.346 244.672C230.303 245.236 231.003 246.051 231.352 247.047C231.452 246.942 231.547 246.831 231.635 246.715C231.234 245.727 230.519 244.914 229.538 244.345C228.44 243.702 227.11 243.49 225.857 243.767C224.836 243.996 224.11 244.575 223.914 245.309C223.722 246.012 224.03 246.829 224.693 247.388Z" fill="#453447"/>
<path d="M243.217 243.336C243.193 243.336 243.17 243.335 243.146 243.334C242.885 243.314 242.622 243.178 242.425 242.962C242.152 242.662 242.032 242.238 242.113 241.854C242.199 241.451 242.5 241.112 242.881 240.99C243.247 240.873 243.598 240.956 243.87 241.225C244.21 241.561 244.347 242.118 244.205 242.58C244.068 243.022 243.651 243.336 243.217 243.336ZM243.199 241.212C243.127 241.212 243.049 241.223 242.964 241.25C242.68 241.341 242.445 241.607 242.381 241.91C242.318 242.209 242.412 242.542 242.627 242.778C242.778 242.943 242.975 243.046 243.167 243.061C243.495 243.094 243.838 242.841 243.943 242.499C244.055 242.136 243.944 241.682 243.677 241.419C243.574 241.316 243.415 241.212 243.199 241.212ZM258.641 250.594C258.439 249.689 257.858 248.894 257.096 248.402C256.719 248.162 256.285 247.955 255.854 247.917C255.64 247.902 255.433 247.972 255.33 248.141C255.222 248.301 255.224 248.526 255.253 248.746C255.28 248.969 255.33 249.196 255.351 249.437C255.374 249.672 255.351 249.956 255.176 250.177C255.007 250.406 254.702 250.482 254.451 250.454C254.195 250.43 253.946 250.314 253.758 250.156C253.374 249.84 253.133 249.441 252.772 249.193C252.418 248.937 251.989 248.771 251.562 248.787C250.713 248.751 249.94 249.791 250.473 250.532C250.585 250.72 250.732 250.901 250.855 251.112C250.985 251.314 251.059 251.597 251.021 251.85C250.999 252.097 250.832 252.406 250.521 252.452C250.218 252.491 250.003 252.319 249.806 252.247C249.002 251.911 247.936 252.324 247.578 253.144C247.212 253.96 247.605 255.062 248.453 255.46C247.588 255.103 247.104 254.002 247.455 253.093C247.824 252.189 248.952 251.701 249.884 252.052C250.111 252.139 250.31 252.262 250.483 252.226C250.654 252.2 250.765 252.022 250.786 251.82C250.857 251.397 250.513 251.069 250.26 250.659C249.966 250.252 249.982 249.625 250.28 249.219C250.554 248.801 251.049 248.515 251.554 248.514C252.059 248.501 252.537 248.697 252.926 248.983C253.33 249.271 253.581 249.691 253.915 249.963C254.217 250.236 254.753 250.335 254.992 250.029C255.235 249.722 255.084 249.225 255.045 248.768C255.023 248.537 255.014 248.264 255.173 248.033C255.324 247.8 255.624 247.717 255.865 247.745C256.358 247.805 256.781 248.028 257.171 248.292C257.936 248.84 258.483 249.68 258.641 250.594ZM227.566 253.829C227.369 253.567 227.166 253.302 226.904 253.112C226.647 252.916 226.316 252.835 226.019 252.932C225.713 253.012 225.51 253.277 225.564 253.59C225.575 253.746 225.614 253.909 225.604 254.094C225.6 254.278 225.487 254.491 225.291 254.571C224.894 254.71 224.541 254.512 224.267 254.33C223.99 254.145 223.731 253.948 223.45 253.81C223.17 253.669 222.871 253.607 222.581 253.683C222.293 253.747 222.057 253.948 222.029 254.223C222.005 254.365 222.02 254.54 221.963 254.729C221.906 254.915 221.79 255.077 221.631 255.19C221.322 255.409 220.947 255.463 220.595 255.414C219.884 255.284 219.373 254.812 218.777 254.614C217.579 254.212 216.096 254.694 215.377 255.805C216.009 254.636 217.523 254.015 218.841 254.414C219.503 254.607 220.023 255.078 220.631 255.168C220.926 255.208 221.248 255.149 221.475 254.98C221.725 254.805 221.738 254.553 221.758 254.184C221.803 253.784 222.172 253.493 222.521 253.429C222.877 253.339 223.259 253.428 223.561 253.588C223.87 253.745 224.133 253.953 224.399 254.135C224.648 254.313 224.964 254.461 225.21 254.378C225.473 254.285 225.422 253.933 225.392 253.6C225.38 253.431 225.413 253.229 225.532 253.082C225.648 252.935 225.814 252.845 225.984 252.804C226.33 252.715 226.695 252.839 226.945 253.06C227.203 253.276 227.387 253.555 227.566 253.829Z" fill="white"/>
<path d="M275.698 297.418C275.8 297.408 275.876 297.319 275.87 297.217C275.866 297.167 275.843 297.12 275.805 297.086C275.767 297.053 275.718 297.036 275.668 297.039C270.827 297.346 265.837 295.838 261.979 292.903C261.959 292.887 261.936 292.876 261.912 292.87C261.888 292.863 261.863 292.862 261.838 292.865C261.813 292.868 261.79 292.877 261.768 292.889C261.747 292.902 261.728 292.919 261.713 292.939C261.697 292.958 261.686 292.981 261.68 293.005C261.673 293.029 261.672 293.054 261.675 293.079C261.679 293.104 261.687 293.128 261.699 293.149C261.712 293.171 261.729 293.189 261.749 293.204C265.678 296.195 270.761 297.731 275.692 297.419L275.698 297.418Z" fill="#453447"/>
<path d="M304.636 286.096C305.414 286.019 306.181 285.68 306.667 285.152C307.412 284.342 307.65 283.107 307.257 282.079C306.865 281.05 305.865 280.286 304.769 280.177C303.679 280.067 302.525 280.588 301.754 281.531C300.926 282.545 300.688 283.79 300.635 284.655C300.632 284.705 300.649 284.755 300.682 284.793C300.716 284.83 300.763 284.854 300.813 284.857C300.838 284.859 300.863 284.855 300.887 284.847C300.911 284.839 300.933 284.827 300.951 284.81C300.97 284.794 300.986 284.773 300.997 284.751C301.007 284.728 301.014 284.704 301.015 284.679C301.065 283.869 301.285 282.708 302.048 281.772C302.74 280.925 303.768 280.459 304.732 280.555C305.688 280.651 306.559 281.317 306.901 282.214C307.243 283.111 307.037 284.188 306.387 284.895C305.756 285.58 304.526 285.905 303.587 285.636C303.539 285.622 303.487 285.628 303.442 285.653C303.398 285.677 303.365 285.718 303.351 285.766C303.337 285.815 303.343 285.867 303.368 285.911C303.392 285.955 303.433 285.988 303.481 286.002C303.846 286.106 304.242 286.134 304.636 286.096Z" fill="#AC4646"/>
<path d="M286.594 285.053C288.079 284.872 289.508 285.625 290.882 286.248C292.379 286.933 294.151 287.489 295.632 286.769C296.754 286.228 297.458 285.052 298.552 284.432C299.116 284.11 299.751 283.965 300.401 283.969L300.067 278.176C295.161 278.907 290.79 277.545 286.538 277.821L286.594 285.053Z" fill="#FDB6B4"/>
<path d="M300.142 279.701C296.626 284.07 292.04 284.86 286.575 282.714L286.374 277.36L299.9 279.01L300.142 279.701Z" fill="#F7888A"/>
<path d="M258.743 307.228C264.262 312.01 272.079 314.024 279.224 312.499C283.141 311.662 286.926 309.833 290.922 309.998C293.229 310.092 295.486 310.852 297.795 310.829C300.595 310.798 303.363 309.541 305.229 307.459C307.088 305.376 308.091 302.6 308.24 299.819C308.239 299.806 308.245 299.798 308.244 299.785C308.433 296.098 307.743 292.376 306.253 289.006C305.567 287.462 304.679 285.945 303.315 284.952C301.952 283.96 300.015 283.598 298.552 284.432C297.458 285.053 296.754 286.229 295.632 286.77C294.151 287.49 292.379 286.934 290.882 286.248C289.386 285.57 287.827 284.74 286.198 284.935C284.732 285.107 283.464 286.114 282.626 287.323C281.789 288.54 281.315 289.959 280.852 291.364C279.652 294.993 275.703 296.893 271.986 297.82C268.276 298.746 264.391 298.809 260.659 299.649C259.335 299.95 257.884 300.49 257.067 301.492C256.811 301.805 256.613 302.159 256.503 302.566C256.021 304.321 257.359 306.033 258.743 307.228Z" fill="#E55D5D"/>
<path d="M258.742 307.228C264.262 312.01 272.079 314.024 279.224 312.499C283.141 311.661 286.926 309.833 290.922 309.998C293.229 310.091 295.486 310.852 297.795 310.829C300.595 310.798 303.363 309.541 305.229 307.458C307.088 305.376 308.091 302.6 308.24 299.819C307.38 301.222 306.194 302.432 304.757 303.243C302.322 304.624 299.423 304.897 296.632 304.824C293.842 304.751 291.054 304.357 288.265 304.503C280.77 304.909 273.629 309.234 266.187 308.248C263.818 307.935 261.495 307.058 259.692 305.495C258.69 304.631 257.872 303.544 257.329 302.341C257.232 302.125 257.155 301.825 257.067 301.492C256.811 301.804 256.613 302.159 256.503 302.566C256.02 304.32 257.359 306.032 258.742 307.228Z" fill="#453447"/>
<path d="M308.188 296.555C305.244 293.458 300.504 292.711 296.853 294.46C295.015 295.303 293.447 296.714 292.479 298.509C291.515 300.303 291.008 302.392 291.138 304.509C290.653 302.438 290.915 300.169 291.844 298.188C292.753 296.179 294.469 294.561 296.469 293.634C298.473 292.699 300.804 292.463 302.931 292.996C305.069 293.491 307.001 294.788 308.188 296.555ZM284.606 293.701C283.615 292.739 282.403 292.034 281.076 291.647C280.927 291.603 280.777 291.564 280.625 291.529C279.686 291.31 278.698 291.251 277.743 291.194C277.222 291.162 276.683 291.13 276.155 291.073C274.242 290.864 272.859 290.307 271.927 289.37C270.853 288.291 270.369 286.322 271.46 285.026C272.022 284.359 272.956 283.971 273.954 283.985C274.756 283.996 275.601 284.242 276.537 284.737C278.705 285.882 280.425 288.273 281.268 291.307C282.621 291.716 283.857 292.444 284.872 293.428C284.898 293.454 284.916 293.486 284.924 293.521C284.932 293.556 284.93 293.593 284.918 293.627C284.906 293.662 284.885 293.692 284.856 293.714C284.828 293.736 284.794 293.75 284.758 293.754C284.73 293.757 284.702 293.753 284.676 293.744C284.65 293.735 284.626 293.72 284.606 293.701ZM271.752 285.271C270.829 286.367 271.236 288.137 272.196 289.101C273.065 289.975 274.374 290.496 276.196 290.694C276.715 290.751 277.249 290.783 277.766 290.814C278.737 290.872 279.741 290.932 280.711 291.159C280.754 291.168 280.796 291.178 280.838 291.189C280.011 288.397 278.352 286.126 276.36 285.073C275.478 284.608 274.689 284.376 273.949 284.365C273.823 284.363 273.698 284.369 273.575 284.381C272.834 284.454 272.17 284.774 271.752 285.271Z" fill="#453447"/>
<path d="M272.358 294.333C272.914 294.843 273.629 295.109 274.309 295.333C275.093 295.591 275.886 295.819 276.688 296.015C278.551 296.48 280.453 296.776 282.369 296.898L282.4 296.895C282.491 296.887 282.567 296.81 282.574 296.718C282.578 296.61 282.5 296.519 282.393 296.514C280.624 296.404 278.868 296.145 277.143 295.741C276.23 295.525 275.326 295.27 274.435 294.976C273.786 294.758 273.119 294.518 272.614 294.055C272.184 293.654 271.833 292.971 272.031 292.34C272.304 291.464 273.41 291.195 273.741 291.139C274.898 290.925 276.132 291.178 277.122 291.814C278.054 292.417 278.719 293.262 279.025 294.271C279.13 294.17 279.23 294.063 279.323 293.951C278.963 292.947 278.283 292.105 277.327 291.496C276.256 290.806 274.937 290.539 273.673 290.764C272.643 290.949 271.894 291.497 271.667 292.223C271.445 292.917 271.719 293.746 272.358 294.333Z" fill="#453447"/>
<path d="M291.073 291.061C291.037 291.061 291.001 291.059 290.965 291.054C290.704 291.023 290.448 290.877 290.26 290.653C290 290.342 289.898 289.912 289.995 289.532C290.097 289.133 290.412 288.807 290.799 288.702C291.168 288.598 291.517 288.698 291.777 288.978C292.102 289.327 292.216 289.89 292.054 290.346C291.904 290.769 291.495 291.061 291.073 291.061ZM291.078 288.936C291.014 288.936 290.945 288.945 290.871 288.965C290.582 289.044 290.337 289.299 290.26 289.6C290.185 289.896 290.265 290.233 290.47 290.477C290.613 290.648 290.805 290.76 290.998 290.783C291.322 290.83 291.677 290.591 291.796 290.254C291.924 289.896 291.831 289.438 291.576 289.163C291.472 289.052 291.309 288.936 291.078 288.936ZM306.142 298.958C305.978 298.045 305.43 297.227 304.69 296.702C304.323 296.447 303.898 296.222 303.469 296.166C303.256 296.142 303.047 296.203 302.936 296.368C302.821 296.524 302.814 296.748 302.834 296.97C302.851 297.193 302.892 297.422 302.903 297.664C302.916 297.899 302.881 298.182 302.697 298.396C302.519 298.618 302.211 298.68 301.96 298.643C301.706 298.608 301.462 298.481 301.281 298.316C300.911 297.984 300.687 297.575 300.336 297.313C299.993 297.042 299.571 296.858 299.145 296.856C298.297 296.784 297.481 297.791 297.983 298.553C298.087 298.746 298.226 298.934 298.34 299.149C298.462 299.357 298.524 299.643 298.475 299.893C298.443 300.139 298.263 300.441 297.95 300.474C297.646 300.5 297.438 300.319 297.245 300.239C296.456 299.87 295.373 300.238 294.981 301.042C294.581 301.842 294.927 302.959 295.758 303.392C294.909 303 294.471 301.88 294.86 300.986C295.267 300.098 296.414 299.658 297.331 300.047C297.555 300.144 297.748 300.275 297.922 300.247C298.094 300.228 298.213 300.054 298.242 299.853C298.331 299.434 298.001 299.092 297.765 298.672C297.488 298.252 297.531 297.627 297.846 297.234C298.137 296.827 298.644 296.562 299.148 296.583C299.653 296.591 300.122 296.807 300.499 297.109C300.89 297.413 301.124 297.843 301.446 298.129C301.736 298.415 302.268 298.535 302.519 298.24C302.775 297.943 302.645 297.441 302.625 296.982C302.613 296.751 302.615 296.477 302.784 296.254C302.944 296.027 303.248 295.957 303.488 295.995C303.978 296.075 304.391 296.316 304.77 296.595C305.51 297.176 306.022 298.038 306.142 298.958ZM274.958 300.888C274.772 300.618 274.58 300.345 274.326 300.144C274.078 299.937 273.75 299.842 273.45 299.927C273.141 299.995 272.927 300.251 272.967 300.565C272.972 300.722 273.004 300.886 272.986 301.07C272.974 301.255 272.853 301.462 272.654 301.534C272.251 301.656 271.907 301.444 271.641 301.25C271.372 301.054 271.121 300.846 270.846 300.696C270.573 300.544 270.277 300.47 269.984 300.533C269.693 300.585 269.449 300.776 269.409 301.05C269.38 301.191 269.387 301.366 269.322 301.552C269.258 301.736 269.134 301.893 268.971 301.999C268.654 302.204 268.277 302.243 267.927 302.179C267.222 302.02 266.731 301.526 266.143 301.304C264.963 300.852 263.462 301.271 262.697 302.351C263.377 301.209 264.916 300.653 266.216 301.107C266.869 301.328 267.369 301.82 267.973 301.935C268.266 301.987 268.59 301.942 268.824 301.782C269.081 301.618 269.105 301.367 269.14 300.999C269.202 300.601 269.583 300.326 269.934 300.277C270.293 300.202 270.672 300.307 270.966 300.479C271.268 300.648 271.522 300.867 271.781 301.061C272.022 301.249 272.332 301.41 272.581 301.338C272.848 301.255 272.812 300.901 272.795 300.568C272.791 300.398 272.832 300.198 272.957 300.056C273.079 299.914 273.249 299.831 273.421 299.797C273.77 299.722 274.13 299.862 274.37 300.093C274.619 300.32 274.791 300.606 274.958 300.888Z" fill="white"/>
<path d="M328.958 158.336C328.958 158.336 330.79 171.238 320.538 187.222C310.286 203.207 301.409 220.44 301.409 220.44C301.409 220.44 304.535 222.313 300.784 225.31C300.784 225.31 302.284 226.06 300.284 228.807C300.284 228.807 307.785 278.134 306.785 279.382C305.785 280.631 299.784 279.008 296.408 279.757C293.032 280.506 284.28 283.753 280.53 277.509C276.779 271.265 268.027 231.153 270.903 219.802C273.778 208.451 290.596 153.475 290.596 153.475" fill="#FFD05E"/>
<path d="M301.085 156.029L299.707 162.242C299.707 162.242 291.043 173.034 283.167 177.145C281.027 178.261 277.552 178.971 273.619 179.403C263.091 180.58 249.315 179.836 249.315 179.836C251.585 181.351 249.748 183.289 249.748 183.289C251.914 185.236 247.695 186.854 247.695 186.854C248.561 187.824 256.584 224.595 256.394 227.062C256.203 229.537 250.693 232.193 246.655 233.526C242.617 234.85 232.055 231.813 232.055 231.813C226.164 226.118 218.366 173.882 225.211 162.485C232.055 151.087 270.768 147.902 270.768 147.902L301.085 156.029Z" fill="#FFD05E"/>
<path d="M349.113 33.6993L347.773 30.1931L360.283 24.2642L362.346 28.5858" fill="#E5E9F6"/>
<path d="M192.858 112.848C193.115 113.164 193.467 113.374 193.817 113.578L196.03 114.875C195.52 114.593 194.865 115.177 194.937 115.75C195.011 116.33 195.499 116.76 195.968 117.102C198.826 119.198 202.406 120.286 205.946 120.138C207.516 120.07 209.124 119.771 210.691 119.787C211.554 119.789 212.409 119.892 213.23 120.175L215.286 112.026C215.053 111.864 214.823 111.695 214.59 111.533C212.012 109.701 209.434 107.883 206.853 106.059C206.368 105.711 205.709 105.359 205.21 105.685C204.655 106.051 204.816 106.894 205.088 107.499C205.761 108.981 206.74 110.304 207.963 111.379C203.835 110.688 199.672 109.503 195.935 107.612C195.496 107.394 195.049 107.158 194.563 107.107C194.074 107.049 193.531 107.217 193.284 107.64C193.107 107.943 193.161 108.359 193.386 108.607C193.105 108.447 192.781 108.299 192.494 108.26C192.092 108.196 191.633 108.339 191.44 108.697C191.195 109.154 191.466 109.711 191.799 110.103C192.191 110.566 192.672 110.946 193.213 111.223C192.972 111.285 192.725 111.496 192.628 111.72C192.476 112.093 192.605 112.537 192.858 112.848Z" fill="#FDB6B4"/>
<path d="M210.691 119.787C211.555 119.789 212.409 119.892 213.23 120.176L215.286 112.026C215.053 111.865 214.823 111.695 214.59 111.533C213.217 112.372 212.105 114.628 211.595 115.69C210.988 116.962 210.618 118.387 210.691 119.787ZM203.669 113.168C203.661 113.169 203.653 113.168 203.644 113.167C199.925 112.719 196.298 111.146 193.431 108.736C193.389 108.701 193.363 108.65 193.359 108.596C193.354 108.541 193.371 108.487 193.406 108.445C193.424 108.424 193.445 108.407 193.469 108.394C193.493 108.382 193.52 108.374 193.547 108.372C193.574 108.37 193.601 108.373 193.627 108.381C193.653 108.389 193.677 108.402 193.698 108.42C196.504 110.778 200.054 112.319 203.694 112.757C203.746 112.763 203.794 112.789 203.829 112.829C203.863 112.869 203.88 112.921 203.877 112.974C203.874 113.027 203.85 113.076 203.812 113.113C203.773 113.149 203.722 113.169 203.669 113.168ZM202.446 114.86C202.43 114.86 202.413 114.858 202.396 114.854C201.254 114.572 195.442 113.077 193.176 111.285C193.155 111.268 193.137 111.247 193.124 111.223C193.111 111.199 193.102 111.173 193.099 111.146C193.096 111.119 193.099 111.092 193.106 111.066C193.114 111.04 193.126 111.016 193.143 110.994C193.16 110.973 193.181 110.955 193.204 110.942C193.228 110.929 193.254 110.921 193.281 110.917C193.308 110.914 193.336 110.917 193.362 110.924C193.388 110.932 193.412 110.944 193.433 110.961C195.138 112.309 199.381 113.684 202.496 114.453C202.545 114.465 202.588 114.494 202.617 114.536C202.646 114.577 202.658 114.628 202.652 114.678C202.646 114.728 202.621 114.775 202.584 114.808C202.546 114.842 202.497 114.86 202.446 114.86ZM200.937 116.573C200.932 116.573 200.927 116.573 200.922 116.573C199.155 116.444 197.444 115.903 195.924 114.994C195.826 114.936 195.794 114.809 195.853 114.711C195.882 114.664 195.928 114.631 195.981 114.618C196.034 114.605 196.09 114.613 196.137 114.64C197.601 115.516 199.25 116.037 200.952 116.161C201.005 116.165 201.055 116.189 201.091 116.229C201.126 116.268 201.145 116.321 201.143 116.374C201.141 116.427 201.119 116.478 201.08 116.515C201.042 116.552 200.991 116.573 200.937 116.573Z" fill="#F7888A"/>
<path d="M219.315 108.955L215.56 108.31L212.405 121.664L216.493 122.861" fill="#E5E9F6"/>
<path d="M323.715 60.6577C325.073 63.6299 329.78 63.7056 331.242 66.6275C331.919 67.9797 331.686 69.6436 331.004 70.9931C330.321 72.3425 329.242 73.4431 328.18 74.5201C330.576 74.018 333.178 74.5956 335.136 76.0642C337.093 77.5327 338.374 79.8676 338.559 82.3059C338.759 84.9351 337.723 87.5555 336.108 89.6409C334.492 91.7264 332.333 93.3288 330.075 94.6952C324.308 98.1854 317.708 100.292 310.983 100.79C305.848 101.17 300.482 100.567 296.03 97.9823C291.578 95.3979 288.223 90.5573 288.418 85.4175C288.561 81.6451 290.542 78.1406 293.104 75.3648C291.169 74.8969 289.646 73.5003 289.352 71.5342C289.057 69.5681 289.767 67.5435 290.958 65.9509C292.149 64.3583 293.786 63.1521 295.499 62.1399C298.281 60.4964 301.306 59.3097 304.348 58.2209C307.317 57.1584 310.405 56.169 313.553 56.347C317.294 56.5585 320.424 58.8696 323.715 60.6577Z" fill="#453447"/>
<path d="M379.897 64.7885C378.355 73.1657 355.074 107.341 339.287 114.506C339.287 114.506 339.842 151.667 328.959 158.34C328.959 158.34 282.665 163.411 270.769 147.903C270.769 147.903 273.308 132.152 276.808 119.552C276.513 119.958 266.801 133.26 249.558 132.793C232.056 132.325 216.2 124.286 216.2 124.286L219.718 106.951L250.356 110.863C250.356 110.863 249.593 108.137 252.149 108.734C252.149 108.734 270.527 90.2924 279.122 88.8472C285.845 87.7134 292.673 87.7828 297.447 86.5191C298.773 86.1729 299.942 85.723 300.904 85.1086L316.881 84.4249C316.881 84.4249 317.973 85.4202 319.429 86.3721C320.737 87.2374 322.348 88.0596 323.717 88.1203C326.611 88.2413 331.593 89.2798 331.593 89.2798C331.593 89.2798 349.546 68.2243 352.795 64.5204C352.795 64.5204 351.773 61.8377 354.069 61.8982C354.069 61.8982 352.735 59.8558 354.459 59.3453L346.791 35.0272L364.891 27.5327C364.891 27.5323 381.448 56.4112 379.897 64.7885Z" fill="#40559A"/>
<path d="M250.303 110.828C250.207 110.828 250.122 110.759 250.104 110.661C250.066 110.455 250.047 110.246 250.046 110.037C250.046 108.819 250.788 108.262 252.046 108.504C252.156 108.526 252.228 108.632 252.207 108.742C252.202 108.768 252.192 108.793 252.177 108.815C252.162 108.837 252.143 108.856 252.121 108.871C252.099 108.886 252.074 108.897 252.048 108.902C252.022 108.907 251.995 108.907 251.969 108.902C251.81 108.87 251.648 108.853 251.485 108.851C251.23 108.851 250.452 108.851 250.452 110.037C250.452 110.209 250.469 110.4 250.503 110.59C250.509 110.619 250.507 110.649 250.5 110.678C250.492 110.706 250.478 110.733 250.459 110.756C250.44 110.778 250.416 110.796 250.389 110.809C250.362 110.821 250.333 110.828 250.303 110.828ZM247.378 110.685C247.369 110.685 247.36 110.685 247.352 110.683L244.133 110.272C244.107 110.269 244.081 110.26 244.058 110.247C244.035 110.234 244.015 110.216 243.999 110.195C243.982 110.174 243.97 110.15 243.963 110.124C243.956 110.099 243.955 110.072 243.958 110.045C243.961 110.019 243.97 109.994 243.983 109.971C243.996 109.947 244.014 109.927 244.035 109.911C244.056 109.895 244.08 109.883 244.106 109.876C244.132 109.869 244.159 109.867 244.185 109.87L247.404 110.282C247.456 110.287 247.504 110.312 247.538 110.352C247.571 110.392 247.588 110.443 247.585 110.496C247.582 110.548 247.558 110.597 247.52 110.632C247.481 110.667 247.43 110.686 247.378 110.685ZM240.941 109.863C240.932 109.863 240.923 109.863 240.915 109.861L237.696 109.451C237.67 109.447 237.644 109.439 237.621 109.426C237.598 109.412 237.578 109.395 237.561 109.374C237.545 109.353 237.533 109.328 237.526 109.303C237.519 109.277 237.517 109.25 237.521 109.224C237.535 109.113 237.64 109.031 237.748 109.049L240.966 109.46C241.019 109.465 241.067 109.49 241.1 109.53C241.134 109.57 241.151 109.621 241.148 109.674C241.145 109.726 241.121 109.775 241.083 109.81C241.044 109.845 240.993 109.864 240.941 109.863ZM234.503 109.041C234.495 109.041 234.486 109.041 234.477 109.039L232.744 108.818C232.718 108.815 232.692 108.806 232.669 108.793C232.646 108.78 232.626 108.762 232.609 108.741C232.593 108.72 232.581 108.696 232.574 108.67C232.567 108.645 232.565 108.618 232.569 108.591C232.583 108.48 232.688 108.4 232.796 108.416L234.529 108.637C234.581 108.643 234.629 108.668 234.663 108.708C234.697 108.748 234.714 108.799 234.711 108.852C234.707 108.904 234.684 108.953 234.645 108.988C234.607 109.023 234.556 109.042 234.503 109.041ZM254.382 106.767C254.341 106.767 254.301 106.755 254.268 106.732C254.234 106.71 254.208 106.677 254.193 106.64C254.178 106.602 254.174 106.561 254.183 106.521C254.192 106.482 254.212 106.446 254.241 106.418C255.027 105.669 255.818 104.927 256.616 104.192C256.655 104.156 256.708 104.136 256.762 104.138C256.815 104.141 256.866 104.164 256.903 104.203C256.979 104.285 256.973 104.414 256.891 104.489C256.095 105.223 255.305 105.964 254.522 106.711C254.484 106.747 254.434 106.767 254.382 106.767ZM259.161 102.361C259.12 102.361 259.08 102.348 259.046 102.325C259.012 102.302 258.986 102.269 258.971 102.23C258.957 102.192 258.954 102.15 258.964 102.11C258.974 102.07 258.995 102.034 259.026 102.007C259.836 101.286 260.652 100.573 261.475 99.8669C261.495 99.8495 261.519 99.8363 261.544 99.828C261.569 99.8197 261.596 99.8165 261.623 99.8185C261.649 99.8205 261.675 99.8278 261.699 99.8398C261.723 99.8518 261.744 99.8684 261.761 99.8886C261.796 99.9295 261.813 99.9824 261.809 100.036C261.805 100.089 261.78 100.139 261.739 100.174C260.918 100.878 260.104 101.59 259.296 102.31C259.259 102.343 259.211 102.361 259.161 102.361ZM264.096 98.1366C264.038 98.1366 263.98 98.1111 263.94 98.0623C263.923 98.0418 263.91 98.0181 263.902 97.9926C263.895 97.9672 263.892 97.9405 263.895 97.914C263.897 97.8875 263.905 97.8618 263.918 97.8384C263.93 97.8149 263.947 97.7942 263.968 97.7774C264.807 97.0902 265.656 96.4146 266.514 95.751C266.557 95.7181 266.61 95.7035 266.664 95.7103C266.717 95.7172 266.766 95.7449 266.798 95.7874C266.831 95.8298 266.846 95.8836 266.839 95.9369C266.832 95.9901 266.805 96.0385 266.762 96.0713C265.907 96.7327 265.061 97.4058 264.225 98.0905C264.189 98.1204 264.143 98.1367 264.096 98.1366ZM269.242 94.1749C269.179 94.1749 269.117 94.1453 269.077 94.09C269.062 94.0684 269.05 94.044 269.044 94.0181C269.038 93.9922 269.037 93.9653 269.042 93.9391C269.046 93.9128 269.056 93.8877 269.07 93.8651C269.084 93.8425 269.102 93.823 269.124 93.8075C270.062 93.1369 270.97 92.5212 271.821 91.978C271.843 91.9637 271.868 91.954 271.895 91.9494C271.921 91.9447 271.948 91.9453 271.974 91.951C272 91.9568 272.024 91.9676 272.046 91.9828C272.068 91.9981 272.087 92.0174 272.101 92.0398C272.115 92.0623 272.125 92.0873 272.13 92.1135C272.134 92.1396 272.134 92.1665 272.128 92.1924C272.122 92.2184 272.111 92.243 272.096 92.2648C272.081 92.2865 272.061 92.3051 272.039 92.3194C271.194 92.8588 270.292 93.4702 269.36 94.1368C269.325 94.1617 269.284 94.175 269.242 94.1749ZM274.733 90.7106C274.688 90.7105 274.644 90.6953 274.608 90.6673C274.573 90.6394 274.547 90.6004 274.537 90.5565C274.526 90.5126 274.53 90.4664 274.548 90.4251C274.567 90.3839 274.599 90.35 274.639 90.3288C275.737 89.7526 276.748 89.312 277.645 89.0198C277.67 89.0115 277.697 89.0083 277.723 89.0104C277.75 89.0124 277.776 89.0197 277.799 89.0317C277.823 89.0437 277.844 89.0603 277.862 89.0805C277.879 89.1007 277.892 89.1241 277.9 89.1494C277.909 89.1746 277.912 89.2013 277.91 89.2278C277.908 89.2543 277.901 89.2802 277.889 89.3039C277.877 89.3276 277.86 89.3487 277.84 89.366C277.819 89.3833 277.796 89.3965 277.771 89.4048C276.895 89.6901 275.905 90.1218 274.828 90.6872C274.798 90.7027 274.766 90.7107 274.733 90.7106Z" fill="#231826"/>
<path d="M319.428 86.3713L319.281 86.5358C316.682 89.461 313.294 91.0012 309.482 91.0012C303.859 91.0012 299.076 87.6694 298.876 87.5311L297.447 86.5185C298.773 86.1723 299.942 85.7224 300.904 85.108L316.881 84.4243C316.881 84.4241 317.973 85.4192 319.428 86.3713Z" fill="white"/>
<path d="M317.34 84.814C310.469 92.5249 300.375 85.4112 300.375 85.4112L301.198 84.4246L304.855 80.0544C292.014 77.2936 296.008 61.5259 296.008 61.5259L314.932 61.8288C314.932 61.8288 315.547 62.6942 314.438 65.6971C313.337 68.7088 314.992 69.1935 317.886 71.4694C320.771 73.7368 316.959 75.8831 315.607 78.9553C314.256 82.0186 317.34 84.814 317.34 84.814Z" fill="#FDB6B4"/>
<path d="M297.516 58.3946C297.516 58.3946 299.718 46.7278 308.335 45.6759C316.951 44.624 324.338 49.501 325.384 56.5776C325.384 56.5776 325.774 62.2197 325.384 62.6023C324.994 62.9848 293.112 62.2659 289.377 61.5257C285.643 60.7854 285.165 58.9684 289.377 58.586C293.59 58.2034 297.516 58.3946 297.516 58.3946Z" fill="#FFD863"/>
<path d="M276.911 119.201C276.94 118.153 277.099 117.136 277.313 116.133C277.52 115.128 277.801 114.142 278.136 113.173C278.473 112.204 278.866 111.252 279.346 110.338C279.819 109.422 280.367 108.532 281.068 107.75C280.826 108.77 280.54 109.738 280.243 110.704C279.953 111.671 279.638 112.627 279.308 113.579C278.974 114.531 278.628 115.479 278.235 116.417C277.849 117.357 277.435 118.292 276.911 119.201Z" fill="#231826"/>
<path d="M304.744 89.4609C295.364 111.024 289.675 133.825 287.834 157.304L291.29 157.574C293.139 133.977 298.947 111.078 308.536 89.4609H304.744Z" fill="white"/>
<path d="M312.722 76.8167C312.722 76.8167 309.161 83.991 301.198 84.4237L304.855 80.0534C304.855 80.0534 309.187 79.387 312.722 76.8167ZM306.316 76.1073C305.794 76.1073 305.272 75.9996 304.796 75.7836C304.771 75.7724 304.749 75.7565 304.731 75.7367C304.712 75.717 304.698 75.6937 304.688 75.6683C304.678 75.6429 304.674 75.6159 304.675 75.5888C304.676 75.5617 304.682 75.535 304.693 75.5103C304.74 75.4062 304.865 75.3618 304.967 75.4075C305.817 75.7921 306.83 75.7901 307.678 75.4014C308.526 75.0132 309.189 74.2474 309.451 73.353C309.467 73.3005 309.502 73.2563 309.55 73.23C309.599 73.2038 309.655 73.1977 309.708 73.2131C309.76 73.2285 309.805 73.2641 309.831 73.3122C309.857 73.3602 309.863 73.4167 309.848 73.4692C309.552 74.4768 308.805 75.3396 307.85 75.7765C307.37 75.997 306.843 76.1073 306.316 76.1073ZM303.546 68.4062C303.806 68.8503 303.848 69.4211 303.688 69.9371C303.548 70.4826 303.069 70.8501 302.916 71.2238C302.712 71.6177 302.939 71.9856 303.392 72.035C303.817 72.0908 304.247 71.7519 304.601 71.404C304.38 71.8402 304.006 72.3256 303.381 72.3527C303.092 72.3637 302.772 72.2473 302.575 71.9709C302.378 71.6823 302.424 71.3197 302.537 71.0603C302.806 70.5162 303.219 70.2621 303.392 69.8259C303.585 69.4021 303.642 68.9043 303.546 68.4062Z" fill="#F7888A"/>
<path d="M308.947 67.1036C308.742 68.0891 307.979 68.7679 307.16 68.7772H307.15C307.057 68.7772 306.964 68.7679 306.871 68.7493L306.675 68.6935C306.117 68.4982 305.717 67.9868 305.586 67.3453C305.549 67.1593 305.54 66.9548 305.558 66.7502C305.558 66.6479 305.568 66.5457 305.586 66.4341C305.8 65.3556 306.731 64.6211 307.653 64.8071C308.584 64.9931 309.161 66.0159 308.947 67.1036Z" fill="white"/>
<path d="M307.709 67.8384C307.634 68.2382 307.429 68.5636 307.16 68.7775H307.15C307.057 68.7775 306.964 68.7682 306.871 68.7496L306.675 68.6937C306.117 68.4985 305.717 67.9871 305.586 67.3456C305.549 67.1596 305.54 66.955 305.558 66.7505C305.847 66.3228 306.312 66.0904 306.787 66.1834C307.448 66.3228 307.867 67.0666 307.709 67.8384Z" fill="#453447"/>
<path d="M302.491 67.1036C302.286 68.0891 301.522 68.7679 300.703 68.7772H300.694C300.601 68.7772 300.508 68.7679 300.415 68.7493L300.219 68.6935C299.661 68.4982 299.26 67.9868 299.13 67.3453C299.093 67.1593 299.083 66.9548 299.102 66.7502C299.102 66.6479 299.111 66.5457 299.13 66.4341C299.344 65.3556 300.275 64.6211 301.197 64.8071C302.127 64.9931 302.705 66.0159 302.491 67.1036Z" fill="white"/>
<path d="M301.252 67.8384C301.178 68.2382 300.973 68.5636 300.703 68.7775H300.694C300.601 68.7775 300.508 68.7682 300.415 68.7496L300.219 68.6937C299.661 68.4985 299.26 67.9871 299.13 67.3456C299.093 67.1596 299.083 66.955 299.102 66.7505C299.391 66.3228 299.856 66.0904 300.331 66.1834C300.992 66.3228 301.411 67.0666 301.252 67.8384Z" fill="#453447"/>
<path d="M230.843 165.364C229.415 165.576 227.94 165.085 227.04 163.925C226.972 163.836 226.82 163.856 226.797 163.974C226.546 165.313 226.913 166.704 227.702 167.805C228.087 168.343 228.568 168.814 229.125 169.172C229.614 169.488 230.251 169.825 230.849 169.823C230.983 169.822 231.042 169.638 230.904 169.585C230.631 169.48 230.342 169.423 230.069 169.314C229.76 169.191 229.465 169.034 229.191 168.846C228.672 168.489 228.224 168.039 227.868 167.52C227.17 166.503 226.842 165.249 227.061 164.027L226.818 164.076C227.761 165.269 229.375 165.89 230.868 165.513C230.95 165.492 230.93 165.351 230.843 165.364ZM279.867 222.019C278.817 222.582 277.795 223.082 276.612 223.306C275.435 223.528 274.202 223.514 273.04 223.217C272.929 223.188 272.794 223.318 272.871 223.428C274.65 225.948 278.808 226.733 281.195 224.619C281.263 224.559 281.168 224.457 281.095 224.502C278.541 226.086 274.991 225.69 273.105 223.255L272.959 223.498C275.276 223.97 278.051 223.699 279.949 222.162C280.019 222.105 279.954 221.972 279.867 222.019ZM287.837 161.082L283.167 177.144C281.027 178.26 277.552 178.97 273.619 179.403L287.837 161.082Z" fill="#231826"/>
<path d="M321.405 160.261C318.004 167.403 314.866 174.676 311.628 181.893C308.472 188.928 305.285 195.95 302.165 203.001C299.192 209.722 296.366 216.594 294.857 223.813C293.333 231.099 293.264 238.601 294.002 245.987C294.853 254.506 296.661 262.924 298.62 271.248C298.726 271.699 299.449 271.631 299.348 271.168C296.119 256.314 292.538 241.078 295.058 225.82C296.244 218.634 298.845 211.807 301.729 205.151C304.748 198.184 307.913 191.277 311.015 184.347C314.586 176.371 318.292 168.439 321.673 160.38C321.745 160.206 321.486 160.09 321.405 160.261Z" fill="white"/>
<path d="M280.417 274.818C280.117 274.401 280.154 274.018 280.425 273.61C280.91 272.882 281.768 272.903 282.533 273.106C283.357 273.324 284.083 273.814 284.895 274.069C286.082 274.442 287.145 274.232 287.995 273.322C288.912 272.338 289.634 270.379 291.285 270.686C292.472 270.906 293.353 272.074 294.249 272.783C294.914 273.31 295.687 273.773 296.569 273.665C297.799 273.514 298.39 272.364 299.356 271.758C301.038 270.702 302.464 272.692 304.02 273.061C304.957 273.283 306.014 273.142 306.412 272.168C306.524 271.894 306.121 271.728 305.961 271.952C304.702 273.709 302.547 271.531 301.186 271.081C300.095 270.721 299.233 271.09 298.414 271.835C297.813 272.382 297.238 273.12 296.353 273.152C295.711 273.175 295.148 272.81 294.652 272.446C293.632 271.699 292.696 270.488 291.377 270.243C290.361 270.054 289.535 270.578 288.895 271.32C287.658 272.756 286.986 274.284 284.729 273.439C283.483 272.974 281.917 271.887 280.595 272.769C279.846 273.27 279.462 274.283 280.04 275.044C280.208 275.265 280.584 275.05 280.417 274.818ZM229.853 225.433C228.886 224.331 230.533 223.328 231.483 223.473C232.351 223.605 233.093 224.182 233.819 224.628C234.784 225.22 236.001 225.807 237.133 225.308C238.081 224.89 238.492 223.89 239.002 223.064C239.715 221.908 240.613 221.335 241.988 221.778C242.75 222.023 243.417 222.476 244.098 222.88C244.997 223.413 246.126 223.948 247.203 223.743C248.253 223.543 248.686 222.711 249.079 221.808C249.63 220.544 250.022 219.822 251.81 220.73C252.394 221.026 252.844 221.506 253.464 221.746C254.303 222.07 255.182 222.057 255.732 221.282C255.92 221.015 255.501 220.748 255.309 221.006C254.513 222.078 253.116 220.948 252.383 220.493C251.793 220.127 251.052 219.767 250.333 219.904C249.195 220.122 248.955 221.326 248.519 222.209C246.748 225.79 242.833 220.424 240.166 221.367C238.988 221.784 238.582 222.996 237.943 223.941C236.385 226.245 234.299 224.149 232.563 223.355C231.674 222.948 230.636 222.768 229.831 223.448C229.154 224.021 228.854 224.99 229.474 225.699C229.668 225.923 230.049 225.657 229.853 225.433ZM313.285 159.001C311.967 159.741 311.053 161.54 310.564 162.908C310.053 164.339 309.859 165.874 310.041 167.383C310.218 168.852 310.748 170.258 311.551 171.499C312.333 172.706 313.529 174.077 314.896 174.628C315.27 174.779 315.47 174.268 315.197 174.039C314.678 173.604 314.094 173.267 313.593 172.803C313.067 172.315 312.6 171.756 312.202 171.159C311.433 170.009 310.908 168.674 310.723 167.301C310.521 165.802 310.724 164.253 311.27 162.845C311.544 162.138 311.902 161.468 312.337 160.848C312.717 160.307 313.201 159.852 313.564 159.3C313.679 159.125 313.469 158.898 313.285 159.001ZM242.216 188.571C241.723 184.932 242.277 181.149 244.046 177.91C244.814 176.505 245.804 175.224 246.951 174.109C248.489 172.615 250.221 171.711 252.064 170.662C252.251 170.556 252.1 170.281 251.907 170.335C248.59 171.27 245.631 174.208 243.891 177.076C241.805 180.515 241.047 184.693 241.904 188.625C241.947 188.824 242.244 188.773 242.216 188.571ZM246.362 158.935C249.07 157.35 251.996 156.133 255.052 155.41C256.711 155.017 258.403 154.774 260.106 154.685C261.442 154.615 262.77 154.751 264.102 154.716C264.29 154.712 264.255 154.443 264.096 154.41C262.532 154.091 260.788 154.202 259.205 154.324C257.759 154.435 256.321 154.656 254.908 154.981C251.805 155.696 248.855 156.936 246.204 158.699C246.049 158.801 246.205 159.027 246.362 158.935ZM331.061 128.472C330.424 133.16 329.805 137.85 329.203 142.543C328.962 144.42 328.937 146.549 328.167 148.308C327.747 149.267 326.979 150.085 325.878 150.168C324.907 150.241 323.966 149.796 323.099 149.415C321.924 148.899 320.688 148.329 319.372 148.545C318.104 148.752 317.117 149.643 316.211 150.487C315.132 151.493 313.915 152.724 312.297 152.436C310.511 152.117 309.284 150.541 307.561 150.058C305.864 149.581 304.297 150.405 302.879 151.262C301.201 152.277 298.081 153.835 296.995 151.18C296.845 150.812 296.321 150.968 296.403 151.36C296.675 152.654 298.007 153.334 299.257 153.349C301.7 153.379 303.389 151.101 305.633 150.54C307.788 150.002 309.215 151.647 310.94 152.583C312.146 153.237 313.445 153.262 314.643 152.576C315.961 151.822 316.866 150.535 318.138 149.718C320.137 148.432 321.991 149.731 323.962 150.394C325.353 150.861 326.852 150.866 327.904 149.697C328.87 148.624 329.114 147.062 329.286 145.683C330.001 139.967 330.623 134.236 331.252 128.51C331.266 128.386 331.078 128.346 331.061 128.472ZM274.246 95.5246C276.429 94.3388 278.676 93.3497 281.099 92.7646C282.315 92.4694 283.553 92.2693 284.801 92.1661C285.939 92.0735 287.09 92.1773 288.223 92.0767C288.391 92.0617 288.482 91.791 288.277 91.7507C287.086 91.5159 285.762 91.6444 284.562 91.7604C283.287 91.8825 282.023 92.1038 280.783 92.4223C278.446 93.0241 276.131 93.949 274.127 95.3022C273.995 95.3913 274.1 95.6037 274.246 95.5246ZM244.515 128.054C246.402 129.767 249.024 130.499 251.542 130.141C253.511 129.861 256.664 128.584 256.267 126.079C255.926 123.928 252.925 124.109 252.303 125.984C251.537 128.295 253.975 129.975 256.034 129.895C257.742 129.828 259.349 128.859 260.695 127.885C261.925 126.994 263.276 125.872 264.039 124.543C264.197 124.269 263.856 123.92 263.601 124.161C262.69 125.028 261.919 126.002 260.938 126.804C260.078 127.509 259.137 128.15 258.132 128.63C256.944 129.196 255.459 129.529 254.206 128.951C252.934 128.364 252.01 126.259 253.468 125.312C253.949 125 254.648 124.911 255.16 125.204C256.073 125.729 255.893 127.05 255.358 127.763C254.607 128.763 253.194 129.301 252.019 129.56C249.445 130.127 246.744 129.436 244.698 127.795C244.536 127.664 244.368 127.92 244.515 128.054ZM371.503 51.9395C373.101 53.9325 374.111 56.3631 374.127 58.9352C374.131 59.6111 374.116 60.3095 373.922 60.9622C373.675 61.7927 372.307 63.5822 371.241 62.5491C370.621 61.9484 370.625 60.7162 371.868 60.8317C372.136 60.8566 372.406 60.9726 372.615 61.1456C373.208 61.6371 373.328 62.4884 373.353 63.2099C373.434 65.5517 372.772 68.0017 371.722 70.0817C371.219 71.0774 370.617 72.0254 369.918 72.8956C369.129 73.8786 368.115 74.6233 367.296 75.562C367.106 75.7799 367.324 76.0984 367.596 75.9717C369.895 74.9006 371.69 72.051 372.676 69.8326C373.314 68.3955 373.74 66.8549 373.897 65.2892C374.01 64.1588 374.096 62.8659 373.675 61.786C373.318 60.8723 372.522 60.1946 371.498 60.2665C370.589 60.3303 369.967 61.1099 370.159 62.0093C370.35 62.8982 371.193 63.4814 372.083 63.4022C373.309 63.2934 374.123 62.2246 374.41 61.1129C375.225 57.9535 373.748 54.1757 371.669 51.8226C371.585 51.7266 371.42 51.8358 371.503 51.9395ZM333.659 90.9387C334.326 90.5576 334.966 90.1614 335.57 89.6853C336.141 89.2359 336.682 88.7468 337.203 88.2425C337.73 87.733 338.267 87.2056 338.729 86.6361C339.221 86.0308 339.676 85.368 340.117 84.7235C340.303 84.4514 339.891 84.1973 339.694 84.448C339.447 84.7617 339.191 85.0684 338.926 85.368C338.644 85.6882 338.329 85.972 338.043 86.2876C337.569 86.8102 337.073 87.313 336.556 87.7946C336.059 88.2603 335.54 88.7004 335.015 89.1348C334.456 89.5974 333.908 90.074 333.344 90.5301C333.109 90.7194 333.409 91.0814 333.659 90.9387ZM222.956 111.239C224.607 111.375 226.258 111.511 227.909 111.646C229.48 111.775 231.07 111.954 232.648 111.966C232.808 111.967 232.813 111.746 232.66 111.723C231.063 111.483 229.425 111.415 227.816 111.296C226.209 111.177 224.603 111.059 222.996 110.941C222.804 110.927 222.761 111.223 222.956 111.239ZM323.424 66.5059C324.748 66.9002 325.803 68.0303 326.108 69.3788C326.393 70.6384 325.953 72.0989 325.128 73.0743C324.983 73.246 325.205 73.4695 325.376 73.3212C325.995 72.7844 326.415 72.1664 326.624 71.3696C326.821 70.6152 326.802 69.7964 326.554 69.0552C326.086 67.6575 324.907 66.5991 323.481 66.2355C323.307 66.1909 323.255 66.4556 323.424 66.5059ZM327.141 77.3937C328.609 77.7939 329.954 78.7907 330.613 80.1793C330.956 80.9012 331.07 81.7031 331.025 82.4959C330.974 83.3863 330.696 84.1664 330.335 84.9724C330.257 85.1454 330.504 85.3401 330.645 85.1998C331.961 83.8949 332.081 81.7118 331.411 80.0737C330.707 78.3502 329.114 77.1324 327.262 76.9339C327.005 76.9065 326.871 77.3202 327.141 77.3937ZM295.26 77.9216C294.092 78.9564 293.275 80.235 292.87 81.745C292.669 82.4922 292.527 83.3254 292.765 84.0805C292.939 84.6292 293.471 85.3596 294.126 85.3151C294.296 85.3036 294.426 85.099 294.287 84.9602C294.172 84.8456 294.018 84.7786 293.907 84.6602C293.808 84.5551 293.723 84.4076 293.645 84.2854C293.474 84.0154 293.391 83.7113 293.365 83.3941C293.309 82.7283 293.476 82.0359 293.681 81.4054C294.06 80.2365 294.711 79.0983 295.545 78.1958C295.698 78.03 295.428 77.7731 295.26 77.9216ZM293.826 66.1072C293.1 66.7278 292.629 67.5631 292.422 68.4932C292.325 68.9294 292.275 69.4126 292.327 69.8581C292.38 70.3158 292.531 70.8621 292.816 71.23C292.9 71.3386 293.119 71.268 293.106 71.1238C293.085 70.8829 293.015 70.6492 292.984 70.4092C292.955 70.1929 292.957 69.9772 292.945 69.7602C292.923 69.3411 292.948 68.9305 293.034 68.519C293.199 67.7321 293.589 66.9795 294.124 66.3797C294.279 66.2052 293.998 65.9608 293.826 66.1072ZM297.396 58.501C298.849 58.5951 300.339 58.5578 301.791 58.4767C303.311 58.3917 304.847 58.4179 306.369 58.393C306.396 58.3926 306.39 58.3529 306.364 58.3527C304.847 58.3436 303.314 58.3917 301.799 58.3169C300.348 58.2453 298.851 58.2215 297.402 58.3386C297.3 58.3468 297.288 58.4942 297.396 58.501ZM307.177 58.3525C308.144 58.4376 309.111 58.5248 310.079 58.5924C310.543 58.6247 311.008 58.6568 311.472 58.6883C311.84 58.7134 312.223 58.7609 312.591 58.7151C312.707 58.7006 312.713 58.5398 312.6 58.5137C312.217 58.4248 311.807 58.4353 311.416 58.4214C310.945 58.4045 310.473 58.3884 310.002 58.3722C309.062 58.3403 308.123 58.3275 307.183 58.3121C307.158 58.3119 307.15 58.3501 307.177 58.3525ZM307.078 49.3353C310.249 48.0961 313.9 48.0966 317.007 49.5213C318.449 50.1819 319.757 51.1375 320.832 52.3019C321.915 53.4759 322.601 54.8131 323.331 56.214C323.421 56.3877 323.661 56.2894 323.611 56.1026C322.775 52.9818 319.828 50.3126 316.938 49.0771C313.763 47.72 310.152 47.8174 307.043 49.2707C307 49.2909 307.035 49.352 307.078 49.3353Z" fill="white"/>
<path d="M52.4047 33.0866C65.8865 44.0766 67.9068 63.9175 56.913 77.404C45.9231 90.8858 26.0821 92.9061 12.6003 81.9161C-0.886245 70.9222 -2.90644 51.0814 8.08349 37.5996C19.0773 24.1131 38.9182 22.0929 52.4047 33.0866Z" fill="#5C75C9"/>
<path d="M11.0547 35C10.0334 35.9463 9.05834 36.9622 8.14856 38.0627C-2.94233 51.4802 -0.903571 71.2262 12.7069 82.1677C16.144 84.9308 19.9912 86.8648 24 88" stroke="#453447" stroke-width="0.5" stroke-miterlimit="10" stroke-dasharray="11.11 11.11"/>
<path d="M22.3354 52.2734L34.6103 46.7961L39.358 57.4774L27.0831 62.9548L22.3354 52.2734Z" fill="#BEC8E9"/>
<path d="M28.9997 58.2363C29.0367 62.2698 25.8203 77.9639 21.6786 77.9999C17.5369 78.036 14.0374 62.4005 14.0003 58.367C13.9633 54.3334 17.2887 51.0364 21.4304 51.0003C25.572 50.9644 28.9625 54.2027 28.9997 58.2363Z" fill="#E5E9F6"/>
<path d="M26.9998 57.4489C27.0245 60.4861 24.8043 62.9726 22.0431 62.9998C19.282 63.027 17.0249 60.5847 17.0002 57.5474C16.9755 54.5102 19.1925 52.0274 21.9536 52.0002C24.7147 51.973 26.9752 54.4117 26.9998 57.4489Z" fill="#5C75C9"/>
<path d="M23.1558 55.6625C23.158 55.8838 23.1164 56.1033 23.0337 56.3085C22.9509 56.5137 22.8285 56.7006 22.6734 56.8584C22.5184 57.0163 22.3338 57.142 22.1301 57.2285C21.9264 57.3149 21.7077 57.3604 21.4864 57.3622C20.5624 57.3705 19.802 56.6238 19.7937 55.6926C19.7854 54.7686 20.5322 54.0084 21.4563 54.0001C22.3875 53.9916 23.1475 54.7383 23.1558 55.6625ZM23.2063 61.3002C23.2084 61.5215 23.1669 61.741 23.0841 61.9462C23.0013 62.1514 22.8789 62.3383 22.7239 62.4961C22.5688 62.654 22.3842 62.7797 22.1805 62.8662C21.9768 62.9526 21.7581 62.9981 21.5369 62.9999C20.6128 63.0082 19.8525 62.2615 19.8442 61.3303C19.8359 60.4063 20.5827 59.6461 21.5068 59.6378C22.4379 59.6295 23.198 60.3762 23.2063 61.3002ZM24.3375 60.1558C24.1163 60.1579 23.8968 60.1164 23.6916 60.0336C23.4864 59.9508 23.2995 59.8284 23.1416 59.6734C22.9838 59.5183 22.858 59.3337 22.7716 59.13C22.6852 58.9263 22.6397 58.7076 22.6379 58.4863C22.6296 57.5623 23.3763 56.8019 24.3074 56.7936C25.2314 56.7853 25.9916 57.532 25.9999 58.4562C26.0082 59.3874 25.2615 60.1475 24.3375 60.1558ZM18.6997 60.2062C18.4785 60.2083 18.259 60.1668 18.0538 60.084C17.8486 60.0013 17.6617 59.8789 17.5039 59.7238C17.346 59.5688 17.2203 59.3841 17.1338 59.1804C17.0474 58.9767 17.0019 58.758 17.0001 58.5368C16.9918 57.6127 17.7385 56.8524 18.6696 56.8441C19.5937 56.8358 20.3538 57.5825 20.3621 58.5067C20.3706 59.4379 19.6239 60.1981 18.6997 60.2062Z" fill="white"/>
<path d="M34.4406 55.5408C37.5055 58.2332 51.6859 66.3047 54.4931 63.3651C57.3003 60.4256 47.6719 47.5877 44.607 44.8953C41.5421 42.2029 36.7849 42.4031 33.9777 45.3426C31.1705 48.2821 31.3758 52.8484 34.4406 55.5408Z" fill="#E5E9F6"/>
<path d="M35.7837 54.5559C38.0235 56.6075 41.5055 56.4548 43.557 54.2148C45.6086 51.975 45.4534 48.4958 43.2135 46.4442C40.9737 44.3926 37.497 44.5452 35.4454 46.785C33.3937 49.025 33.5438 52.5043 35.7837 54.5559Z" fill="#5C75C9"/>
<path d="M35.9486 49.0099C36.1134 49.1555 36.3064 49.2683 36.5165 49.342C36.7267 49.4157 36.9499 49.4487 37.1733 49.4393C37.3967 49.4298 37.6161 49.3781 37.8187 49.287C38.0213 49.1959 38.2033 49.0672 38.3543 48.9083C38.9852 48.2451 38.938 47.2091 38.244 46.597C37.5552 45.9895 36.4792 46.0351 35.8483 46.6983C35.2126 47.3666 35.2598 48.4025 35.9486 49.0099ZM40.1508 52.7158C40.3156 52.8614 40.5087 52.9742 40.7188 53.0479C40.929 53.1216 41.1521 53.1546 41.3756 53.1452C41.599 53.1358 41.8183 53.084 42.0209 52.9929C42.2236 52.9018 42.4056 52.7731 42.5566 52.6142C43.1875 51.951 43.1403 50.915 42.4462 50.3029C41.7574 49.6955 40.6814 49.741 40.0505 50.4042C39.4147 51.0725 39.462 52.1085 40.1508 52.7158ZM38.5261 52.7895C38.6773 52.6308 38.7945 52.4449 38.871 52.2426C38.9475 52.0403 38.9818 51.8254 38.972 51.6103C38.9622 51.3951 38.9085 51.184 38.8139 50.9888C38.7193 50.7937 38.5857 50.6185 38.4207 50.4731C37.7319 49.8656 36.6559 49.9111 36.0202 50.5793C35.3893 51.2425 35.4367 52.2786 36.1255 52.886C36.8194 53.4981 37.8952 53.4527 38.5261 52.7895ZM42.3752 48.7433C42.5264 48.5846 42.6435 48.3988 42.7201 48.1964C42.7966 47.9941 42.8309 47.7792 42.8211 47.5641C42.8113 47.3489 42.7575 47.1378 42.6629 46.9427C42.5683 46.7476 42.4346 46.5723 42.2696 46.427C41.5808 45.8195 40.5048 45.8649 39.8692 46.5332C39.2382 47.1964 39.2856 48.2324 39.9744 48.8399C40.6684 49.4521 41.7443 49.4065 42.3752 48.7433ZM31.4444 58.6897C31.5564 58.9316 31.4418 59.2093 31.1905 59.3171L29.6975 59.9575C29.4463 60.0653 29.1552 59.9616 29.0433 59.7197C29.0166 59.6623 29.002 59.6004 29.0002 59.5375C28.9984 59.4747 29.0095 59.4121 29.0329 59.3534C29.0563 59.2947 29.0915 59.241 29.1365 59.1954C29.1814 59.1498 29.2353 59.1132 29.295 59.0877L30.788 58.4473C30.8476 58.4216 30.9119 58.4075 30.9772 58.4058C31.0425 58.4041 31.1075 58.4148 31.1684 58.4373C31.2294 58.4598 31.2852 58.4937 31.3325 58.537C31.3799 58.5803 31.4179 58.6322 31.4444 58.6897ZM35.0559 57.1405C35.1678 57.3824 35.0533 57.6601 34.8018 57.7679L33.3088 58.4083C33.0576 58.5161 32.7665 58.4125 32.6546 58.1705C32.6279 58.1131 32.6133 58.0512 32.6115 57.9884C32.6097 57.9255 32.6209 57.863 32.6442 57.8042C32.6676 57.7455 32.7028 57.6918 32.7478 57.6462C32.7928 57.6006 32.8466 57.5641 32.9063 57.5385L34.3993 56.8981C34.459 56.8725 34.5232 56.8584 34.5885 56.8567C34.6538 56.8549 34.7188 56.8656 34.7798 56.8882C34.8408 56.9107 34.8966 56.9446 34.944 56.9879C34.9913 57.0312 35.0294 57.083 35.0559 57.1405Z" fill="white"/>
<path d="M57 215C81.8528 215 102 194.853 102 170C102 145.147 81.8528 125 57 125C32.1472 125 12 145.147 12 170C12 194.853 32.1472 215 57 215Z" fill="#BEC8E9"/>
<path d="M75.6455 128.533C75.701 128.501 75.7632 128.482 75.8269 128.478C75.8906 128.475 75.9541 128.486 76.0121 128.511C77.9822 129.373 79.886 130.372 81.7094 131.5C81.7992 131.556 81.8623 131.645 81.8849 131.748C81.9075 131.851 81.8878 131.959 81.83 132.049C81.8014 132.094 81.7642 132.133 81.7206 132.163C81.677 132.194 81.628 132.216 81.5761 132.228C81.5243 132.24 81.4708 132.242 81.4187 132.233C81.3666 132.224 81.317 132.206 81.2726 132.178C79.481 131.07 77.6106 130.089 75.6752 129.242C75.6078 129.212 75.5503 129.165 75.5089 129.105C75.4676 129.044 75.4441 128.974 75.441 128.901C75.438 128.827 75.4554 128.754 75.4915 128.689C75.5276 128.624 75.5809 128.57 75.6455 128.533ZM86.4466 135.221C86.5905 135.138 86.7766 135.147 86.9088 135.258C88.541 136.628 90.087 138.127 91.5055 139.718C91.5402 139.757 91.5667 139.802 91.5835 139.852C91.6003 139.901 91.607 139.953 91.6032 140.006C91.5995 140.058 91.5853 140.109 91.5616 140.157C91.5379 140.204 91.5051 140.246 91.4651 140.281C91.2937 140.422 91.0415 140.415 90.8961 140.252C89.4995 138.686 87.9907 137.222 86.3812 135.87C86.3324 135.83 86.2946 135.778 86.2707 135.719C86.2469 135.66 86.2378 135.596 86.2442 135.532C86.2506 135.469 86.2723 135.407 86.3076 135.353C86.3428 135.299 86.3905 135.254 86.4466 135.221ZM94.8678 144.665C94.9574 144.614 95.0628 144.597 95.1625 144.62C95.2623 144.642 95.3489 144.702 95.4046 144.786C96.5807 146.567 97.6286 148.428 98.5405 150.358C98.6344 150.555 98.5493 150.806 98.3446 150.891C98.2478 150.937 98.1371 150.944 98.0369 150.909C97.9366 150.875 97.8551 150.803 97.8101 150.708C96.9124 148.812 95.8822 146.982 94.7266 145.231C94.6686 145.143 94.6487 145.036 94.6712 144.932C94.6936 144.828 94.7567 144.737 94.8464 144.678L94.8678 144.665ZM100.27 156.097C100.322 156.067 100.381 156.048 100.441 156.043C100.502 156.038 100.562 156.046 100.618 156.068C100.674 156.089 100.725 156.122 100.765 156.166C100.806 156.209 100.837 156.261 100.854 156.318C101.48 158.359 101.958 160.445 102.285 162.559C102.294 162.61 102.291 162.663 102.279 162.714C102.266 162.766 102.243 162.814 102.212 162.857C102.18 162.899 102.141 162.936 102.095 162.964C102.05 162.991 101.999 163.01 101.947 163.019C101.727 163.056 101.521 162.91 101.488 162.694C101.167 160.617 100.697 158.569 100.082 156.564C100.056 156.477 100.06 156.384 100.094 156.299C100.128 156.215 100.19 156.143 100.27 156.097ZM102.206 168.617C102.267 168.582 102.336 168.563 102.406 168.562C102.476 168.561 102.545 168.578 102.606 168.611C102.666 168.645 102.717 168.694 102.752 168.753C102.788 168.812 102.806 168.88 102.807 168.949C102.826 171.093 102.694 173.237 102.413 175.368C102.398 175.473 102.342 175.568 102.257 175.634C102.173 175.7 102.066 175.731 101.961 175.72C101.74 175.696 101.584 175.498 101.613 175.279C101.89 173.185 102.02 171.077 102.001 168.971C102 168.9 102.019 168.83 102.055 168.767C102.091 168.705 102.143 168.653 102.206 168.617ZM100.528 181.246C100.598 181.205 100.677 181.186 100.757 181.19C100.836 181.194 100.912 181.222 100.975 181.269C101.038 181.317 101.085 181.382 101.11 181.457C101.135 181.531 101.136 181.612 101.115 181.688C100.537 183.756 99.8064 185.808 98.9403 187.787C98.8969 187.884 98.8168 187.961 98.7174 188.001C98.6181 188.041 98.5075 188.042 98.4095 188.002C98.2055 187.918 98.1118 187.684 98.2008 187.481C99.054 185.533 99.7683 183.531 100.338 181.489C100.368 181.383 100.438 181.297 100.528 181.246ZM95.3874 192.994C95.4652 192.949 95.5554 192.93 95.6438 192.941C95.7322 192.952 95.8138 192.992 95.8758 193.055C95.9379 193.117 95.9767 193.199 95.9863 193.286C95.996 193.374 95.9758 193.463 95.929 193.539C94.7914 195.388 93.5239 197.158 92.1363 198.834C91.997 199.009 91.74 199.034 91.5685 198.897C91.4865 198.831 91.435 198.735 91.4253 198.63C91.4155 198.525 91.4484 198.42 91.5166 198.337C92.8791 196.69 94.124 194.951 95.2421 193.135C95.2793 193.074 95.3297 193.027 95.3874 192.994ZM87.1659 202.928C87.2457 202.882 87.3384 202.864 87.4288 202.877C87.5192 202.89 87.6019 202.933 87.6635 202.999C87.735 203.076 87.772 203.179 87.7666 203.284C87.7611 203.39 87.7136 203.49 87.6343 203.563C86.0242 205.03 84.3147 206.386 82.5181 207.621C82.3325 207.757 82.0826 207.704 81.9592 207.526C81.9295 207.483 81.9087 207.435 81.8981 207.383C81.8874 207.332 81.8871 207.28 81.8971 207.228C81.9072 207.176 81.9273 207.127 81.9565 207.083C81.9857 207.038 82.0233 207 82.0672 206.97C83.8324 205.756 85.512 204.423 87.0938 202.981C87.1165 202.96 87.1405 202.943 87.1659 202.928ZM70.5473 212.759C70.5707 212.746 70.5954 212.735 70.6211 212.725C72.648 212.033 74.6261 211.203 76.5408 210.239C76.637 210.191 76.7477 210.182 76.8488 210.215C76.9498 210.247 77.033 210.318 77.0802 210.412C77.1784 210.607 77.093 210.841 76.8958 210.95C74.947 211.93 72.9338 212.775 70.871 213.479C70.776 213.511 70.6728 213.508 70.5815 213.469C70.4902 213.431 70.4172 213.36 70.3769 213.27C70.3365 213.18 70.3316 213.078 70.3631 212.984C70.3946 212.89 70.4602 212.809 70.5473 212.759Z" fill="#231826"/>
<path d="M85 154.263V185.737C85 188.096 83.0024 190 80.5269 190H33.4827C31.0072 190 29 188.096 29 185.737V154.263C29 151.913 31.0072 150 33.4827 150H80.5272C83.0027 150 85 151.913 85 154.263Z" fill="#453447"/>
<path d="M68 167.005C68 173.073 63.0755 178 57 178C50.9245 178 46 173.073 46 167.005C46 160.927 50.9245 156 57 156C63.0755 156 68 160.927 68 167.005Z" fill="white"/>
<path d="M61.4394 168.056L56.0634 171.761C55.1933 172.366 54 171.75 54 170.706V163.294C54 162.25 55.1933 161.634 56.0634 162.239L61.4394 165.944C62.1869 166.45 62.1869 167.55 61.4394 168.056Z" fill="#E55D5D"/>
<path d="M34 183H80V184H34V183Z" fill="#E5E9F6"/>
<path d="M34 183H51V184H34V183Z" fill="#BEC8E9"/>
</svg>
