<svg width="144" height="57" viewBox="0 0 144 57" fill="none" xmlns="http://www.w3.org/2000/svg">
<g clip-path="url(#clip0_3732_70453)">
<path d="M7.12891 0.25H136.871C140.67 0.25 143.75 3.32816 143.75 7.125V49.875C143.75 53.6718 140.67 56.75 136.871 56.75H7.12891C3.32977 56.75 0.25 53.6718 0.25 49.875V7.125C0.25 3.32816 3.32977 0.25 7.12891 0.25Z" fill="#F9F9F9" stroke="#E2E5EB" stroke-width="0.5"/>
<path d="M12.4782 12.54C12.7862 12.54 13.0628 12.5856 13.308 12.6768C13.5532 12.7623 13.7614 12.8849 13.9325 13.0445C14.1092 13.2041 14.2433 13.395 14.3345 13.6173C14.4315 13.8339 14.4799 14.0705 14.4799 14.327C14.4799 14.5892 14.4315 14.8314 14.3345 15.0537C14.2433 15.276 14.1092 15.4698 13.9325 15.6351C13.7614 15.7947 13.5504 15.923 13.2994 16.0199C13.0485 16.1111 12.769 16.1567 12.4611 16.1567H11.5971V18.525H10.793V12.54H12.4782ZM12.4183 15.4299C12.6179 15.4299 12.7947 15.4014 12.9487 15.3444C13.1027 15.2874 13.231 15.2105 13.3336 15.1136C13.442 15.0167 13.5218 14.9027 13.5732 14.7716C13.6302 14.6348 13.6587 14.4923 13.6587 14.3441C13.6587 14.1959 13.6302 14.0562 13.5732 13.9251C13.5218 13.794 13.4448 13.68 13.3422 13.5831C13.2395 13.4862 13.1084 13.4093 12.9487 13.3523C12.7947 13.2953 12.6151 13.2668 12.4098 13.2668H11.5971V15.4299H12.4183ZM16.7099 18.5934C16.419 18.5934 16.151 18.5478 15.9058 18.4566C15.6662 18.3654 15.4552 18.2343 15.2727 18.0633C15.0959 17.8923 14.9562 17.6871 14.8536 17.4477C14.7566 17.2026 14.7081 16.929 14.7081 16.6269C14.7081 16.3134 14.7623 16.0341 14.8707 15.789C14.979 15.5439 15.1216 15.3359 15.2984 15.1649C15.4809 14.9939 15.689 14.8656 15.9229 14.7801C16.1624 14.6889 16.4133 14.6433 16.6757 14.6433C16.9722 14.6433 17.2345 14.6975 17.4627 14.8058C17.6965 14.9084 17.8932 15.0509 18.0529 15.2333C18.2126 15.41 18.3324 15.6152 18.4122 15.8489C18.4978 16.0769 18.5405 16.3163 18.5405 16.5671V16.7808H15.4609C15.5008 17.1456 15.6377 17.4306 15.8715 17.6358C16.1111 17.841 16.4076 17.9436 16.7612 17.9436C17.0007 17.9436 17.2203 17.898 17.4199 17.8068C17.6252 17.7156 17.7934 17.5902 17.9246 17.4306L18.3865 17.8581C18.1983 18.1032 17.956 18.2885 17.6594 18.4139C17.3629 18.5336 17.0463 18.5934 16.7099 18.5934ZM16.6243 15.3017C16.3392 15.3017 16.094 15.3843 15.8886 15.5496C15.689 15.7092 15.5579 15.9315 15.4951 16.2165H17.7706C17.725 15.9543 17.5967 15.7377 17.3857 15.5667C17.1804 15.39 16.9266 15.3017 16.6243 15.3017ZM19.4678 14.7117H20.2291V17.2254L22.3506 14.7117H22.8639V18.525H22.094V15.96L19.9211 18.525H19.4678V14.7117ZM21.1615 14.1474C20.9847 14.1474 20.8194 14.1246 20.6654 14.079C20.5171 14.0277 20.3888 13.9565 20.2804 13.8653C20.1721 13.7684 20.0865 13.6515 20.0238 13.5147C19.9611 13.3722 19.9297 13.2098 19.9297 13.0274H20.5542C20.5542 13.1984 20.6055 13.338 20.7082 13.4463C20.8165 13.5546 20.9733 13.6088 21.1786 13.6088C21.3783 13.6088 21.5322 13.5575 21.6406 13.4549C21.7489 13.3523 21.806 13.2098 21.8117 13.0274H22.4276C22.4162 13.3979 22.2907 13.6772 22.0512 13.8653C21.8174 14.0534 21.5208 14.1474 21.1615 14.1474ZM24.8838 15.3957H23.6434V14.7117H26.8855V15.3957H25.6451V18.525H24.8838V15.3957ZM27.6713 14.7117H28.4327V17.2254L30.5542 14.7117H31.0675V18.525H30.2976V15.96L28.1247 18.525H27.6713V14.7117ZM34.901 16.8578H33.019V18.525H32.2577V14.7117H33.019V16.1823H34.901V14.7117H35.6623V18.525H34.901V16.8578ZM36.8607 14.7117H39.3842V15.3957H37.622V18.525H36.8607V14.7117Z" fill="#2C2C35"/>
<path d="M63.0086 14.7727C62.7479 14.6731 62.4068 14.6433 62.0358 14.6433H59.9698V14.006H63.52V12.9106H58.5156V17.6506H61.9054C62.3768 17.6506 62.7277 17.6109 62.9885 17.5112C63.5402 17.3021 63.9112 16.7942 63.9112 16.127C63.9112 15.4499 63.5602 14.9819 63.0086 14.7727ZM62.2865 16.4158C62.2063 16.4457 62.0959 16.4556 61.9555 16.4556H59.9698V15.6988H61.9555C62.116 15.6988 62.2464 15.7089 62.3467 15.7586C62.467 15.8184 62.5272 15.9279 62.5272 16.0672C62.5272 16.2067 62.457 16.3561 62.2865 16.4158Z" fill="#333333"/>
<path d="M67.9892 12.9106H65.8632L63.9075 17.6506H65.5523L65.823 16.9635H68.0294L68.3102 17.6506H69.9449L67.9892 12.9106ZM66.184 15.9179L66.8762 14.006H66.9864L67.6783 15.9179H66.184Z" fill="#333333"/>
<path d="M71.8161 15.8881V17.6507H70.3619V12.9106H71.8161V14.6434H74.1529V12.9106H75.6072V17.6507H74.1529V15.8881H71.8161Z" fill="#333333"/>
<path d="M77.9082 15.8583V17.6507H76.454V12.9106H77.9082V14.6931H78.3096L80.0647 12.9106H81.8896L79.5628 15.181L81.9802 17.6507H80.044L78.3096 15.8583H77.9082Z" fill="#333333"/>
<path d="M44.198 10.1461H55.7315V15.5109C55.7315 16.9874 54.9383 18.3518 53.6505 19.0901L49.9648 21.2034L46.279 19.0901C44.9913 18.3518 44.198 16.9874 44.198 15.5109V10.1461Z" fill="#FFDD2D"/>
<path fill-rule="evenodd" clip-rule="evenodd" d="M47.3795 12.9106V14.6907C47.6247 14.4158 48.0704 14.2298 48.5801 14.2298H49.1338V16.2992C49.1338 16.8496 48.9832 17.3887 48.7597 17.6538H51.1687C50.9457 17.3885 50.7954 16.8501 50.7954 16.3002V14.2298H51.3492C51.8588 14.2298 52.3045 14.4158 52.5497 14.6907V12.9106H47.3795Z" fill="#333333"/>
<path d="M17.0977 41.6144H10.7703V39.4L17.8762 30.3028H20.3912V38.7217H21.7086V41.6144H20.3912V44.4673H17.0977V41.6144ZM17.0977 38.7217V35.5297L14.5228 38.7217H17.0977ZM24.822 44.6668C24.2631 44.6668 23.8373 44.5072 23.5446 44.188C23.2519 43.8554 23.1054 43.4564 23.1054 42.991C23.1054 42.5122 23.2452 42.1065 23.5246 41.774C23.8174 41.4415 24.2499 41.2753 24.822 41.2753C25.3942 41.2753 25.8334 41.4415 26.1394 41.774C26.4455 42.1065 26.5985 42.5122 26.5985 42.991C26.5985 43.4564 26.4388 43.8554 26.1195 44.188C25.8134 44.5072 25.3809 44.6668 24.822 44.6668ZM32.6136 30.3626C33.3189 30.3626 33.9709 30.4756 34.5698 30.7018C35.1686 30.9278 35.6875 31.247 36.1267 31.6594C36.5658 32.0584 36.9051 32.5504 37.1446 33.1357C37.3974 33.7208 37.5239 34.3726 37.5239 35.0908C37.5239 35.5562 37.4706 36.0085 37.3642 36.4474C37.2577 36.8863 37.1047 37.3318 36.9051 37.784C36.7188 38.2362 36.4926 38.7017 36.2265 39.1805C35.9603 39.646 35.6609 40.1447 35.3283 40.6768L33.0128 44.4673H29.5996V44.2079L32.8532 38.981C32.6402 39.0475 32.4207 39.1007 32.1945 39.1406C31.9682 39.1672 31.742 39.1805 31.5158 39.1805C30.9968 39.1805 30.4978 39.094 30.0188 38.9212C29.5397 38.7349 29.1206 38.4689 28.7613 38.1232C28.402 37.7773 28.1092 37.3517 27.883 36.8464C27.6701 36.3409 27.5637 35.7557 27.5637 35.0908C27.5637 34.3592 27.6967 33.7009 27.9629 33.1157C28.229 32.5305 28.5883 32.0317 29.0407 31.6195C29.4931 31.2071 30.0254 30.8946 30.6376 30.6818C31.2496 30.469 31.9083 30.3626 32.6136 30.3626ZM32.5338 33.2554C32.0148 33.2554 31.6023 33.4083 31.2963 33.7142C31.0035 34.0068 30.8571 34.3858 30.8571 34.8514C30.8571 35.3035 30.9968 35.6759 31.2763 35.9686C31.5557 36.2479 31.9616 36.3875 32.4939 36.3875C33.0261 36.3875 33.4453 36.2412 33.7514 35.9486C34.0707 35.656 34.2304 35.2769 34.2304 34.8115C34.2304 34.3459 34.0707 33.9736 33.7514 33.6943C33.4453 33.4016 33.0394 33.2554 32.5338 33.2554Z" fill="#2C2C35"/>
<path d="M48.9761 35.9406C48.8843 35.7478 48.6902 35.625 48.4771 35.625C48.264 35.625 48.0717 35.7478 47.9781 35.9406L46.864 38.2604L44.3759 38.6321C44.1679 38.6637 43.9947 38.8109 43.9305 39.0126C43.8664 39.2142 43.9184 39.4369 44.0675 39.586L45.8729 41.3938L45.4467 43.9485C45.412 44.1589 45.4986 44.3728 45.6701 44.4973C45.8417 44.6218 46.0687 44.6376 46.2558 44.5376L48.4789 43.3365L50.7019 44.5376C50.889 44.6376 51.116 44.6235 51.2875 44.4973C51.459 44.3711 51.5456 44.1589 51.511 43.9485L51.083 41.3938L52.8885 39.586C53.0374 39.4369 53.0912 39.2142 53.0253 39.0126C52.9595 38.8109 52.7879 38.6637 52.5801 38.6321L50.0902 38.2604L48.9761 35.9406Z" fill="#FFD850"/>
<path d="M60.382 35.9406C60.2901 35.7478 60.0961 35.625 59.883 35.625C59.6699 35.625 59.4775 35.7478 59.3839 35.9406L58.2699 38.2604L55.7817 38.6321C55.5738 38.6637 55.4006 38.8109 55.3364 39.0126C55.2723 39.2142 55.3243 39.4369 55.4733 39.586L57.2788 41.3938L56.8525 43.9485C56.8179 44.1589 56.9045 44.3728 57.076 44.4973C57.2475 44.6218 57.4746 44.6376 57.6617 44.5376L59.8847 43.3365L62.1078 44.5376C62.2949 44.6376 62.5219 44.6235 62.6934 44.4973C62.8649 44.3711 62.9515 44.1589 62.9169 43.9485L62.4889 41.3938L64.2943 39.586C64.4433 39.4369 64.4971 39.2142 64.4312 39.0126C64.3654 38.8109 64.1938 38.6637 63.986 38.6321L61.4961 38.2604L60.382 35.9406Z" fill="#FFD850"/>
<path d="M71.7883 35.9406C71.6964 35.7478 71.5017 35.625 71.2893 35.625C71.0759 35.625 70.8835 35.7478 70.7899 35.9406L69.6759 38.2604L67.1877 38.6321C66.9798 38.6637 66.8066 38.8109 66.7424 39.0126C66.6783 39.2142 66.7303 39.4369 66.8794 39.586L68.6848 41.3938L68.2585 43.9485C68.2239 44.1589 68.3105 44.3728 68.482 44.4973C68.6535 44.6218 68.8806 44.6376 69.0677 44.5376L71.2907 43.3365L73.5135 44.5376C73.701 44.6376 73.9277 44.6235 74.0995 44.4973C74.2713 44.3711 74.3575 44.1589 74.3226 43.9485L73.8949 41.3938L75.7006 39.586C75.8496 39.4369 75.903 39.2142 75.8374 39.0126C75.7711 38.8109 75.6 38.6637 75.3919 38.6321L72.9018 38.2604L71.7883 35.9406Z" fill="#FFD850"/>
<path d="M83.1943 35.9406C83.1023 35.7478 82.9077 35.625 82.6953 35.625C82.4821 35.625 82.2896 35.7478 82.1963 35.9406L81.082 38.2604L78.5934 38.6321C78.386 38.6637 78.2127 38.8109 78.1486 39.0126C78.0844 39.2142 78.1365 39.4369 78.2854 39.586L80.0904 41.3938L79.6641 43.9485C79.6299 44.1589 79.7162 44.3728 79.888 44.4973C80.0598 44.6218 80.2865 44.6376 80.474 44.5376L82.6967 43.3365L84.9194 44.5376C85.1069 44.6376 85.3336 44.6235 85.5054 44.4973C85.6772 44.3711 85.7635 44.1589 85.7285 43.9485L85.3008 41.3938L87.1065 39.586C87.2555 39.4369 87.309 39.2142 87.2434 39.0126C87.1771 38.8109 87.006 38.6637 86.7978 38.6321L84.3078 38.2604L83.1943 35.9406Z" fill="#FFD850"/>
<path d="M94.6002 35.9406C94.5082 35.7478 94.3136 35.625 94.1012 35.625C93.888 35.625 93.6955 35.7478 93.6021 35.9406L92.4879 38.2604L89.9993 38.6321C89.7918 38.6637 89.6186 38.8109 89.5545 39.0126C89.4903 39.2142 89.5423 39.4369 89.6913 39.586L91.4963 41.3938L91.07 43.9485C91.0358 44.1589 91.1221 44.3728 91.2939 44.4973C91.4657 44.6218 91.6924 44.6376 91.8798 44.5376L94.1026 43.3365L96.3253 44.5376C96.5128 44.6376 96.7395 44.6235 96.9113 44.4973C97.0831 44.3711 97.1693 44.1589 97.1344 43.9485L96.7067 41.3938L98.5124 39.586C98.6614 39.4369 98.7148 39.2142 98.6493 39.0126C98.583 38.8109 98.4119 38.6637 98.2037 38.6321L95.7137 38.2604L94.6002 35.9406Z" fill="url(#paint0_linear_3732_70453)"/>
<path d="M105.534 40.869V40.7122C105.534 40.2002 105.605 39.7352 105.746 39.3172C105.892 38.8991 106.054 38.5361 106.232 38.2278C106.336 38.0501 106.446 37.8829 106.561 37.7262C106.676 37.5642 106.799 37.41 106.93 37.2637H107.73C107.589 37.41 107.455 37.5642 107.33 37.7262C107.204 37.8829 107.089 38.0501 106.985 38.2278C106.797 38.5308 106.624 38.8939 106.467 39.3172C106.315 39.7352 106.24 40.2002 106.24 40.7122V40.869C106.24 41.3811 106.315 41.8487 106.467 42.2719C106.624 42.6951 106.797 43.0583 106.985 43.3613C107.089 43.5389 107.204 43.7088 107.33 43.8708C107.455 44.0327 107.589 44.1816 107.73 44.3175H106.899C106.767 44.1816 106.645 44.0327 106.53 43.8708C106.42 43.7088 106.315 43.5389 106.216 43.3613C106.044 43.0583 105.887 42.6951 105.746 42.2719C105.605 41.8487 105.534 41.3811 105.534 40.869ZM110.081 42.8284C109.783 42.8284 109.524 42.7892 109.305 42.7108C109.085 42.6324 108.9 42.5253 108.748 42.3895C108.602 42.2536 108.489 42.1021 108.411 41.9349C108.332 41.7677 108.288 41.5952 108.277 41.4176H109.014C109.041 41.6162 109.146 41.7912 109.328 41.9427C109.516 42.0943 109.767 42.17 110.081 42.17C110.437 42.17 110.716 42.0603 110.92 41.8408C111.124 41.6162 111.226 41.3053 111.226 40.9082C111.226 40.6052 111.171 40.3622 111.061 40.1793C110.951 39.9912 110.808 39.8553 110.63 39.7717C110.457 39.6882 110.275 39.6463 110.081 39.6463C109.799 39.6463 109.577 39.6986 109.414 39.8031C109.258 39.9076 109.138 40.0277 109.054 40.1636H108.395V37.2637H111.649V37.9064H109.132V39.4347C109.268 39.2832 109.425 39.1709 109.603 39.0977C109.781 39.0245 109.979 38.988 110.198 38.988C110.565 38.988 110.879 39.0612 111.139 39.2074C111.401 39.3537 111.602 39.5706 111.743 39.858C111.89 40.1401 111.963 40.4902 111.963 40.9082C111.963 41.3001 111.882 41.6397 111.72 41.9271C111.563 42.2144 111.343 42.4365 111.061 42.5932C110.779 42.75 110.452 42.8284 110.081 42.8284ZM112.787 43.9256L113.101 42.75V41.8879H113.963V42.75L113.179 43.9256H112.787ZM116.942 42.8284C116.544 42.8284 116.204 42.7605 115.922 42.6246C115.646 42.4835 115.431 42.2954 115.279 42.0603C115.133 41.82 115.06 41.5535 115.06 41.2609H115.797C115.797 41.5273 115.889 41.7468 116.071 41.9192C116.254 42.0864 116.544 42.17 116.942 42.17C117.339 42.17 117.629 42.0838 117.812 41.9114C117.995 41.7338 118.086 41.5038 118.086 41.2217C118.086 40.9291 117.992 40.6939 117.804 40.5163C117.622 40.3334 117.334 40.242 116.942 40.242H116.353V39.615H116.942C117.318 39.615 117.59 39.5366 117.757 39.3799C117.925 39.2179 118.008 38.9958 118.008 38.7137C118.008 38.442 117.927 38.2304 117.765 38.0788C117.603 37.9221 117.329 37.8437 116.942 37.8437C116.571 37.8437 116.299 37.9247 116.126 38.0867C115.959 38.2434 115.875 38.4394 115.875 38.6745H115.138C115.138 38.3975 115.209 38.1467 115.35 37.9221C115.491 37.6974 115.695 37.5197 115.961 37.3891C116.234 37.2533 116.56 37.1854 116.942 37.1854C117.329 37.1854 117.655 37.2533 117.922 37.3891C118.194 37.5197 118.398 37.6948 118.533 37.9143C118.675 38.1337 118.745 38.374 118.745 38.6353C118.745 38.9488 118.662 39.2153 118.494 39.4347C118.332 39.649 118.102 39.8005 117.804 39.8893C118.118 39.9886 118.367 40.1506 118.549 40.3752C118.732 40.5999 118.824 40.9082 118.824 41.3001C118.824 41.577 118.751 41.833 118.604 42.0681C118.458 42.2981 118.243 42.4835 117.961 42.6246C117.684 42.7605 117.344 42.8284 116.942 42.8284ZM122.242 42.75V41.4255H119.451V40.8612L122.164 37.2637H122.98V40.7828H123.685V41.4255H122.98V42.75H122.242ZM120.235 40.7828H122.242V38.1259L120.235 40.7828ZM127.029 42.75V41.4255H124.237V40.8612L126.95 37.2637H127.766V40.7828H128.472V41.4255H127.766V42.75H127.029ZM125.021 40.7828H127.029V38.1259L125.021 40.7828ZM131.141 40.7122V40.869C131.141 41.3811 131.067 41.846 130.921 42.2641C130.78 42.6821 130.62 43.0452 130.443 43.3535C130.343 43.5311 130.233 43.6983 130.113 43.8551C129.998 44.017 129.875 44.1712 129.745 44.3175H128.945C129.086 44.1712 129.219 44.017 129.345 43.8551C129.47 43.6983 129.585 43.5311 129.69 43.3535C129.878 43.0505 130.048 42.6873 130.2 42.2641C130.356 41.8408 130.435 41.3758 130.435 40.869V40.7122C130.435 40.2002 130.356 39.7326 130.2 39.3093C130.048 38.8861 129.878 38.5229 129.69 38.2199C129.585 38.037 129.47 37.8672 129.345 37.7105C129.219 37.5485 129.086 37.3996 128.945 37.2637H129.776C129.907 37.3996 130.027 37.5485 130.137 37.7105C130.252 37.8672 130.358 38.037 130.458 38.2199C130.631 38.5229 130.788 38.8861 130.929 39.3093C131.07 39.7326 131.141 40.2002 131.141 40.7122Z" fill="#8E8E8E"/>
</g>
<defs>
<linearGradient id="paint0_linear_3732_70453" x1="89.9401" y1="40.5218" x2="97.8409" y2="40.5218" gradientUnits="userSpaceOnUse">
<stop offset="0.665" stop-color="#FFD850"/>
<stop offset="0.6651" stop-color="#ADB4BA"/>
</linearGradient>
<clipPath id="clip0_3732_70453">
<rect width="144" height="57" fill="white"/>
</clipPath>
</defs>
</svg>
