<svg width="144" height="57" viewBox="0 0 144 57" fill="none" xmlns="http://www.w3.org/2000/svg">
<g clip-path="url(#clip0_3732_70442)">
<path d="M5.70312 0.25H138.297C141.309 0.25 143.75 2.69037 143.75 5.7002V51.2998C143.75 54.3096 141.309 56.75 138.297 56.75H5.70312C2.69141 56.75 0.25 54.3096 0.25 51.2998V5.7002C0.25 2.69037 2.69141 0.25 5.70312 0.25Z" fill="#F9F9F9" stroke="#E2E5EB" stroke-width="0.5"/>
<path d="M13.1941 33.881L10.4509 34.8813V32.4175L15.6592 30.4724V43.7548H13.1941V33.881ZM23.286 40.8278H17.3549V39.1791L24.0645 30.602H25.8994V38.5307H27.2339V40.8278H25.8994V43.7548H23.286V40.8278ZM23.286 38.5307V35.011L20.4688 38.5307H23.286ZM33.294 43.8659C32.5896 43.8659 31.9471 43.7177 31.3664 43.4213C30.798 43.1249 30.3037 42.6989 29.8836 42.1431C29.4635 41.575 29.1361 40.8834 28.9012 40.0683C28.6788 39.2532 28.5676 38.327 28.5676 37.2896C28.5676 36.2274 28.685 35.2889 28.9198 34.4738C29.1546 33.6463 29.482 32.9547 29.9021 32.399C30.3223 31.8308 30.8165 31.4047 31.3849 31.1207C31.9657 30.8243 32.5958 30.6761 33.2754 30.6761C33.9797 30.6761 34.6161 30.8243 35.1845 31.1207C35.7653 31.4171 36.2595 31.8493 36.6673 32.4175C37.0874 32.9732 37.4087 33.6587 37.6311 34.4738C37.8659 35.2889 37.9832 36.2151 37.9832 37.2525C37.9832 38.3146 37.8659 39.2593 37.6311 40.0868C37.3963 40.9019 37.0689 41.5935 36.6487 42.1616C36.2286 42.7174 35.7282 43.1435 35.1474 43.4399C34.5791 43.7239 33.9612 43.8659 33.294 43.8659ZM33.294 41.5318C33.5658 41.5318 33.8253 41.4515 34.0724 41.291C34.3319 41.118 34.5543 40.8587 34.7397 40.5129C34.9374 40.1671 35.0918 39.7287 35.203 39.1976C35.3142 38.6542 35.3698 38.0058 35.3698 37.2525C35.3698 36.5238 35.3142 35.894 35.203 35.363C35.0918 34.8195 34.9435 34.3749 34.7582 34.0292C34.5729 33.6833 34.3504 33.4302 34.0909 33.2696C33.8439 33.0967 33.572 33.0103 33.2754 33.0103C32.9913 33.0103 32.7194 33.0905 32.4599 33.2511C32.2128 33.4116 31.9904 33.6648 31.7927 34.0106C31.6073 34.3564 31.459 34.801 31.3478 35.3444C31.2366 35.8878 31.181 36.5362 31.181 37.2896C31.181 38.0182 31.2366 38.6542 31.3478 39.1976C31.459 39.7287 31.6073 40.1671 31.7927 40.5129C31.978 40.8587 32.2004 41.118 32.4599 41.291C32.7194 41.4515 32.9974 41.5318 33.294 41.5318ZM42.9317 35.7149H43.7472L46.9537 30.7873H50.0119V31.1578L46.2123 36.5486L51.1982 43.3843V43.7548H47.8804L43.8584 38.1602H42.9317V43.7548H40.0774V30.7873H42.9317V35.7149ZM56.6336 33.3252V36.1595H59.4694V38.2529H56.6336V41.1057H54.5392V38.2529H51.6848V36.1595H54.5392V33.3252H56.6336Z" fill="#2C2C35"/>
<path d="M65.8193 35.055H71.019V42.0375H70.0809V35.9029H66.7575V42.0375H65.8193V35.055ZM74.5442 42.1173C74.212 42.1173 73.9026 42.0608 73.616 41.9477C73.3366 41.828 73.0942 41.6651 72.8875 41.4589C72.6814 41.2528 72.5182 41.0101 72.3984 40.7308C72.2858 40.4448 72.2288 40.1356 72.2288 39.8031C72.2288 39.4706 72.2858 39.1647 72.3984 38.8854C72.5182 38.5995 72.6814 38.3567 72.8875 38.1572C73.0942 37.9511 73.3366 37.7915 73.616 37.6784C73.9026 37.5653 74.212 37.5088 74.5442 37.5088C74.8771 37.5088 75.1829 37.5653 75.4623 37.6784C75.7489 37.7915 75.9949 37.9511 76.2009 38.1572C76.4076 38.3567 76.5673 38.5995 76.6799 38.8854C76.7997 39.1647 76.8596 39.4706 76.8596 39.8031C76.8596 40.1422 76.7997 40.4548 76.6799 40.7407C76.5673 41.02 76.404 41.2628 76.1909 41.4689C75.9849 41.6684 75.7389 41.828 75.4524 41.9477C75.1729 42.0608 74.8707 42.1173 74.5442 42.1173ZM74.5442 41.3293C74.7509 41.3293 74.9405 41.2927 75.113 41.2195C75.2863 41.1464 75.4324 41.0433 75.5522 40.9103C75.6791 40.7707 75.7753 40.6077 75.8416 40.4215C75.9086 40.2354 75.9414 40.0292 75.9414 39.8031C75.9414 39.3576 75.8152 38.9951 75.5621 38.7158C75.3162 38.4365 74.9769 38.2969 74.5442 38.2969C74.1186 38.2969 73.7757 38.4365 73.5162 38.7158C73.2638 38.9951 73.137 39.3576 73.137 39.8031C73.137 40.0225 73.1705 40.2287 73.2368 40.4215C73.3038 40.6077 73.3964 40.7673 73.5162 40.9003C73.6431 41.0334 73.7928 41.1397 73.9653 41.2195C74.1385 41.2927 74.3317 41.3293 74.5442 41.3293ZM77.4612 42.1073C77.4014 42.1073 77.3543 42.104 77.3215 42.0973C77.288 42.0973 77.2581 42.094 77.2317 42.0874V41.1996C77.2581 41.2062 77.2816 41.2096 77.3015 41.2096C77.3279 41.2096 77.3479 41.2096 77.3614 41.2096C77.4612 41.2096 77.5539 41.1763 77.6409 41.1098C77.7271 41.0366 77.8006 40.9103 77.8604 40.7308C77.9267 40.5512 77.9766 40.3052 78.0101 39.9926C78.0501 39.68 78.07 39.2778 78.07 38.7856V37.5886H81.2138V42.0375H80.3256V38.3866H78.9084V39.2146C78.9084 39.7732 78.8713 40.2386 78.7986 40.6111C78.7316 40.9768 78.6353 41.2728 78.5092 41.4988C78.3823 41.7183 78.2297 41.8745 78.0501 41.9677C77.8704 42.0608 77.6737 42.1073 77.4612 42.1073ZM82.606 37.5886H83.4943V39.025H84.4224C85.0284 39.025 85.4875 39.1447 85.7997 39.3841C86.1126 39.6169 86.2688 39.9926 86.2688 40.5113C86.2688 41.0167 86.1091 41.3991 85.7897 41.6584C85.4775 41.9112 84.9884 42.0375 84.3226 42.0375H82.606V37.5886ZM84.1929 41.2794C84.3597 41.2794 84.5122 41.2694 84.652 41.2495C84.7988 41.2295 84.925 41.193 85.0312 41.1397C85.1381 41.0865 85.218 41.0101 85.2707 40.9103C85.3306 40.8039 85.3606 40.6709 85.3606 40.5113C85.3606 40.2254 85.2643 40.0325 85.0711 39.9328C84.8787 39.8264 84.6056 39.7732 84.2528 39.7732H83.4943V41.2794H84.1929ZM88.5343 42.1173C88.2947 42.1173 88.0752 42.094 87.8756 42.0475C87.6824 42.0009 87.5092 41.9411 87.3566 41.8679C87.2098 41.7881 87.0836 41.705 86.9774 41.6185C86.8776 41.5254 86.7941 41.439 86.7279 41.3592L87.2967 40.8006C87.4229 40.9536 87.5861 41.0799 87.7857 41.1796C87.9854 41.2794 88.2313 41.3293 88.5243 41.3293C88.8501 41.3293 89.0996 41.2661 89.2728 41.1397C89.4453 41.0134 89.5323 40.8438 89.5323 40.631C89.5323 40.4515 89.4589 40.3052 89.3127 40.1921C89.1659 40.079 88.9335 40.0225 88.6141 40.0225H87.9754V39.2944H88.4943C88.7403 39.2944 88.9363 39.2578 89.0832 39.1846C89.2293 39.1048 89.3027 38.9785 89.3027 38.8056C89.3027 38.646 89.2229 38.5197 89.0632 38.4265C88.9099 38.3334 88.7103 38.2869 88.4644 38.2869C88.2513 38.2869 88.0552 38.3268 87.8756 38.4066C87.7023 38.4864 87.5391 38.5928 87.3865 38.7258L86.9474 38.1073C87.1135 37.9544 87.3231 37.8181 87.5762 37.6984C87.8285 37.572 88.145 37.5088 88.5243 37.5088C89.0297 37.5088 89.4289 37.6186 89.7219 37.838C90.0213 38.0575 90.171 38.3368 90.171 38.6759C90.171 38.8887 90.1111 39.0749 89.9914 39.2345C89.878 39.3875 89.7219 39.5105 89.5223 39.6036C89.8217 39.6967 90.0477 39.843 90.201 40.0425C90.3535 40.2354 90.4305 40.4648 90.4305 40.7308C90.4305 40.9236 90.387 41.1065 90.3008 41.2794C90.2138 41.4456 90.0876 41.592 89.9215 41.7183C89.7618 41.8446 89.5651 41.9444 89.3327 42.0175C89.0996 42.084 88.8337 42.1173 88.5343 42.1173ZM93.4324 42.1173C93.1002 42.1173 92.7908 42.0608 92.5042 41.9477C92.2248 41.828 91.9824 41.6651 91.7757 41.4589C91.5697 41.2528 91.4064 41.0101 91.2867 40.7308C91.174 40.4448 91.117 40.1356 91.117 39.8031C91.117 39.4706 91.174 39.1647 91.2867 38.8854C91.4064 38.5995 91.5697 38.3567 91.7757 38.1572C91.9824 37.9511 92.2248 37.7915 92.5042 37.6784C92.7908 37.5653 93.1002 37.5088 93.4324 37.5088C93.7653 37.5088 94.0711 37.5653 94.3506 37.6784C94.6372 37.7915 94.8831 37.9511 95.0891 38.1572C95.2959 38.3567 95.4555 38.5995 95.5682 38.8854C95.6879 39.1647 95.7478 39.4706 95.7478 39.8031C95.7478 40.1422 95.6879 40.4548 95.5682 40.7407C95.4555 41.02 95.2923 41.2628 95.0791 41.4689C94.8731 41.6684 94.6272 41.828 94.3406 41.9477C94.0612 42.0608 93.7589 42.1173 93.4324 42.1173ZM93.4324 41.3293C93.6391 41.3293 93.8288 41.2927 94.0013 41.2195C94.1745 41.1464 94.3206 41.0433 94.4404 40.9103C94.5673 40.7707 94.6635 40.6077 94.7298 40.4215C94.7968 40.2354 94.8296 40.0292 94.8296 39.8031C94.8296 39.3576 94.7035 38.9951 94.4504 38.7158C94.2044 38.4365 93.8651 38.2969 93.4324 38.2969C93.0068 38.2969 92.6639 38.4365 92.4044 38.7158C92.1521 38.9951 92.0252 39.3576 92.0252 39.8031C92.0252 40.0225 92.0587 40.2287 92.125 40.4215C92.192 40.6077 92.2847 40.7673 92.4044 40.9003C92.5313 41.0334 92.681 41.1397 92.8536 41.2195C93.0268 41.2927 93.22 41.3293 93.4324 41.3293ZM96.8264 37.5886H98.9122C99.3713 37.5886 99.7135 37.6884 99.9402 37.8879C100.166 38.0874 100.28 38.3434 100.28 38.656C100.28 38.9087 100.21 39.1148 100.07 39.2744C99.9366 39.4274 99.7534 39.5304 99.521 39.5836C99.8604 39.6169 100.14 39.7233 100.359 39.9028C100.585 40.0758 100.699 40.3484 100.699 40.7208C100.699 41.1397 100.549 41.4656 100.25 41.6983C99.9566 41.9244 99.521 42.0375 98.9422 42.0375H96.8264V37.5886ZM97.7146 39.9727V41.2993H98.7126C99.0919 41.2993 99.3642 41.2461 99.531 41.1397C99.6971 41.0267 99.7805 40.8538 99.7805 40.621C99.7805 40.3816 99.6971 40.2154 99.531 40.1223C99.3642 40.0225 99.1183 39.9727 98.7925 39.9727H97.7146ZM97.7146 38.3268V39.3343H98.6627C98.9151 39.3343 99.1083 39.2977 99.2416 39.2245C99.3742 39.1514 99.4412 39.0184 99.4412 38.8255C99.4412 38.646 99.3742 38.5197 99.2416 38.4465C99.1147 38.3667 98.9187 38.3268 98.6528 38.3268H97.7146ZM103.487 42.1173C103.207 42.1173 102.938 42.0641 102.678 41.9577C102.425 41.8513 102.199 41.6983 102 41.4988C101.806 41.2993 101.65 41.0566 101.531 40.7707C101.417 40.4847 101.361 40.1655 101.361 39.8131C101.361 39.4673 101.417 39.1514 101.531 38.8654C101.643 38.5795 101.797 38.3368 101.99 38.1373C102.182 37.9378 102.405 37.7848 102.658 37.6784C102.918 37.5653 103.194 37.5088 103.487 37.5088C103.872 37.5088 104.198 37.5886 104.465 37.7482C104.737 37.9012 104.934 38.084 105.054 38.2969V37.5886H105.902V42.0375H105.054V41.3093C104.907 41.5421 104.697 41.7349 104.425 41.8879C104.158 42.0408 103.846 42.1173 103.487 42.1173ZM103.636 41.3193C103.856 41.3193 104.048 41.2794 104.215 41.1996C104.388 41.1132 104.531 41.0034 104.644 40.8704C104.764 40.7308 104.854 40.5745 104.914 40.4016C104.974 40.222 105.004 40.0359 105.004 39.843V39.6934C104.997 39.5072 104.96 39.3309 104.894 39.1647C104.834 38.9985 104.747 38.8521 104.634 38.7258C104.521 38.5995 104.381 38.4997 104.215 38.4265C104.048 38.3534 103.862 38.3168 103.656 38.3168C103.463 38.3168 103.284 38.3501 103.117 38.4166C102.951 38.483 102.805 38.5795 102.678 38.7058C102.559 38.8255 102.462 38.9785 102.389 39.1647C102.322 39.3509 102.289 39.5637 102.289 39.8031C102.289 40.0359 102.322 40.2453 102.389 40.4315C102.455 40.6177 102.549 40.7773 102.668 40.9103C102.788 41.0366 102.928 41.1364 103.088 41.2096C103.254 41.2827 103.437 41.3193 103.636 41.3193ZM108.262 38.3866H106.814V37.5886H110.597V38.3866H109.15V42.0375H108.262V38.3866ZM113.306 42.1173C112.966 42.1173 112.654 42.0641 112.368 41.9577C112.088 41.8513 111.842 41.6983 111.629 41.4988C111.423 41.2993 111.26 41.0599 111.14 40.7806C111.027 40.4947 110.97 40.1755 110.97 39.823C110.97 39.4573 111.034 39.1314 111.16 38.8455C111.286 38.5596 111.453 38.3168 111.659 38.1173C111.872 37.9178 112.115 37.7682 112.388 37.6684C112.667 37.5621 112.96 37.5088 113.266 37.5088C113.612 37.5088 113.918 37.572 114.184 37.6984C114.457 37.8181 114.687 37.9843 114.873 38.1971C115.059 38.4032 115.199 38.6426 115.292 38.9153C115.392 39.1813 115.442 39.4606 115.442 39.7532V40.0026H111.849C111.895 40.4282 112.055 40.7607 112.328 41.0001C112.607 41.2395 112.953 41.3592 113.366 41.3592C113.645 41.3592 113.901 41.306 114.134 41.1996C114.374 41.0932 114.57 40.9469 114.723 40.7607L115.262 41.2594C115.042 41.5454 114.759 41.7615 114.414 41.9078C114.068 42.0475 113.699 42.1173 113.306 42.1173ZM113.206 38.2769C112.873 38.2769 112.587 38.3733 112.348 38.5662C112.115 38.7524 111.962 39.0117 111.889 39.3442H114.543C114.49 39.0384 114.34 38.7856 114.094 38.5861C113.855 38.38 113.559 38.2769 113.206 38.2769ZM116.047 42.1073C115.987 42.1073 115.94 42.104 115.907 42.0973C115.874 42.0973 115.844 42.094 115.817 42.0874V41.1996C115.844 41.2062 115.867 41.2096 115.887 41.2096C115.914 41.2096 115.933 41.2096 115.947 41.2096C116.047 41.2096 116.139 41.1763 116.226 41.1098C116.313 41.0366 116.386 40.9103 116.446 40.7308C116.512 40.5512 116.562 40.3052 116.596 39.9926C116.636 39.68 116.656 39.2778 116.656 38.7856V37.5886H119.799V42.0375H118.911V38.3866H117.494V39.2146C117.494 39.7732 117.457 40.2386 117.384 40.6111C117.317 40.9768 117.221 41.2728 117.095 41.4988C116.968 41.7183 116.815 41.8745 116.636 41.9677C116.456 42.0608 116.259 42.1073 116.047 42.1073ZM123.218 42.1173C122.878 42.1173 122.566 42.0641 122.279 41.9577C122 41.8513 121.754 41.6983 121.541 41.4988C121.335 41.2993 121.172 41.0599 121.052 40.7806C120.939 40.4947 120.882 40.1755 120.882 39.823C120.882 39.4573 120.946 39.1314 121.072 38.8455C121.199 38.5596 121.365 38.3168 121.571 38.1173C121.784 37.9178 122.027 37.7682 122.299 37.6684C122.579 37.5621 122.872 37.5088 123.178 37.5088C123.524 37.5088 123.83 37.572 124.096 37.6984C124.369 37.8181 124.598 37.9843 124.784 38.1971C124.971 38.4032 125.111 38.6426 125.204 38.9153C125.303 39.1813 125.353 39.4606 125.353 39.7532V40.0026H121.76C121.808 40.4282 121.967 40.7607 122.24 41.0001C122.519 41.2395 122.865 41.3592 123.277 41.3592C123.557 41.3592 123.814 41.306 124.046 41.1996C124.285 41.0932 124.482 40.9469 124.635 40.7607L125.174 41.2594C124.954 41.5454 124.672 41.7615 124.325 41.9078C123.98 42.0475 123.61 42.1173 123.218 42.1173ZM123.118 38.2769C122.786 38.2769 122.499 38.3733 122.259 38.5662C122.027 38.7524 121.874 39.0117 121.8 39.3442H124.455C124.402 39.0384 124.253 38.7856 124.006 38.5861C123.767 38.38 123.471 38.2769 123.118 38.2769ZM126.435 37.5886H127.324V40.5213L129.799 37.5886H130.398V42.0375H129.499V39.045L126.964 42.0375H126.435V37.5886ZM128.412 36.9303C128.206 36.9303 128.012 36.9037 127.833 36.8505C127.659 36.7906 127.51 36.7075 127.384 36.6011C127.257 36.488 127.158 36.3517 127.084 36.1921C127.011 36.0259 126.974 35.8364 126.974 35.6236H127.703C127.703 35.8231 127.763 35.986 127.883 36.1123C128.009 36.2387 128.192 36.3019 128.432 36.3019C128.665 36.3019 128.844 36.242 128.97 36.1223C129.097 36.0026 129.164 35.8364 129.17 35.6236H129.889C129.875 36.0558 129.729 36.3817 129.45 36.6011C129.176 36.8206 128.831 36.9303 128.412 36.9303Z" fill="#2C2C35"/>
<mask id="mask0_3732_70442" style="mask-type:luminance" maskUnits="userSpaceOnUse" x="9" y="9" width="13" height="13">
<path d="M21.3862 9.97501H9.98022V21.375H21.3862V9.97501Z" fill="white"/>
</mask>
<g mask="url(#mask0_3732_70442)">
<path d="M15.6832 9.97501C14.1711 9.97501 12.7194 10.5759 11.6511 11.6445C10.5815 12.7135 9.98051 14.1632 9.98022 15.675C9.98022 17.1861 10.5817 18.6369 11.6511 19.7055C12.7194 20.7741 14.1711 21.375 15.6832 21.375C17.1953 21.375 18.647 20.7741 19.7153 19.7055C20.7846 18.6369 21.3862 17.1861 21.3862 15.675C21.3862 14.1639 20.7846 12.7131 19.7153 11.6445C18.647 10.5759 17.1953 9.97501 15.6832 9.97501Z" fill="url(#paint0_linear_3732_70442)"/>
<path d="M12.5617 15.6144C14.2244 14.8905 15.333 14.4133 15.8872 14.1827C17.4716 13.5242 17.8003 13.4099 18.0151 13.406C18.0623 13.4053 18.1675 13.4169 18.2361 13.4724C18.2932 13.5191 18.3092 13.5824 18.3172 13.6268C18.3243 13.6711 18.3341 13.7722 18.3261 13.8511C18.2405 14.7525 17.869 16.9396 17.6801 17.9492C17.6007 18.3763 17.4431 18.5195 17.2906 18.5335C16.9592 18.564 16.7079 18.3147 16.3871 18.1046C15.8854 17.7757 15.6021 17.5711 15.1146 17.2502C14.5514 16.8793 14.9168 16.6755 15.2376 16.3424C15.3213 16.2552 16.7809 14.9286 16.8086 14.8082C16.8122 14.7932 16.8157 14.7371 16.7819 14.7076C16.7489 14.6779 16.6999 14.688 16.6642 14.696C16.6134 14.7074 15.8124 15.2372 14.2583 16.2852C14.031 16.4414 13.8252 16.5175 13.6399 16.5135C13.4367 16.5092 13.0446 16.3985 12.7532 16.3039C12.3968 16.1879 12.1126 16.1265 12.1375 15.9294C12.15 15.8268 12.2916 15.7218 12.5617 15.6144Z" fill="white"/>
</g>
<path d="M26.6529 13.2667H25.0874V12.54H29.0139V13.2667H27.457V18.525H26.6529V13.2667ZM30.8113 18.5934C30.5204 18.5934 30.2524 18.5478 30.0071 18.4566C29.7676 18.3654 29.5566 18.2343 29.3741 18.0633C29.1973 17.8923 29.0576 17.6871 28.9549 17.4477C28.858 17.2026 28.8095 16.929 28.8095 16.6269C28.8095 16.3134 28.8637 16.0341 28.9721 15.789C29.0804 15.5439 29.223 15.3358 29.3998 15.1648C29.5823 14.9938 29.7904 14.8656 30.0242 14.7801C30.2638 14.6889 30.5147 14.6433 30.777 14.6433C31.0736 14.6433 31.3359 14.6974 31.5641 14.8057C31.7979 14.9083 31.9946 15.0508 32.1543 15.2332C32.314 15.4099 32.4338 15.6151 32.5136 15.8488C32.5991 16.0768 32.6419 16.3162 32.6419 16.567V16.7808H29.5623C29.6022 17.1456 29.7391 17.4306 29.9729 17.6358C30.2124 17.841 30.509 17.9436 30.8626 17.9436C31.1021 17.9436 31.3217 17.898 31.5213 17.8068C31.7266 17.7156 31.8948 17.5902 32.026 17.4306L32.4879 17.8581C32.2997 18.1032 32.0574 18.2884 31.7608 18.4138C31.4642 18.5335 31.1477 18.5934 30.8113 18.5934ZM30.7257 15.3016C30.4406 15.3016 30.1953 15.3843 29.99 15.5496C29.7904 15.7092 29.6593 15.9315 29.5965 16.2165H31.872C31.8264 15.9543 31.6981 15.7377 31.4871 15.5667C31.2818 15.39 31.028 15.3016 30.7257 15.3016ZM33.5691 12.54H34.3305V18.525H33.5691V12.54ZM37.2605 18.5934C36.9697 18.5934 36.7016 18.5478 36.4564 18.4566C36.2169 18.3654 36.0059 18.2343 35.8234 18.0633C35.6466 17.8923 35.5069 17.6871 35.4042 17.4477C35.3073 17.2026 35.2588 16.929 35.2588 16.6269C35.2588 16.3134 35.313 16.0341 35.4213 15.789C35.5297 15.5439 35.6723 15.3358 35.849 15.1648C36.0315 14.9938 36.2397 14.8656 36.4735 14.7801C36.713 14.6889 36.964 14.6433 37.2263 14.6433C37.5229 14.6433 37.7852 14.6974 38.0133 14.8057C38.2471 14.9083 38.4439 15.0508 38.6036 15.2332C38.7633 15.4099 38.883 15.6151 38.9629 15.8488C39.0484 16.0768 39.0912 16.3162 39.0912 16.567V16.7808H36.0116C36.0515 17.1456 36.1884 17.4306 36.4222 17.6358C36.6617 17.841 36.9583 17.9436 37.3119 17.9436C37.5514 17.9436 37.7709 17.898 37.9706 17.8068C38.1759 17.7156 38.3441 17.5902 38.4753 17.4306L38.9372 17.8581C38.749 18.1032 38.5066 18.2884 38.2101 18.4138C37.9135 18.5335 37.597 18.5934 37.2605 18.5934ZM37.175 15.3016C36.8898 15.3016 36.6446 15.3843 36.4393 15.5496C36.2397 15.7092 36.1085 15.9315 36.0458 16.2165H38.3213C38.2757 15.9543 38.1473 15.7377 37.9363 15.5667C37.731 15.39 37.4772 15.3016 37.175 15.3016ZM41.5753 18.5934C41.3358 18.5934 41.1048 18.5478 40.8824 18.4566C40.6657 18.3654 40.4718 18.2343 40.3007 18.0633C40.1353 17.8923 40.0013 17.6842 39.8987 17.4391C39.8017 17.194 39.7532 16.9204 39.7532 16.6183C39.7532 16.3219 39.8017 16.0512 39.8987 15.8061C39.9956 15.561 40.1268 15.3529 40.2922 15.1819C40.4575 15.0109 40.6486 14.8798 40.8653 14.7886C41.0877 14.6917 41.3244 14.6433 41.5753 14.6433C41.9061 14.6433 42.1855 14.7117 42.4137 14.8485C42.6475 14.9796 42.8157 15.1363 42.9184 15.3187V14.7117H43.6455V18.6361C43.6455 18.9724 43.5913 19.2631 43.483 19.5082C43.3746 19.759 43.2263 19.9642 43.0381 20.1238C42.8556 20.2891 42.6418 20.4117 42.3966 20.4915C42.1513 20.577 41.8918 20.6197 41.6181 20.6197C41.2816 20.6197 40.9737 20.557 40.6942 20.4316C40.4148 20.3062 40.1753 20.1238 39.9756 19.8844L40.429 19.3458C40.5773 19.5111 40.7455 19.6479 40.9337 19.7562C41.1219 19.8702 41.3529 19.9272 41.6267 19.9272C42.0259 19.9272 42.3338 19.8046 42.5505 19.5595C42.7673 19.3144 42.8756 18.9582 42.8756 18.4908V17.9607C42.7444 18.1488 42.5676 18.3027 42.3452 18.4224C42.1228 18.5364 41.8662 18.5934 41.5753 18.5934ZM41.7036 17.9094C41.8918 17.9094 42.0572 17.8752 42.1998 17.8068C42.3481 17.7327 42.4707 17.6386 42.5676 17.5246C42.6703 17.4049 42.7473 17.271 42.7986 17.1228C42.8499 16.9689 42.8756 16.8093 42.8756 16.644V16.5157C42.8699 16.3561 42.8385 16.2051 42.7815 16.0626C42.7302 15.9201 42.656 15.7947 42.5591 15.6864C42.4621 15.5781 42.3424 15.4926 42.1998 15.4299C42.0572 15.3672 41.8975 15.3358 41.7208 15.3358C41.5554 15.3358 41.4014 15.3643 41.2588 15.4213C41.1162 15.4783 40.9908 15.561 40.8824 15.6693C40.7798 15.7719 40.6971 15.903 40.6343 16.0626C40.5773 16.2222 40.5488 16.4046 40.5488 16.6098C40.5488 16.8093 40.5773 16.9888 40.6343 17.1484C40.6914 17.308 40.7712 17.4448 40.8739 17.5588C40.9765 17.6671 41.0963 17.7526 41.2332 17.8153C41.3757 17.878 41.5326 17.9094 41.7036 17.9094ZM46.5153 14.6604C46.5609 14.6604 46.6151 14.6632 46.6778 14.6689C46.7406 14.6689 46.7948 14.6746 46.8404 14.686V15.4213C46.6978 15.3928 46.5581 15.3786 46.4212 15.3786C46.2501 15.3786 46.1104 15.4071 46.002 15.4641C45.8994 15.5154 45.8167 15.5923 45.754 15.6949C45.6969 15.7975 45.657 15.9201 45.6342 16.0626C45.6114 16.1994 45.6 16.3533 45.6 16.5243V18.525H44.8386V14.7117H45.5572V15.2589C45.6257 15.1107 45.734 14.9739 45.8823 14.8485C46.0363 14.7231 46.2473 14.6604 46.5153 14.6604ZM49.144 18.5934C48.9045 18.5934 48.6735 18.5478 48.4511 18.4566C48.2344 18.3654 48.0405 18.2343 47.8694 18.0633C47.704 17.8923 47.57 17.6842 47.4674 17.4391C47.3704 17.194 47.3219 16.9204 47.3219 16.6183C47.3219 16.3219 47.3704 16.0512 47.4674 15.8061C47.5643 15.561 47.6955 15.3529 47.8609 15.1819C48.0262 15.0109 48.2173 14.8798 48.434 14.7886C48.6564 14.6917 48.8931 14.6433 49.144 14.6433C49.4748 14.6433 49.7542 14.7117 49.9824 14.8485C50.2162 14.9796 50.3844 15.1363 50.4871 15.3187V14.7117H51.2142V18.525H50.4871V17.9008C50.3616 18.1003 50.182 18.2656 49.9481 18.3967C49.72 18.5278 49.452 18.5934 49.144 18.5934ZM49.2723 17.9094C49.4605 17.9094 49.6259 17.8752 49.7685 17.8068C49.9168 17.7327 50.0394 17.6386 50.1363 17.5246C50.239 17.4049 50.316 17.271 50.3673 17.1228C50.4186 16.9689 50.4443 16.8093 50.4443 16.644V16.5157C50.4386 16.3561 50.4072 16.2051 50.3502 16.0626C50.2989 15.9201 50.2247 15.7947 50.1278 15.6864C50.0308 15.5781 49.9111 15.4926 49.7685 15.4299C49.6259 15.3672 49.4662 15.3358 49.2895 15.3358C49.1241 15.3358 48.9701 15.3643 48.8275 15.4213C48.6849 15.4783 48.5595 15.561 48.4511 15.6693C48.3485 15.7719 48.2658 15.903 48.203 16.0626C48.146 16.2222 48.1175 16.4046 48.1175 16.6098C48.1175 16.8093 48.146 16.9888 48.203 17.1484C48.2601 17.308 48.3399 17.4448 48.4426 17.5588C48.5452 17.6671 48.665 17.7526 48.8018 17.8153C48.9444 17.878 49.1013 17.9094 49.2723 17.9094ZM54.8026 16.2934C54.8026 15.9685 54.7341 15.7348 54.5973 15.5923C54.4661 15.4441 54.295 15.37 54.084 15.37C53.9414 15.37 53.8131 15.4014 53.6991 15.4641C53.5907 15.5211 53.4966 15.6037 53.4168 15.712C53.3426 15.8146 53.2827 15.9372 53.2371 16.0797C53.1972 16.2222 53.1744 16.3789 53.1687 16.5499V18.525H52.4073V14.7117H53.1259V15.37C53.2343 15.1648 53.3882 14.9967 53.5879 14.8656C53.7875 14.7288 54.0156 14.6604 54.2722 14.6604C54.506 14.6604 54.7199 14.7259 54.9138 14.857C55.1134 14.9824 55.2645 15.1534 55.3672 15.37C55.4812 15.1648 55.6409 14.9967 55.8462 14.8656C56.0572 14.7288 56.2996 14.6604 56.5734 14.6604C56.7559 14.6604 56.9298 14.6946 57.0952 14.763C57.2663 14.8257 57.4145 14.9197 57.54 15.0451C57.6712 15.1648 57.7738 15.313 57.848 15.4897C57.9278 15.6607 57.9677 15.8545 57.9677 16.0711V18.525H57.1978V16.3704C57.1978 16.0113 57.118 15.7548 56.9583 15.6009C56.7986 15.447 56.6133 15.37 56.4023 15.37C56.1285 15.37 55.9204 15.4755 55.7778 15.6864C55.6409 15.8916 55.5696 16.1652 55.5639 16.5072V18.525H54.8026V16.2934ZM63.2716 12.4716H63.725L66.2058 18.525H65.3247L64.7173 16.986H62.2537L61.6548 18.525H60.8165L63.2716 12.4716ZM62.5274 16.2849H64.435L63.4769 13.8652L62.5274 16.2849ZM66.9098 20.577V14.7117H67.6284V15.3187C67.7253 15.1363 67.8907 14.9796 68.1245 14.8485C68.3583 14.7117 68.6435 14.6433 68.98 14.6433C69.2252 14.6433 69.459 14.6917 69.6814 14.7886C69.9038 14.8798 70.0977 15.0109 70.2631 15.1819C70.4285 15.3529 70.5597 15.561 70.6566 15.8061C70.7536 16.0512 70.8021 16.3219 70.8021 16.6183C70.8021 16.9204 70.7507 17.194 70.6481 17.4391C70.5511 17.6842 70.4171 17.8923 70.246 18.0633C70.0806 18.2343 69.8867 18.3654 69.6643 18.4566C69.4476 18.5478 69.2195 18.5934 68.98 18.5934C68.6891 18.5934 68.4296 18.5364 68.2015 18.4224C67.9791 18.3027 67.8023 18.1488 67.6711 17.9607V20.577H66.9098ZM68.8345 15.3358C68.652 15.3358 68.4895 15.3672 68.3469 15.4299C68.2044 15.4926 68.0846 15.5781 67.9876 15.6864C67.8907 15.7947 67.8137 15.9201 67.7567 16.0626C67.7053 16.2051 67.6768 16.3561 67.6711 16.5157V16.644C67.6711 16.8093 67.6968 16.9689 67.7481 17.1228C67.8051 17.271 67.8821 17.4049 67.9791 17.5246C68.0817 17.6386 68.2044 17.7327 68.3469 17.8068C68.4952 17.8752 68.6606 17.9094 68.8431 17.9094C69.0142 17.9094 69.1682 17.878 69.305 17.8153C69.4476 17.7526 69.5702 17.6671 69.6729 17.5588C69.7755 17.4448 69.8554 17.308 69.9124 17.1484C69.9694 16.9888 69.9979 16.8093 69.9979 16.6098C69.9979 16.1994 69.8839 15.8859 69.6558 15.6693C69.4333 15.447 69.1596 15.3358 68.8345 15.3358ZM71.7299 20.577V14.7117H72.4484V15.3187C72.5454 15.1363 72.7108 14.9796 72.9446 14.8485C73.1784 14.7117 73.4636 14.6433 73.8 14.6433C74.0453 14.6433 74.2791 14.6917 74.5015 14.7886C74.7239 14.8798 74.9178 15.0109 75.0832 15.1819C75.2486 15.3529 75.3798 15.561 75.4767 15.8061C75.5737 16.0512 75.6221 16.3219 75.6221 16.6183C75.6221 16.9204 75.5708 17.194 75.4682 17.4391C75.3712 17.6842 75.2372 17.8923 75.0661 18.0633C74.9007 18.2343 74.7068 18.3654 74.4844 18.4566C74.2677 18.5478 74.0396 18.5934 73.8 18.5934C73.5092 18.5934 73.2497 18.5364 73.0216 18.4224C72.7992 18.3027 72.6224 18.1488 72.4912 17.9607V20.577H71.7299ZM73.6546 15.3358C73.4721 15.3358 73.3096 15.3672 73.167 15.4299C73.0244 15.4926 72.9047 15.5781 72.8077 15.6864C72.7108 15.7947 72.6338 15.9201 72.5767 16.0626C72.5254 16.2051 72.4969 16.3561 72.4912 16.5157V16.644C72.4912 16.8093 72.5169 16.9689 72.5682 17.1228C72.6252 17.271 72.7022 17.4049 72.7992 17.5246C72.9018 17.6386 73.0244 17.7327 73.167 17.8068C73.3153 17.8752 73.4807 17.9094 73.6632 17.9094C73.8343 17.9094 73.9882 17.878 74.1251 17.8153C74.2677 17.7526 74.3903 17.6671 74.493 17.5588C74.5956 17.4448 74.6754 17.308 74.7325 17.1484C74.7895 16.9888 74.818 16.8093 74.818 16.6098C74.818 16.1994 74.704 15.8859 74.4758 15.6693C74.2534 15.447 73.9797 15.3358 73.6546 15.3358ZM77.646 18.6105C77.3209 18.6105 77.0329 18.5563 76.782 18.448C76.531 18.334 76.3143 18.1801 76.1318 17.9863L76.5253 17.4648C76.6679 17.6244 76.8333 17.7469 77.0215 17.8324C77.2154 17.9179 77.4264 17.9607 77.6545 17.9607C77.8826 17.9607 78.0651 17.9179 78.202 17.8324C78.3389 17.7469 78.4073 17.6244 78.4073 17.4648C78.4073 17.3337 78.356 17.2311 78.2533 17.157C78.1507 17.0772 78.0224 17.0116 77.8684 16.9603C77.7144 16.909 77.5462 16.8577 77.3637 16.8064C77.1869 16.7551 77.0215 16.6896 76.8675 16.6098C76.7135 16.5243 76.5852 16.416 76.4826 16.2849C76.3799 16.1481 76.3286 15.9685 76.3286 15.7462C76.3286 15.5638 76.3657 15.4042 76.4398 15.2674C76.5139 15.1249 76.6166 15.0081 76.7478 14.9169C76.8789 14.82 77.0329 14.7487 77.2097 14.7031C77.3865 14.6575 77.5775 14.6347 77.7828 14.6347C78.0908 14.6347 78.3474 14.6832 78.5527 14.7801C78.7638 14.877 78.9349 14.9824 79.066 15.0964L78.6811 15.6351C78.567 15.5325 78.4358 15.447 78.2876 15.3786C78.145 15.3102 77.9796 15.276 77.7914 15.276C77.5633 15.276 77.3893 15.3159 77.2696 15.3957C77.1498 15.4755 77.0899 15.5752 77.0899 15.6949C77.0899 15.8203 77.1413 15.9172 77.2439 15.9856C77.3466 16.054 77.4749 16.111 77.6289 16.1566C77.7829 16.2022 77.9482 16.2478 78.125 16.2934C78.3018 16.339 78.4672 16.4046 78.6212 16.4901C78.7752 16.5699 78.9035 16.681 79.0061 16.8235C79.1088 16.9603 79.1601 17.1484 79.1601 17.3878C79.1601 17.5987 79.1202 17.7811 79.0404 17.935C78.9605 18.0889 78.8522 18.2172 78.7153 18.3198C78.5784 18.4167 78.4159 18.4879 78.2277 18.5335C78.0452 18.5848 77.8513 18.6105 77.646 18.6105ZM85.2587 18.6105C84.7797 18.6105 84.3406 18.5364 83.9413 18.3882C83.5478 18.2343 83.2085 18.0205 82.9234 17.7469C82.6439 17.4733 82.4244 17.1484 82.2647 16.7722C82.1107 16.396 82.0337 15.9856 82.0337 15.541C82.0337 15.0964 82.1107 14.686 82.2647 14.3098C82.4187 13.9336 82.6354 13.6087 82.9148 13.3351C83.2 13.0558 83.5364 12.8392 83.9242 12.6853C84.3177 12.5314 84.754 12.4545 85.2331 12.4545C85.6323 12.4545 85.9887 12.5058 86.3024 12.6084C86.6217 12.711 86.904 12.8449 87.1493 13.0102L86.79 13.66C86.579 13.5118 86.3451 13.3978 86.0885 13.318C85.8319 13.2382 85.5638 13.1983 85.2844 13.1983C84.9308 13.1983 84.6057 13.2582 84.3092 13.3779C84.0183 13.4919 83.7645 13.6543 83.5478 13.8652C83.3368 14.0704 83.1714 14.3155 83.0517 14.6005C82.9319 14.8855 82.872 15.1962 82.872 15.5325C82.872 15.8688 82.9319 16.1794 83.0517 16.4644C83.1714 16.7494 83.3397 16.9945 83.5564 17.1997C83.7731 17.4049 84.0326 17.5674 84.3349 17.6871C84.6371 17.8011 84.9679 17.8581 85.3272 17.8581C85.6009 17.8581 85.8718 17.8182 86.1398 17.7384C86.4136 17.6586 86.6617 17.5218 86.8841 17.328L87.269 17.9607C87.0694 18.1317 86.8014 18.2827 86.4649 18.4138C86.1284 18.5449 85.7264 18.6105 85.2587 18.6105ZM89.7149 18.5934C89.424 18.5934 89.156 18.5478 88.9108 18.4566C88.6712 18.3654 88.4602 18.2343 88.2777 18.0633C88.1009 17.8923 87.9612 17.6871 87.8586 17.4477C87.7616 17.2026 87.7131 16.929 87.7131 16.6269C87.7131 16.3134 87.7673 16.0341 87.8757 15.789C87.984 15.5439 88.1266 15.3358 88.3034 15.1648C88.4859 14.9938 88.6941 14.8656 88.9279 14.7801C89.1674 14.6889 89.4183 14.6433 89.6807 14.6433C89.9772 14.6433 90.2396 14.6974 90.4677 14.8057C90.7015 14.9083 90.8983 15.0508 91.0579 15.2332C91.2176 15.4099 91.3374 15.6151 91.4172 15.8488C91.5028 16.0768 91.5455 16.3162 91.5455 16.567V16.7808H88.4659C88.5059 17.1456 88.6427 17.4306 88.8766 17.6358C89.1161 17.841 89.4126 17.9436 89.7662 17.9436C90.0057 17.9436 90.2253 17.898 90.4249 17.8068C90.6302 17.7156 90.7985 17.5902 90.9296 17.4306L91.3916 17.8581C91.2034 18.1032 90.961 18.2884 90.6644 18.4138C90.3679 18.5335 90.0514 18.5934 89.7149 18.5934ZM89.6293 15.3016C89.3442 15.3016 89.099 15.3843 88.8937 15.5496C88.6941 15.7092 88.5629 15.9315 88.5002 16.2165H90.7756C90.73 15.9543 90.6017 15.7377 90.3907 15.5667C90.1854 15.39 89.9316 15.3016 89.6293 15.3016ZM95.1163 16.3704C95.1163 16.1937 95.0935 16.0426 95.0479 15.9172C95.0023 15.7918 94.9395 15.6892 94.8597 15.6094C94.7798 15.5296 94.6857 15.4698 94.5774 15.4299C94.4747 15.39 94.3635 15.37 94.2438 15.37C93.9358 15.37 93.6906 15.4812 93.5081 15.7035C93.3313 15.9258 93.24 16.2022 93.2343 16.5328V18.525H92.473V14.7117H93.1916V15.3444C93.3056 15.1506 93.471 14.9881 93.6877 14.857C93.9044 14.7259 94.1639 14.6604 94.4662 14.6604C94.6715 14.6604 94.8597 14.6946 95.0308 14.763C95.2019 14.8314 95.3501 14.9311 95.4756 15.0622C95.6011 15.1876 95.698 15.3472 95.7665 15.541C95.8406 15.7291 95.8777 15.9429 95.8777 16.1823V18.525H95.1163V16.3704ZM96.6497 14.7117H97.2827V13.3351H98.0355V14.7117H98.9936V15.3957H98.0355V17.1313C98.0355 17.2453 98.0412 17.3479 98.0526 17.4391C98.0697 17.5303 98.1011 17.6101 98.1467 17.6785C98.1981 17.7412 98.2636 17.7925 98.3435 17.8324C98.429 17.8666 98.5402 17.8837 98.6771 17.8837C98.7855 17.8837 98.8995 17.8752 99.0193 17.8581V18.5335C98.9394 18.5449 98.8568 18.5535 98.7712 18.5592C98.6914 18.5649 98.6115 18.5677 98.5317 18.5677C98.0869 18.5677 97.7675 18.4651 97.5736 18.2599C97.3797 18.049 97.2827 17.7099 97.2827 17.2425V15.3957H96.6497V14.7117ZM101.626 14.6604C101.672 14.6604 101.726 14.6632 101.789 14.6689C101.852 14.6689 101.906 14.6746 101.951 14.686V15.4213C101.809 15.3928 101.669 15.3786 101.532 15.3786C101.361 15.3786 101.221 15.4071 101.113 15.4641C101.01 15.5154 100.928 15.5923 100.865 15.6949C100.808 15.7975 100.768 15.9201 100.745 16.0626C100.722 16.1994 100.711 16.3533 100.711 16.5243V18.525H99.9496V14.7117H100.668V15.2589C100.737 15.1107 100.845 14.9739 100.993 14.8485C101.147 14.7231 101.358 14.6604 101.626 14.6604Z" fill="#2C2C35"/>
</g>
<defs>
<linearGradient id="paint0_linear_3732_70442" x1="580.277" y1="9.97501" x2="580.277" y2="1149.98" gradientUnits="userSpaceOnUse">
<stop stop-color="#2AABEE"/>
<stop offset="1" stop-color="#229ED9"/>
</linearGradient>
<clipPath id="clip0_3732_70442">
<rect width="144" height="57" fill="white"/>
</clipPath>
</defs>
</svg>
