<svg width="166" height="171" viewBox="0 0 166 171" fill="none" xmlns="http://www.w3.org/2000/svg">
<path d="M84.6489 139.091C84.4572 139.091 84.2655 139.091 84.0741 139.089L84.078 138.69C84.6067 138.695 85.1375 138.693 85.6655 138.684L85.6724 139.083C85.332 139.088 84.9908 139.091 84.6489 139.091ZM82.4768 139.051C81.9445 139.031 81.4126 139.004 80.881 138.97L80.9067 138.572C81.4332 138.606 81.9616 138.633 82.4916 138.653L82.4768 139.051ZM87.2697 139.033L87.2518 138.635C87.7804 138.611 88.3086 138.58 88.8364 138.542L88.8651 138.94C88.3337 138.978 87.8019 139.009 87.2697 139.033ZM79.2881 138.845C78.7577 138.796 78.228 138.74 77.6991 138.676L77.7469 138.28C78.2706 138.343 78.7967 138.399 79.3247 138.448L79.2881 138.845ZM90.4573 138.802L90.4176 138.406C90.944 138.353 91.4696 138.293 91.9942 138.226L92.0448 138.621C91.5165 138.689 90.9873 138.749 90.4573 138.802ZM76.1153 138.463C75.5883 138.385 75.0625 138.299 74.538 138.206L74.6076 137.814C75.1284 137.906 75.6505 137.991 76.1737 138.069L76.1153 138.463ZM93.6269 138.396L93.5651 138.002C94.0877 137.92 94.6092 137.831 95.1294 137.735L95.2017 138.126C94.6781 138.223 94.1531 138.313 93.6269 138.396ZM72.9683 137.906C72.4467 137.799 71.9265 137.684 71.4081 137.562L71.4991 137.174C72.0142 137.295 72.5308 137.409 73.0488 137.516L72.9683 137.906ZM96.7692 137.814L96.6856 137.424C97.2029 137.313 97.7186 137.195 98.2326 137.069L98.3268 137.457C97.8092 137.583 97.29 137.702 96.7692 137.814ZM69.8572 137.174C69.3422 137.037 68.8292 136.893 68.3183 136.742L68.4311 136.36C68.9383 136.51 69.4477 136.653 69.959 136.788L69.8572 137.174ZM99.8743 137.057L99.7693 136.672C100.28 136.533 100.788 136.386 101.294 136.232L101.41 136.614C100.9 136.769 100.388 136.916 99.8743 137.057ZM66.792 136.269C66.2838 136.103 65.7779 135.93 65.2745 135.75L65.4083 135.375C65.9082 135.554 66.4106 135.725 66.9153 135.89L66.792 136.269ZM102.932 136.128L102.806 135.75C103.308 135.582 103.807 135.407 104.304 135.225L104.441 135.599C103.94 135.782 103.438 135.958 102.932 136.128ZM63.7726 135.19C63.2747 134.996 62.7795 134.795 62.2872 134.588L62.442 134.22C62.9308 134.427 63.4224 134.626 63.9168 134.819L63.7726 135.19ZM105.934 135.029L105.787 134.659C106.277 134.464 106.764 134.262 107.248 134.054L107.405 134.419C106.918 134.629 106.427 134.833 105.934 135.029ZM60.8195 133.944C60.3335 133.723 59.8507 133.495 59.371 133.26L59.546 132.902C60.0223 133.135 60.5018 133.362 60.9844 133.582L60.8195 133.944ZM108.86 133.769L108.692 133.408C109.171 133.185 109.646 132.957 110.119 132.721L110.296 133.078C109.821 133.315 109.342 133.545 108.86 133.769ZM57.9422 132.536C57.4695 132.288 57.0003 132.034 56.5347 131.773L56.7295 131.425C57.1916 131.684 57.6575 131.937 58.127 132.183L57.9422 132.536ZM111.713 132.347L111.526 131.995C111.992 131.746 112.454 131.492 112.913 131.23L113.11 131.577C112.648 131.84 112.182 132.096 111.713 132.347ZM55.149 130.971C54.6908 130.697 54.2365 130.417 53.7864 130.13L54.0002 129.794C54.4472 130.079 54.8982 130.357 55.3532 130.629L55.149 130.971ZM114.485 130.769L114.279 130.428C114.73 130.154 115.178 129.873 115.622 129.587L115.837 129.922C115.391 130.21 114.94 130.492 114.485 130.769ZM52.4482 129.253C52.0061 128.954 51.5683 128.65 51.1349 128.339L51.367 128.015C51.7975 128.323 52.2322 128.626 52.671 128.923L52.4482 129.253ZM117.166 129.038L116.941 128.708C117.377 128.41 117.809 128.105 118.236 127.794L118.47 128.117C118.04 128.43 117.605 128.737 117.166 129.038ZM49.8476 127.388C49.423 127.066 49.0029 126.737 48.5874 126.403L48.8367 126.093C49.2495 126.424 49.6667 126.751 50.0884 127.071L49.8476 127.388ZM119.749 127.16L119.506 126.844C119.925 126.522 120.339 126.194 120.749 125.86L121.001 126.169C120.588 126.505 120.171 126.836 119.749 127.16ZM47.3549 125.384C46.9488 125.039 46.5476 124.688 46.1513 124.331L46.4177 124.035C46.8111 124.389 47.2095 124.738 47.6127 125.081L47.3549 125.384ZM122.226 125.143L121.965 124.841C122.366 124.495 122.762 124.144 123.153 123.788L123.421 124.083C123.027 124.441 122.629 124.795 122.226 125.143ZM44.9773 123.246C44.5908 122.879 44.2096 122.506 43.8338 122.128L44.1161 121.847C44.4894 122.222 44.8679 122.592 45.2515 122.957L44.9773 123.246ZM124.588 122.991L124.312 122.703C124.693 122.336 125.069 121.964 125.44 121.587L125.724 121.866C125.35 122.246 124.972 122.621 124.588 122.991ZM42.722 120.981C42.3567 120.593 41.9968 120.2 41.6424 119.802L41.9394 119.537C42.2915 119.932 42.649 120.322 43.0117 120.707L42.722 120.981ZM126.829 120.711L126.538 120.439C126.898 120.052 127.253 119.659 127.603 119.262L127.902 119.525C127.55 119.925 127.192 120.32 126.829 120.711ZM40.5953 118.595C40.2518 118.188 39.9141 117.777 39.5824 117.36L39.8934 117.112C40.2233 117.525 40.5586 117.934 40.8993 118.338L40.5953 118.595ZM128.942 118.31L128.636 118.055C128.975 117.648 129.308 117.236 129.635 116.82L129.948 117.066C129.618 117.485 129.283 117.9 128.942 118.31ZM38.604 116.097C38.2837 115.672 37.9693 115.242 37.6609 114.808L37.9856 114.577C38.2917 115.008 38.6039 115.435 38.9221 115.857L38.604 116.097ZM130.92 115.795L130.6 115.557C130.916 115.132 131.226 114.702 131.53 114.268L131.856 114.497C131.55 114.934 131.238 115.367 130.92 115.795ZM36.7542 113.493C36.458 113.051 36.1679 112.605 35.884 112.155L36.2208 111.942C36.5028 112.389 36.7908 112.832 37.0848 113.272L36.7542 113.493ZM132.757 113.174L132.425 112.955C132.717 112.512 133.002 112.066 133.282 111.615L133.62 111.825C133.339 112.279 133.051 112.729 132.757 113.174ZM35.0516 110.793C34.7803 110.336 34.5155 109.874 34.2572 109.409L34.6053 109.215C34.8618 109.677 35.1248 110.136 35.3942 110.59L35.0516 110.793ZM134.446 110.454L134.102 110.253C134.369 109.795 134.63 109.333 134.884 108.867L135.234 109.059C134.978 109.527 134.715 109.992 134.446 110.454ZM33.5021 108.004C33.2567 107.532 33.0181 107.057 32.7861 106.579L33.1443 106.405C33.3747 106.88 33.6117 107.352 33.8552 107.82L33.5021 108.004ZM135.983 107.642L135.628 107.461C135.869 106.988 136.104 106.512 136.332 106.033L136.692 106.205C136.462 106.687 136.226 107.166 135.983 107.642ZM32.11 105.135C31.8915 104.65 31.6796 104.163 31.4745 103.673L31.842 103.519C32.0454 104.005 32.2557 104.489 32.4728 104.97L32.11 105.135ZM137.361 104.748L136.997 104.587C137.211 104.102 137.419 103.613 137.62 103.122L137.989 103.273C137.786 103.768 137.577 104.259 137.361 104.748ZM30.8803 102.194C30.6883 101.696 30.5034 101.196 30.3256 100.694L30.7008 100.561C30.8776 101.06 31.0612 101.556 31.2517 102.05L30.8803 102.194ZM138.576 101.78L138.203 101.639C138.39 101.142 138.571 100.643 138.744 100.14L139.121 100.271C138.946 100.776 138.764 101.279 138.576 101.78ZM29.8124 99.1788C29.6485 98.6714 29.4918 98.1618 29.3422 97.6501L29.7245 97.5383C29.8729 98.0464 30.0285 98.5524 30.1912 99.0561L29.8124 99.1788ZM139.623 98.7465L139.243 98.627C139.402 98.122 139.554 97.6147 139.698 97.1053L140.081 97.2143C139.936 97.7271 139.783 98.238 139.623 98.7465ZM28.9148 96.1089C28.7794 95.5933 28.6514 95.0757 28.5308 94.5564L28.9186 94.4661C29.0385 94.9817 29.1656 95.4956 29.2999 96.0076L28.9148 96.1089ZM140.497 95.6697L140.111 95.5716C140.241 95.0584 140.364 94.5435 140.48 94.0269L140.868 94.1141C140.752 94.6343 140.628 95.1529 140.497 95.6697ZM28.19 92.9937C28.0835 92.4714 27.9845 91.9475 27.8929 91.4224L28.2853 91.3538C28.3762 91.8754 28.4745 92.3956 28.5801 92.9143L28.19 92.9937ZM141.197 92.5492L140.806 92.4725C140.907 91.953 141.002 91.432 141.089 90.9098L141.481 90.9752C141.394 91.5011 141.299 92.0259 141.197 92.5492ZM27.6394 89.843C27.5623 89.3156 27.4925 88.7871 27.43 88.2577L27.8255 88.211C27.8877 88.7367 27.957 89.2616 28.0334 89.7855L27.6394 89.843ZM141.722 89.3939L141.328 89.3394C141.4 88.8149 141.465 88.2894 141.523 87.7632L141.919 87.8068C141.861 88.3367 141.795 88.8658 141.722 89.3939ZM27.2647 86.6668C27.217 86.1357 27.1765 85.6041 27.1432 85.0719L27.5407 85.047C27.5737 85.5771 27.6142 86.1049 27.6615 86.631L27.2647 86.6668ZM142.072 86.2149L141.675 86.1822C141.719 85.6544 141.755 85.1261 141.783 84.5974L142.181 84.6192C142.152 85.1516 142.116 85.6835 142.072 86.2149ZM27.0656 83.4745C27.047 82.942 27.0355 82.4093 27.0314 81.8765L27.4296 81.8734C27.4339 82.4026 27.4452 82.9317 27.4635 83.4606L27.0656 83.4745ZM142.246 83.0214L141.848 83.0105C141.871 82.182 141.876 81.3532 141.863 80.5245L142.261 80.5183C142.274 81.3527 142.269 82.1873 142.246 83.0214ZM27.439 80.285L27.0408 80.2772C27.0511 79.7441 27.0688 79.2112 27.0939 78.6786L27.4917 78.6973C27.4668 79.2263 27.4492 79.7555 27.439 80.285ZM141.817 78.9392C141.795 78.4102 141.765 77.8815 141.728 77.3533L142.125 77.3252C142.162 77.8556 142.192 78.388 142.215 78.9221L141.817 78.9392ZM27.5874 77.1123L27.1904 77.0828C27.23 76.5497 27.2767 76.0186 27.3306 75.4898L27.7269 75.5303C27.6732 76.057 27.6267 76.5844 27.5874 77.1123ZM141.595 75.7705C141.543 75.2435 141.485 74.7174 141.419 74.1921L141.814 74.1423C141.88 74.6712 141.939 75.201 141.991 75.7315L141.595 75.7705ZM27.9101 73.9524L27.5154 73.901C27.5842 73.3709 27.6603 72.8432 27.7437 72.318L28.1369 72.3806C28.054 72.9035 27.9784 73.4274 27.9101 73.9524ZM141.198 72.619C141.118 72.0958 141.03 71.5737 140.935 71.0529L141.326 70.9813C141.422 71.5057 141.511 72.0314 141.592 72.5583L141.198 72.619ZM28.4073 70.8152L28.0161 70.7416C28.1141 70.2177 28.2194 69.6952 28.3319 69.1742L28.7211 69.2583C28.6095 69.7758 28.5049 70.2948 28.4073 70.8152ZM140.627 69.4945C140.518 68.9766 140.401 68.4602 140.277 67.9455L140.664 67.8521C140.789 68.3704 140.907 68.8904 141.017 69.4119L140.627 69.4945ZM29.0782 67.7106L28.6917 67.6154C28.8187 67.0977 28.953 66.5818 29.0945 66.0678L29.4784 66.1737C29.338 66.6841 29.2046 67.1965 29.0782 67.7106ZM139.883 66.4069C139.745 65.8958 139.599 65.3867 139.447 64.8797L139.828 64.7649C139.982 65.2753 140.128 65.7879 140.267 66.3025L139.883 66.4069ZM29.9211 64.6483L29.5404 64.5316C29.6968 64.0199 29.8604 63.5105 30.031 63.0034L30.4082 63.1307C30.2388 63.6343 30.0764 64.1402 29.9211 64.6483ZM138.968 63.3654C138.801 62.863 138.628 62.3628 138.447 61.8652L138.821 61.7289C139.003 62.23 139.178 62.7336 139.346 63.2397L138.968 63.3654ZM30.9377 61.6279L30.564 61.4901C30.7486 60.9884 30.9402 60.4892 31.1388 59.9928L31.5086 60.141C31.3114 60.634 31.1211 61.1297 30.9377 61.6279ZM137.884 60.3799C137.691 59.8892 137.49 59.4013 137.283 58.9161L137.649 58.7593C137.858 59.2478 138.06 59.7393 138.255 60.2335L137.884 60.3799ZM32.1209 58.6708L31.7553 58.5124C31.9676 58.0219 32.1868 57.5345 32.4128 57.0503L32.7736 57.2188C32.5492 57.6997 32.3316 58.1837 32.1209 58.6708ZM136.64 57.4692C136.42 56.9897 136.192 56.5133 135.958 56.0401L136.315 55.8634C136.551 56.3398 136.78 56.8195 137.002 57.3022L136.64 57.4692ZM33.4666 55.7859L33.1108 55.6073C33.3499 55.1297 33.5957 54.6555 33.8483 54.1849L34.199 54.3732C33.9484 54.8407 33.7042 55.3116 33.4666 55.7859ZM135.236 54.6301C134.989 54.1635 134.735 53.7003 134.475 53.2406L134.821 53.0441C135.083 53.507 135.339 53.9735 135.588 54.4434L135.236 54.6301ZM34.9705 52.9819L34.6252 52.7838C34.8905 52.3206 35.1622 51.8611 35.4402 51.4053L35.7801 51.6128C35.504 52.0655 35.2341 52.5219 34.9705 52.9819ZM133.675 51.8722C133.402 51.4197 133.123 50.971 132.838 50.5261L133.173 50.3108C133.46 50.7587 133.741 51.2105 134.016 51.6661L133.675 51.8722ZM36.6272 50.2672L36.2931 50.05C36.5838 49.6022 36.8807 49.1588 37.1831 48.7196L37.511 48.9458C37.2104 49.3822 36.9158 49.8227 36.6272 50.2672ZM131.964 49.2035C131.666 48.7665 131.362 48.3337 131.053 47.9052L131.376 47.6716C131.687 48.1031 131.993 48.5389 132.293 48.9788L131.964 49.2035ZM38.4309 47.6492L38.1093 47.4141C38.424 46.9834 38.7447 46.557 39.0713 46.1353L39.3859 46.3793C39.0617 46.7982 38.7433 47.2215 38.4309 47.6492ZM130.106 46.6322C129.785 46.2122 129.458 45.7967 129.125 45.3857L129.434 45.1347C129.769 45.5485 130.099 45.9669 130.423 46.3898L130.106 46.6322ZM40.3757 45.1366L40.0677 44.884C40.4056 44.4715 40.7491 44.0637 41.0981 43.6606L41.3991 43.9218C41.0524 44.322 40.7113 44.727 40.3757 45.1366ZM128.11 44.1663C127.765 43.7646 127.416 43.3677 127.061 42.9756L127.356 42.7078C127.713 43.1027 128.065 43.5024 128.412 43.907L128.11 44.1663ZM42.4556 42.7356L42.162 42.4662C42.5219 42.0732 42.8872 41.6851 43.2579 41.3022L43.5441 41.5794C43.176 41.9598 42.8131 42.3452 42.4556 42.7356ZM125.979 41.8135C125.613 41.4312 125.242 41.054 124.866 40.6818L125.146 40.3984C125.525 40.7731 125.898 41.1529 126.267 41.5379L125.979 41.8135ZM44.6639 40.4539L44.3854 40.169C44.7664 39.7965 45.1525 39.4293 45.5435 39.0675L45.8138 39.3602C45.4255 39.7195 45.0422 40.0841 44.6639 40.4539ZM123.722 39.5813C123.335 39.2196 122.944 38.8632 122.547 38.5123L122.811 38.2137C123.21 38.5671 123.604 38.9259 123.994 39.2901L123.722 39.5813ZM46.9933 38.2985L46.7312 37.9985C47.1319 37.6477 47.5373 37.3024 47.9475 36.9629L48.2015 37.27C47.794 37.6073 47.3913 37.9501 46.9933 38.2985ZM121.344 37.4759C120.938 37.1361 120.527 36.8018 120.112 36.4731L120.359 36.1605C120.777 36.4914 121.19 36.8279 121.599 37.17L121.344 37.4759ZM49.4374 36.2756L49.1919 35.9615C49.6112 35.6335 50.035 35.3113 50.4632 34.995L50.6996 35.3158C50.2745 35.6298 49.8537 35.9498 49.4374 36.2756ZM118.853 35.5043C118.429 35.1872 118 34.876 117.567 34.5709L117.797 34.2451C118.232 34.5524 118.664 34.8658 119.091 35.1851L118.853 35.5043ZM51.9877 34.3909L51.7603 34.0639C52.1967 33.7596 52.6374 33.4614 53.0821 33.1695L53.3007 33.5027C52.859 33.7927 52.4213 34.0888 51.9877 34.3909ZM116.256 33.6734C115.815 33.3802 115.369 33.0932 114.92 32.8124L115.131 32.4743C115.583 32.7571 116.032 33.0462 116.476 33.3414L116.256 33.6734ZM54.6373 32.651L54.428 32.312C54.8805 32.0325 55.3368 31.7592 55.7968 31.4923L55.9966 31.8371C55.5398 32.1022 55.0866 32.3735 54.6373 32.651ZM113.56 31.9882C113.103 31.7199 112.642 31.458 112.178 31.2023L112.37 30.8531C112.838 31.1104 113.301 31.3742 113.762 31.6444L113.56 31.9882ZM57.3774 31.0616L57.1873 30.7113C57.6542 30.4574 58.1248 30.2101 58.5987 29.9695L58.7787 30.3248C58.3082 30.5638 57.841 30.8094 57.3774 31.0616ZM110.774 30.4552C110.303 30.2125 109.828 29.9765 109.35 29.7471L109.522 29.3879C110.003 29.6188 110.481 29.8564 110.956 30.1006L110.774 30.4552ZM60.2 29.6273L60.0297 29.2669C60.5097 29.0395 60.9929 28.819 61.4791 28.6052L61.6393 28.97C61.1565 29.1824 60.6767 29.4015 60.2 29.6273ZM107.906 29.0791C107.421 28.8631 106.934 28.654 106.443 28.4519L106.595 28.0832C107.089 28.2869 107.58 28.4976 108.068 28.7152L107.906 29.0791ZM63.0963 28.3528L62.9462 27.9837C63.4396 27.7826 63.9358 27.5886 64.4347 27.4016L64.5744 27.7749C64.079 27.9606 63.5862 28.1532 63.0963 28.3528ZM104.964 27.8652C104.467 27.6769 103.968 27.4953 103.467 27.3205L103.598 26.9441C104.103 27.12 104.605 27.3029 105.105 27.4927L104.964 27.8652ZM66.068 27.2385L65.9389 26.8614C66.4426 26.6884 66.9488 26.5224 67.4573 26.3636L67.5758 26.7443C67.0709 26.9019 66.5683 27.0667 66.068 27.2385ZM101.956 26.8178C101.452 26.6579 100.945 26.505 100.437 26.3591L100.546 25.9761C101.059 26.1229 101.569 26.2769 102.076 26.4379L101.956 26.8178ZM69.0975 26.292L68.9893 25.9082C69.502 25.7637 70.0167 25.6263 70.5332 25.4962L70.6304 25.8827C70.1175 26.0119 69.6065 26.1483 69.0975 26.292ZM98.9056 25.9429C98.3932 25.8115 97.879 25.6872 97.3631 25.5702L97.451 25.1813C97.9705 25.2992 98.4884 25.4244 99.0044 25.5567L98.9056 25.9429ZM72.175 25.5162L72.0886 25.127C72.6086 25.0114 73.1303 24.903 73.6533 24.802L73.7287 25.1931C73.2094 25.2937 72.6914 25.4014 72.175 25.5162ZM95.8104 25.2404C95.2915 25.1377 94.7712 25.0422 94.2496 24.9541L94.3161 24.561C94.8413 24.65 95.3653 24.7461 95.8878 24.8493L95.8104 25.2404ZM75.2908 24.9137L75.2263 24.5206C75.7518 24.434 76.2786 24.3548 76.8063 24.283L76.86 24.678C76.3358 24.7492 75.8127 24.8277 75.2908 24.9137ZM92.681 24.7113C92.1573 24.6376 91.6325 24.5713 91.1069 24.5124L91.1513 24.1162C91.6806 24.1756 92.2091 24.2424 92.7366 24.3166L92.681 24.7113ZM78.4352 24.4852L78.3925 24.0889C78.922 24.0317 79.4523 23.9819 79.9832 23.9393L80.0151 24.3367C79.4878 24.3788 78.9611 24.4283 78.4352 24.4852ZM89.5274 24.3571C89.0003 24.3124 88.4726 24.275 87.9444 24.245L87.967 23.8472C88.5004 23.8773 89.0316 23.9149 89.5612 23.96L89.5274 24.3571ZM81.599 24.2316L81.5781 23.8334C82.1087 23.8056 82.6409 23.785 83.175 23.7714L83.1852 24.17C82.6562 24.1831 82.1274 24.2036 81.599 24.2316ZM86.3592 24.1768C85.8303 24.1613 85.3013 24.1529 84.7723 24.1517L84.7731 23.7531C85.3074 23.7543 85.84 23.7627 86.3709 23.7782L86.3592 24.1768ZM84.6489 158.45C84.1931 158.45 83.7383 158.446 83.2845 158.438L83.2915 158.039C83.743 158.047 84.1954 158.051 84.6489 158.051L84.8797 158.051L84.8816 158.449L84.6489 158.45ZM86.4773 158.428L86.4684 158.03C86.9964 158.018 87.5243 158 88.0519 157.977L88.0692 158.376C87.54 158.399 87.0093 158.416 86.4773 158.428ZM81.6889 158.394C81.157 158.374 80.6253 158.349 80.094 158.318L80.117 157.921C80.6445 157.951 81.1734 157.976 81.7037 157.996L81.6889 158.394ZM89.6636 158.29L89.6387 157.892C90.1671 157.859 90.6951 157.82 91.2227 157.775L91.2561 158.172C90.7257 158.217 90.1948 158.256 89.6636 158.29ZM78.5007 158.21C77.9701 158.169 77.4398 158.122 76.9101 158.07L76.9494 157.673C77.4764 157.725 78.0039 157.772 78.5318 157.813L78.5007 158.21ZM92.8456 158.023L92.8044 157.627C93.331 157.572 93.8569 157.511 94.3822 157.445L94.4319 157.84C93.9038 157.907 93.375 157.968 92.8456 158.023ZM75.3235 157.896C74.7948 157.833 74.2669 157.764 73.7397 157.69L73.7953 157.295C74.3196 157.369 74.8448 157.437 75.3705 157.5L75.3235 157.896ZM96.014 157.625L95.9564 157.231C96.4803 157.154 97.0034 157.072 97.5256 156.984L97.5913 157.378C97.0664 157.466 96.5406 157.548 96.014 157.625ZM72.1612 157.452C71.6357 157.367 71.111 157.277 70.5874 157.181L70.6589 156.789C71.1799 156.884 71.7018 156.974 72.2246 157.059L72.1612 157.452ZM99.163 157.098L99.0891 156.706C99.6095 156.608 100.129 156.504 100.647 156.395L100.729 156.785C100.208 156.895 99.686 156.999 99.163 157.098ZM69.0199 156.879C68.4978 156.772 67.9775 156.66 67.4587 156.544L67.5462 156.154C68.0628 156.271 68.5806 156.382 69.0995 156.488L69.0199 156.879ZM102.288 156.44L102.198 156.051C102.714 155.932 103.228 155.807 103.742 155.677L103.84 156.063C103.324 156.194 102.806 156.319 102.288 156.44ZM65.9046 156.175C65.3878 156.047 64.8725 155.914 64.3586 155.775L64.4624 155.39C64.9736 155.529 65.4862 155.661 66.0003 155.788L65.9046 156.175ZM105.383 155.655L105.277 155.27C105.788 155.129 106.297 154.983 106.804 154.832L106.918 155.214C106.408 155.366 105.896 155.513 105.383 155.655ZM62.8215 155.344C62.3107 155.195 61.8014 155.04 61.2936 154.881L61.4126 154.5C61.918 154.659 62.4248 154.812 62.9332 154.961L62.8215 155.344ZM108.443 154.741L108.322 154.361C108.826 154.199 109.329 154.032 109.829 153.86L109.959 154.237C109.456 154.41 108.95 154.578 108.443 154.741ZM59.769 154.384C59.2627 154.213 58.7582 154.037 58.2557 153.855L58.391 153.48C58.8909 153.661 59.3926 153.836 59.8962 154.006L59.769 154.384ZM111.463 153.702L111.326 153.327C111.823 153.145 112.318 152.957 112.811 152.764L112.957 153.135C112.461 153.329 111.963 153.518 111.463 153.702ZM56.7542 153.295C56.2559 153.103 55.7595 152.907 55.2651 152.705L55.4152 152.336C55.9073 152.537 56.4013 152.732 56.8972 152.923L56.7542 153.295ZM114.438 152.538L114.285 152.17C114.772 151.967 115.257 151.76 115.74 151.548L115.901 151.913C115.415 152.126 114.927 152.334 114.438 152.538ZM53.7889 152.084C53.299 151.871 52.8113 151.654 52.3259 151.432L52.4916 151.069C52.9744 151.291 53.4597 151.507 53.9472 151.718L53.7889 152.084ZM117.351 151.257L117.183 150.896C117.662 150.674 118.138 150.446 118.612 150.214L118.787 150.572C118.311 150.805 117.832 151.034 117.351 151.257ZM50.8772 150.75C50.3967 150.518 49.9187 150.281 49.4432 150.039L49.6236 149.684C50.0968 149.924 50.5723 150.16 51.0503 150.391L50.8772 150.75ZM120.21 149.857L120.028 149.503C120.497 149.261 120.964 149.014 121.428 148.762L121.618 149.113C121.151 149.366 120.682 149.614 120.21 149.857ZM48.0241 149.298C47.5539 149.046 47.0862 148.79 46.6212 148.528L46.816 148.181C47.2788 148.441 47.7442 148.696 48.2119 148.947L48.0241 149.298ZM123.01 148.34L122.814 147.993C123.273 147.732 123.73 147.466 124.184 147.195L124.387 147.538C123.931 147.81 123.472 148.077 123.01 148.34ZM45.2348 147.73C44.7754 147.459 44.3188 147.183 43.8651 146.903L44.0743 146.564C44.5256 146.843 44.9799 147.117 45.437 147.386L45.2348 147.73ZM125.747 146.707L125.537 146.369C125.985 146.089 126.431 145.804 126.873 145.515L127.091 145.849C126.646 146.14 126.198 146.425 125.747 146.707ZM42.5131 146.048C42.0655 145.758 41.6208 145.464 41.1792 145.165L41.402 144.835C41.8415 145.133 42.2839 145.425 42.7293 145.713L42.5131 146.048ZM128.416 144.964L128.192 144.635C128.628 144.336 129.062 144.033 129.493 143.726L129.724 144.051C129.291 144.36 128.855 144.664 128.416 144.964ZM39.8637 144.256C39.4286 143.948 38.9965 143.636 38.5675 143.32L38.804 142.999C39.2307 143.314 39.6606 143.625 40.0936 143.931L39.8637 144.256ZM131.013 143.111L130.775 142.791C131.199 142.475 131.62 142.154 132.038 141.83L132.282 142.144C131.862 142.471 131.439 142.793 131.013 143.111ZM37.291 142.358C36.8687 142.033 36.4498 141.703 36.0345 141.369L36.2838 141.058C36.697 141.39 37.1136 141.718 37.5337 142.042L37.291 142.358ZM133.531 141.153L133.281 140.843C133.692 140.51 134.099 140.172 134.503 139.831L134.76 140.135C134.354 140.478 133.944 140.818 133.531 141.153ZM34.7992 140.355C34.3908 140.013 33.9858 139.667 33.5845 139.316L33.8466 139.016C34.2455 139.365 34.6483 139.709 35.0547 140.049L34.7992 140.355ZM135.968 139.092L135.705 138.793C136.103 138.443 136.496 138.089 136.886 137.731L137.155 138.025C136.764 138.385 136.368 138.74 135.968 139.092ZM32.3921 138.253C31.9982 137.894 31.6082 137.532 31.2216 137.166L31.4953 136.876C31.8798 137.241 32.2681 137.602 32.6601 137.958L32.3921 138.253ZM138.32 136.933L138.045 136.645C138.428 136.279 138.806 135.909 139.182 135.535L139.463 135.818C139.086 136.193 138.705 136.565 138.32 136.933ZM30.0742 136.054C29.6954 135.68 29.3205 135.302 28.9495 134.92L29.2349 134.642C29.6039 135.022 29.9769 135.399 30.3537 135.771L30.0742 136.054ZM140.582 134.679L140.296 134.402C140.663 134.021 141.026 133.635 141.386 133.246L141.678 133.517C141.317 133.908 140.951 134.295 140.582 134.679ZM27.8485 133.763C27.4855 133.374 27.1265 132.981 26.7717 132.584L27.0685 132.318C27.4215 132.713 27.7788 133.104 28.1399 133.492L27.8485 133.763ZM142.75 132.333L142.453 132.068C142.804 131.671 143.152 131.271 143.495 130.868L143.798 131.126C143.453 131.532 143.104 131.934 142.75 132.333ZM25.7193 131.384C25.3728 130.98 25.0304 130.572 24.692 130.161L24.9992 129.908C25.3357 130.316 25.6764 130.722 26.0214 131.124L25.7193 131.384ZM144.821 129.899L144.513 129.646C144.848 129.236 145.179 128.822 145.506 128.404L145.819 128.65C145.491 129.07 145.158 129.486 144.821 129.899ZM23.6901 128.919C23.3603 128.501 23.0349 128.08 22.7139 127.656L23.0312 127.415C23.3508 127.837 23.6745 128.256 24.0023 128.672L23.6901 128.919ZM146.791 127.381L146.472 127.142C146.79 126.717 147.104 126.29 147.413 125.859L147.737 126.092C147.426 126.525 147.111 126.954 146.791 127.381ZM21.7644 126.374C21.4523 125.943 21.1447 125.509 20.8416 125.072L21.1686 124.845C21.4701 125.279 21.7762 125.711 22.0868 126.139L21.7644 126.374ZM148.656 124.783L148.328 124.557C148.628 124.12 148.924 123.68 149.215 123.237L149.548 123.455C149.255 123.901 148.958 124.343 148.656 124.783ZM19.9456 123.752C19.6516 123.309 19.3621 122.863 19.0772 122.415L19.4132 122.2C19.6966 122.647 19.9847 123.091 20.2773 123.532L19.9456 123.752ZM150.413 122.11L150.076 121.897C150.358 121.448 150.636 120.996 150.908 120.541L151.25 120.746C150.975 121.203 150.696 121.658 150.413 122.11ZM18.237 121.06C17.9617 120.605 17.691 120.147 17.4251 119.687L17.7696 119.488C18.0342 119.946 18.3036 120.4 18.5777 120.853L18.237 121.06ZM152.058 119.365L151.712 119.167C151.976 118.706 152.235 118.243 152.488 117.776L152.838 117.967C152.583 118.436 152.323 118.902 152.058 119.365ZM16.6413 118.298C16.3852 117.833 16.1337 117.365 15.8869 116.895L16.2397 116.71C16.485 117.178 16.7352 117.643 16.9902 118.106L16.6413 118.298ZM153.589 116.553L153.235 116.37C153.479 115.899 153.718 115.424 153.953 114.948L154.31 115.124C154.074 115.603 153.834 116.079 153.589 116.553ZM15.162 115.476C14.9253 115 14.6935 114.523 14.4667 114.042L14.8268 113.872C15.0525 114.35 15.2831 114.825 15.5187 115.298L15.162 115.476ZM155.002 113.679L154.641 113.511C154.865 113.03 155.084 112.546 155.299 112.059L155.663 112.221C155.448 112.709 155.227 113.195 155.002 113.679ZM13.8015 112.595C13.5847 112.11 13.3731 111.624 13.1666 111.135L13.5334 110.98C13.739 111.466 13.9496 111.95 14.1652 112.432L13.8015 112.595ZM156.294 110.747L155.927 110.594C156.131 110.103 156.33 109.61 156.524 109.116L156.894 109.261C156.699 109.759 156.499 110.254 156.294 110.747ZM12.562 109.662C12.365 109.168 12.173 108.671 11.9861 108.172L12.359 108.032C12.5447 108.528 12.7357 109.022 12.9319 109.515L12.562 109.662ZM157.464 107.763L157.09 107.625C157.273 107.126 157.452 106.625 157.625 106.122L158.001 106.252C157.827 106.758 157.648 107.261 157.464 107.763ZM11.4415 106.669C11.2653 106.166 11.0942 105.662 10.9284 105.156L11.3068 105.031C11.4719 105.535 11.6421 106.037 11.8172 106.537L11.4415 106.669ZM158.508 104.731L158.128 104.609C158.291 104.102 158.449 103.594 158.6 103.084L158.982 103.198C158.829 103.711 158.671 104.222 158.508 104.731ZM10.4471 103.632C10.2917 103.122 10.1418 102.611 9.99733 102.098L10.3808 101.99C10.5245 102.5 10.6736 103.009 10.828 103.516L10.4471 103.632ZM159.422 101.662L159.038 101.556C159.179 101.045 159.315 100.532 159.445 100.019L159.831 100.116C159.7 100.633 159.564 101.148 159.422 101.662ZM9.5798 100.556C9.446 100.04 9.31758 99.5233 9.19458 99.005L9.58191 98.9127C9.70443 99.4284 9.8322 99.9428 9.96519 100.456L9.5798 100.556ZM160.207 98.5634L159.819 98.4735C159.938 97.9572 160.052 97.4396 160.16 96.9209L160.55 97.0027C160.441 97.5241 160.327 98.0444 160.207 98.5634ZM8.84214 97.4466C8.72997 96.9258 8.62328 96.4039 8.52208 95.8809L8.91289 95.805C9.01376 96.3252 9.11994 96.8444 9.23141 97.3625L8.84214 97.4466ZM160.861 95.435L160.47 95.3614C160.567 94.8406 160.66 94.3187 160.747 93.7959L161.139 93.8613C161.052 94.3868 160.959 94.9114 160.861 95.435ZM8.23447 94.3087C8.14409 93.7837 8.05912 93.2577 7.97957 92.731L8.37354 92.6714C8.45249 93.1955 8.53695 93.7187 8.6269 94.241L8.23447 94.3087ZM161.385 92.2822L160.991 92.225C161.067 91.7006 161.137 91.1753 161.202 90.6494L161.597 90.6984C161.532 91.2271 161.461 91.755 161.385 92.2822ZM7.7577 91.1486C7.68912 90.6203 7.62606 90.0913 7.56853 89.5617L7.96443 89.5185C8.02164 90.0454 8.08432 90.5716 8.15247 91.0972L7.7577 91.1486ZM161.777 89.1107L161.381 89.0699C161.435 88.5437 161.484 88.0159 161.527 87.4867L161.924 87.5194C161.88 88.0503 161.831 88.5808 161.777 89.1107ZM7.4123 87.9715C7.36563 87.4407 7.3244 86.9096 7.28861 86.378L7.68606 86.3512C7.72168 86.8812 7.76264 87.4096 7.80894 87.9365L7.4123 87.9715ZM162.038 85.9255L161.641 85.9009C161.673 85.3731 161.7 84.8438 161.722 84.3131L162.12 84.3295C162.098 84.8617 162.071 85.3938 162.038 85.9255ZM7.19787 84.7827C7.1732 84.2504 7.15382 83.7179 7.13975 83.1853L7.53801 83.1747C7.55178 83.7047 7.57102 84.2344 7.59572 84.764L7.19787 84.7827ZM162.168 82.7322L161.77 82.724C161.781 82.1942 161.786 81.6642 161.786 81.1342H162.185C162.185 81.6681 162.179 82.2008 162.168 82.7322ZM7.11466 81.5883L7.11328 81.1344C7.11328 80.7522 7.11604 80.3709 7.12162 79.9903L7.51988 79.9961C7.51421 80.3749 7.51154 80.7541 7.51154 81.1342L7.51291 81.5863L7.11466 81.5883ZM7.55914 78.4067L7.16128 78.3926C7.17998 77.8592 7.20386 77.3271 7.23341 76.7962L7.63086 76.8184C7.60172 77.3466 7.57784 77.876 7.55914 78.4067ZM7.73511 75.2323L7.33807 75.202C7.37855 74.6697 7.42444 74.1389 7.47576 73.6098L7.87208 73.6484C7.82106 74.1759 7.7754 74.7039 7.73511 75.2323ZM8.04174 72.0675L7.64624 72.0208C7.70855 71.4917 7.77636 70.9633 7.84966 70.4356L8.24403 70.4904C8.17111 71.0154 8.10368 71.5411 8.04174 72.0675ZM8.47885 68.9182L8.08569 68.8552C8.16978 68.3291 8.25942 67.8039 8.3546 67.2797L8.74638 67.351C8.65178 67.8724 8.5626 68.3949 8.47885 68.9182ZM9.04669 65.7899L8.6562 65.7105C8.76222 65.1884 8.87363 64.6674 8.99043 64.1476L9.37898 64.2351C9.26279 64.7522 9.15202 65.2705 9.04669 65.7899ZM9.74372 62.6882L9.3572 62.5924C9.48493 62.0754 9.61802 61.5596 9.75643 61.0453L10.141 61.1488C10.0032 61.6605 9.8708 62.1737 9.74372 62.6882ZM10.5698 59.6179L10.1875 59.5062C10.3366 58.9947 10.4911 58.4849 10.651 57.9767L11.031 58.0966C10.8718 58.602 10.7181 59.1092 10.5698 59.6179ZM11.5253 56.5796L11.1481 56.4519C11.3191 55.9455 11.4954 55.4408 11.677 54.938L12.0515 55.0735C11.8708 55.5736 11.6954 56.0757 11.5253 56.5796ZM12.6087 53.5792L12.2369 53.4359C12.4288 52.9373 12.626 52.4406 12.8284 51.9461L13.1969 52.0971C12.9956 52.589 12.7995 53.0831 12.6087 53.5792ZM13.8161 50.6282L13.4509 50.4694C13.6634 49.9795 13.881 49.4918 14.1037 49.0064L14.4657 49.1726C14.244 49.6555 14.0275 50.1407 13.8161 50.6282ZM15.1447 47.7314L14.7864 47.5576C15.0191 47.0772 15.2568 46.5992 15.4994 46.1237L15.8541 46.3051C15.6126 46.778 15.3761 47.2535 15.1447 47.7314ZM16.5925 44.8939L16.2417 44.7051C16.494 44.2349 16.7512 43.7675 17.0133 43.3027L17.3601 43.4985C17.0994 43.961 16.8436 44.4261 16.5925 44.8939ZM18.1563 42.1197L17.8137 41.9169C18.085 41.4577 18.3613 41.0013 18.6424 40.548L18.9808 40.7581C18.7013 41.2092 18.4265 41.663 18.1563 42.1197ZM19.833 39.4143L19.499 39.1971C19.7892 38.7498 20.084 38.3056 20.3833 37.8644L20.7127 38.0881C20.415 38.5272 20.1217 38.9692 19.833 39.4143ZM21.6194 36.7809L21.2946 36.5501C21.603 36.1154 21.9157 35.6837 22.2328 35.2553L22.5529 35.4928C22.2373 35.9189 21.9261 36.3483 21.6194 36.7809ZM23.5126 34.2245L23.1975 33.9805C23.5234 33.559 23.8536 33.1408 24.1881 32.7261L24.498 32.9763C24.1652 33.389 23.8367 33.8051 23.5126 34.2245ZM25.5085 31.7488L25.2036 31.4923C25.5464 31.0846 25.8934 30.6804 26.2445 30.2798L26.5439 30.5426C26.1946 30.941 25.8495 31.3432 25.5085 31.7488ZM27.6037 29.3581L27.3097 29.0891C27.6688 28.6961 28.032 28.3066 28.399 27.9209L28.6875 28.1957C28.3222 28.5794 27.9609 28.9669 27.6037 29.3581ZM29.7947 27.0563L29.512 26.7756C29.8868 26.3976 30.2654 26.0235 30.6479 25.6533L30.9248 25.9398C30.5443 26.308 30.1676 26.6802 29.7947 27.0563ZM32.0773 24.8465L31.8062 24.5542C32.1963 24.1922 32.5899 23.834 32.9871 23.4798L33.252 23.7775C32.8567 24.1298 32.4651 24.4861 32.0773 24.8465ZM34.4479 22.733L34.1892 22.4302C34.5934 22.0843 35.0012 21.7426 35.4125 21.4052L35.6649 21.7135C35.2558 22.0492 34.8501 22.3891 34.4479 22.733ZM36.9019 20.7191L36.6558 20.4058C37.0737 20.0771 37.495 19.7525 37.9195 19.4322L38.159 19.7506C37.7367 20.0692 37.3176 20.392 36.9019 20.7191ZM39.4358 18.8082L39.2028 18.4851C39.6336 18.1737 40.0677 17.8668 40.5048 17.5644L40.7312 17.8921C40.2963 18.1931 39.8645 18.4985 39.4358 18.8082ZM42.0448 17.0034L41.8252 16.671C42.2683 16.3777 42.7145 16.0889 43.1635 15.8047L43.3763 16.1419C42.9295 16.4245 42.4857 16.7116 42.0448 17.0034ZM44.7246 15.3079L44.5188 14.9665C44.9734 14.6919 45.4309 14.422 45.891 14.1568L46.0897 14.502C45.6319 14.7659 45.1768 15.0345 44.7246 15.3079ZM47.4707 13.7245L47.2789 13.375C47.7443 13.1193 48.2122 12.8683 48.6826 12.6222L48.8669 12.9756C48.3989 13.2203 47.9335 13.47 47.4707 13.7245ZM50.2786 12.2559L50.1012 11.8989C50.5765 11.6627 51.0542 11.4313 51.5343 11.2049L51.7039 11.5654C51.2264 11.7906 50.7513 12.0208 50.2786 12.2559ZM53.1425 10.9049L52.9804 10.5409C53.4646 10.3245 53.9511 10.1132 54.4397 9.90689L54.5945 10.2743C54.1083 10.4795 53.6243 10.6897 53.1425 10.9049ZM56.0641 9.67138L55.9171 9.30121C56.4117 9.10415 56.9083 8.91237 57.4069 8.72592L57.5462 9.09916C57.0502 9.28484 56.5562 9.47559 56.0641 9.67138ZM59.0399 8.55781L58.908 8.18181C59.4103 8.00558 59.9144 7.83457 60.4203 7.66881L60.5444 8.04756C60.0412 8.21258 59.5396 8.38267 59.0399 8.55781ZM62.0593 7.56859L61.943 7.18733C62.4522 7.03197 62.963 6.88197 63.4753 6.73736L63.5834 7.12114C63.0738 7.26505 62.5658 7.41421 62.0593 7.56859ZM65.1166 6.70512L65.0162 6.31939C65.5314 6.18525 66.0479 6.05653 66.5658 5.93327L66.658 6.32094C66.1429 6.44374 65.6291 6.57181 65.1166 6.70512ZM68.2069 5.96868L68.1229 5.57906C68.6431 5.46647 69.1644 5.35923 69.6868 5.25735L69.7631 5.6485C69.2433 5.7499 68.7245 5.85663 68.2069 5.96868ZM71.325 5.36105L71.257 4.96828C71.7814 4.87723 72.3067 4.79159 72.8329 4.71138L72.8928 5.10528C72.3694 5.18516 71.8467 5.27042 71.325 5.36105ZM74.4656 4.88216L74.4139 4.48712C74.9416 4.4177 75.47 4.35366 75.999 4.29503L76.0429 4.69129C75.5154 4.74962 74.9898 4.81321 74.4656 4.88216ZM77.6232 4.53281L77.5874 4.13584C78.1165 4.08836 78.6471 4.04591 79.1791 4.00872L79.2067 4.40651C78.6775 4.44329 78.1496 4.48534 77.6232 4.53281ZM80.7925 4.31245L80.773 3.91426C81.3035 3.88841 81.8353 3.86775 82.3687 3.85219L82.3803 4.2508C81.8493 4.26595 81.3202 4.28661 80.7925 4.31245ZM83.9672 4.22082L83.9637 3.82222C84.192 3.82027 84.4205 3.81931 84.6489 3.81931V4.21791C84.4216 4.21791 84.1943 4.21888 83.9672 4.22082Z" fill="#453447"/>
<path d="M89.2764 6.02957C90.3854 4.91953 90.3854 3.11983 89.2763 2.00983C88.1672 0.899827 86.3691 0.899858 85.26 2.0099C84.151 3.11994 84.151 4.91964 85.2601 6.02964C86.3692 7.13965 88.1673 7.13961 89.2764 6.02957Z" fill="#5C75C9"/>
<path d="M163.991 80.4319C165.1 79.3219 165.1 77.5222 163.991 76.4122C162.882 75.3022 161.084 75.3022 159.975 76.4123C158.866 77.5223 158.866 79.322 159.975 80.432C161.084 81.542 162.882 81.542 163.991 80.4319Z" fill="#5C75C9"/>
<path d="M79.6708 152.789C83.3374 156.478 83.3374 162.459 79.6708 166.147C76.0065 169.834 70.0612 169.834 66.3947 166.145C62.7305 162.459 62.7304 156.478 66.3947 152.791C70.0612 149.102 76.0065 149.102 79.6708 152.789Z" fill="#5C75C9"/>
<path d="M73.0343 170.562C70.2082 170.562 67.382 169.48 65.2302 167.315C63.1472 165.219 62 162.433 62 159.468C62 156.503 63.1472 153.716 65.2302 151.62C69.5326 147.292 76.532 147.29 80.8335 151.617C85.136 155.946 85.136 162.989 80.8335 167.318C78.6834 169.481 75.859 170.562 73.0343 170.562ZM73.0343 148.855C70.3307 148.855 67.6278 149.89 65.5692 151.961C63.5769 153.966 62.4796 156.632 62.4796 159.468C62.4796 162.304 63.5769 164.97 65.5692 166.974C69.6841 171.114 76.3797 171.116 80.4946 166.977C84.61 162.836 84.61 156.099 80.4946 151.959C78.438 149.89 75.7359 148.855 73.0343 148.855Z" fill="#BEC8E9"/>
<path d="M68.4214 161.721H67.4453C67.4451 159.62 68.2603 157.643 69.7406 156.154C71.221 154.665 73.1862 153.845 75.2741 153.845V154.827C73.4468 154.827 71.7268 155.545 70.431 156.848C69.1351 158.152 68.4214 159.883 68.4214 161.721Z" fill="white"/>
<path d="M70.3745 161.721H69.3984C69.3989 158.461 72.0349 155.809 75.2751 155.809V156.79C72.5733 156.79 70.3745 159.002 70.3745 161.721Z" fill="white"/>
<path d="M75.276 158.755C73.6498 158.756 72.3278 160.086 72.3276 161.721H71.3516C71.3516 160.668 71.76 159.677 72.5023 158.931C73.2443 158.184 74.2293 157.773 75.276 157.773V158.755ZM76.3229 160.667C76.9027 161.25 76.9073 162.199 76.3274 162.783C75.7477 163.366 74.8042 163.361 74.2244 162.778C73.6446 162.195 73.6446 161.25 74.2243 160.667C74.8042 160.083 75.7431 160.083 76.3229 160.667Z" fill="white"/>
<path d="M88.5601 103.561C84.0159 104.441 79.5257 103.879 75.5673 102.196L67.8124 105.425L67.7569 96.6471C65.1384 93.7613 63.25 90.1534 62.4482 86.0602C60.097 74.0567 67.9756 62.4303 80.0457 60.0921C92.1158 57.7539 103.806 65.5891 106.158 77.5927C108.509 89.5964 100.63 101.223 88.5601 103.561Z" fill="#E55D5D"/>
<path d="M78.1744 79.8404H81.3203C81.3203 79.8404 81.3203 77.2724 84.0652 77.2265C85.4908 77.2025 86.2296 78.1106 86.5303 78.8058C86.8789 79.6135 86.7735 80.5336 86.3062 81.2828C85.7725 82.138 84.6034 82.9152 82.4832 82.5523V87.04H85.5936V85.4087C85.5936 85.4087 89.9559 84.3121 89.9559 79.6385C89.9559 75.1668 85.8306 74.1277 84.0652 74.1277C82.7151 74.1277 78.1148 74.4451 78.1744 79.8404Z" fill="white"/>
<path d="M85.6313 88.2053H82.4746V91.0717H85.6313V88.2053Z" fill="white"/>
<path d="M83.5758 117.124V114.319C101.677 114.319 116.404 99.6736 116.404 81.6719C116.404 63.6702 101.677 49.0247 83.5758 49.0247C65.4745 49.0247 50.7479 63.6702 50.7479 81.6719H47.9277C47.9277 76.8866 48.8705 72.2436 50.7297 67.872C52.5252 63.6503 55.0954 59.8591 58.3688 56.6037C61.6422 53.3483 65.4544 50.7923 69.6996 49.0067C74.0954 47.1576 78.764 46.2201 83.5758 46.2201C88.3877 46.2201 93.0564 47.1576 97.4521 49.0067C101.697 50.7923 105.509 53.3483 108.783 56.6037C112.056 59.8591 114.627 63.6503 116.422 67.872C118.281 72.2436 119.224 76.8865 119.224 81.6719C119.224 86.4573 118.281 91.1003 116.422 95.4718C114.626 99.6935 112.056 103.485 108.783 106.74C105.509 109.996 101.697 112.552 97.4521 114.337C93.0563 116.186 88.3877 117.124 83.5758 117.124Z" fill="#2C2C35"/>
<path d="M125.624 85.8708C126.428 80.9646 123.12 76.3127 118.182 75.4469C116.551 75.1608 114.995 76.2442 114.707 77.8667L110.777 100.037C110.489 101.659 111.578 103.207 113.21 103.493C118.156 104.36 122.873 101.101 123.792 96.2022C125.831 96.5523 127.66 86.2351 125.624 85.8708Z" fill="#2C2C35"/>
<g opacity="0.7">
<path d="M122.821 88.8524C123.345 88.9443 123.845 88.5961 123.937 88.0747C124.586 84.4138 123.144 80.7277 120.173 78.4548C119.751 78.132 119.146 78.2105 118.821 78.6301C118.496 79.0498 118.575 79.6517 118.997 79.9745C121.397 81.8104 122.562 84.7867 122.039 87.7417C121.946 88.2632 122.296 88.7604 122.821 88.8524Z" fill="#2C2C35"/>
</g>
<path d="M53.9016 77.9341C53.6139 76.3116 52.0581 75.2283 50.4266 75.5144H50.4265C45.45 76.387 42.1272 81.1065 43.0047 86.0556L42.9862 85.9514C40.9426 86.3097 42.7744 96.6417 44.8181 96.2834L44.7996 96.1792C45.6771 101.128 50.4227 104.433 55.3992 103.56C57.0307 103.274 58.12 101.727 57.8323 100.104L53.9016 77.9341Z" fill="#2C2C35"/>
<g opacity="0.7">
<path d="M46.1684 88.1489C45.6441 88.2409 45.1441 87.8927 45.0517 87.3713C44.4026 83.7104 45.845 80.0242 48.816 77.7514C49.238 77.4285 49.8433 77.507 50.1679 77.9267C50.4925 78.3464 50.4136 78.9483 49.9916 79.2711C47.5917 81.107 46.4265 84.0832 46.9504 87.0383C47.0428 87.5597 46.6927 88.057 46.1684 88.1489Z" fill="#2C2C35"/>
</g>
<path d="M87.1934 119.409H80.425C78.377 119.409 76.7168 117.758 76.7168 115.721C76.7168 113.685 78.377 112.033 80.425 112.033H87.1934V119.409Z" fill="white"/>
<path d="M43.4202 21.8076C43.4202 24.5866 42.3061 27.1075 40.5035 28.942C38.6806 30.7902 36.1488 31.9317 33.3605 31.9317C30.5722 31.9317 28.0403 30.7903 26.2174 28.942C24.4148 27.1074 23.3008 24.5866 23.3008 21.8076C23.3008 16.2155 27.804 11.6835 33.3604 11.6835C38.917 11.6834 43.4202 16.2155 43.4202 21.8076Z" fill="#5C75C9"/>
<path d="M33.3615 33.2416C30.3067 33.2416 27.4417 32.0424 25.2942 29.8648C23.1699 27.7032 22 24.8415 22 21.8071C22 15.5022 27.0968 10.373 33.3616 10.373C39.6263 10.373 44.7231 15.5023 44.7231 21.8071C44.7231 24.8415 43.5532 27.7032 41.4291 29.8647C39.2811 32.0424 36.416 33.2416 33.3615 33.2416ZM33.3615 10.7728C27.3158 10.7728 22.3973 15.7228 22.3973 21.8071C22.3973 24.7356 23.5263 27.4971 25.5764 29.5835C27.6488 31.6845 30.4134 32.8418 33.3615 32.8418C36.3093 32.8418 39.0741 31.6845 41.1468 29.5834C43.1967 27.4972 44.3257 24.7356 44.3257 21.8072C44.3257 15.7228 39.4071 10.7728 33.3615 10.7728Z" fill="#BEC8E9"/>
<path d="M40.5048 28.9406C38.6819 30.7887 36.1501 31.9303 33.3618 31.9303C30.5735 31.9303 28.0417 30.7888 26.2188 28.9406C26.2322 25.8014 28.2442 23.1379 31.046 22.1662C30.0131 21.4256 29.3447 20.223 29.3447 18.8641C29.3447 16.6354 31.1473 14.8212 33.3618 14.8212C35.5763 14.8212 37.3789 16.6354 37.3789 18.8641C37.3789 20.223 36.7105 21.4257 35.6775 22.1662C38.4793 23.1379 40.4912 25.8014 40.5048 28.9406Z" fill="#E5E9F6"/>
<path d="M149.743 134.553C155.973 134.553 161.024 129.469 161.024 123.199C161.024 116.928 155.973 111.845 149.743 111.845C143.512 111.845 138.461 116.928 138.461 123.199C138.461 129.469 143.512 134.553 149.743 134.553Z" fill="#02AF8E"/>
<path d="M149.744 136.024C142.717 136.024 137 130.27 137 123.198C137 116.126 142.717 110.373 149.744 110.373C156.771 110.373 162.487 116.126 162.487 123.198C162.487 130.27 156.771 136.024 149.744 136.024ZM149.744 110.773C142.936 110.773 137.397 116.347 137.397 123.198C137.397 130.05 142.936 135.624 149.744 135.624C156.552 135.624 162.09 130.05 162.09 123.198C162.09 116.347 156.552 110.773 149.744 110.773Z" fill="#E5E9F6"/>
<path d="M144.831 125.244L147.344 120.152L145.449 119.217L142.936 124.309L144.831 125.244Z" fill="#263238"/>
<path d="M144.311 124.992L146.824 119.9L144.93 118.965L142.417 124.057L144.311 124.992Z" fill="white"/>
<path d="M145.651 120.852C145.534 121.088 145.248 121.185 145.012 121.068C144.776 120.952 144.679 120.666 144.796 120.43C144.912 120.194 145.198 120.097 145.434 120.213C145.67 120.33 145.767 120.616 145.651 120.852Z" fill="white"/>
<path d="M146.956 120.913C146.965 120.93 146.778 121.052 146.537 121.185C146.296 121.318 146.093 121.413 146.083 121.396C146.074 121.378 146.262 121.257 146.502 121.123C146.743 120.99 146.947 120.896 146.956 120.913Z" fill="white"/>
<path d="M146.69 121.476C146.7 121.493 146.512 121.614 146.271 121.748C146.03 121.881 145.827 121.975 145.818 121.958C145.808 121.941 145.996 121.819 146.237 121.686C146.478 121.553 146.681 121.459 146.69 121.476Z" fill="white"/>
<path d="M146.409 122.041C146.418 122.059 146.231 122.18 145.99 122.314C145.749 122.447 145.546 122.541 145.536 122.524C145.527 122.507 145.715 122.385 145.956 122.252C146.197 122.119 146.4 122.024 146.409 122.041Z" fill="white"/>
<path d="M146.13 122.602C146.139 122.62 145.951 122.741 145.711 122.875C145.47 123.008 145.267 123.102 145.257 123.085C145.248 123.068 145.435 122.946 145.676 122.813C145.917 122.68 146.12 122.585 146.13 122.602Z" fill="white"/>
<path d="M145.852 123.172C145.862 123.189 145.674 123.31 145.433 123.444C145.192 123.577 144.989 123.671 144.98 123.654C144.97 123.637 145.158 123.515 145.399 123.382C145.64 123.249 145.843 123.155 145.852 123.172Z" fill="white"/>
<path d="M145.561 123.73C145.571 123.747 145.383 123.868 145.142 124.002C144.901 124.135 144.698 124.229 144.689 124.212C144.679 124.195 144.867 124.073 145.108 123.94C145.349 123.807 145.552 123.713 145.561 123.73Z" fill="white"/>
<path d="M145.288 124.301C145.297 124.318 145.11 124.44 144.869 124.573C144.628 124.706 144.425 124.801 144.415 124.783C144.406 124.766 144.594 124.645 144.835 124.511C145.076 124.378 145.278 124.284 145.288 124.301Z" fill="white"/>
<path d="M147.192 120.413C147.202 120.43 147.014 120.552 146.773 120.685C146.532 120.818 146.329 120.913 146.32 120.896C146.31 120.878 146.498 120.757 146.739 120.623C146.98 120.49 147.183 120.396 147.192 120.413Z" fill="white"/>
<path d="M147.144 120.049C147.153 120.066 147.045 120.144 146.903 120.222C146.76 120.301 146.637 120.351 146.628 120.334C146.618 120.317 146.726 120.239 146.869 120.161C147.011 120.082 147.135 120.032 147.144 120.049Z" fill="white"/>
<path d="M145.984 125.317L148.307 120.868C148.307 120.868 149.405 121.168 150.97 120.247C152.005 119.638 152.259 118.575 152.568 118.236C152.756 118.028 153.302 118.358 153.538 118.511C153.761 118.655 154.088 118.98 154.067 119.436C154.029 120.28 152.783 121.731 152.783 121.731C152.783 121.731 152.43 121.977 152.904 122.211L154.593 123.045C154.812 123.153 154.992 123.332 155.088 123.556C155.172 123.754 155.201 124.005 155.04 124.275C154.672 124.893 154.192 125.014 154.125 125.149C154.058 125.284 154.127 125.613 153.8 125.935C153.473 126.258 153.405 126.182 153.313 126.368C153.221 126.554 152.953 127.011 152.693 127.24C152.433 127.47 152.231 127.538 152.231 127.538C152.231 127.538 151.996 128.193 151.636 128.444C151.165 128.773 149.901 128.523 149.545 128.085C149.379 127.88 148.491 127.144 148.076 126.792C147.661 126.44 146.549 125.322 145.984 125.317Z" fill="#263238"/>
<path d="M145.345 125.072L147.591 120.522C147.591 120.522 148.688 120.822 150.253 119.901C151.289 119.291 151.914 118.695 152.223 118.355C152.412 118.147 152.724 118.098 152.96 118.251C153.183 118.395 153.422 118.629 153.401 119.084C153.363 119.929 152.066 121.385 152.066 121.385C152.066 121.385 151.713 121.631 152.187 121.865L153.876 122.699C154.095 122.807 154.275 122.985 154.371 123.21C154.455 123.407 154.484 123.659 154.323 123.929C153.955 124.547 153.475 124.667 153.408 124.803C153.341 124.938 153.411 125.267 153.083 125.589C152.756 125.911 152.688 125.836 152.596 126.022C152.504 126.208 152.237 126.665 151.976 126.894C151.716 127.123 151.514 127.192 151.514 127.192C151.514 127.192 151.264 127.826 150.92 128.098C150.575 128.369 149.773 128.205 149.536 128.088C149.299 127.971 147.775 126.798 147.36 126.446C146.944 126.093 145.91 125.078 145.345 125.072Z" fill="white"/>
<path d="M153.384 120.899C153.391 120.917 153.124 121.044 152.78 121.161C152.435 121.278 152.146 121.339 152.141 121.32C152.136 121.301 152.415 121.21 152.757 121.094C153.099 120.978 153.376 120.88 153.384 120.899Z" fill="white"/>
<path d="M153.785 120.337C153.793 120.354 153.548 120.474 153.226 120.555C152.904 120.635 152.644 120.686 152.638 120.669C152.632 120.649 152.889 120.566 153.208 120.486C153.526 120.407 153.777 120.319 153.785 120.337Z" fill="white"/>
<path d="M154.003 119.767C154.011 119.782 153.815 119.891 153.544 119.939C153.279 119.982 153.069 120.024 153.063 120.006C153.056 119.987 153.267 119.912 153.532 119.87C153.792 119.824 153.995 119.747 154.003 119.767Z" fill="white"/>
<path d="M154.046 119.213C154.05 119.232 153.899 119.287 153.709 119.335C153.518 119.384 153.359 119.408 153.354 119.389C153.349 119.37 153.5 119.315 153.691 119.267C153.882 119.218 154.041 119.194 154.046 119.213Z" fill="white"/>
<path d="M153.841 118.779C153.843 118.798 153.751 118.826 153.637 118.84C153.523 118.854 153.427 118.85 153.424 118.831C153.421 118.812 153.512 118.784 153.628 118.77C153.744 118.755 153.84 118.759 153.841 118.779Z" fill="white"/>
<path d="M152.858 121.638C152.863 121.656 152.703 121.714 152.5 121.765C152.298 121.817 152.131 121.843 152.126 121.825C152.121 121.806 152.281 121.749 152.483 121.697C152.685 121.645 152.853 121.619 152.858 121.638Z" fill="white"/>
<path d="M154.822 124.584C154.825 124.603 154.517 124.663 154.135 124.718C153.753 124.772 153.44 124.801 153.437 124.782C153.435 124.763 153.743 124.703 154.125 124.648C154.507 124.593 154.82 124.565 154.822 124.584Z" fill="white"/>
<path d="M155.184 123.8C155.186 123.819 155.004 123.862 154.776 123.895C154.548 123.928 154.361 123.939 154.358 123.92C154.355 123.901 154.537 123.858 154.765 123.825C154.994 123.792 155.181 123.781 155.184 123.8Z" fill="white"/>
<path d="M154.019 125.558C154.02 125.578 153.79 125.603 153.51 125.643C153.229 125.682 153.002 125.722 152.998 125.702C152.993 125.684 153.216 125.613 153.5 125.573C153.785 125.532 154.018 125.539 154.019 125.558Z" fill="white"/>
<path d="M153.345 126.308C153.349 126.327 153.127 126.385 152.849 126.437C152.571 126.489 152.343 126.516 152.34 126.496C152.336 126.477 152.558 126.42 152.836 126.368C153.114 126.316 153.342 126.289 153.345 126.308Z" fill="white"/>
<path d="M152.626 127.253C152.631 127.271 152.375 127.356 152.048 127.41C151.722 127.464 151.452 127.466 151.451 127.448C151.45 127.427 151.714 127.394 152.037 127.34C152.36 127.287 152.621 127.234 152.626 127.253Z" fill="white"/>
<path d="M151.989 128.015C151.994 128.034 151.694 128.126 151.314 128.188C150.933 128.252 150.62 128.262 150.619 128.242C150.617 128.223 150.925 128.182 151.302 128.118C151.68 128.057 151.984 127.997 151.989 128.015Z" fill="white"/>
<path d="M20.6326 104.391C20.6326 107.067 19.5599 109.494 17.8242 111.261C16.0689 113.04 13.6311 114.139 10.9461 114.139C8.26121 114.139 5.82342 113.04 4.06819 111.261C2.33243 109.494 1.25977 107.067 1.25977 104.391C1.25977 99.0064 5.5959 94.6425 10.9461 94.6425C16.2966 94.6425 20.6326 99.0064 20.6326 104.391Z" fill="#2C2C35"/>
<path d="M3.33254 110.521C3.30323 110.521 3.27399 110.508 3.25436 110.483C2.92354 110.059 2.62752 109.609 2.36924 109.137C2.35654 109.114 2.35353 109.087 2.36088 109.061C2.36822 109.036 2.38533 109.014 2.40842 109.001C2.43156 108.989 2.45869 108.986 2.48396 108.993C2.50923 109.001 2.5306 109.018 2.54345 109.041C2.79646 109.503 3.08652 109.945 3.41073 110.36C3.42225 110.374 3.42941 110.392 3.43139 110.411C3.43338 110.429 3.4301 110.448 3.42195 110.465C3.41379 110.482 3.40108 110.496 3.38527 110.506C3.36946 110.516 3.35119 110.521 3.33254 110.521ZM1.80775 107.731C1.7668 107.731 1.72843 107.705 1.71405 107.664C1.53613 107.156 1.40025 106.633 1.30779 106.102C1.30554 106.089 1.30584 106.076 1.30868 106.063C1.31151 106.05 1.31684 106.038 1.32433 106.028C1.33183 106.017 1.34135 106.008 1.35235 106.001C1.36336 105.994 1.37563 105.989 1.38848 105.987C1.43928 105.975 1.49405 106.013 1.50334 106.068C1.59411 106.588 1.72725 107.1 1.90143 107.598C1.90672 107.613 1.90832 107.629 1.90613 107.645C1.90393 107.661 1.89801 107.676 1.88883 107.689C1.87966 107.702 1.86751 107.712 1.8534 107.72C1.83929 107.727 1.82364 107.731 1.80775 107.731ZM1.26007 104.594C1.23392 104.594 1.20881 104.583 1.19021 104.565C1.17161 104.546 1.16103 104.521 1.16073 104.495L1.16016 104.39C1.16 103.886 1.1982 103.38 1.27364 102.885C1.27798 102.859 1.29228 102.836 1.31345 102.821C1.33461 102.805 1.36094 102.799 1.38674 102.803C1.41254 102.807 1.43572 102.821 1.4513 102.842C1.46688 102.863 1.47359 102.89 1.46997 102.916C1.39578 103.404 1.35863 103.897 1.35884 104.391L1.35941 104.493C1.35956 104.506 1.35713 104.519 1.35227 104.531C1.34742 104.543 1.34024 104.554 1.33112 104.564C1.322 104.573 1.31113 104.581 1.29913 104.586C1.28714 104.591 1.27424 104.594 1.26119 104.594H1.26007ZM1.74102 101.447C1.7253 101.447 1.7098 101.443 1.69579 101.436C1.68178 101.429 1.66968 101.418 1.66047 101.405C1.65127 101.393 1.64521 101.378 1.64283 101.362C1.64045 101.346 1.6418 101.33 1.64677 101.315C1.81369 100.804 2.02224 100.307 2.27029 99.8297C2.28269 99.8064 2.30367 99.7889 2.32873 99.781C2.3538 99.7731 2.38096 99.7754 2.40437 99.7874C2.41594 99.7935 2.42621 99.8018 2.43458 99.8118C2.44296 99.8219 2.44927 99.8335 2.45318 99.8461C2.45709 99.8586 2.45851 99.8718 2.45736 99.8849C2.4562 99.8979 2.4525 99.9107 2.44645 99.9223C2.20339 100.39 1.99896 100.877 1.83528 101.378C1.82876 101.398 1.81616 101.415 1.79923 101.428C1.78231 101.44 1.76193 101.447 1.74102 101.447ZM3.20719 98.6264C3.18874 98.6264 3.17065 98.6212 3.15496 98.6114C3.13926 98.6017 3.12657 98.5877 3.11832 98.5711C3.11008 98.5545 3.10661 98.5359 3.10829 98.5174C3.10996 98.4989 3.11672 98.4812 3.12781 98.4663C3.4504 98.0363 3.80711 97.6333 4.19448 97.2614C4.21356 97.2431 4.23909 97.2332 4.26543 97.2339C4.29177 97.2345 4.31677 97.2457 4.33493 97.2649C4.3531 97.2841 4.36295 97.3098 4.3623 97.3363C4.36165 97.3628 4.35055 97.388 4.33146 97.4062C3.95193 97.7705 3.60246 98.1653 3.2865 98.5866C3.26696 98.6127 3.23724 98.6264 3.20719 98.6264ZM5.49734 96.4294C5.47609 96.4294 5.45539 96.4226 5.43828 96.4099C5.42118 96.3972 5.40857 96.3793 5.40232 96.3589C5.39606 96.3384 5.39649 96.3165 5.40354 96.2963C5.41058 96.2762 5.42387 96.2588 5.44146 96.2468C5.8841 95.9433 6.35072 95.6769 6.83662 95.4501C6.86032 95.4404 6.88681 95.4403 6.9106 95.4497C6.9344 95.4592 6.95366 95.4775 6.9644 95.5009C6.97513 95.5242 6.97652 95.5509 6.96826 95.5752C6.96 95.5996 6.94274 95.6198 6.92005 95.6317C6.44399 95.8537 5.98684 96.1147 5.55322 96.412C5.53676 96.4233 5.51729 96.4294 5.49734 96.4294ZM8.36918 95.0914C8.34513 95.0914 8.32187 95.0827 8.30376 95.0667C8.28564 95.0508 8.27387 95.0288 8.27065 95.0048C8.26742 94.9809 8.27294 94.9565 8.28621 94.9363C8.29947 94.9161 8.31957 94.9014 8.34276 94.895C8.85901 94.7523 9.38604 94.6524 9.91852 94.5965C9.97134 94.5891 10.022 94.6306 10.0276 94.6855C10.0334 94.7403 9.99365 94.7895 9.93913 94.7952C9.41749 94.85 8.9012 94.9479 8.39551 95.0879C8.38692 95.0902 8.37807 95.0914 8.36918 95.0914Z" fill="#BEC8E9"/>
<path d="M10.9474 115.408C8.00417 115.408 5.24372 114.253 3.17415 112.155C1.12727 110.071 0 107.314 0 104.39C0 98.3153 4.91095 93.373 10.9473 93.373C16.9838 93.373 21.8949 98.3154 21.8949 104.39C21.8949 107.314 20.7676 110.071 18.721 112.154C16.6512 114.252 13.8906 115.408 10.9474 115.408ZM10.9474 93.7727C5.13007 93.7727 0.397367 98.5357 0.397367 104.39C0.397367 107.208 1.48384 109.865 3.45642 111.873C5.45047 113.895 8.11086 115.008 10.9474 115.008C13.7839 115.008 16.4445 113.895 18.4387 111.873C20.411 109.865 21.4976 107.208 21.4976 104.39C21.4976 98.5357 16.7647 93.7727 10.9474 93.7727Z" fill="#BEC8E9"/>
<path d="M17 101.233V107.509C17 107.753 16.8946 107.975 16.7202 108.132C16.5539 108.281 16.335 108.373 16.0835 108.373H5.9125C5.66513 108.373 5.44607 108.281 5.27982 108.132C5.10543 107.975 5 107.753 5 107.509V101.233C5 100.992 5.10543 100.771 5.27982 100.614C5.44607 100.465 5.66505 100.373 5.9125 100.373H16.0835C16.335 100.373 16.5539 100.465 16.7202 100.614C16.8089 100.694 16.8794 100.79 16.9275 100.897C16.9756 101.003 17.0003 101.118 17 101.233Z" fill="#4E7BD6"/>
<path d="M16.7216 108.132C16.5554 108.281 16.3364 108.373 16.0849 108.373H5.91393C5.66656 108.373 5.44751 108.281 5.28125 108.132L9.27183 104.373L11.0035 102.74L12.7352 104.373L16.7216 108.132Z" fill="#B8CAF0"/>
<path d="M16.7217 100.614L11.6801 105.368C11.3065 105.72 10.7007 105.72 10.3271 105.368L9.27183 104.373L5.28125 100.614C5.44751 100.465 5.66648 100.373 5.91393 100.373H16.0849C16.3364 100.373 16.5554 100.465 16.7217 100.614Z" fill="#82A3E5"/>
<path d="M133.983 49.5032C138.214 45.2449 138.214 38.341 133.983 34.0829C129.752 29.8248 122.892 29.8249 118.661 34.0832C114.43 38.3415 114.43 45.2453 118.661 49.5034C122.892 53.7616 129.752 53.7614 133.983 49.5032Z" fill="#E55D5D"/>
<path d="M116.167 45.6931C116.126 45.6931 116.089 45.6683 116.074 45.6281C115.887 45.1235 115.738 44.6059 115.626 44.0793C115.624 44.0664 115.624 44.0532 115.626 44.0403C115.628 44.0274 115.633 44.015 115.64 44.004C115.647 43.993 115.657 43.9836 115.667 43.9761C115.678 43.9687 115.69 43.9635 115.703 43.9608C115.754 43.951 115.81 43.9836 115.821 44.0379C115.93 44.5548 116.077 45.0629 116.26 45.5582C116.266 45.5733 116.267 45.5896 116.265 45.6056C116.263 45.6216 116.258 45.6369 116.249 45.6502C116.239 45.6634 116.227 45.6743 116.213 45.6817C116.199 45.6892 116.183 45.6931 116.167 45.6931ZM115.509 42.5752C115.484 42.5752 115.46 42.5655 115.441 42.5481C115.423 42.5307 115.412 42.5068 115.41 42.4815C115.396 42.2521 115.389 42.0224 115.389 41.7926C115.389 41.4861 115.402 41.1754 115.427 40.869C115.431 40.8137 115.483 40.7742 115.534 40.7777C115.547 40.7787 115.559 40.7823 115.571 40.7883C115.583 40.7943 115.593 40.8026 115.601 40.8126C115.61 40.8226 115.616 40.8342 115.62 40.8467C115.624 40.8592 115.626 40.8724 115.625 40.8854C115.6 41.1872 115.587 41.4898 115.587 41.7926C115.587 42.0168 115.594 42.2442 115.608 42.469C115.61 42.4954 115.601 42.5214 115.584 42.5413C115.566 42.5612 115.542 42.5733 115.515 42.5749C115.513 42.5752 115.511 42.5752 115.509 42.5752ZM115.773 39.3991C115.758 39.399 115.743 39.3956 115.73 39.389C115.716 39.3825 115.704 39.3729 115.695 39.3611C115.686 39.3493 115.679 39.3356 115.676 39.3209C115.673 39.3062 115.673 39.2909 115.676 39.2763C115.798 38.7523 115.958 38.238 116.155 37.7376C116.175 37.6861 116.233 37.6619 116.284 37.6816C116.335 37.7019 116.36 37.7601 116.34 37.8114C116.146 38.3026 115.989 38.8075 115.869 39.3219C115.864 39.3439 115.852 39.3634 115.834 39.3774C115.817 39.3914 115.795 39.3991 115.773 39.3991ZM116.94 36.4382C116.922 36.4383 116.905 36.4337 116.89 36.4249C116.875 36.4161 116.862 36.4035 116.853 36.3883C116.845 36.3731 116.84 36.3558 116.84 36.3382C116.84 36.3207 116.845 36.3034 116.854 36.2882C117.122 35.8226 117.423 35.3774 117.755 34.956C117.772 34.9354 117.796 34.9221 117.822 34.9191C117.848 34.9161 117.874 34.9236 117.895 34.94C117.938 34.9743 117.945 35.0372 117.911 35.0806C117.585 35.4942 117.289 35.9312 117.026 36.3882C117.017 36.4034 117.004 36.416 116.989 36.4248C116.974 36.4335 116.957 36.4382 116.94 36.4382ZM118.909 33.9428C118.882 33.9428 118.856 33.9322 118.837 33.9111C118.828 33.9016 118.821 33.8904 118.816 33.8781C118.811 33.8658 118.809 33.8527 118.81 33.8396C118.81 33.8265 118.813 33.8136 118.818 33.8016C118.824 33.7897 118.831 33.7789 118.841 33.7699C119.231 33.4017 119.647 33.0626 120.086 32.7554C120.108 32.7411 120.134 32.736 120.16 32.7409C120.185 32.7459 120.207 32.7606 120.222 32.7819C120.237 32.8033 120.243 32.8296 120.239 32.8552C120.234 32.8809 120.22 32.9039 120.2 32.9193C119.769 33.2211 119.36 33.5541 118.977 33.9155C118.958 33.9331 118.934 33.9428 118.909 33.9428ZM121.51 32.1237C121.473 32.1237 121.438 32.1034 121.421 32.0683C121.409 32.0445 121.407 32.017 121.416 31.9919C121.424 31.9668 121.442 31.946 121.466 31.9341C121.945 31.6948 122.441 31.4914 122.95 31.3253C122.975 31.318 123.002 31.3207 123.025 31.3328C123.047 31.3449 123.065 31.3656 123.073 31.3904C123.081 31.4151 123.079 31.4421 123.067 31.4654C123.056 31.4888 123.036 31.5067 123.011 31.5154C122.512 31.6783 122.025 31.8781 121.554 32.1133C121.54 32.1202 121.525 32.1238 121.51 32.1237ZM124.523 31.1418C124.498 31.1417 124.474 31.1322 124.456 31.1152C124.437 31.0982 124.426 31.0749 124.424 31.05C124.422 31.025 124.429 31.0002 124.445 30.9804C124.46 30.9606 124.482 30.9473 124.507 30.9432C125.034 30.8548 125.567 30.8051 126.102 30.7944C126.154 30.7944 126.201 30.8374 126.203 30.8925C126.203 30.9056 126.201 30.9187 126.196 30.9309C126.191 30.9431 126.184 30.9543 126.175 30.9638C126.166 30.9732 126.155 30.9808 126.143 30.9861C126.131 30.9913 126.118 30.9942 126.105 30.9944C125.58 31.005 125.053 31.054 124.539 31.1405C124.534 31.1414 124.528 31.1418 124.523 31.1418Z" fill="#231826"/>
<path d="M126.323 54.1281C119.564 54.1281 114.066 48.5947 114.066 41.7932C114.066 34.9917 119.564 29.4585 126.323 29.4585C133.081 29.4585 138.579 34.9918 138.579 41.7932C138.579 48.5946 133.081 54.1281 126.323 54.1281ZM126.323 29.8584C119.784 29.8584 114.464 35.2124 114.464 41.7933C114.464 48.3743 119.784 53.7283 126.323 53.7283C132.862 53.7283 138.182 48.3743 138.182 41.7933C138.182 35.2125 132.862 29.8584 126.323 29.8584Z" fill="#E5E9F6"/>
<path d="M129.643 38.0985L128.533 43.667L130.605 44.0798L131.715 38.5113L129.643 38.0985Z" fill="#263238"/>
<path d="M130.211 38.2076L129.102 43.7761L131.174 44.1889L132.283 38.6204L130.211 38.2076Z" fill="white"/>
<path d="M129.988 42.5529C130.039 42.2946 130.29 42.1271 130.548 42.1785C130.807 42.2299 130.974 42.4811 130.923 42.7392C130.871 42.9973 130.62 43.165 130.362 43.1136C130.104 43.0622 129.936 42.811 129.988 42.5529Z" fill="white"/>
<path d="M128.71 42.8319C128.696 42.8178 128.846 42.6517 129.044 42.4606C129.243 42.2695 129.414 42.1259 129.428 42.14C129.441 42.1541 129.292 42.3202 129.093 42.5113C128.895 42.7024 128.723 42.846 128.71 42.8319Z" fill="white"/>
<path d="M128.821 42.2196C128.808 42.2055 128.957 42.0394 129.156 41.8483C129.354 41.6572 129.525 41.5137 129.539 41.5277C129.553 41.5418 129.403 41.708 129.205 41.8991C129.006 42.0899 128.835 42.2335 128.821 42.2196Z" fill="white"/>
<path d="M128.948 41.6001C128.935 41.586 129.084 41.4199 129.283 41.2288C129.481 41.0377 129.653 40.8941 129.666 40.9082C129.679 40.9223 129.53 41.0885 129.332 41.2796C129.133 41.4707 128.962 41.6142 128.948 41.6001Z" fill="white"/>
<path d="M129.071 40.9862C129.058 40.9721 129.207 40.806 129.406 40.6149C129.604 40.4238 129.775 40.2802 129.789 40.2943C129.803 40.3084 129.653 40.4746 129.455 40.6656C129.256 40.8567 129.085 41.0003 129.071 40.9862Z" fill="white"/>
<path d="M129.192 40.3645C129.179 40.3504 129.328 40.1843 129.527 39.9932C129.725 39.8021 129.897 39.6585 129.91 39.6726C129.924 39.6867 129.774 39.8529 129.576 40.0439C129.377 40.2348 129.206 40.3784 129.192 40.3645Z" fill="white"/>
<path d="M129.329 39.75C129.316 39.7359 129.465 39.5698 129.663 39.3787C129.862 39.1876 130.033 39.044 130.047 39.0581C130.06 39.0722 129.911 39.2384 129.712 39.4294C129.514 39.6205 129.342 39.7641 129.329 39.75Z" fill="white"/>
<path d="M129.444 39.1278C129.431 39.1137 129.58 38.9475 129.779 38.7564C129.977 38.5653 130.148 38.4218 130.162 38.4359C130.176 38.45 130.026 38.6161 129.828 38.8072C129.629 38.9983 129.458 39.1416 129.444 39.1278Z" fill="white"/>
<path d="M128.61 43.3762C128.597 43.3621 128.746 43.1959 128.945 43.0048C129.143 42.8138 129.314 42.6702 129.328 42.6843C129.342 42.6984 129.192 42.8645 128.994 43.0556C128.795 43.2467 128.624 43.3903 128.61 43.3762Z" fill="white"/>
<path d="M128.753 43.7152C128.74 43.7011 128.824 43.5981 128.941 43.4851C129.059 43.3721 129.165 43.2916 129.178 43.3057C129.192 43.3198 129.108 43.4228 128.99 43.5358C128.873 43.6491 128.767 43.7293 128.753 43.7152Z" fill="white"/>
<path d="M128.511 38.3262L127.418 43.2246C127.418 43.2246 126.28 43.2192 125.007 44.5138C124.164 45.3705 124.195 46.4622 123.984 46.8702C123.856 47.1196 123.243 46.9419 122.976 46.8558C122.723 46.7741 122.323 46.5448 122.225 46.0993C122.043 45.2736 122.872 43.5497 122.872 43.5497C122.872 43.5497 123.149 43.2203 122.631 43.117L120.783 42.7489C120.544 42.7012 120.324 42.5754 120.173 42.3833C120.041 42.2143 119.947 41.979 120.033 41.6762C120.228 40.9843 120.661 40.7435 120.691 40.5954C120.72 40.4475 120.568 40.1477 120.801 39.7519C121.034 39.3558 121.119 39.4114 121.16 39.2077C121.2 39.0042 121.34 38.4935 121.532 38.2048C121.725 37.9161 121.902 37.7977 121.902 37.7977C121.902 37.7977 121.959 37.1047 122.242 36.7689C122.612 36.3286 123.897 36.2434 124.354 36.5744C124.568 36.7292 125.616 37.2103 126.108 37.443C126.6 37.6758 127.963 38.4672 128.511 38.3262Z" fill="#263238"/>
<path d="M129.193 38.3969L128.201 43.3735C128.201 43.3735 127.063 43.3679 125.79 44.6627C124.948 45.5195 124.498 46.2576 124.287 46.6655C124.159 46.915 123.87 47.0434 123.603 46.9571C123.35 46.8753 123.059 46.7115 122.961 46.2662C122.779 45.4405 123.655 43.6986 123.655 43.6986C123.655 43.6986 123.932 43.3692 123.414 43.2659L121.567 42.8979C121.327 42.8501 121.107 42.7243 120.956 42.5322C120.824 42.3632 120.731 42.1279 120.816 41.8251C121.012 41.1332 121.444 40.8925 121.474 40.7443C121.503 40.5964 121.352 40.2969 121.584 39.9008C121.817 39.5048 121.902 39.5603 121.943 39.3566C121.983 39.1532 122.123 38.6426 122.316 38.3537C122.508 38.065 122.685 37.9464 122.685 37.9464C122.685 37.9464 122.762 37.2692 123.025 36.9176C123.287 36.5661 124.105 36.5173 124.364 36.5689C124.623 36.6205 126.399 37.359 126.891 37.5918C127.383 37.8247 128.646 38.5378 129.193 38.3969Z" fill="white"/>
<path d="M122.506 44.509C122.495 44.494 122.719 44.3016 123.022 44.0999C123.325 43.8975 123.588 43.7639 123.598 43.7804C123.608 43.7978 123.362 43.9576 123.061 44.1585C122.761 44.3589 122.518 44.525 122.506 44.509Z" fill="white"/>
<path d="M122.266 45.1553C122.254 45.1406 122.459 44.9619 122.75 44.8003C123.039 44.6396 123.278 44.5226 123.288 44.538C123.299 44.5558 123.072 44.702 122.785 44.8616C122.498 45.0211 122.278 45.1707 122.266 45.1553Z" fill="white"/>
<path d="M122.2 45.7628C122.188 45.7502 122.35 45.5938 122.599 45.478C122.844 45.368 123.036 45.2728 123.047 45.2887C123.058 45.3054 122.874 45.432 122.629 45.5416C122.389 45.653 122.213 45.7799 122.2 45.7628Z" fill="white"/>
<path d="M122.303 46.3088C122.294 46.2919 122.425 46.2 122.597 46.1037C122.769 46.0074 122.916 45.9429 122.925 45.9601C122.935 45.977 122.803 46.0689 122.631 46.1652C122.46 46.2616 122.313 46.326 122.303 46.3088Z" fill="white"/>
<path d="M122.614 46.6755C122.607 46.6571 122.688 46.607 122.795 46.5636C122.902 46.52 122.995 46.4992 123.003 46.517C123.011 46.5348 122.93 46.5849 122.822 46.6289C122.713 46.6729 122.62 46.6937 122.614 46.6755Z" fill="white"/>
<path d="M122.823 43.6593C122.813 43.6424 122.953 43.5457 123.135 43.4435C123.317 43.3414 123.472 43.2722 123.481 43.2891C123.491 43.306 123.351 43.4028 123.169 43.5049C122.988 43.6073 122.832 43.6763 122.823 43.6593Z" fill="white"/>
<path d="M120.164 41.3219C120.157 41.3041 120.438 41.1664 120.793 41.0146C121.149 40.8628 121.443 40.7541 121.451 40.7721C121.458 40.7899 121.176 40.9276 120.821 41.0794C120.466 41.2313 120.172 41.3397 120.164 41.3219Z" fill="white"/>
<path d="M120.018 42.1726C120.01 42.1548 120.176 42.0665 120.387 41.9754C120.599 41.8843 120.777 41.8251 120.785 41.8431C120.792 41.8609 120.627 41.9492 120.415 42.0403C120.203 42.1311 120.025 42.1903 120.018 42.1726Z" fill="white"/>
<path d="M120.688 40.1729C120.682 40.1538 120.897 40.0707 121.157 39.9595C121.418 39.8491 121.627 39.7517 121.637 39.7695C121.646 39.786 121.449 39.9124 121.185 40.0243C120.921 40.1371 120.693 40.1909 120.688 40.1729Z" fill="white"/>
<path d="M121.143 39.2743C121.134 39.2568 121.334 39.1435 121.589 39.0214C121.844 38.8993 122.057 38.8145 122.066 38.8321C122.074 38.8496 121.874 38.9629 121.619 39.085C121.365 39.2071 121.151 39.2919 121.143 39.2743Z" fill="white"/>
<path d="M121.594 38.1751C121.584 38.1588 121.81 38.0109 122.111 37.8745C122.413 37.7372 122.672 37.6654 122.678 37.6832C122.685 37.7022 122.439 37.8029 122.14 37.9387C121.842 38.0736 121.604 38.1924 121.594 38.1751Z" fill="white"/>
<path d="M122.012 37.2741C122.002 37.257 122.268 37.0906 122.62 36.9325C122.97 36.772 123.27 36.6813 123.277 36.7002C123.283 36.7182 122.997 36.8373 122.649 36.9967C122.3 37.1535 122.022 37.2906 122.012 37.2741Z" fill="white"/>
</svg>
