<svg width="266" height="202" viewBox="0 0 266 202" fill="none" xmlns="http://www.w3.org/2000/svg">
<path d="M253.665 79.0197C252.384 79.6279 251.547 81.0493 251.651 82.4617C251.754 83.8499 252.82 85.0836 254.15 85.4685C255.587 85.8845 257.156 85.1984 257.941 83.9516C258.708 82.733 258.575 81.0705 257.705 79.9395C256.677 78.6037 254.713 78.2845 253.286 79.1607C253.068 79.2947 253.268 79.6393 253.488 79.5044C254.604 78.8188 256.135 78.9366 257.094 79.8514C258.025 80.74 258.327 82.2587 257.775 83.4266C257.229 84.58 255.938 85.3423 254.657 85.1781C253.382 85.0146 252.321 83.9661 252.051 82.7305C251.746 81.3308 252.429 79.7713 253.713 79.1166C253.768 79.0887 253.721 78.9933 253.665 79.0197ZM170.692 106.079C169.788 106.501 169.179 107.494 169.247 108.49C169.315 109.494 170.107 110.389 171.074 110.64C172.085 110.903 173.167 110.417 173.715 109.546C174.262 108.677 174.164 107.493 173.542 106.689C172.811 105.744 171.416 105.518 170.404 106.14C170.185 106.274 170.385 106.618 170.605 106.484C171.356 106.023 172.387 106.099 173.032 106.715C173.658 107.312 173.864 108.333 173.494 109.12C173.127 109.902 172.254 110.416 171.388 110.305C170.525 110.195 169.82 109.484 169.632 108.653C169.417 107.7 169.864 106.628 170.74 106.176C170.794 106.148 170.748 106.053 170.692 106.079ZM76.1065 158.086C75.7832 156.858 75.4959 155.621 75.1953 154.387C75.0402 153.75 74.8691 153.117 74.7053 152.482C74.6058 152.096 74.0691 150.807 74.7105 150.677C75.2014 150.577 75.8443 151.26 76.19 151.526C76.6889 151.908 77.1879 152.291 77.6865 152.674C78.6896 153.445 79.6922 154.216 80.6952 154.987L80.7504 154.697C77.9942 155.548 75.2382 156.4 72.4824 157.253L72.6719 157.527C73.754 156.158 74.8339 154.788 75.9116 153.416C76.9906 152.044 78.1286 150.699 79.1385 149.274L78.9053 149.154C78.3951 150.727 77.7833 152.279 77.1956 153.825C76.5901 155.417 75.9834 157.01 75.389 158.606C75.3204 158.791 75.5994 158.925 75.6679 158.738C76.2603 157.126 76.8379 155.509 77.4214 153.893C77.9815 152.343 78.5159 150.764 79.1585 149.245C79.2155 149.111 79.043 148.969 78.937 149.092C77.7935 150.418 76.7366 151.825 75.6476 153.195C74.5536 154.572 73.4609 155.95 72.371 157.33C72.2765 157.45 72.4143 157.649 72.5605 157.603C75.3287 156.743 78.0968 155.881 80.8646 155.019C80.9834 154.982 81.0213 154.806 80.9198 154.729L78.2177 152.665C77.721 152.286 77.2246 151.906 76.7282 151.526C76.3097 151.206 75.8996 150.834 75.4448 150.566C75.172 150.405 74.8129 150.262 74.4999 150.398C74.1986 150.528 74.0814 150.847 74.0916 151.155C74.1077 151.64 74.3099 152.138 74.4363 152.602C74.5871 153.155 74.7327 153.71 74.8875 154.263C75.2476 155.548 75.6375 156.825 75.9819 158.114C76.0029 158.193 76.1275 158.166 76.1065 158.086ZM227.995 180.218C227.672 178.99 227.384 177.753 227.084 176.519C226.929 175.882 226.758 175.249 226.594 174.614C226.494 174.228 225.958 172.939 226.599 172.809C227.09 172.709 227.733 173.392 228.079 173.657C228.577 174.04 229.076 174.423 229.575 174.806C230.578 175.577 231.581 176.348 232.584 177.119L232.639 176.829C229.883 177.68 227.127 178.532 224.371 179.385L224.561 179.659C225.643 178.29 226.722 176.92 227.8 175.548C228.879 174.175 230.017 172.831 231.027 171.406L230.794 171.286C230.284 172.859 229.672 174.411 229.084 175.957C228.479 177.549 227.872 179.142 227.278 180.738C227.209 180.923 227.488 181.057 227.557 180.87C228.149 179.258 228.726 177.641 229.31 176.025C229.87 174.475 230.404 172.896 231.047 171.377C231.104 171.243 230.932 171.102 230.826 171.224C229.682 172.55 228.625 173.957 227.536 175.327C226.442 176.704 225.349 178.082 224.26 179.462C224.165 179.582 224.303 179.781 224.449 179.735C227.217 178.875 229.985 178.013 232.753 177.151C232.872 177.114 232.91 176.938 232.808 176.861C231.908 176.173 231.007 175.485 230.106 174.797C229.609 174.418 229.113 174.038 228.617 173.658C228.198 173.338 227.788 172.966 227.333 172.698C227.06 172.537 226.701 172.394 226.388 172.53C226.087 172.66 225.97 172.979 225.98 173.287C225.996 173.772 226.198 174.27 226.325 174.734C226.475 175.287 226.621 175.842 226.776 176.395C227.136 177.68 227.526 178.957 227.87 180.246C227.891 180.325 228.016 180.298 227.995 180.218ZM25.308 147.263C24.0893 148.077 23.5777 149.627 24.1244 150.992C24.6651 152.342 26.0741 153.104 27.5067 152.887C28.8835 152.678 29.9232 151.569 30.2443 150.245C30.5658 148.918 30.1046 147.461 29.033 146.599C27.9382 145.718 25.9584 145.669 25.1109 146.935C25.0342 147.05 25.1606 147.248 25.291 147.138C26.2257 146.354 27.4891 146.058 28.572 146.751C29.5861 147.399 30.1138 148.675 29.9445 149.852C29.7741 151.037 28.9762 152.14 27.7967 152.481C26.633 152.817 25.3254 152.391 24.6574 151.368C23.8121 150.073 24.1397 148.28 25.4035 147.383C25.4843 147.325 25.3887 147.209 25.308 147.263ZM251.078 123.102C251.366 122.188 251.539 121.227 251.752 120.294C251.965 119.366 252.179 118.439 252.389 117.511L252.024 117.559L255.064 123.363L255.237 123.064C253.759 123.174 252.282 123.288 250.804 123.395C250.549 123.414 250.548 123.813 250.804 123.794C252.281 123.68 253.759 123.572 255.237 123.462C255.39 123.45 255.482 123.302 255.409 123.162L252.369 117.358C252.292 117.21 252.04 117.239 252.004 117.405C251.802 118.35 251.606 119.296 251.404 120.24C251.207 121.166 250.976 122.096 250.843 123.033C250.825 123.165 251.034 123.24 251.078 123.102ZM193.069 75.4771C193.358 74.563 193.53 73.602 193.744 72.6683C193.956 71.7407 194.171 70.8137 194.381 69.8856L194.016 69.9332L197.056 75.7377L197.228 75.4382C195.751 75.5488 194.273 75.6628 192.796 75.7701C192.541 75.7886 192.539 76.188 192.796 76.1683C194.273 76.0542 195.751 75.947 197.228 75.8364C197.381 75.825 197.474 75.6767 197.401 75.5368L194.361 69.7323C194.283 69.5843 194.032 69.614 193.996 69.7799C193.794 70.7245 193.598 71.6704 193.396 72.615C193.199 73.5405 192.967 74.4705 192.835 75.4077C192.816 75.5399 193.026 75.6149 193.069 75.4771ZM103.114 125.611C103.448 126.386 104.152 126.974 104.994 127.111C105.892 127.257 106.804 126.817 107.317 126.081C107.793 125.399 107.875 124.531 108.018 123.735C108.176 122.845 108.471 121.82 109.472 121.573C110.387 121.348 111.358 121.871 112.22 122.11C112.982 122.321 113.808 122.382 114.48 121.893C115.996 120.793 115.696 118.57 115.897 116.956C116.054 115.699 116.639 114.451 117.995 114.157C119.217 113.892 120.377 114.662 120.821 115.785C120.862 115.889 121.02 115.836 120.986 115.728C120.419 113.91 118.131 113.299 116.722 114.593C115.207 115.985 115.89 118.344 115.382 120.117C115.121 121.03 114.546 121.951 113.521 122.081C112.626 122.194 111.755 121.758 110.913 121.527C110.179 121.326 109.373 121.272 108.758 121.797C108.134 122.33 108.006 123.208 107.873 123.97C107.689 125.027 107.485 126.135 106.448 126.695C105.244 127.346 103.789 126.785 103.253 125.55C103.214 125.459 103.075 125.521 103.114 125.611ZM89.4644 87.0834C89.2482 85.9913 89.0083 84.4304 90.1998 83.7859C91.2021 83.2437 91.9092 84.4239 92.8135 84.6109C94.1413 84.8855 94.9112 83.2677 95.6643 82.4806C95.9187 82.2149 96.2117 81.9625 96.5619 81.8336C97.0903 81.6392 97.6374 81.7735 98.1454 81.961C98.9619 82.2626 99.7949 82.6846 100.684 82.4287C102.718 81.8433 102.885 79.2613 103.99 77.8136C104.577 77.0447 105.491 76.6467 106.452 76.6586C106.913 76.6643 107.376 76.7616 107.795 76.9549C108.256 77.1679 108.615 77.5054 108.985 77.8458C109.081 77.9344 109.265 77.8154 109.203 77.692C108.438 76.1569 106.1 75.9384 104.722 76.6697C102.812 77.683 102.912 80.1743 101.47 81.5799C101.063 81.9774 100.544 82.2382 99.964 82.2101C99.3945 82.1825 98.8587 81.9326 98.3263 81.7542C97.4685 81.4669 96.6452 81.4213 95.9116 82.0094C94.9149 82.8083 94.0133 85.1197 92.4155 84.2885C91.9657 84.0545 91.587 83.6793 91.0881 83.544C90.6634 83.4288 90.2383 83.5455 89.901 83.8198C88.9066 84.6287 89.1437 85.9988 89.3839 87.0923C89.3948 87.1424 89.4746 87.1349 89.4644 87.0834ZM195.811 85.3772C197.047 87.689 197.584 90.3481 197.339 92.9571C197.086 95.6474 195.778 98.0177 195.133 100.608C194.817 101.879 194.592 103.496 195.191 104.723C195.258 104.86 195.495 104.815 195.463 104.65C195.322 103.933 195.167 103.267 195.188 102.53C195.206 101.906 195.316 101.284 195.465 100.678C195.777 99.4033 196.27 98.1825 196.703 96.9461C197.135 95.7125 197.482 94.4586 197.608 93.1542C197.729 91.8915 197.675 90.6181 197.446 89.3704C197.183 87.9368 196.693 86.5568 195.983 85.2825C195.922 85.1722 195.752 85.2656 195.811 85.3772ZM42.4584 113.874C40.9882 119.013 41.9359 124.686 44.7803 129.194C45.1295 129.748 45.5079 130.283 45.9139 130.798C46.3586 131.36 46.8375 131.998 47.4184 132.425C47.5501 132.522 47.7591 132.37 47.6475 132.223C47.2807 131.739 46.8181 131.323 46.4279 130.855C46.0348 130.383 45.6662 129.891 45.3236 129.381C44.5499 128.232 43.9084 126.994 43.4035 125.705C42.4561 123.286 41.9794 120.681 42.0362 118.084C42.0668 116.681 42.2166 115.271 42.5403 113.905C42.5529 113.852 42.4741 113.82 42.4584 113.874ZM105 10.696C105.162 11.863 106.172 12.8217 107.37 12.8396C108.11 12.8507 108.916 12.5377 109.592 12.972C110.059 13.2721 110.305 13.8088 110.515 14.3003C110.729 14.8007 110.919 15.3228 111.237 15.7696C111.58 16.252 112.074 16.5614 112.647 16.703C113.336 16.8728 114.049 16.7901 114.735 16.6514C115.543 16.4879 116.336 16.2911 117.161 16.2233C118.946 16.0764 120.73 16.3516 122.407 16.9701C122.575 17.0323 122.686 16.7801 122.517 16.7127C121.086 16.141 119.546 15.8637 118.004 15.8863C117.234 15.8976 116.466 15.984 115.713 16.143C114.972 16.2995 114.232 16.5218 113.469 16.5237C112.743 16.5255 112.008 16.3006 111.528 15.7325C111.191 15.3332 110.991 14.8389 110.781 14.3672C110.359 13.4246 109.853 12.5687 108.7 12.5597C107.843 12.5531 107.054 12.7935 106.271 12.3177C105.679 11.9585 105.258 11.3503 105.12 10.6755C105.104 10.5986 104.989 10.6185 105 10.696ZM22.3257 164.985C23.3921 165.264 24.586 166.127 24.9785 167.189C25.1697 167.707 25.1802 168.295 25.0016 168.817C24.8407 169.288 24.5154 169.662 24.1818 170.021C23.6057 170.64 22.9804 171.302 23.0912 172.217C23.2128 173.22 24.075 173.916 24.823 174.492C25.6818 175.153 26.5616 175.944 26.3241 177.142C26.0879 178.332 25.0853 179.186 24.6138 180.274C24.2287 181.163 24.17 182.159 24.8726 182.907C25.5419 183.619 26.5137 183.926 27.0328 184.798C27.6343 185.807 27.7073 187.06 27.4462 188.184C27.1377 189.512 26.4005 190.611 25.8146 191.819C25.7281 191.998 26.0104 192.15 26.1207 191.987C27.3218 190.21 28.3841 187.915 27.8396 185.733C27.5842 184.71 26.9696 183.95 26.1014 183.371C25.7049 183.107 25.2707 182.851 24.9872 182.458C24.6128 181.939 24.6419 181.298 24.8365 180.716C25.2167 179.579 26.1413 178.723 26.5169 177.582C26.8774 176.487 26.4694 175.537 25.6532 174.784C24.8635 174.055 23.6726 173.442 23.4339 172.3C23.2132 171.245 24.1833 170.551 24.7717 169.832C25.4706 168.977 25.6584 167.808 25.1484 166.806C24.6351 165.798 23.4806 164.947 22.3793 164.717C22.2049 164.68 22.1561 164.94 22.3257 164.985ZM240.411 145.609C239.063 146.033 238.021 147.184 237.532 148.485C236.925 150.1 237.259 151.91 238.328 153.253C239.343 154.528 240.926 155.217 242.552 154.968C244.049 154.74 245.456 153.745 245.902 152.261C246.313 150.896 245.91 149.277 244.861 148.298C243.577 147.099 241.536 147.309 240.261 148.412C237.368 150.914 238.594 155.624 241.474 157.565C243.022 158.609 244.974 158.976 246.811 158.697C248.656 158.417 250.383 157.485 251.732 156.214C252.123 155.846 252.462 155.445 252.789 155.019C252.904 154.87 252.675 154.722 252.555 154.854C251.449 156.062 250.168 157.124 248.649 157.769C247.101 158.425 245.355 158.592 243.721 158.174C242.084 157.755 240.659 156.741 239.795 155.283C238.94 153.841 238.666 152.051 239.25 150.46C239.848 148.826 241.432 147.502 243.258 147.808C244.707 148.051 245.625 149.41 245.763 150.8C245.908 152.262 245.144 153.589 243.851 154.275C242.519 154.981 240.875 154.936 239.606 154.115C238.112 153.15 237.225 151.324 237.456 149.557C237.681 147.831 238.867 146.382 240.444 145.687C240.494 145.664 240.462 145.593 240.411 145.609ZM207.499 17.6954C205.253 17.8461 202.709 18.0735 201.183 19.9463C200.584 20.6813 200.186 21.6116 200.229 22.5706C200.274 23.5833 200.862 24.4012 201.409 25.2129C202.056 26.1735 202.535 27.2113 202.048 28.3588C201.572 29.4821 200.529 30.2104 199.427 30.6475C197.445 31.434 194.929 31.6192 193.649 33.5617C192.858 34.7623 193.102 36.1846 193.242 37.5283C193.361 38.673 193.328 40.1165 192.333 40.8915C192.223 40.977 192.349 41.1399 192.464 41.0622C194.464 39.6986 193.137 36.8851 193.409 34.9765C193.778 32.3953 196.677 31.8093 198.737 31.1483C199.806 30.8053 200.847 30.3376 201.604 29.4836C202.226 28.782 202.62 27.8587 202.462 26.9126C202.295 25.9093 201.593 25.1234 201.07 24.287C200.476 23.3362 200.264 22.3075 200.672 21.2361C201.729 18.462 204.916 18.0595 207.495 17.8571C207.598 17.849 207.604 17.6883 207.499 17.6954ZM177.034 16.6969C173.543 17.6628 171.211 20.9497 171.301 24.5404C171.329 25.6224 171.545 26.7303 172.07 27.6851C172.136 27.8038 172.318 27.7359 172.269 27.6031C171.426 25.3037 171.343 22.7926 172.533 20.589C173.487 18.8238 175.163 17.4232 177.087 16.8332C177.178 16.8054 177.124 16.6722 177.034 16.6969Z" fill="white"/>
<path d="M34.2637 15.2008C37.7885 27.2669 48.1618 37.3785 60.3281 40.6414C61.5176 33.8886 64.0366 27.0488 67.8239 21.3254C61.2465 19.6067 55.5701 14.7296 52.8761 8.50021C47.5407 12.5835 40.981 15.5322 34.2637 15.2008Z" fill="#BEC8E9"/>
<path d="M40.5553 27.4283C40.5208 27.4283 40.4865 27.4127 40.4636 27.3832C40.3228 27.2031 40.1836 27.0218 40.046 26.8393C40.0275 26.8146 40.0195 26.7836 40.0239 26.7531C40.0282 26.7226 40.0445 26.695 40.0692 26.6765C40.0813 26.6673 40.0952 26.6606 40.11 26.6567C40.1248 26.6529 40.1402 26.652 40.1554 26.6541C40.1705 26.6562 40.1851 26.6613 40.1982 26.6691C40.2114 26.6768 40.2229 26.6871 40.2321 26.6993C40.369 26.881 40.5074 27.0615 40.6471 27.2411C40.6604 27.2582 40.6687 27.2787 40.6709 27.3003C40.6732 27.3219 40.6693 27.3437 40.6597 27.3632C40.6502 27.3827 40.6353 27.3992 40.6169 27.4107C40.5984 27.4222 40.5771 27.4283 40.5553 27.4283ZM39.0563 25.3749C39.0191 25.3749 38.9825 25.3573 38.9602 25.3241C38.6104 24.8105 38.2734 24.2885 37.9493 23.7584C37.9414 23.7454 37.936 23.731 37.9337 23.7159C37.9313 23.7008 37.9319 23.6854 37.9355 23.6706C37.9391 23.6558 37.9456 23.6418 37.9546 23.6295C37.9636 23.6171 37.975 23.6067 37.9881 23.5988C38.0011 23.5908 38.0155 23.5854 38.0306 23.583C38.0457 23.5806 38.0611 23.5812 38.076 23.5848C38.0909 23.5883 38.1049 23.5948 38.1172 23.6038C38.1295 23.6128 38.14 23.6241 38.1479 23.6372C38.47 24.164 38.8049 24.6829 39.1525 25.1934C39.1644 25.2108 39.1713 25.2312 39.1725 25.2523C39.1737 25.2734 39.1691 25.2944 39.1592 25.313C39.1493 25.3317 39.1345 25.3473 39.1164 25.3582C39.0982 25.3691 39.0775 25.3749 39.0563 25.3749ZM37.1199 22.2059C37.0786 22.2059 37.0388 22.1842 37.0175 22.1452C36.7207 21.5993 36.4376 21.046 36.1685 20.4859C36.1619 20.4721 36.158 20.4572 36.1572 20.442C36.1564 20.4268 36.1585 20.4115 36.1636 20.3971C36.1687 20.3827 36.1765 20.3695 36.1867 20.3581C36.1969 20.3467 36.2093 20.3375 36.2231 20.3309C36.2368 20.3243 36.2518 20.3205 36.2671 20.3196C36.2823 20.3188 36.2976 20.321 36.312 20.326C36.3265 20.3311 36.3398 20.3389 36.3511 20.3491C36.3625 20.3593 36.3718 20.3716 36.3784 20.3853C36.6456 20.9421 36.9269 21.4919 37.2221 22.0344C37.2317 22.0521 37.2364 22.0719 37.236 22.092C37.2356 22.1121 37.2299 22.1317 37.2196 22.149C37.2093 22.1662 37.1947 22.1806 37.1773 22.1905C37.1598 22.2005 37.14 22.2058 37.1199 22.2059ZM62.9525 19.5061C62.9338 19.5061 62.9148 19.5014 62.8972 19.4921C62.349 19.1955 61.8128 18.8773 61.29 18.5382C61.2648 18.5211 61.2473 18.4949 61.2412 18.465C61.2352 18.4352 61.2411 18.4042 61.2577 18.3787C61.2743 18.3532 61.3003 18.3352 61.33 18.3286C61.3598 18.3219 61.391 18.3272 61.4169 18.3432C61.9344 18.6791 62.4652 18.9942 63.008 19.2878C63.0647 19.3183 63.0854 19.3889 63.055 19.4453C63.045 19.4637 63.0301 19.479 63.0121 19.4897C62.9941 19.5004 62.9735 19.506 62.9525 19.5061ZM35.5145 18.856C35.469 18.856 35.4256 18.829 35.4072 18.7844C35.168 18.211 34.9444 17.6312 34.7368 17.0457C34.7317 17.0313 34.7294 17.0161 34.7302 17.0008C34.731 16.9856 34.7348 16.9706 34.7414 16.9569C34.748 16.9431 34.7573 16.9308 34.7686 16.9206C34.78 16.9104 34.7933 16.9025 34.8077 16.8974C34.8664 16.8746 34.9346 16.9067 34.9561 16.968C35.1624 17.5496 35.3844 18.1256 35.6219 18.6953C35.6337 18.7237 35.6338 18.7557 35.6221 18.7842C35.6103 18.8126 35.5877 18.8353 35.5593 18.8472C35.5446 18.8528 35.5295 18.856 35.5145 18.856ZM59.8361 17.4812C59.8112 17.4812 59.7862 17.4734 59.7649 17.4567C59.2715 17.0761 58.7934 16.6763 58.3315 16.2582C58.3202 16.2479 58.311 16.2355 58.3045 16.2216C58.2979 16.2078 58.2942 16.1929 58.2935 16.1776C58.2928 16.1623 58.2951 16.1471 58.3003 16.1327C58.3055 16.1183 58.3135 16.1051 58.3238 16.0938C58.3446 16.0712 58.3735 16.0577 58.4043 16.0562C58.435 16.0548 58.4651 16.0655 58.488 16.0861C58.9451 16.5004 59.4186 16.8964 59.9074 17.2732C59.9266 17.288 59.9408 17.3085 59.9478 17.3317C59.9548 17.3549 59.9543 17.3797 59.9465 17.4027C59.9386 17.4256 59.9237 17.4455 59.9039 17.4596C59.8841 17.4737 59.8604 17.4812 59.8361 17.4812ZM34.2744 15.3562C34.2242 15.3562 34.178 15.3235 34.1629 15.2732L34.151 15.2323C34.1459 15.2145 34.1451 15.1958 34.1487 15.1777C34.1522 15.1595 34.1601 15.1425 34.1716 15.128C34.1947 15.0985 34.2303 15.0777 34.2685 15.084C34.8711 15.1136 35.4747 15.1172 36.0776 15.0949C36.1363 15.0969 36.1958 15.1431 36.1979 15.2068C36.199 15.2376 36.1879 15.2676 36.1669 15.2901C36.1459 15.3127 36.1167 15.326 36.0859 15.3271C35.5101 15.3471 34.9338 15.345 34.3582 15.3208C34.3447 15.3343 34.3277 15.3452 34.308 15.351C34.2971 15.3545 34.2858 15.3563 34.2744 15.3562ZM37.9363 15.1815C37.8784 15.1815 37.8282 15.1385 37.8212 15.0794C37.8194 15.0643 37.8205 15.049 37.8246 15.0343C37.8287 15.0196 37.8356 15.0059 37.8451 14.9939C37.8545 14.9819 37.8662 14.9719 37.8795 14.9644C37.8928 14.9569 37.9074 14.9521 37.9226 14.9503C38.5356 14.8753 39.1455 14.7769 39.7509 14.6554C39.813 14.6455 39.8754 14.6828 39.8879 14.7461C39.9006 14.8088 39.8598 14.87 39.7966 14.8825C39.1854 15.0058 38.5697 15.1053 37.9507 15.1805C37.9459 15.1811 37.9411 15.1815 37.9363 15.1815ZM57.0842 14.9856C57.0534 14.9856 57.0222 14.9732 56.9993 14.9487C56.5729 14.4947 56.1649 14.0238 55.7763 13.5371C55.7572 13.513 55.7484 13.4824 55.7518 13.4519C55.7553 13.4214 55.7707 13.3935 55.7948 13.3743C55.8066 13.3646 55.8203 13.3574 55.835 13.3531C55.8498 13.3488 55.8652 13.3474 55.8804 13.3492C55.8957 13.3509 55.9104 13.3557 55.9238 13.3632C55.9371 13.3707 55.9488 13.3809 55.9582 13.393C56.3429 13.8746 56.7469 14.3407 57.1691 14.7901C57.213 14.8368 57.2106 14.9103 57.1636 14.9539C57.1423 14.9744 57.1138 14.9858 57.0842 14.9856ZM41.5836 14.4511C41.5555 14.4511 41.5283 14.4409 41.5072 14.4224C41.486 14.404 41.4722 14.3785 41.4684 14.3507C41.4646 14.3229 41.4709 14.2947 41.4863 14.2712C41.5017 14.2478 41.5251 14.2307 41.5522 14.223C42.1474 14.0566 42.7369 13.8704 43.3196 13.6647C43.3341 13.6597 43.3493 13.6575 43.3646 13.6583C43.3798 13.6591 43.3948 13.6629 43.4085 13.6695C43.4223 13.676 43.4347 13.6852 43.4449 13.6966C43.4551 13.7079 43.463 13.7211 43.4681 13.7355C43.4731 13.7499 43.4753 13.7651 43.4745 13.7803C43.4737 13.7955 43.4699 13.8104 43.4633 13.8242C43.4567 13.8379 43.4475 13.8502 43.4361 13.8604C43.4248 13.8706 43.4115 13.8785 43.3971 13.8835C42.8095 14.091 42.2152 14.2789 41.615 14.447C41.6048 14.4496 41.5942 14.451 41.5836 14.4511ZM45.0928 13.2158C45.066 13.2159 45.04 13.2066 45.0191 13.1897C44.9983 13.1728 44.984 13.1493 44.9786 13.123C44.9732 13.0968 44.9771 13.0695 44.9896 13.0458C45.002 13.0221 45.0223 13.0034 45.047 12.9929C45.6158 12.7503 46.1775 12.4915 46.7314 12.2168C46.7592 12.2035 46.791 12.2016 46.8201 12.2114C46.8492 12.2212 46.8734 12.2419 46.8874 12.2692C46.9011 12.2969 46.9033 12.3288 46.8934 12.3581C46.8836 12.3873 46.8625 12.4115 46.8348 12.4253C46.2769 12.7016 45.7112 12.9621 45.1385 13.2065C45.1238 13.2127 45.1082 13.2158 45.0928 13.2158ZM54.7697 12.0815C54.7506 12.0816 54.7317 12.0768 54.7149 12.0678C54.698 12.0587 54.6836 12.0456 54.6731 12.0297C54.3261 11.5126 54.0011 10.9811 53.6992 10.4366C53.668 10.3806 53.6885 10.3101 53.7446 10.2791C53.758 10.2717 53.7727 10.2669 53.7879 10.2652C53.8032 10.2635 53.8186 10.2648 53.8333 10.269C53.848 10.2732 53.8617 10.2803 53.8737 10.2899C53.8856 10.2994 53.8956 10.3113 53.9029 10.3247C54.1989 10.8581 54.5229 11.3884 54.8664 11.9011C54.8782 11.9186 54.8849 11.9389 54.886 11.9599C54.8871 11.9809 54.8824 12.0018 54.8725 12.0203C54.8625 12.0389 54.8477 12.0544 54.8296 12.0651C54.8115 12.0759 54.7908 12.0816 54.7697 12.0815ZM48.4271 11.5647C48.4014 11.5646 48.3764 11.5561 48.3561 11.5404C48.3357 11.5248 48.3211 11.5029 48.3146 11.4781C48.308 11.4533 48.3099 11.4271 48.3198 11.4034C48.3298 11.3798 48.3473 11.3601 48.3696 11.3474C48.9078 11.043 49.4382 10.7252 49.9604 10.3941C49.9732 10.3858 49.9876 10.3801 50.0027 10.3774C50.0178 10.3747 50.0332 10.3751 50.0482 10.3784C50.0631 10.3817 50.0773 10.388 50.0898 10.3968C50.1023 10.4056 50.1129 10.4168 50.121 10.4298C50.1292 10.4427 50.1348 10.457 50.1374 10.472C50.1401 10.487 50.1397 10.5024 50.1364 10.5173C50.1331 10.5322 50.1268 10.5463 50.1181 10.5588C50.1093 10.5712 50.0981 10.5819 50.0852 10.59C49.5598 10.9233 49.0261 11.2432 48.4845 11.5495C48.4671 11.5596 48.4472 11.5648 48.4271 11.5647ZM51.5689 9.5751C51.5441 9.57514 51.52 9.56731 51.5001 9.55275C51.4801 9.53819 51.4653 9.51766 51.4578 9.49413C51.4503 9.47061 51.4506 9.44532 51.4585 9.42194C51.4664 9.39856 51.4816 9.37831 51.5019 9.36414C51.9423 9.05379 52.3766 8.7349 52.8045 8.40765C52.8328 8.38638 52.8697 8.37865 52.9043 8.38738C52.9389 8.39623 52.9675 8.42053 52.9817 8.45378L53.0776 8.67101C53.0838 8.6849 53.0873 8.69987 53.0877 8.71508C53.0881 8.73029 53.0855 8.74543 53.0801 8.75964C53.0746 8.77385 53.0664 8.78685 53.0559 8.79789C53.0454 8.80893 53.0328 8.81779 53.0189 8.82397C53.005 8.83039 52.9899 8.83395 52.9746 8.83447C52.9592 8.83499 52.944 8.83244 52.9296 8.82699C52.9153 8.82153 52.9022 8.81327 52.8911 8.8027C52.8801 8.79212 52.8712 8.77945 52.8651 8.76541L52.8282 8.68199C52.436 8.97969 52.0386 9.27039 51.636 9.55393C51.6164 9.56778 51.5929 9.57518 51.5689 9.5751Z" fill="#453447"/>
<path d="M40.3085 19.3246C42.2897 19.3246 44.3782 18.8152 46.5353 17.8047C48.8338 16.7261 50.9414 15.2019 52.903 13.733C52.926 13.7158 52.9454 13.6942 52.96 13.6695C52.9747 13.6448 52.9843 13.6174 52.9883 13.589C52.9924 13.5606 52.9908 13.5317 52.9836 13.5039C52.9764 13.4761 52.9638 13.45 52.9465 13.4271C52.8739 13.3308 52.7364 13.3137 52.6408 13.3836C50.6972 14.8397 48.61 16.3495 46.3491 17.4093C43.8302 18.5902 41.4156 19.064 39.1675 18.8279C39.0543 18.8168 38.9394 18.9021 38.927 19.0222C38.9209 19.0798 38.9379 19.1374 38.9743 19.1825C39.0108 19.2275 39.0636 19.2563 39.1213 19.2625C39.5121 19.3034 39.9085 19.3246 40.3085 19.3246ZM41.9456 22.098C43.9272 22.098 46.0156 21.5885 48.1723 20.5781C50.4708 19.4994 52.5785 17.9752 54.54 16.5064C54.563 16.4891 54.5824 16.4676 54.597 16.4429C54.6117 16.4182 54.6213 16.3908 54.6254 16.3624C54.6294 16.334 54.6278 16.3051 54.6206 16.2773C54.6134 16.2495 54.6009 16.2234 54.5836 16.2004C54.5484 16.1547 54.4967 16.1246 54.4396 16.1164C54.3824 16.1083 54.3243 16.1229 54.2778 16.157C52.3342 17.6131 50.247 19.1229 47.9862 20.1827C45.5032 21.3466 43.0193 21.8398 40.8045 21.6013C40.6918 21.5869 40.5764 21.6745 40.564 21.7956C40.5579 21.8531 40.5749 21.9108 40.6114 21.9558C40.6478 22.0009 40.7007 22.0297 40.7584 22.0359C41.1495 22.0766 41.5454 22.098 41.9456 22.098ZM43.8435 24.7894C45.8242 24.7894 47.9117 24.28 50.0673 23.2695C52.3649 22.1917 54.3906 20.7288 56.435 19.1986C56.4814 19.1637 56.512 19.112 56.5203 19.0547C56.5285 18.9973 56.5137 18.9391 56.479 18.8926C56.4437 18.847 56.392 18.8168 56.3348 18.8087C56.2775 18.8006 56.2194 18.8151 56.1728 18.8492C54.1468 20.3658 52.1412 21.8142 49.8812 22.8741C47.3982 24.0397 44.9143 24.5347 42.6999 24.2927C42.5782 24.2825 42.4718 24.3668 42.459 24.487C42.453 24.5445 42.4701 24.6019 42.5064 24.647C42.5427 24.692 42.5953 24.7208 42.6529 24.7273C43.0452 24.7691 43.4421 24.7894 43.8435 24.7894ZM46.2261 27.6718C48.4246 27.6718 50.7236 27.02 53.067 25.7317C55.2946 24.5065 57.298 22.8503 59.1592 21.2596C59.251 21.1812 59.2617 21.044 59.1831 20.952C59.1041 20.8608 58.9654 20.8497 58.8748 20.929C57.0306 22.5044 55.0473 24.1445 52.8561 25.3501C50.4188 26.6903 48.0416 27.3336 45.7811 27.2262C45.6517 27.2203 45.5586 27.3157 45.553 27.4349C45.5507 27.4927 45.5714 27.5491 45.6106 27.5917C45.6498 27.6344 45.7043 27.6598 45.7623 27.6625C45.9165 27.6684 46.0711 27.6718 46.2261 27.6718ZM48.2906 30.2363C50.4896 30.2363 52.7886 29.5845 55.1315 28.2963C57.3591 27.071 59.3625 25.4148 61.2237 23.8241C61.3155 23.7457 61.3262 23.6086 61.2476 23.5165C61.2289 23.4948 61.2061 23.4769 61.1805 23.464C61.1548 23.451 61.1269 23.4433 61.0982 23.4412C61.0696 23.439 61.0408 23.4426 61.0135 23.4515C60.9862 23.4605 60.961 23.4748 60.9393 23.4936C59.0951 25.0689 57.1118 26.709 54.9206 27.9146C52.5178 29.236 50.0682 29.8879 47.8456 29.7908C47.7188 29.7763 47.6231 29.8793 47.6175 29.9995C47.6152 30.0573 47.6359 30.1137 47.6751 30.1563C47.7143 30.1989 47.7688 30.2243 47.8268 30.227C47.981 30.233 48.1356 30.2363 48.2906 30.2363Z" fill="white"/>
<path d="M172.156 40.7618V126.496C172.156 131.703 167.922 135.927 162.702 135.927H35.8507C30.6302 135.927 26.3965 131.703 26.3965 126.496V40.7618C26.3965 35.5545 30.6303 31.3312 35.8507 31.3312H162.702C167.922 31.3312 172.156 35.5545 172.156 40.7618Z" fill="#453447"/>
<path d="M35.8505 132.189C32.7032 132.189 30.1426 129.635 30.1426 126.495V40.7609C30.1426 37.621 32.7032 35.0674 35.8505 35.0674H162.701C165.849 35.0674 168.409 37.621 168.409 40.7609V126.495C168.409 129.635 165.849 132.189 162.701 132.189L35.8505 132.189Z" fill="#E5E9F6"/>
<path d="M193.769 189.816L174.907 142.964C174.018 140.758 168.915 139.009 163.496 139.009H33.9612C28.7167 139.009 23.6354 140.726 22.5846 142.892L0.390832 188.639C-1.34476 192.217 2.85945 195.245 9.84233 195.293L183.271 196.489C190.566 196.539 195.252 193.5 193.769 189.816Z" fill="#231826"/>
<path d="M192.246 185.829L173.72 139.81C172.847 137.643 167.834 135.926 162.512 135.926H35.2825C30.1314 135.926 25.1405 137.612 24.1084 139.739L2.30966 184.673C0.604943 188.186 4.73439 191.161 11.5929 191.208L181.935 192.383C189.1 192.432 193.703 189.447 192.246 185.829Z" fill="#453447"/>
<path d="M181.187 171.733L169.535 142.791H28.1772L14.1367 171.733H181.187ZM124.481 187.205L120.74 177.912H75.3509L70.8425 187.205H124.481Z" fill="#231826"/>
<path d="M59.1758 81.143H138.806V132.442H59.1758V81.143Z" fill="#5C75C9"/>
<path d="M138.806 81.143L98.9906 108.447L59.1758 81.143H138.806Z" fill="#453447"/>
<path d="M59.1758 81.143L98.9906 53.839L138.806 81.143H59.1758Z" fill="#5C75C9"/>
<path d="M133 64.5951V85.2451L122.294 92.6378L121.568 93.142L116.713 96.4932L115.987 96.9973L111.132 100.348L110.398 100.853L99.4063 108.447L88.4142 100.853L87.6809 100.348L82.8256 96.9973L82.0999 96.4932L77.2445 93.142L76.519 92.6378L65.8125 85.2451V64.5951H133Z" fill="white"/>
<path d="M72.4473 69.5595H126.363V70.0651H72.4473V69.5595ZM72.4473 73.4268H126.363V73.9325H72.4473V73.4268ZM72.4473 77.2943H126.363V77.7999H72.4473V77.2943ZM72.4473 81.1616H126.363V81.6673H72.4473V81.1616ZM72.4473 85.0291H126.363V85.5348H72.4473V85.0291ZM72.4473 88.8965H126.363V89.4021H72.4473V88.8965ZM122.627 92.7611L121.891 93.2668H76.9193L76.1832 92.7611H122.627ZM116.965 96.628L116.229 97.1337H82.582L81.8457 96.628H116.965ZM111.302 100.495L110.558 101.001H88.2523L87.5083 100.495H111.302Z" fill="#BEC8E9"/>
<path d="M106.554 76.3406C107.858 77.0022 108.859 77.9299 109.558 79.1275C110.255 80.325 110.605 81.7081 110.605 83.273C110.605 84.5324 110.385 85.7225 109.948 86.8432C109.512 87.9639 108.879 88.8692 108.05 89.5607C107.221 90.2504 106.24 90.5972 105.104 90.5972C104.306 90.5972 103.662 90.4322 103.171 90.1024C102.679 89.7706 102.365 89.3002 102.227 88.6855C101.782 89.2834 101.206 89.7557 100.501 90.1024C99.7946 90.4472 99.0511 90.6196 98.2682 90.6196C97.1022 90.6196 96.1891 90.271 95.5298 89.572C94.8696 88.8729 94.54 87.9171 94.54 86.7045C94.54 85.5538 94.7778 84.4781 95.2536 83.481C95.7284 82.4821 96.3886 81.6799 97.2324 81.0746C98.0761 80.4674 99.0276 80.1638 100.087 80.1638C101.406 80.1638 102.311 80.6248 102.803 81.5469L103.01 80.3493H105.702L104.62 86.5659C104.574 86.8583 104.551 87.1263 104.551 87.3718C104.551 87.7409 104.628 88.0165 104.781 88.202C104.935 88.3857 105.196 88.4775 105.564 88.4775C106.117 88.4775 106.58 88.217 106.957 87.6941C107.332 87.1732 107.616 86.5209 107.808 85.7376C108 84.9542 108.096 84.1708 108.096 83.3893C108.096 81.5302 107.528 80.0908 106.392 79.0713C105.257 78.0499 103.654 77.5383 101.582 77.5383C99.8181 77.5383 98.2223 77.9656 96.7951 78.8165C95.3688 79.6693 94.2525 80.8293 93.4462 82.2949C92.6408 83.7604 92.2382 85.3928 92.2382 87.1882C92.2382 89.0924 92.802 90.5579 93.9305 91.5868C95.058 92.6157 96.6575 93.1293 98.729 93.1293C100.217 93.1293 101.529 92.8613 102.664 92.3234L103.125 94.4431C101.667 95.0559 100.048 95.3633 98.2682 95.3633C96.5498 95.3633 95.0466 95.0372 93.7571 94.3849C92.4685 93.7327 91.4712 92.8069 90.765 91.6093C90.0598 90.4117 89.7068 89.023 89.7068 87.4413C89.7068 85.1848 90.2322 83.1345 91.283 81.2922C92.3337 79.4499 93.7918 77.9994 95.6563 76.9405C97.5199 75.8817 99.6111 75.3513 101.928 75.3513C103.707 75.3511 105.25 75.6809 106.554 76.3406ZM100.801 87.741C101.26 87.4187 101.625 86.9895 101.893 86.4516C102.161 85.9137 102.296 85.3384 102.296 84.7236C102.296 84.079 102.119 83.5579 101.767 83.1588C101.414 82.7596 100.922 82.559 100.294 82.559C99.7263 82.559 99.2271 82.7315 98.7973 83.0781C98.3684 83.423 98.0341 83.8728 97.7962 84.4256C97.5584 84.9766 97.4394 85.5614 97.4394 86.1742C97.4394 86.8039 97.593 87.3043 97.9001 87.6716C98.2073 88.0408 98.6672 88.2244 99.2814 88.2244C99.8332 88.2245 100.34 88.0633 100.801 87.741ZM77.6139 121.133C77.6139 128.749 71.4434 134.924 63.8315 134.924C56.2233 134.924 50.0527 128.749 50.0527 121.133C50.0527 113.516 56.2233 107.342 63.8315 107.342C71.4434 107.342 77.6139 113.516 77.6139 121.133Z" fill="#E55D5D"/>
<path d="M96.5064 60.1649C96.5876 61.3068 97.7651 62.1765 99.1356 62.1093C100.509 62.0418 101.556 61.0629 101.474 59.921C101.393 58.7819 100.216 57.9122 98.842 57.9796C97.4715 58.0469 96.4254 59.0257 96.5064 60.1649Z" fill="#453447"/>
<path d="M31.8701 87.187C33.4133 87.187 35.0399 86.7902 36.72 86.0031C38.5103 85.163 40.1519 83.9758 41.6797 82.8317C41.6976 82.8182 41.7127 82.8014 41.7242 82.7822C41.7356 82.763 41.7431 82.7417 41.7462 82.7195C41.7494 82.6974 41.7481 82.6749 41.7425 82.6532C41.7369 82.6316 41.7271 82.6112 41.7136 82.5934C41.657 82.5184 41.5499 82.5051 41.4754 82.5596C39.9615 83.6936 38.3359 84.8696 36.5749 85.6952C34.613 86.6149 32.7321 86.9839 30.9812 86.8001C30.893 86.7915 30.8036 86.8579 30.7939 86.9514C30.7892 86.9962 30.8024 87.0411 30.8308 87.0762C30.8592 87.1113 30.9003 87.1337 30.9452 87.1385C31.2525 87.1708 31.5612 87.187 31.8701 87.187ZM33.1451 89.3471C34.6886 89.3471 36.3152 88.9503 37.995 88.1632C39.7853 87.3231 41.4269 86.1359 42.9547 84.9918C42.9726 84.9783 42.9877 84.9615 42.9992 84.9423C43.0106 84.9231 43.0181 84.9018 43.0212 84.8796C43.0244 84.8575 43.0231 84.835 43.0175 84.8133C43.0119 84.7917 43.0021 84.7713 42.9886 84.7535C42.9612 84.7179 42.921 84.6944 42.8764 84.688C42.8319 84.6817 42.7866 84.6931 42.7504 84.7197C41.2365 85.8537 39.6109 87.0297 37.8499 87.8553C35.9159 88.7618 33.9812 89.146 32.2562 88.9602C32.1684 88.9489 32.0786 89.0173 32.0689 89.1115C32.0642 89.1563 32.0774 89.2012 32.1058 89.2363C32.1342 89.2713 32.1753 89.2938 32.2202 89.2986C32.5251 89.3305 32.8335 89.3471 33.1451 89.3471ZM34.6234 91.4435C36.1663 91.4435 37.7922 91.0467 39.4711 90.2596C41.2607 89.4201 42.8384 88.2807 44.4308 87.0888C44.506 87.0324 44.5212 86.9255 44.465 86.8505C44.4375 86.8149 44.3972 86.7915 44.3526 86.7852C44.3081 86.7788 44.2628 86.7902 44.2265 86.8167C42.6484 87.9979 41.0863 89.1261 39.3259 89.9517C37.392 90.8596 35.4573 91.2451 33.7326 91.0566C33.6377 91.0487 33.555 91.1144 33.545 91.2079C33.5403 91.2526 33.5536 91.2974 33.5818 91.3325C33.6101 91.3675 33.6511 91.39 33.696 91.395C34.0017 91.4276 34.3108 91.4435 34.6234 91.4435ZM36.4792 93.6885C38.1917 93.6885 39.9823 93.1808 41.8075 92.1774C43.5425 91.2231 45.1029 89.9331 46.5526 88.6941C46.5705 88.6798 46.5852 88.6622 46.5961 88.6421C46.6069 88.622 46.6136 88.6 46.6157 88.5773C46.6178 88.5547 46.6154 88.5318 46.6084 88.5101C46.6015 88.4883 46.5903 88.4682 46.5754 88.451C46.5605 88.4337 46.5423 88.4195 46.5218 88.4094C46.5014 88.3993 46.4791 88.3934 46.4563 88.3921C46.4335 88.3908 46.4106 88.394 46.3891 88.4017C46.3676 88.4093 46.3478 88.4212 46.331 88.4366C44.8947 89.6637 43.3499 90.9412 41.6431 91.8802C39.7448 92.924 37.8932 93.4251 36.1326 93.3415C36.0318 93.3368 35.9593 93.4111 35.955 93.504C35.9532 93.5491 35.9693 93.593 35.9998 93.6262C36.0304 93.6594 36.0729 93.6792 36.118 93.6812C36.2381 93.6859 36.3586 93.6885 36.4792 93.6885ZM38.0873 95.686C39.8001 95.686 41.5907 95.1783 43.4155 94.1749C45.1505 93.2206 46.711 91.9306 48.1607 90.6916C48.2322 90.6306 48.2405 90.5236 48.1793 90.452C48.1648 90.435 48.147 90.4211 48.127 90.411C48.1071 90.401 48.0853 90.3949 48.063 90.3933C48.0407 90.3916 48.0183 90.3944 47.997 90.4014C47.9758 90.4083 47.9561 90.4195 47.9392 90.434C46.5029 91.6611 44.958 92.9386 43.2513 93.8776C41.3799 94.9069 39.4717 95.4145 37.7408 95.3389C37.642 95.3275 37.5674 95.4078 37.5632 95.5014C37.5613 95.5465 37.5775 95.5904 37.608 95.6236C37.6386 95.6568 37.681 95.6765 37.7262 95.6786C37.8461 95.6834 37.9665 95.686 38.0873 95.686Z" fill="#E5E9F6"/>
<path d="M100.149 27.7789C100.118 27.7789 100.088 27.768 100.064 27.7482C100.04 27.7284 100.024 27.7009 100.018 27.6705C99.2518 23.5825 98.9741 19.3367 99.2563 16.0226C99.6107 11.8589 101.22 8.33526 103.787 6.10148C106.802 3.47837 111.195 2.92679 114.235 4.78892C116.662 6.27616 117.97 9.00139 118.742 10.9221C119.007 11.5805 119.255 12.2591 119.496 12.9153C120.119 14.6178 120.764 16.3783 121.745 17.9242C123.3 20.3736 125.565 21.8391 127.807 21.8443H127.82C129.42 21.8443 131.125 21.119 133.03 19.6265C133.496 19.261 133.958 18.8701 134.404 18.4922C135.435 17.6203 136.499 16.7182 137.706 16.0568C140.096 14.7452 142.968 14.4363 145.586 15.2071C145.986 15.3254 146.534 15.4668 147.17 15.6306C150.627 16.5217 157.062 18.1802 160.252 21.362C160.264 21.3743 160.274 21.389 160.28 21.4051C160.287 21.4212 160.29 21.4384 160.29 21.4559C160.29 21.4733 160.287 21.4905 160.28 21.5066C160.274 21.5227 160.264 21.5374 160.252 21.5497C160.239 21.562 160.224 21.5718 160.208 21.5785C160.192 21.5851 160.175 21.5886 160.157 21.5886C160.14 21.5886 160.123 21.5851 160.107 21.5785C160.09 21.5718 160.076 21.562 160.063 21.5497C156.925 18.4191 150.536 16.7721 147.103 15.8877C146.465 15.7229 145.915 15.5813 145.51 15.4615C142.961 14.7104 140.163 15.0111 137.834 16.2889C136.651 16.9379 135.597 17.8311 134.577 18.6943C134.128 19.0744 133.665 19.4667 133.194 19.8348C131.24 21.3656 129.482 22.1096 127.819 22.1096H127.806C125.474 22.1044 123.124 20.5928 121.52 18.0661C120.524 16.4958 119.874 14.7218 119.246 13.0065C119.006 12.3518 118.758 11.6752 118.495 11.0205C117.736 9.13509 116.455 6.46115 114.095 5.01488C111.153 3.21187 106.891 3.7526 103.962 6.30158C101.447 8.48979 99.8696 11.9501 99.5212 16.0455C99.2411 19.3368 99.5176 23.556 100.28 27.6218C100.283 27.641 100.283 27.6607 100.278 27.6796C100.273 27.6985 100.264 27.716 100.251 27.731C100.239 27.746 100.223 27.7581 100.205 27.7664C100.188 27.7746 100.168 27.7789 100.149 27.7789Z" fill="#453447"/>
<path d="M169.8 26.7239C168.671 26.5557 167.33 26.474 166.452 26.5457C166.443 26.5547 166.433 26.5627 166.424 26.5719C166.372 26.623 166.322 26.6756 166.275 26.7307C166.265 26.7422 166.256 26.7538 166.246 26.7657L166.229 26.7866L166.238 26.7763C166.243 26.7692 166.247 26.7644 166.238 26.7763L166.232 26.7831C166.215 26.807 166.198 26.8317 166.182 26.8571C166.137 26.9304 166.046 26.952 165.971 26.9123C165.899 26.8741 165.873 26.7703 165.916 26.7017C165.962 26.6262 166.019 26.557 166.078 26.4901C165.468 26.3621 162.852 25.8525 162.188 26.3793C161.434 26.9735 161.845 27.8512 162.66 28.1005C162.66 28.1005 161.28 29.3169 163.506 30.0067C163.506 30.0067 162.91 32.233 165.296 32.0451C165.296 32.0451 164.981 33.3908 166.96 33.1105C166.96 33.1105 167.244 32.8611 168.028 33.4863C168.812 34.1113 169.248 34.7395 169.248 34.7395L173.835 30.6811C173.835 30.6808 171.402 26.9611 169.8 26.7239Z" fill="#FDB6B4"/>
<path d="M165.483 26.6585C165.148 26.8154 164.957 27.2056 164.988 27.5731C165.018 27.9406 165.245 28.2748 165.547 28.4876C165.849 28.7002 166.219 28.801 166.588 28.8312C166.956 28.8613 167.327 28.8249 167.694 28.7843" fill="#F7888A"/>
<path d="M224.728 187.54L224.728 187.543C224.556 189.669 223.961 191.272 222.997 192.037C220.767 193.809 214.49 192.567 213.863 192.382C213.233 192.197 211.288 194.831 203.418 194.691C197.36 194.586 195.475 191.914 195.494 189.914C195.495 189.318 195.67 188.783 195.951 188.394C197.176 186.7 199.241 186.893 202.283 184.819C205.324 182.745 205.862 179.766 207.391 178.601C208.924 177.44 212.105 178.535 213.181 179.315C214.26 180.093 213.476 181.809 214.003 182.643C214.531 183.477 215.261 181.16 217.823 180.726C220.388 180.288 223.063 177.191 223.063 177.191C224.442 181.038 224.954 184.738 224.728 187.54Z" fill="#E55D5D"/>
<path d="M214.629 189.805C214.611 188.745 215.07 187.687 215.773 186.871C216.474 186.044 217.396 185.417 218.404 185.017C219.413 184.628 220.481 184.44 221.541 184.38C222.602 184.313 223.657 184.373 224.707 184.464C223.656 184.555 222.607 184.619 221.575 184.745C220.544 184.877 219.526 185.079 218.575 185.455C217.629 185.821 216.756 186.388 216.046 187.116C215.342 187.846 214.798 188.761 214.629 189.805Z" fill="#453447"/>
<path d="M224.727 187.544C224.555 189.669 223.96 191.273 222.996 192.038C220.766 193.809 214.489 192.568 213.862 192.383C213.231 192.197 211.286 194.831 203.417 194.691C197.359 194.586 195.474 191.914 195.493 189.914C195.949 190.204 196.447 190.436 196.957 190.605C198.322 191.058 199.779 191.131 201.212 191.202C203.84 191.332 206.495 191.461 209.082 191.002C211.354 190.601 213.543 189.753 215.84 189.553C217.442 189.412 219.059 189.592 220.66 189.428C222.186 189.267 223.77 188.727 224.727 187.544ZM194.909 186.171L194.795 185.855L201.28 183.53C201.486 183.456 201.686 183.379 201.865 183.287C201.374 183.298 200.886 183.243 200.437 183.193C200.007 183.145 199.519 183.09 199.091 182.872C198.596 182.62 198.271 182.159 198.264 181.696C198.255 181.19 198.63 180.686 199.174 180.47C199.698 180.262 200.278 180.325 200.669 180.39C200.764 180.406 200.856 180.423 200.946 180.443C199.909 179.066 199.301 177.435 199.246 175.835C199.215 174.925 199.486 174.269 200.01 173.989C200.759 173.588 201.646 174.121 202.177 174.699C203.503 176.14 204.072 178.119 204.454 179.864C204.595 180.512 204.713 181.197 204.467 181.823C204.348 182.127 204.144 182.399 203.879 182.623C204.813 183.194 205.867 183.646 207.008 183.959L206.919 184.283C205.699 183.949 204.574 183.459 203.584 182.835C203.318 182.999 203.01 183.123 202.672 183.197C202.622 183.207 202.572 183.217 202.522 183.226C202.235 183.524 201.825 183.691 201.394 183.846L194.909 186.171ZM200.242 180.674C199.945 180.65 199.605 180.661 199.299 180.782C198.957 180.918 198.593 181.26 198.6 181.691C198.606 182.031 198.859 182.377 199.244 182.573C199.617 182.764 200.053 182.812 200.474 182.859C201.093 182.929 201.731 183 202.348 182.914C202.375 182.878 202.401 182.841 202.423 182.802C202.555 182.575 202.572 182.315 202.515 182.068C202.222 181.829 201.944 181.574 201.681 181.303C201.552 181.17 201.427 181.033 201.307 180.893C201.101 180.821 200.871 180.764 200.613 180.721C200.503 180.703 200.377 180.684 200.242 180.674ZM202.884 182.356C202.881 182.515 202.849 182.673 202.789 182.82C202.954 182.772 203.114 182.707 203.266 182.627C203.136 182.54 203.009 182.449 202.884 182.356ZM202.814 181.877C203.059 182.073 203.313 182.258 203.576 182.43C203.842 182.229 204.044 181.978 204.154 181.7C204.366 181.162 204.256 180.533 204.125 179.935C203.752 178.234 203.2 176.309 201.929 174.926C201.479 174.437 200.748 173.976 200.169 174.285C199.623 174.577 199.567 175.375 199.583 175.824C199.64 177.5 200.334 179.213 201.506 180.608C201.858 180.742 202.143 180.919 202.369 181.141C202.575 181.347 202.728 181.6 202.814 181.877Z" fill="#453447"/>
<path d="M204.81 186.126C204.108 186.07 203.524 185.585 203.192 185.111C202.776 184.518 202.578 183.795 202.404 183.156L202.729 183.068C202.904 183.71 203.085 184.374 203.467 184.918C203.788 185.374 204.372 185.842 205.048 185.792L205.074 186.127C204.984 186.133 204.896 186.133 204.81 186.126Z" fill="#453447"/>
<path d="M222.603 177.642C221.748 178.52 219.733 180.39 217.784 180.723C215.223 181.157 214.492 183.474 213.965 182.64C213.438 181.806 214.221 180.09 213.142 179.312C213.092 179.276 213.04 179.242 212.988 179.209C213.024 178.764 213.064 178.359 213.108 177.972C213.251 176.787 213.422 175.8 213.532 174.441C216.404 174.22 218.924 173.755 220.58 172.985C220.847 172.862 221.098 172.804 221.335 172.797C221.376 172.955 221.415 173.113 221.449 173.271C221.79 174.74 222.034 176.283 222.603 177.642Z" fill="#FDB6B4"/>
<path d="M221.448 173.271C221.291 173.548 221.107 173.816 220.933 174.051C220.469 174.685 219.904 175.242 219.278 175.714C217.862 176.777 216.159 177.405 214.433 177.788C214.003 177.885 213.551 177.96 213.107 177.972C213.25 176.787 213.421 175.8 213.531 174.441C216.403 174.22 218.923 173.755 220.579 172.985C220.846 172.862 221.097 172.804 221.334 172.797C221.375 172.954 221.413 173.112 221.448 173.271Z" fill="#F7888A"/>
<path d="M207.387 180.8C207.983 180.063 209.011 179.858 209.911 180.023C210.995 180.221 211.859 180.922 212.785 181.462C212.819 181.482 212.846 181.43 212.819 181.406C211.972 180.651 210.91 179.943 209.757 179.798C208.833 179.681 207.844 179.941 207.259 180.7C207.196 180.783 207.322 180.881 207.387 180.8ZM201.156 186.606C200.615 187.587 199.097 187.214 198.632 188.265C198.485 188.597 198.524 188.998 198.815 189.24C199.103 189.481 199.507 189.485 199.862 189.46C201.124 189.371 202.386 189.194 203.644 189.061C204.899 188.929 206.169 188.848 207.404 188.584C207.503 188.563 207.491 188.427 207.388 188.428C206.228 188.431 205.074 188.597 203.92 188.722C202.815 188.841 201.711 188.961 200.606 189.079C200.175 189.125 199.664 189.25 199.237 189.122C198.6 188.931 198.873 188.232 199.277 187.959C199.925 187.522 201.073 187.598 201.313 186.683C201.336 186.593 201.207 186.514 201.156 186.606Z" fill="white"/>
<path d="M252.535 193.114L252.535 193.117C252.363 195.243 251.768 196.846 250.804 197.611C248.574 199.383 242.297 198.141 241.67 197.956C241.039 197.771 239.094 200.404 231.225 200.265C225.167 200.159 223.282 197.488 223.301 195.488C223.302 194.891 223.477 194.356 223.758 193.968C224.982 192.274 227.047 192.466 230.089 190.392C233.131 188.318 233.669 185.339 235.198 184.175C236.731 183.014 239.912 184.108 240.987 184.889C242.066 185.666 241.283 187.382 241.81 188.216C242.337 189.051 243.068 186.734 245.63 186.299C248.195 185.862 250.87 182.764 250.87 182.764C252.248 186.611 252.761 190.312 252.535 193.114Z" fill="#E55D5D"/>
<path d="M242.436 195.378C242.418 194.318 242.876 193.261 243.58 192.445C244.28 191.617 245.202 190.991 246.21 190.591C247.219 190.201 248.288 190.013 249.347 189.953C250.409 189.886 251.464 189.946 252.513 190.038C251.463 190.129 250.413 190.192 249.381 190.319C248.351 190.451 247.333 190.652 246.382 191.028C245.436 191.395 244.563 191.962 243.852 192.69C243.149 193.42 242.605 194.334 242.436 195.378Z" fill="#453447"/>
<path d="M252.535 193.117C252.364 195.243 251.768 196.846 250.805 197.611C248.574 199.383 242.297 198.141 241.67 197.956C241.04 197.771 239.095 200.405 231.226 200.265C225.168 200.159 223.282 197.488 223.302 195.488C223.758 195.777 224.256 196.009 224.766 196.178C226.131 196.632 227.588 196.705 229.021 196.776C231.649 196.906 234.303 197.035 236.891 196.575C239.163 196.175 241.352 195.326 243.648 195.126C245.251 194.986 246.868 195.166 248.469 195.001C249.995 194.84 251.578 194.3 252.535 193.117ZM222.718 191.745L222.604 191.429L229.088 189.103C229.295 189.029 229.495 188.953 229.674 188.86C229.183 188.872 228.695 188.817 228.245 188.767C227.815 188.719 227.328 188.664 226.899 188.446C226.405 188.194 226.08 187.732 226.072 187.27C226.064 186.764 226.438 186.26 226.983 186.044C227.507 185.836 228.086 185.898 228.477 185.963C228.57 185.979 228.663 185.997 228.754 186.017C227.718 184.639 227.109 183.009 227.055 181.409C227.024 180.498 227.295 179.843 227.819 179.563C228.568 179.161 229.455 179.695 229.986 180.273C231.312 181.714 231.88 183.692 232.262 185.437C232.404 186.085 232.522 186.771 232.276 187.397C232.156 187.701 231.953 187.973 231.687 188.197C232.622 188.768 233.676 189.22 234.817 189.533L234.728 189.856C233.507 189.522 232.383 189.032 231.393 188.409C231.127 188.573 230.818 188.697 230.481 188.77C230.431 188.781 230.381 188.791 230.33 188.8C230.044 189.098 229.634 189.265 229.202 189.419L222.718 191.745ZM228.051 186.247C227.754 186.223 227.414 186.234 227.107 186.356C226.766 186.491 226.402 186.833 226.409 187.264C226.415 187.604 226.667 187.95 227.052 188.147C227.426 188.337 227.862 188.386 228.283 188.433C228.902 188.503 229.54 188.574 230.156 188.487C230.184 188.452 230.209 188.415 230.232 188.375C230.364 188.149 230.38 187.888 230.323 187.641C230.031 187.402 229.753 187.147 229.49 186.877C229.361 186.744 229.236 186.607 229.115 186.466C228.91 186.394 228.679 186.337 228.422 186.294C228.312 186.276 228.186 186.258 228.051 186.247ZM230.692 187.929C230.69 188.089 230.658 188.246 230.597 188.394C230.762 188.345 230.922 188.281 231.074 188.201C230.945 188.113 230.818 188.023 230.692 187.929ZM230.622 187.451C230.868 187.647 231.122 187.831 231.385 188.004C231.651 187.802 231.853 187.552 231.962 187.274C232.174 186.735 232.064 186.107 231.933 185.509C231.561 183.807 231.009 181.882 229.738 180.5C229.288 180.01 228.556 179.55 227.978 179.859C227.432 180.15 227.376 180.948 227.391 181.397C227.448 183.073 228.142 184.786 229.315 186.181C229.666 186.315 229.952 186.492 230.178 186.715C230.384 186.921 230.536 187.173 230.622 187.451Z" fill="#453447"/>
<path d="M232.616 191.7C231.915 191.643 231.331 191.158 230.998 190.685C230.582 190.092 230.385 189.368 230.211 188.73L230.536 188.642C230.711 189.284 230.892 189.947 231.274 190.492C231.594 190.948 232.178 191.416 232.855 191.365L232.88 191.7C232.791 191.707 232.703 191.707 232.616 191.7Z" fill="#453447"/>
<path d="M250.41 183.216C249.555 184.094 247.54 185.964 245.591 186.296C243.029 186.731 242.299 189.048 241.771 188.214C241.244 187.38 242.028 185.663 240.949 184.886C240.898 184.85 240.847 184.816 240.795 184.783C240.831 184.337 240.87 183.933 240.915 183.546C241.058 182.361 241.229 181.374 241.338 180.015C244.21 179.794 246.731 179.329 248.387 178.559C248.654 178.435 248.905 178.378 249.142 178.37C249.183 178.529 249.221 178.686 249.256 178.844C249.597 180.314 249.84 181.856 250.41 183.216Z" fill="#FDB6B4"/>
<path d="M249.255 178.844C249.097 179.121 248.914 179.39 248.739 179.625C248.276 180.258 247.711 180.816 247.085 181.288C245.668 182.35 243.966 182.978 242.239 183.362C241.809 183.459 241.357 183.534 240.914 183.546C241.057 182.361 241.228 181.374 241.337 180.015C244.209 179.794 246.73 179.329 248.386 178.559C248.653 178.435 248.904 178.378 249.141 178.37C249.182 178.529 249.22 178.686 249.255 178.844Z" fill="#F7888A"/>
<path d="M235.194 186.374C235.79 185.637 236.818 185.431 237.718 185.596C238.802 185.795 239.665 186.496 240.592 187.035C240.626 187.055 240.652 187.003 240.626 186.98C239.778 186.224 238.717 185.517 237.564 185.372C236.639 185.255 235.651 185.514 235.066 186.274C235.002 186.357 235.128 186.455 235.194 186.374ZM228.963 192.18C228.422 193.161 226.904 192.787 226.439 193.839C226.292 194.17 226.331 194.572 226.622 194.814C226.91 195.054 227.314 195.058 227.669 195.033C228.931 194.945 230.193 194.767 231.451 194.635C232.706 194.502 233.976 194.421 235.211 194.158C235.31 194.137 235.298 194.001 235.195 194.001C234.034 194.004 232.88 194.171 231.727 194.295C230.622 194.414 229.518 194.534 228.413 194.652C227.981 194.698 227.47 194.824 227.043 194.695C226.406 194.504 226.679 193.805 227.083 193.532C227.731 193.095 228.879 193.172 229.119 192.256C229.142 192.166 229.013 192.088 228.963 192.18Z" fill="white"/>
<path d="M247.919 94.7684C247.919 94.7684 250.377 118.917 245.347 135.557C245.347 135.557 246.969 136.505 245.807 137.663C245.807 137.663 246.681 138.822 245.347 139.98C245.347 139.98 251.192 173.402 250.875 176.141C250.559 178.879 247.391 180.88 244.646 181.301C241.901 181.723 237.361 181.828 236.833 181.407C236.833 181.407 226.169 140.73 225.204 133.993C224.239 127.256 219.994 94.2892 219.994 94.2892" fill="#FFD05E"/>
<path d="M223.535 138.437C223.241 139.192 223.155 139.906 223.572 140.34C224.791 141.621 223.862 140.894 223.504 142.203C223.146 143.512 224.816 172.995 224.458 175.421C224.1 177.848 219.571 176.206 217.425 175.255C215.28 174.303 211.94 176.206 209.794 175.015C207.649 173.826 207.89 156.946 208.127 150.406C208.365 143.869 209.794 89.5253 209.794 89.5253L229.946 97.251L225.461 135.361C225.461 135.361 224.106 136.974 223.535 138.437Z" fill="#FFD05E"/>
<path d="M218.092 23.435C216.76 23.781 215.433 24.3515 214.529 25.3861C213.625 26.4206 213.25 28.0017 213.918 29.2012C214.454 30.1628 215.545 30.7098 216.634 30.8806C214.508 32.2474 213.562 35.1427 214.422 37.5159C215.282 39.8891 217.501 41.6144 219.937 42.2972C222.372 42.98 224.992 42.724 227.423 42.0249C229.867 41.3222 232.216 40.1528 234.021 38.3655C235.825 36.5781 237.044 34.1315 237.052 31.5949C237.061 28.8935 235.679 26.2775 233.604 24.5409C231.53 22.8043 228.822 21.9097 226.117 21.7826C223.411 21.6554 220.712 22.7537 218.092 23.435Z" fill="#453447"/>
<path d="M262.029 80.0088C259.75 82.8849 253.567 87.2697 249.81 89.8009C249.532 92.4798 249.075 94.3335 248.362 94.7677C246.174 96.104 233.322 96.4119 222.96 95.1495C222.148 95.0479 221.348 94.9401 220.573 94.82C215.421 94.0317 211.226 92.8061 209.837 91.0634C205.577 85.7147 207.654 65.3794 207.654 65.3794C207.654 65.3794 192.695 63.8459 186.126 59.1038C179.553 54.3616 168.943 39.5013 168.943 39.5013L178.569 31.6431L192.935 43.0855C194.383 42.8731 194 44.0617 194 44.0617C198.248 42.7068 212.124 41.7552 217.051 41.4504C218.15 41.3827 218.804 41.3489 218.804 41.3489C225.855 39.3289 232.721 37.6045 238.728 37.2473C241.5 37.081 244.09 37.2042 246.433 37.7276C246.433 37.7276 255.364 41.0162 262.028 52.1878C268.69 63.3563 265.393 75.7596 262.029 80.0088Z" fill="#5C75C9"/>
<g opacity="0.1">
<path d="M229.268 74.4964C230.13 74.8039 230.838 75.5283 231.747 75.6384C233.171 75.8107 234.298 74.4038 234.721 73.0369C235.379 70.9109 235.092 68.6282 235.08 66.4032C235.064 63.5558 235.507 60.7244 236.392 58.0171C236.842 56.6411 237.411 55.2685 237.44 53.8212C237.468 52.374 236.797 50.7917 235.447 50.2601C234.216 49.7752 232.769 50.3113 231.818 51.2301C230.867 52.149 230.306 53.3869 229.767 54.5931L227.172 60.3957C226.79 61.2495 226.353 62.1644 225.523 62.5986C224.693 63.0327 223.393 62.6153 223.348 61.6815C223.324 61.1897 223.645 60.7147 223.558 60.2301C223.417 59.447 222.258 59.2471 221.629 59.7361C221 60.225 220.8 61.0774 220.7 61.8666C220.599 62.6558 220.541 63.4953 220.08 64.1446C219.62 64.7938 218.575 65.1045 218.024 64.5297C217.512 63.996 217.544 62.8953 216.813 62.7766C216.341 62.6999 215.954 63.1581 215.774 63.6007C214.899 65.752 216.333 68.0953 216.577 70.4042C216.748 72.0229 216.321 73.6369 215.953 75.2225C215.585 76.8082 215.273 78.4704 215.667 80.0499C216.061 81.6294 217.355 83.099 218.984 83.1831C220.687 83.271 222.109 81.892 223.007 80.4459C224.24 78.4603 226.097 73.3661 229.268 74.4964Z" fill="#231826"/>
</g>
<g opacity="0.1">
<path d="M224.587 53.2145C224.479 53.8512 224.454 54.5282 224.713 55.1199C224.972 55.7117 225.577 56.1895 226.222 56.1311C227.065 56.0546 227.58 55.1719 227.819 54.3618C228.134 53.2963 228.691 51.0145 227.285 50.4812C225.71 49.8839 224.784 52.0526 224.587 53.2145Z" fill="#231826"/>
</g>
<g opacity="0.1">
<path d="M209.882 74.6361C209.918 75.2753 210.152 76.0112 210.76 76.2159C211.382 76.425 212.02 75.9598 212.463 75.477C213.453 74.3967 214.927 71.1464 212.684 70.4117C210.605 69.7304 209.804 73.2664 209.882 74.6361Z" fill="#231826"/>
</g>
<path d="M222.958 95.1498C222.146 95.0481 221.346 94.9404 220.572 94.8202C219.763 85.6657 220.028 76.3818 220.371 67.649C220.781 57.195 222.661 48.3698 226.119 40.6717L228.088 41.5524C224.748 48.9949 222.93 57.5583 222.529 67.7352C222.189 76.3786 222.158 86.1307 222.958 95.1498Z" fill="white"/>
<path d="M246.431 37.7298C246.431 37.7298 255.362 41.019 262.026 52.189C268.69 63.359 265.392 75.7623 262.026 80.0111C258.659 84.2598 246.774 91.7977 246.774 91.7977L237.912 82.8206L247.873 71.6507C247.873 71.6507 245.95 71.0316 247.53 69.7651C247.53 69.7651 241.072 61.7829 240.454 55.684" fill="#5C75C9"/>
<path d="M253.032 87.688C253.008 87.688 252.984 87.6802 252.964 87.6657C252.944 87.6512 252.929 87.6308 252.922 87.6074C252.914 87.584 252.914 87.5588 252.922 87.5355C252.93 87.5122 252.945 87.4919 252.965 87.4776C253.46 87.1251 253.965 86.7617 254.472 86.39C254.484 86.3802 254.498 86.3729 254.514 86.3686C254.529 86.3644 254.544 86.3632 254.56 86.3652C254.576 86.3672 254.591 86.3723 254.604 86.3803C254.618 86.3883 254.63 86.3988 254.639 86.4115C254.648 86.4241 254.655 86.4385 254.658 86.4537C254.662 86.469 254.662 86.4848 254.66 86.5003C254.657 86.5157 254.651 86.5304 254.643 86.5436C254.634 86.5567 254.623 86.568 254.61 86.5767C254.109 86.944 253.606 87.3072 253.1 87.6663C253.08 87.6803 253.057 87.6879 253.032 87.688ZM256.033 85.4868C256.008 85.4868 255.985 85.4791 255.965 85.4649C255.945 85.4508 255.93 85.4308 255.923 85.4078C255.915 85.3848 255.914 85.36 255.922 85.3368C255.929 85.3136 255.943 85.2932 255.962 85.2785C256.455 84.9038 256.944 84.5234 257.429 84.1374C257.453 84.1195 257.483 84.1117 257.513 84.1155C257.543 84.1194 257.57 84.1347 257.589 84.1582C257.608 84.1817 257.617 84.2115 257.614 84.2415C257.611 84.2715 257.597 84.2992 257.574 84.3188C257.088 84.7059 256.598 85.0873 256.103 85.463C256.083 85.4785 256.058 85.4869 256.033 85.4868ZM258.938 83.1629C258.914 83.1629 258.891 83.1556 258.872 83.142C258.852 83.1284 258.837 83.1092 258.829 83.087C258.821 83.0648 258.82 83.0406 258.826 83.0176C258.832 82.9947 258.845 82.9741 258.863 82.9587C259.375 82.5227 259.841 82.1075 260.247 81.7244C260.27 81.705 260.3 81.6952 260.329 81.6968C260.359 81.6984 260.387 81.7115 260.408 81.7332C260.428 81.7549 260.44 81.7837 260.44 81.8135C260.439 81.8433 260.428 81.872 260.407 81.8935C259.998 82.2791 259.529 82.697 259.014 83.135C258.993 83.1529 258.966 83.1628 258.938 83.1629ZM261.63 80.5984C261.608 80.5984 261.586 80.5919 261.567 80.5798C261.548 80.5677 261.533 80.5504 261.524 80.5301C261.515 80.5097 261.512 80.4872 261.515 80.4651C261.518 80.443 261.528 80.4223 261.543 80.4056C261.677 80.2536 261.808 80.098 261.934 79.939C262.171 79.6399 262.407 79.3003 262.636 78.9296C262.67 78.8746 262.743 78.8591 262.797 78.8912C262.851 78.9249 262.868 78.9965 262.834 79.0509C262.601 79.4298 262.359 79.7766 262.117 80.0831C261.988 80.2454 261.855 80.4041 261.717 80.559C261.694 80.5849 261.662 80.5984 261.63 80.5984ZM263.61 77.4683C263.591 77.4682 263.572 77.4632 263.555 77.4539C263.537 77.4445 263.523 77.431 263.513 77.4146C263.502 77.3982 263.496 77.3794 263.494 77.36C263.493 77.3405 263.497 77.3211 263.505 77.3034C263.755 76.7653 263.99 76.1904 264.205 75.5937C264.21 75.5793 264.218 75.5662 264.229 75.5549C264.239 75.5437 264.251 75.5345 264.265 75.5281C264.279 75.5216 264.294 75.5179 264.309 75.5172C264.325 75.5165 264.34 75.5188 264.354 75.524C264.369 75.5292 264.382 75.5371 264.393 75.5474C264.404 75.5576 264.413 75.57 264.42 75.5838C264.426 75.5976 264.43 75.6125 264.431 75.6278C264.432 75.643 264.429 75.6582 264.424 75.6725C264.214 76.2588 263.977 76.8354 263.716 77.4008C263.696 77.4434 263.654 77.4683 263.61 77.4683ZM264.877 73.9799C264.859 73.9799 264.841 73.9757 264.825 73.9677C264.809 73.9597 264.795 73.9482 264.784 73.934C264.773 73.9197 264.766 73.9032 264.762 73.8856C264.759 73.868 264.76 73.8499 264.764 73.8327C264.929 73.2384 265.073 72.6386 265.195 72.0344C265.202 72.0044 265.22 71.9781 265.245 71.9612C265.271 71.9443 265.302 71.9382 265.333 71.9441C265.396 71.9565 265.436 72.0177 265.424 72.0809C265.299 72.6903 265.154 73.2953 264.989 73.8948C264.975 73.9462 264.928 73.9799 264.877 73.9799ZM265.621 70.3423C265.615 70.3423 265.61 70.3417 265.605 70.3413C265.574 70.3371 265.547 70.321 265.528 70.2965C265.509 70.272 265.501 70.2411 265.505 70.2106C265.588 69.5995 265.651 68.9859 265.695 68.3708C265.7 68.3071 265.75 68.2442 265.82 68.2635C265.884 68.2676 265.932 68.3231 265.928 68.3875C265.883 69.0074 265.819 69.6259 265.736 70.2418C265.732 70.2695 265.718 70.295 265.697 70.3134C265.676 70.3319 265.649 70.3422 265.621 70.3423ZM265.883 66.6404H265.882C265.867 66.6403 265.852 66.6372 265.838 66.6312C265.823 66.6253 265.811 66.6166 265.8 66.6057C265.789 66.5948 265.781 66.582 265.775 66.5678C265.769 66.5537 265.766 66.5386 265.767 66.5233L265.767 66.3336C265.767 65.782 265.751 65.2243 265.719 64.6753C265.718 64.6445 265.728 64.6143 265.749 64.5913C265.769 64.5683 265.798 64.5543 265.829 64.5525C265.905 64.556 265.948 64.598 265.952 64.6619C265.984 65.2155 266 65.778 266 66.3332L266 66.5255C265.999 66.5562 265.987 66.5854 265.965 66.6069C265.943 66.6284 265.914 66.6405 265.883 66.6404ZM265.667 62.9349C265.609 62.9349 265.559 62.8919 265.551 62.8333C265.475 62.2215 265.379 61.6124 265.262 61.007C265.257 60.9768 265.263 60.9456 265.28 60.9201C265.298 60.8947 265.324 60.8771 265.355 60.8712C265.385 60.8655 265.416 60.872 265.442 60.8893C265.467 60.9065 265.485 60.9332 265.491 60.9635C265.608 61.5737 265.706 62.1876 265.782 62.8043C265.784 62.8207 265.783 62.8373 265.778 62.853C265.773 62.8688 265.765 62.8833 265.754 62.8957C265.743 62.9081 265.73 62.918 265.715 62.9247C265.699 62.9315 265.683 62.9349 265.667 62.9349ZM264.964 59.291C264.912 59.291 264.865 59.2563 264.852 59.2044C264.695 58.6085 264.517 58.018 264.32 57.4341C264.315 57.4197 264.313 57.4044 264.314 57.3892C264.314 57.374 264.319 57.3591 264.325 57.3454C264.332 57.3317 264.341 57.3195 264.353 57.3094C264.365 57.2994 264.378 57.2917 264.392 57.2869C264.422 57.2773 264.453 57.2796 264.481 57.2931C264.509 57.3067 264.53 57.3305 264.54 57.3595C264.739 57.9485 264.918 58.5441 265.077 59.1453C265.085 59.1751 265.08 59.2068 265.065 59.2335C265.049 59.2601 265.024 59.2795 264.994 59.2874C264.984 59.2899 264.974 59.2911 264.964 59.291ZM263.774 55.7748C263.729 55.7748 263.685 55.7478 263.667 55.7032C263.429 55.134 263.173 54.5731 262.897 54.0215C262.883 53.9939 262.881 53.962 262.89 53.9328C262.9 53.9036 262.921 53.8795 262.949 53.8657C262.976 53.852 263.008 53.8498 263.038 53.8595C263.067 53.8693 263.091 53.8902 263.105 53.9178C263.383 54.4742 263.642 55.0399 263.881 55.614C263.889 55.6316 263.892 55.6508 263.89 55.6698C263.888 55.6888 263.881 55.7071 263.871 55.723C263.86 55.7389 263.846 55.7519 263.829 55.761C263.812 55.77 263.793 55.7747 263.774 55.7748ZM262.114 52.4544C262.074 52.4544 262.035 52.4337 262.014 52.3974L261.925 52.2482C261.638 51.7672 261.342 51.2919 261.036 50.8226C261.019 50.7968 261.013 50.7654 261.02 50.7353C261.026 50.7051 261.044 50.6788 261.07 50.6619C261.096 50.6454 261.127 50.6398 261.157 50.6462C261.188 50.6526 261.214 50.6706 261.231 50.6962C261.538 51.1681 261.837 51.646 262.125 52.1296L262.214 52.2794C262.23 52.306 262.234 52.3376 262.226 52.3675C262.219 52.3973 262.199 52.4228 262.173 52.4385C262.155 52.4489 262.135 52.4544 262.114 52.4544ZM260.083 49.343C260.047 49.343 260.011 49.3259 259.988 49.2947C259.628 48.7933 259.255 48.3003 258.871 47.8162C258.852 47.7921 258.843 47.7613 258.847 47.7307C258.851 47.7 258.866 47.6721 258.89 47.653C258.915 47.634 258.945 47.6253 258.976 47.6289C259.007 47.6325 259.035 47.648 259.054 47.6721C259.44 48.159 259.814 48.6547 260.177 49.1589C260.19 49.1763 260.197 49.1967 260.199 49.218C260.2 49.2393 260.196 49.2606 260.186 49.2796C260.176 49.2986 260.162 49.3146 260.143 49.3257C260.125 49.3369 260.104 49.3429 260.083 49.343ZM257.774 46.4317C257.742 46.4317 257.709 46.4182 257.686 46.3917C257.28 45.9264 256.862 45.4711 256.434 45.0263C256.423 45.0153 256.415 45.0024 256.409 44.9882C256.404 44.974 256.401 44.9589 256.401 44.9437C256.401 44.9284 256.405 44.9134 256.411 44.8995C256.417 44.8856 256.426 44.873 256.437 44.8624C256.459 44.8412 256.489 44.8296 256.52 44.8302C256.551 44.8308 256.58 44.8435 256.601 44.8656C257.033 45.3132 257.453 45.7712 257.862 46.2394C257.877 46.2562 257.886 46.2768 257.889 46.2989C257.892 46.3209 257.889 46.3434 257.88 46.3637C257.871 46.3839 257.856 46.4011 257.837 46.4132C257.818 46.4252 257.796 46.4316 257.774 46.4317ZM255.195 43.7551C255.166 43.7551 255.137 43.7447 255.115 43.7236C254.664 43.3006 254.203 42.8891 253.732 42.4897C253.708 42.4697 253.693 42.4412 253.691 42.4105C253.689 42.3798 253.698 42.3494 253.718 42.3259C253.738 42.3026 253.767 42.2882 253.798 42.2857C253.828 42.2832 253.859 42.2928 253.882 42.3125C254.357 42.7147 254.821 43.1289 255.274 43.5546C255.321 43.5987 255.323 43.6717 255.279 43.7184C255.268 43.73 255.255 43.7392 255.241 43.7455C255.226 43.7519 255.21 43.7551 255.195 43.7551Z" fill="#453447"/>
<path d="M238.726 37.249C238.698 37.4394 238.662 37.6284 238.618 37.8156C238.3 39.1673 237.429 40.4606 236.173 41.4552C235.012 42.3697 233.672 42.9424 232.632 43.3366C230.119 44.2911 227.853 44.7561 225.717 44.7561C225.578 44.7561 225.439 44.7529 225.3 44.7499C222.21 44.6607 219.75 43.8261 217.987 42.2773L217.049 41.4521C218.148 41.3843 218.802 41.3505 218.802 41.3505C225.853 39.3305 232.718 37.6061 238.726 37.249Z" fill="white"/>
<path d="M237.414 37.5346C237.137 38.7133 236.36 39.7377 235.407 40.4914C234.455 41.2399 233.332 41.7549 232.193 42.1849C230 43.013 227.68 43.5863 225.333 43.5172C222.992 43.4482 220.565 42.8962 218.803 41.3515C219.623 41.1604 221.395 39.9395 222.864 38.7344C223.976 37.8213 224.913 36.9082 225.142 36.4518V36.4466C217.728 33.6437 217.468 23.9187 218.186 20.6805C223.519 20.4205 228.803 20.2612 234.109 19.7622C234.492 20.6911 234.726 21.6732 234.795 22.6766C234.891 24.1522 234.625 25.6333 234.716 27.1091C234.928 30.7081 238.244 34.0258 237.414 37.5346Z" fill="#FDB6B4"/>
<path d="M238.955 19.2943C240.578 20.2634 241.812 21.7969 241.971 23.6767C242.13 25.5565 241.333 27.4923 239.896 28.7187C243.124 28.6911 246.291 31.0182 247.219 34.1023C247.521 35.1047 247.599 36.2282 247.135 37.1669C246.586 38.2773 245.374 38.9293 244.158 39.1763C242.828 39.4466 241.431 39.3127 240.141 38.8901C238.734 38.4288 237.461 37.6395 236.204 36.8575C235.586 36.4728 234.96 36.0819 234.46 35.5527C233.96 35.0235 233.592 34.3311 233.604 33.6041C233.619 32.7262 234.174 31.8501 233.896 31.0172C233.477 29.7635 231.63 29.7131 230.793 28.6884C230.129 27.875 230.285 26.6559 230.738 25.7089C231.19 24.7619 231.893 23.9445 232.291 22.9737C232.69 22.0029 232.646 20.6617 231.855 19.9709" fill="#453447"/>
<path d="M238.956 19.2942C229.96 20.2486 220.971 20.8338 211.926 21.074C211.395 21.0895 210.762 21.0494 210.488 20.5967C210.253 20.2118 210.417 19.6852 210.741 19.3773C211.068 19.0662 211.516 18.9215 211.951 18.8045C214.05 18.2349 216.165 17.89 218.332 17.6775C218.27 14.4535 220.276 11.3619 223.104 9.80379C225.932 8.24264 229.445 8.13795 232.495 9.20025C234.702 9.96694 236.77 11.3927 237.838 13.465C238.752 15.2389 238.863 17.3019 238.956 19.2942Z" fill="#E55D5D"/>
<path d="M225.462 135.362C225.462 135.362 224.107 136.975 223.536 138.438L221.156 98.889L225.462 135.362ZM237.913 82.8211C238.667 81.8226 239.443 80.8443 240.226 79.8718C241.012 78.9013 241.801 77.9338 242.604 76.9794C244.205 75.065 245.83 73.1725 247.485 71.3056L247.714 72.1461C247.437 72.0491 247.224 71.9424 246.985 71.7706C246.763 71.6032 246.504 71.3522 246.411 70.9529C246.32 70.5494 246.474 70.1696 246.641 69.9312C246.728 69.8137 246.82 69.7102 246.913 69.6102L247.2 69.3552L247.12 70.0961C246.287 69.023 245.511 67.9409 244.79 66.8069C244.071 65.676 243.38 64.526 242.783 63.3225C242.182 62.1236 241.627 60.8975 241.215 59.6167C240.809 58.3388 240.495 57.0188 240.455 55.6844C240.717 56.9922 241.16 58.2343 241.683 59.4387C242.196 60.6485 242.844 61.797 243.492 62.9383C244.155 64.0727 244.868 65.1795 245.612 66.2637C246.365 67.3387 247.126 68.4258 247.941 69.4351L248.253 69.8203L247.861 70.1759L247.665 70.3544C247.613 70.4142 247.562 70.474 247.52 70.5292C247.446 70.6453 247.44 70.703 247.444 70.7266C247.444 70.7537 247.497 70.8442 247.616 70.9327C247.725 71.0186 247.904 71.1097 248.035 71.1565L248.779 71.4229L248.264 71.9969C246.598 73.8535 244.903 75.684 243.183 77.4932C242.327 78.4003 241.455 79.2945 240.58 80.1856C239.703 81.0746 238.819 81.9577 237.913 82.8211ZM249.825 89.7917C249.419 90.2771 248.932 90.6464 248.427 90.9879C247.914 91.3172 247.382 91.6181 246.775 91.798C247.185 91.3092 247.669 90.9414 248.173 90.6018C248.685 90.2745 249.215 89.9751 249.825 89.7917Z" fill="#231826"/>
<path d="M245.346 90.3525L243.174 92.2777L236.779 86.0993L238.856 83.7779" fill="#E5E9F6"/>
<path d="M224.138 28.4902C224.388 28.9087 224.501 29.4132 224.474 29.9144C224.459 30.4234 224.213 30.8931 224.31 31.2879C224.383 31.6785 224.86 31.9078 225.278 31.8463C225.712 31.7807 226.092 31.4445 226.368 31.0533C226.202 31.503 225.853 31.9375 225.326 32.0784C225.063 32.149 224.781 32.1125 224.531 31.9964C224.283 31.8809 224.07 31.6383 224.009 31.3569C223.905 30.78 224.187 30.3383 224.238 29.8906C224.31 29.4337 224.27 28.9563 224.138 28.4902ZM226.611 33.7313C226.303 33.7319 225.997 33.6829 225.705 33.5862C225.666 33.5732 225.634 33.5453 225.616 33.5087C225.597 33.4721 225.594 33.4298 225.607 33.391C225.62 33.3522 225.648 33.3202 225.685 33.302C225.722 33.2838 225.764 33.2808 225.803 33.2938C226.364 33.4831 227.002 33.4654 227.551 33.2471C228.101 33.0289 228.575 32.6048 228.853 32.0838C228.873 32.0478 228.905 32.0209 228.944 32.0089C228.984 31.997 229.026 32.001 229.062 32.0201C229.08 32.0296 229.096 32.0424 229.109 32.058C229.121 32.0736 229.131 32.0915 229.137 32.1108C229.143 32.1302 229.145 32.1504 229.143 32.1705C229.141 32.1906 229.135 32.2101 229.126 32.2279C228.814 32.8127 228.282 33.2886 227.665 33.5332C227.332 33.6649 226.972 33.7313 226.611 33.7313Z" fill="#F7888A"/>
<path d="M177.256 32.7496L170.446 38.2738L168.205 35.6595L174.589 30.006L177.256 32.7496Z" fill="#E5E9F6"/>
<path d="M241.113 100.277L159.829 21.523C159.798 21.4938 159.774 21.459 159.756 21.4203C159.739 21.3817 159.73 21.3401 159.729 21.2978C159.728 21.2556 159.735 21.2135 159.75 21.1741C159.765 21.1346 159.788 21.0985 159.817 21.0679C159.846 21.0372 159.881 21.0126 159.92 20.9955C159.959 20.9783 160.001 20.9689 160.043 20.9678C160.085 20.9667 160.127 20.974 160.167 20.9892C160.207 21.0043 160.243 21.0271 160.273 21.0562L243.274 98.0086C243.909 98.597 243.945 99.5872 243.355 100.22C242.766 100.853 241.773 100.889 241.138 100.301C241.132 100.295 241.12 100.284 241.113 100.277Z" fill="#453447"/>
<path d="M173.833 30.6804C173.833 30.6804 171.403 26.9618 169.8 26.7237C168.196 26.4855 166.15 26.4174 165.638 26.7237C165.126 27.0299 164.58 28.0507 166.491 28.3569C168.401 28.6632 169.117 28.4931 169.015 29.0715C168.913 29.65 169.454 31.855 171.16 33.0459" fill="#FDB6B4"/>
<path d="M164.06 28.357C164.057 28.357 164.055 28.3564 164.052 28.3564L162.661 28.2139C162.641 28.2117 162.622 28.2016 162.609 28.1858C162.596 28.1699 162.59 28.1496 162.592 28.1293C162.596 28.0868 162.633 28.0635 162.677 28.0604L164.068 28.2029C164.111 28.2076 164.141 28.2455 164.137 28.2874C164.135 28.3065 164.126 28.3241 164.112 28.337C164.098 28.3498 164.079 28.357 164.06 28.357ZM164.165 30.178C163.926 30.1783 163.689 30.1473 163.458 30.0858C163.438 30.0805 163.421 30.0677 163.411 30.0501C163.401 30.0325 163.398 30.0116 163.403 29.9919C163.414 29.9505 163.456 29.9245 163.498 29.9375C163.87 30.0356 164.259 30.0503 164.638 29.9805C164.658 29.9772 164.678 29.9819 164.695 29.9934C164.711 30.005 164.722 30.0225 164.726 30.0423C164.73 30.0621 164.726 30.0825 164.715 30.0993C164.703 30.116 164.686 30.1277 164.666 30.1319C164.501 30.1626 164.333 30.178 164.165 30.178ZM165.269 32.1174C165.25 32.1174 165.231 32.1104 165.217 32.0976C165.203 32.0849 165.194 32.0674 165.192 32.0484C165.19 32.0295 165.195 32.0105 165.206 31.9951C165.217 31.9797 165.234 31.969 165.253 31.965L166.474 31.7038C166.518 31.6961 166.557 31.7214 166.566 31.7629C166.568 31.7728 166.568 31.783 166.566 31.7929C166.565 31.8029 166.561 31.8124 166.555 31.8209C166.55 31.8293 166.543 31.8366 166.534 31.8424C166.526 31.8481 166.516 31.8521 166.507 31.8542L165.285 32.1154C165.279 32.1166 165.274 32.1172 165.269 32.1174Z" fill="#F7888A"/>
<path d="M241.591 90.747C240.635 91.6942 239.489 92.8056 238.41 93.6117C237.332 94.4178 236.123 95.08 234.81 95.3821C234.495 95.4547 234.162 95.5057 233.85 95.419C233.539 95.3323 233.255 95.0744 233.232 94.7524C232.808 94.9183 232.224 94.8597 231.897 94.5426C231.57 94.2253 231.452 93.7123 231.606 93.2844C231.234 93.3241 230.859 93.0291 230.631 92.7335C230.403 92.4378 230.342 92.022 230.475 91.6733C230.086 91.5789 229.753 91.2004 229.758 90.8012C229.763 90.4019 230.07 90.0263 230.462 89.9416C230.862 89.8551 231.262 90.0466 231.663 90.1304C232.445 90.2941 233.975 89.3881 233.975 89.3881L231.959 87.519C231.959 87.519 233.468 86.7841 234.387 86.8628C234.858 86.9031 235.32 87.021 235.792 87.0436C236.264 87.0663 236.905 86.8734 237.258 86.5599" fill="#FDB6B4"/>
<path d="M233.344 94.8451C233.325 94.8449 233.307 94.8377 233.293 94.8248C233.278 94.8119 233.27 94.7943 233.268 94.7753C233.266 94.7563 233.271 94.7373 233.283 94.7219C233.294 94.7066 233.311 94.696 233.329 94.6921C233.996 94.5636 234.628 94.2302 235.111 93.7544C235.126 93.7402 235.145 93.7323 235.166 93.7325C235.186 93.7327 235.206 93.7409 235.22 93.7554C235.227 93.7625 235.233 93.7711 235.237 93.7804C235.24 93.7898 235.242 93.7998 235.242 93.8099C235.242 93.82 235.24 93.83 235.236 93.8393C235.232 93.8487 235.227 93.8571 235.219 93.8642C234.715 94.3608 234.055 94.7087 233.359 94.8434C233.354 94.8445 233.349 94.8451 233.344 94.8451ZM231.744 93.394C231.724 93.3936 231.705 93.3855 231.69 93.3714C231.676 93.3573 231.668 93.3383 231.668 93.3184C231.668 93.2985 231.675 93.2792 231.689 93.2647C231.702 93.2502 231.721 93.2415 231.741 93.2405C233.038 93.2011 234.303 92.7252 235.303 91.9004C235.311 91.8936 235.32 91.8884 235.329 91.8852C235.339 91.882 235.35 91.8807 235.36 91.8815C235.37 91.8823 235.38 91.8852 235.389 91.8899C235.398 91.8946 235.406 91.9012 235.413 91.9091C235.42 91.917 235.425 91.9261 235.428 91.936C235.43 91.9458 235.431 91.9562 235.43 91.9664C235.429 91.9766 235.426 91.9865 235.421 91.9955C235.416 92.0044 235.409 92.0123 235.401 92.0186C234.375 92.8657 233.077 93.354 231.746 93.3939L231.744 93.394ZM231.95 91.9275C231.491 91.9278 231.034 91.8631 230.593 91.7351C230.573 91.7294 230.556 91.716 230.547 91.698C230.537 91.6801 230.534 91.6589 230.54 91.6393C230.546 91.6198 230.559 91.6034 230.577 91.5936C230.595 91.5838 230.616 91.5814 230.636 91.5869C231.632 91.8772 232.71 91.8268 233.674 91.4489C233.683 91.4452 233.693 91.4433 233.703 91.4435C233.713 91.4437 233.723 91.4458 233.733 91.4499C233.742 91.4539 233.75 91.4598 233.757 91.4671C233.764 91.4744 233.77 91.483 233.774 91.4925C233.781 91.5114 233.781 91.5325 233.772 91.5512C233.764 91.5699 233.749 91.5845 233.73 91.592C233.163 91.8141 232.559 91.9279 231.95 91.9275Z" fill="#F7888A"/>
<path d="M243.332 95.6946C242.932 98.1372 242.917 100.655 242.765 103.123C242.605 105.723 242.478 108.325 242.353 110.927C242.096 116.246 241.782 121.565 241.557 126.886C241.344 131.902 241.191 136.884 241.437 141.904C241.678 146.838 242.256 151.748 243.055 156.622C243.507 159.379 244.119 162.108 244.7 164.84C244.991 166.209 245.302 167.578 245.646 168.936C245.986 170.279 246.311 171.667 246.899 172.925C247.016 173.175 247.458 173.039 247.419 172.767C247.24 171.534 246.842 170.341 246.515 169.138C246.191 167.945 245.855 166.755 245.548 165.557C244.935 163.158 244.466 160.754 244.041 158.315C243.174 153.34 242.595 148.347 242.275 143.307C241.631 133.15 242.101 122.894 242.805 112.752C242.998 109.97 243.163 107.182 243.29 104.396C243.42 101.522 243.738 98.5852 243.574 95.7099C243.565 95.5546 243.357 95.5388 243.332 95.6946Z" fill="white"/>
<path d="M235.998 177.055C235.871 176.675 235.952 176.401 236.243 176.234C236.434 176.133 236.631 176.118 236.834 176.186C237.23 176.243 237.507 176.452 237.849 176.638C238.202 176.829 238.582 177.005 238.993 176.996C239.667 176.981 240.071 176.521 240.381 175.979C240.752 175.333 241.046 174.574 241.927 174.619C242.626 174.654 243.285 175.076 243.939 175.291C244.473 175.466 245.046 175.565 245.58 175.334C246.312 175.018 246.453 174.302 246.96 173.767C247.679 173.01 248.856 173.474 249.753 173.116C250.463 172.832 250.965 172.253 250.727 171.472C250.598 171.047 249.92 171.257 249.986 171.682C250.145 172.718 248.132 172.562 247.553 172.655C246.679 172.795 246.269 173.16 245.832 173.902C245.56 174.365 245.26 174.712 244.682 174.68C244.341 174.661 244.006 174.545 243.686 174.436C243.032 174.215 242.333 173.907 241.627 173.985C240.96 174.058 240.508 174.492 240.178 175.045C239.741 175.777 239.429 176.603 238.401 176.398C237.696 176.259 236.695 175.622 235.993 176.081C235.587 176.346 235.46 176.881 235.807 177.237C235.925 177.357 236.113 177.18 235.998 177.055ZM209 170.846C208.811 170.314 209.499 170.153 209.883 170.248C210.195 170.326 210.464 170.518 210.753 170.648C211.057 170.785 211.379 170.891 211.715 170.833C212.41 170.714 212.492 170.095 212.841 169.604C213.663 168.449 214.673 170.132 215.289 170.635C215.729 170.996 216.29 171.23 216.842 170.99C217.376 170.758 217.706 170.281 218.119 169.897C218.603 169.447 219.068 169.428 219.593 169.874C219.883 170.121 220.14 170.409 220.448 170.633C221.641 171.499 223.37 171.05 224.141 169.849C224.32 169.571 223.925 169.294 223.721 169.554C223.085 170.366 221.88 170.614 220.957 170.145C220.348 169.836 219.932 169.223 219.229 169.089C218.71 168.991 218.238 169.221 217.851 169.546C217.563 169.787 217.324 170.101 217.009 170.306C216.393 170.707 215.868 170.407 215.399 169.963C214.899 169.491 214.399 168.95 213.679 168.842C212.924 168.729 212.591 169.234 212.271 169.823C211.551 171.148 210.485 169.781 209.482 169.889C208.953 169.946 208.501 170.409 208.649 170.95C208.719 171.206 209.089 171.098 209 170.846ZM236.044 96.3881C233.358 101.736 236.454 108.736 242.365 110.143C242.717 110.227 242.858 109.631 242.513 109.523C239.985 108.731 237.826 107.211 236.56 104.835C235.19 102.263 235.192 99.1896 236.298 96.5272C236.368 96.3597 236.13 96.2182 236.044 96.3881ZM214.852 97.1443C214.109 102.09 214.126 107.275 214.734 112.233C214.749 112.35 214.924 112.338 214.918 112.219C214.798 109.806 214.705 107.382 214.715 104.966C214.725 102.357 214.886 99.7616 215.021 97.158C215.026 97.0614 214.866 97.0491 214.852 97.1443ZM210.363 74.3621C210.129 76.964 210.034 79.5659 209.926 82.1755C209.892 82.984 209.81 83.9336 210.407 84.5762C210.933 85.1433 211.753 85.1879 212.276 84.6043C212.718 84.1106 213.114 83.1026 213.867 83.8544C214.297 84.2835 214.265 84.8876 214.228 85.4491C214.174 86.269 214.132 87.1484 214.651 87.8428C215.085 88.423 215.783 88.6143 216.459 88.3592C216.871 88.204 217.212 87.9286 217.593 87.7172C218.318 87.3155 218.884 87.4809 219.439 88.0584C219.569 88.1941 219.801 88.0906 219.771 87.8993C219.666 87.2245 219.073 86.7884 218.401 86.7545C217.635 86.716 217.078 87.2284 216.414 87.5057C214.852 88.1583 215.036 86.1245 215.001 85.2202C214.972 84.4618 214.75 83.6009 213.998 83.242C213.252 82.8864 212.701 83.2305 212.257 83.8335C211.875 84.3502 211.442 84.8392 210.807 84.2086C210.28 83.6854 210.398 82.7549 210.408 82.0825C210.448 79.5061 210.495 76.9396 210.415 74.3639C210.414 74.3347 210.365 74.3325 210.363 74.3621ZM262.017 62.5933C262.496 64.5792 262.864 66.6087 262.877 68.6562C262.883 69.5067 262.877 70.3986 262.546 71.1983C262.239 71.9418 261.406 72.4904 260.632 72.0475C259.668 71.496 260.223 69.9188 261.33 70.2793C262.581 70.6867 262.297 72.4802 262.097 73.4042C261.727 75.1053 261.023 76.6567 260.039 78.0923C258.821 79.8688 257.185 81.4075 255.532 82.7779C255.421 82.87 255.548 83.0402 255.673 82.9819C256.799 82.4569 257.734 81.8376 258.613 80.957C259.492 80.0758 260.26 79.0916 260.9 78.0259C261.513 77.0083 262.007 75.9246 262.434 74.8179C262.84 73.764 263.28 72.5752 263.095 71.4337C262.937 70.4615 262.216 69.4692 261.156 69.3924C260.223 69.3247 259.412 70.067 259.277 70.97C259.131 71.9406 259.854 72.7825 260.79 72.9621C261.86 73.1672 262.602 72.4649 262.976 71.5252C263.493 70.2276 263.333 68.6167 263.21 67.2615C263.062 65.6322 262.721 64.0818 262.104 62.5656C262.084 62.5183 262.004 62.5426 262.017 62.5933ZM179.883 49.675C181.136 51.5141 182.752 53.0649 184.652 54.2346C185.418 54.7064 186.387 55.1618 187.296 54.8322C187.926 54.6039 188.5 53.96 188.492 53.2662C188.482 52.4009 187.605 51.8987 186.809 51.9702C185.931 52.049 185.382 52.794 185.295 53.6333C185.078 55.7156 187.357 57.0656 188.958 57.8521C190.094 58.4103 191.299 58.7923 192.542 59.0242C193.159 59.1403 193.783 59.2109 194.411 59.2354C195.001 59.2576 195.781 59.3274 196.217 58.8707C196.351 58.7303 196.315 58.5449 196.168 58.4343C195.563 57.9787 194.366 58.1877 193.632 58.1039C192.628 57.9895 191.646 57.744 190.702 57.3858C189.811 57.0478 188.945 56.6 188.161 56.0581C187.388 55.5237 186.245 54.7165 186.437 53.6324C186.513 53.2008 187.011 52.6475 187.509 52.8849C188.061 53.1475 187.727 53.869 187.409 54.1306C186.507 54.8748 185.163 53.9647 184.385 53.45C182.762 52.3759 181.33 51.0049 180.108 49.4961C180.005 49.3698 179.792 49.5412 179.883 49.675ZM243.096 40.4387C244.458 40.9364 245.809 41.6047 246.991 42.4479C247.584 42.871 248.137 43.3391 248.666 43.8384C248.914 44.0734 249.154 44.3171 249.385 44.5689C249.611 44.813 249.892 45.1201 250.203 45.2429C250.415 45.3262 250.575 45.0923 250.546 44.91C250.491 44.5689 250.178 44.2058 249.948 43.9563C249.704 43.6907 249.449 43.435 249.184 43.1898C248.619 42.6684 247.995 42.2135 247.349 41.7989C246.062 40.9733 244.687 40.4172 243.188 40.1126C242.999 40.0742 242.913 40.3718 243.096 40.4387ZM204.287 44.9503C205.849 44.3785 207.447 43.8598 209.079 43.5281C210.615 43.2159 212.179 43.0628 213.731 42.8548C213.916 42.83 213.916 42.583 213.728 42.5658C212.089 42.4151 210.472 42.6152 208.87 42.9633C207.227 43.3203 205.654 43.8364 204.143 44.5726C203.94 44.6717 204.067 45.0307 204.287 44.9503ZM240.737 31.7334C241.654 31.734 242.616 32.1798 243.155 32.9303C243.429 33.311 243.557 33.7449 243.629 34.2022C243.662 34.41 243.672 34.6211 243.658 34.831C243.65 34.9478 243.634 35.0639 243.612 35.1788C243.586 35.3171 243.598 35.4594 243.571 35.5947C243.536 35.7655 243.797 35.8704 243.89 35.7222C243.99 35.5634 244.08 35.4627 244.131 35.2817C244.172 35.1356 244.197 34.9839 244.215 34.8335C244.246 34.5793 244.254 34.3146 244.218 34.0604C244.141 33.5214 243.894 32.996 243.555 32.5733C242.875 31.7273 241.795 31.3229 240.727 31.499C240.598 31.5203 240.6 31.7333 240.737 31.7334ZM237.033 22.1796C237.052 22.1339 237.072 22.0885 237.092 22.0431L236.769 22.1841C237.836 22.5317 238.279 23.5306 238.15 24.5926C238.004 25.7983 237.108 26.6514 236.593 27.692C236.502 27.8769 236.749 27.9814 236.883 27.898C237.54 27.4888 238.005 26.9066 238.392 26.2407C238.744 25.6354 239.001 24.9294 239.003 24.222C239.005 23.5613 238.808 22.9177 238.4 22.3938C238.026 21.9148 237.422 21.48 236.79 21.5986C236.648 21.6254 236.546 21.8075 236.592 21.9429C236.621 22.0284 236.651 22.1138 236.68 22.1995C236.738 22.3718 236.975 22.3151 237.033 22.1796ZM222.333 14.0299C223.784 12.3156 225.931 11.2128 228.18 11.0546C230.77 10.8726 233.03 12.147 234.93 13.7839C235.072 13.9063 235.273 13.714 235.169 13.5624C233.757 11.5091 231.154 10.5528 228.719 10.5526C226.106 10.5523 223.656 11.7927 222.031 13.8177C221.882 14.0036 222.181 14.209 222.333 14.0299ZM218.6 17.9433C219.008 17.9631 219.406 18.0416 219.815 18.0384C220.174 18.0355 220.533 18.0324 220.892 18.0292C221.577 18.0229 222.26 18.0053 222.944 17.9836L224.979 17.9189L225.955 17.8878C226.281 17.8774 226.636 17.9069 226.95 17.8154C227.1 17.7718 227.189 17.5082 226.985 17.4613C226.351 17.316 225.597 17.446 224.948 17.4635L222.74 17.5227C222.039 17.5415 221.339 17.5691 220.638 17.6044C220.291 17.6218 219.939 17.6255 219.593 17.6575C219.261 17.6885 218.936 17.775 218.603 17.8118C218.521 17.821 218.512 17.9391 218.6 17.9433ZM212.523 134.948C212.223 138.747 211.869 142.544 211.647 146.349C211.54 148.189 211.442 150.028 211.366 151.869C211.288 153.754 211.099 155.637 211.061 157.523C211.06 157.581 211.147 157.591 211.153 157.531C211.35 155.704 211.408 153.862 211.561 152.03C211.718 150.151 211.868 148.274 211.999 146.393C212.265 142.586 212.4 138.77 212.588 134.958C212.59 134.916 212.526 134.906 212.523 134.948ZM227.458 121.601C227.073 124.519 227.125 127.467 227.484 130.386C227.658 131.806 227.945 133.208 228.3 134.594C228.652 135.967 228.984 137.508 229.707 138.74C229.839 138.965 230.143 138.798 230.102 138.568C229.853 137.161 229.24 135.788 228.891 134.398C228.555 133.063 228.297 131.707 228.076 130.349C227.606 127.461 227.501 124.525 227.59 121.604C227.592 121.518 227.469 121.519 227.458 121.601Z" fill="white"/>
<path d="M228.049 35.5926C228.038 36.1553 227.607 36.6225 227.165 36.9834C225.947 37.9707 224.43 38.5813 222.865 38.7353C223.977 37.8221 224.914 36.9091 225.143 36.4527V36.4474C226.154 36.3623 227.149 36.065 228.049 35.5926Z" fill="#F7888A"/>
<path d="M230.537 140.141C229.472 139.721 228.294 140.443 228.062 141.535C228.057 141.551 228.059 141.568 228.065 141.584C228.072 141.6 228.083 141.613 228.098 141.621C228.112 141.63 228.129 141.634 228.146 141.632C228.163 141.631 228.179 141.624 228.191 141.612C228.953 140.973 230.102 141.106 230.773 141.803C230.838 141.871 230.962 141.768 230.9 141.695C230.222 140.895 228.874 140.844 228.083 141.499L228.213 141.577C228.295 141.102 228.555 140.692 228.962 140.427C229.416 140.133 229.99 140.088 230.502 140.243C230.569 140.264 230.602 140.167 230.537 140.141ZM211.715 137.615C211.393 137.529 211.093 137.488 210.762 137.543C210.417 137.601 210.08 137.733 209.79 137.93C209.245 138.303 208.871 138.892 208.756 139.539C208.735 139.657 208.889 139.724 208.973 139.654C209.273 139.404 209.636 139.252 210.023 139.205C210.444 139.153 210.856 139.248 211.248 139.4C211.356 139.442 211.413 139.278 211.325 139.219C211.222 139.15 211.136 139.09 211.018 139.049C210.915 139.014 210.81 138.987 210.703 138.966C210.48 138.924 210.249 138.917 210.023 138.94C209.576 138.986 209.148 139.164 208.803 139.451L209.02 139.565C209.124 138.99 209.451 138.459 209.935 138.125C210.426 137.785 211.1 137.643 211.689 137.74C211.77 137.753 211.794 137.637 211.715 137.615Z" fill="#453447"/>
<path d="M57.5658 112.424C55.9998 113.776 54.8451 115.531 54.2644 117.513C53.6555 119.591 53.7213 121.805 54.4086 123.856C54.7992 125.022 55.3887 126.081 56.1923 127.016C56.2555 127.09 56.3677 127.003 56.3113 126.924C55.0583 125.171 54.2464 123.069 54.1258 120.917C54.0133 118.908 54.497 116.894 55.4811 115.138C56.0425 114.136 56.7396 113.224 57.5883 112.444C57.6031 112.431 57.5805 112.411 57.5658 112.424ZM133.557 103.7C133.728 110.225 134.057 116.746 134.338 123.267C134.397 124.637 134.506 126.265 133.498 127.355C132.66 128.26 131.332 128.48 130.155 128.55C128.679 128.637 127.186 128.581 125.708 128.583C124.067 128.585 122.426 128.587 120.784 128.589C116.993 128.595 113.191 128.517 109.403 128.655C109.258 128.66 109.255 128.903 109.402 128.909C111.148 128.974 112.895 128.948 114.643 128.94C116.361 128.931 118.079 128.927 119.797 128.921C121.463 128.915 123.129 128.909 124.796 128.903C126.429 128.897 128.066 128.925 129.698 128.877C130.895 128.842 132.189 128.705 133.194 127.999C134.263 127.247 134.61 125.994 134.652 124.752C134.678 124.007 134.626 123.259 134.595 122.515C134.492 120.002 134.387 117.489 134.283 114.976C134.127 111.216 133.972 107.456 133.749 103.7C133.742 103.579 133.554 103.577 133.557 103.7Z" fill="white"/>
<path d="M58.5864 119.246H61.3084C61.3084 119.246 61.3084 116.966 63.6833 116.925C64.9168 116.904 65.556 117.71 65.8163 118.327C66.1179 119.044 66.0267 119.861 65.6223 120.526C65.1606 121.286 64.149 121.976 62.3146 121.654V125.638H65.0058V124.189C65.0058 124.189 68.7802 123.216 68.7802 119.067C68.7802 115.097 65.2109 114.174 63.6833 114.174C62.5152 114.174 58.5348 114.456 58.5864 119.246Z" fill="white"/>
<path d="M65.0379 126.672H62.3066V129.216H65.0379V126.672Z" fill="white"/>
<path d="M226.864 25.7017C226.676 24.8293 225.927 24.2498 225.191 24.4073C224.455 24.5649 224.012 25.3998 224.2 26.2722C224.388 27.1447 225.137 27.7242 225.873 27.5666C226.609 27.4091 227.052 26.5742 226.864 25.7017Z" fill="white"/>
<path d="M225.977 26.033C225.867 25.5231 225.429 25.1844 224.999 25.2765C224.569 25.3685 224.31 25.8565 224.42 26.3663C224.53 26.8762 224.968 27.2149 225.398 27.1229C225.827 27.0308 226.087 26.5428 225.977 26.033Z" fill="#453447"/>
<path d="M226.082 24.3762C226.046 24.3859 226.008 24.3874 225.972 24.3806C225.935 24.3739 225.901 24.359 225.871 24.3372C225.546 24.0982 225.097 24.0129 224.7 24.1146C224.696 24.1155 224.691 24.1167 224.687 24.1179C224.295 24.2226 223.949 24.5106 223.781 24.8721C223.754 24.9302 223.704 24.9757 223.644 24.9986C223.583 25.0215 223.515 25.02 223.456 24.9943C223.397 24.9686 223.351 24.9208 223.328 24.8616C223.305 24.8023 223.308 24.7364 223.335 24.6783C223.569 24.1751 224.03 23.8029 224.581 23.6509C225.127 23.511 225.721 23.6239 226.168 23.953C226.205 23.9798 226.233 24.0161 226.249 24.0579C226.265 24.0997 226.269 24.1452 226.26 24.1893C226.251 24.2334 226.229 24.2743 226.198 24.3074C226.167 24.3404 226.126 24.3642 226.082 24.3762ZM222.275 24.822C222.238 24.8318 222.2 24.8333 222.164 24.8264C222.127 24.8195 222.092 24.8044 222.063 24.7823C221.731 24.5362 221.213 24.5647 220.906 24.8452C220.882 24.8668 220.854 24.8837 220.824 24.895C220.794 24.9062 220.762 24.9116 220.73 24.9107C220.698 24.9098 220.666 24.9027 220.637 24.8899C220.608 24.877 220.581 24.8586 220.56 24.8357C220.538 24.8129 220.521 24.786 220.51 24.7566C220.498 24.7273 220.493 24.6959 220.495 24.6645C220.496 24.6331 220.503 24.6021 220.517 24.5734C220.53 24.5447 220.55 24.5188 220.573 24.4972C221.056 24.0553 221.842 24.0128 222.362 24.3998C222.398 24.4267 222.426 24.4631 222.442 24.5049C222.458 24.5466 222.462 24.592 222.453 24.636C222.443 24.6799 222.422 24.7206 222.391 24.7535C222.359 24.7864 222.319 24.8101 222.275 24.822Z" fill="#F7888A"/>
<path d="M223.1 26.3499C222.912 25.4775 222.163 24.898 221.427 25.0555C220.692 25.2131 220.248 26.048 220.436 26.9204C220.625 27.7927 221.374 28.3722 222.109 28.2147C222.845 28.0572 223.289 27.2223 223.1 26.3499Z" fill="white"/>
<path d="M222.225 26.6826C222.115 26.1727 221.677 25.834 221.247 25.9261C220.817 26.0182 220.558 26.5061 220.668 27.016C220.778 27.5258 221.216 27.8645 221.646 27.7725C222.076 27.6804 222.335 27.1924 222.225 26.6826Z" fill="#453447"/>
<path d="M84.5428 28.4425L90.6231 30.069C90.6231 30.069 91.9924 24.967 97.3222 26.2949C100.09 26.9843 101.034 29.1705 101.245 30.7073C101.488 32.4922 100.793 34.2658 99.4907 35.5126C98.0032 36.9357 95.3292 37.8753 91.4247 36.0582L89.0318 44.9742L95.0435 46.5824L95.9134 43.3413C95.9134 43.3413 104.929 43.4182 107.422 34.1327C109.806 25.2485 102.387 21.0512 98.9746 20.1383C96.3652 19.4403 87.3045 17.6923 84.5428 28.4425Z" fill="#E55D5D"/>
<path d="M94.4978 48.9117L88.3965 47.2795L86.868 52.9745L92.9694 54.6066L94.4978 48.9117Z" fill="#E55D5D"/>
</svg>
