<svg width="245" height="201" viewBox="0 0 245 201" fill="none" xmlns="http://www.w3.org/2000/svg">
<g opacity="0.5">
<path d="M116.042 51.858C116.091 51.858 116.137 51.8291 116.157 51.7809C116.286 51.4738 116.418 51.1685 116.555 50.8651C116.562 50.85 116.566 50.8338 116.566 50.8173C116.567 50.8008 116.564 50.7843 116.558 50.7689C116.553 50.7534 116.544 50.7392 116.533 50.7272C116.521 50.7151 116.508 50.7054 116.493 50.6986C116.478 50.6918 116.462 50.6879 116.446 50.6874C116.429 50.6868 116.413 50.6895 116.397 50.6953C116.382 50.7011 116.368 50.7099 116.356 50.7212C116.344 50.7324 116.334 50.746 116.328 50.761C116.19 51.0668 116.057 51.3744 115.927 51.6837C115.919 51.7028 115.916 51.7236 115.918 51.7442C115.92 51.7648 115.927 51.7846 115.938 51.8019C115.95 51.8191 115.965 51.8333 115.983 51.8431C116.001 51.8529 116.022 51.858 116.042 51.858Z" fill="#5C75C9"/>
</g>
<path d="M161.624 81.3303C165.583 82.8456 170.03 80.8381 171.537 76.8547C173.043 72.8717 171.047 68.3986 167.087 66.8832L166.638 68.0719C169.946 69.3378 171.613 73.0749 170.355 76.4024C169.096 79.7302 165.381 81.4074 162.073 80.1415C158.765 78.8756 157.098 75.1384 158.356 71.8106L157.175 71.3584C155.668 75.3418 157.664 79.815 161.624 81.3303ZM142.706 73.6369C146.448 75.0691 150.651 73.1715 152.075 69.4068C153.499 65.6425 151.612 61.4145 147.87 59.9824C144.128 58.5502 139.925 60.4478 138.501 64.2121C137.077 67.9767 138.963 72.2048 142.706 73.6369ZM147.72 60.3786C151.245 61.7277 153.022 65.71 151.681 69.2561C150.34 72.8022 146.381 74.5898 142.856 73.2407C139.33 71.8916 137.554 67.9089 138.895 64.3628C140.236 60.8167 144.195 59.0295 147.72 60.3786Z" fill="#453447"/>
<path d="M66.6638 12.8466V189.153C66.6638 195.69 71.9324 201 78.4407 201H162.233C168.731 201 174 195.69 174 189.153V12.8466C174 6.29982 168.731 1 162.233 1H78.4407C71.9324 1 66.6638 6.29982 66.6638 12.8466Z" fill="#5C75C9"/>
<path d="M70.3639 12.8476V189.156C70.3639 193.639 73.9805 197.272 78.4416 197.272H162.229C165.443 197.272 168.225 195.378 169.517 192.644C170.014 191.585 170.297 190.411 170.297 189.161V12.8476C170.297 8.36008 166.68 4.72186 162.224 4.72186H129.585C127.891 4.72186 126.341 5.60634 125.378 7.01068C124.285 8.62984 122.442 9.68428 120.33 9.68428C118.229 9.68428 116.381 8.61996 115.278 7.0007C114.324 5.59646 112.774 4.72197 111.085 4.72197H78.4417C75.2225 4.72197 72.4405 6.62106 71.149 9.36442C70.652 10.4189 70.3639 11.5983 70.3639 12.8476Z" fill="white"/>
<path d="M66.6642 68.1469V72.7227C66.9991 72.8333 67.349 72.8885 67.6989 72.8936C68.4537 72.9036 69.1535 72.6572 69.8883 72.5265C70.2781 72.4561 70.758 72.436 71.0479 72.1293C71.9827 71.1338 70.9179 69.4341 70.0932 68.7804C69.4033 68.2374 68.5285 67.9055 67.6538 67.9407C67.314 67.951 66.9791 68.0212 66.6642 68.1469ZM66.6642 47.8177V59.4481C66.8859 59.7064 67.1338 59.9407 67.4039 60.1471C68.2088 60.7605 69.2735 61.0924 70.2383 60.8059C71.0781 60.5545 71.7429 59.8605 72.0977 59.0509C72.4576 58.2465 72.5426 57.3464 72.5027 56.4614C72.3677 53.4797 70.7532 50.6386 68.3638 48.8888C67.8589 48.5216 67.269 48.0641 66.6642 47.8177Z" fill="#231826"/>
<path d="M70.364 17.1108V12.8476C70.364 11.5983 70.6521 10.4189 71.1488 9.36442C72.4405 6.62096 75.2226 4.72186 78.4416 4.72186H111.085C112.774 4.72186 114.324 5.59637 115.278 7.0006C116.381 8.61986 118.229 9.68418 120.331 9.68418C122.442 9.68418 124.285 8.62974 125.378 7.01068C126.342 5.60644 127.891 4.72186 129.585 4.72186H162.224C166.68 4.72186 170.297 8.35998 170.297 12.8476V17.1108H70.364Z" fill="white"/>
<path d="M118.511 5.44984C118.511 6.46294 119.32 7.28563 120.327 7.28563C121.335 7.28563 122.152 6.46294 122.152 5.44984C122.152 4.43653 121.335 3.61404 120.327 3.61404C119.32 3.61404 118.511 4.43643 118.511 5.44984Z" fill="#231826"/>
<path d="M103.725 10.441L104.113 10.0507C103.283 9.21554 102.178 8.75555 101.001 8.75555C99.8236 8.75555 98.7181 9.21554 97.888 10.0505L98.2762 10.4408C99.0026 9.7101 99.9704 9.30768 101.001 9.30768C102.031 9.30768 102.999 9.7102 103.725 10.441Z" fill="#BEC8E9"/>
<path d="M102.948 11.2216L103.336 10.8313C102.047 9.53542 99.9511 9.53521 98.663 10.8311L99.0511 11.2214C100.125 10.1409 101.873 10.1407 102.948 11.2216Z" fill="#BEC8E9"/>
<path d="M99.828 12.0025C100.475 11.3522 101.526 11.3526 102.172 12.0025L102.561 11.6122C102.144 11.1937 101.59 10.963 101 10.963C100.41 10.963 99.8562 11.1936 99.4401 11.6122L99.828 12.0025ZM100.167 13.1811C100.167 13.6449 100.54 14.024 101.002 14.024C101.463 14.024 101.836 13.6449 101.836 13.1811C101.836 12.7173 101.463 12.3419 101.002 12.3419C100.892 12.3418 100.783 12.3635 100.682 12.4056C100.581 12.4478 100.489 12.5096 100.411 12.5875C100.334 12.6655 100.273 12.758 100.231 12.8599C100.189 12.9617 100.167 13.0708 100.167 13.1811ZM80.1943 14.024H88.5297C89.1867 14.024 89.7211 13.4878 89.7211 12.8291V9.95052C89.7211 9.29165 89.1867 8.75555 88.5297 8.75555H80.1943C79.5373 8.75555 79.0029 9.29175 79.0029 9.95052V12.8291C79.0029 13.4878 79.5373 14.024 80.1943 14.024ZM88.5297 9.07683C89.0104 9.07683 89.4018 9.46866 89.4018 9.95052V12.8291C89.4018 13.3109 89.0105 13.7028 88.5297 13.7028H80.1943C79.7135 13.7028 79.3222 13.3109 79.3222 12.8291V9.95052C79.3222 9.46866 79.7135 9.07683 80.1943 9.07683H88.5297Z" fill="#BEC8E9"/>
<path d="M82.7272 9.52663H88.5287C88.7629 9.52663 88.9536 9.71675 88.9536 9.95052V12.8291C88.9536 13.0628 88.7629 13.253 88.5287 13.253H82.7272V9.52663ZM79.1616 10.4967H78.4238V12.2829H79.1616V10.4967ZM96.2138 12.3423V14.024H97.0015V12.9531L96.2138 12.3423ZM95.0578 11.446V14.024H95.8457V12.0568L95.0578 11.446ZM93.9002 10.548V14.024H94.6881V11.1588L93.9002 10.548ZM92.7444 9.65173V14.024H93.5321V10.2625L92.7444 9.65173ZM91.5868 8.75555V14.024H92.3746V9.36625L91.5868 8.75555ZM145.388 11.3897C145.388 11.2081 145.52 11.0529 145.697 11.0189V9.55788H145.836V11.0188C145.923 11.0339 146.001 11.0795 146.058 11.1474C146.114 11.2153 146.145 11.3011 146.145 11.3896C146.144 11.4899 146.104 11.586 146.034 11.657C145.963 11.7279 145.868 11.7679 145.768 11.7682C145.689 11.7682 145.614 11.7417 145.55 11.7L144.873 12.3775L144.775 12.2753L145.452 11.6016C145.411 11.5412 145.388 11.4693 145.388 11.3897Z" fill="#BEC8E9"/>
<path d="M143.022 9.67128C143.022 9.3734 143.264 9.13055 143.554 9.13055C143.761 9.13055 143.939 9.25011 144.029 9.42269L144.03 9.42168C144.496 9.00535 145.102 8.75555 145.768 8.75555C146.434 8.75555 147.04 9.00535 147.503 9.42168L147.503 9.42249C147.593 9.25001 147.77 9.13055 147.972 9.13055C148.115 9.13079 148.251 9.18784 148.352 9.2892C148.453 9.39056 148.51 9.52795 148.51 9.67128C148.51 9.92108 148.333 10.1334 148.097 10.1902C148.287 10.5611 148.387 10.9724 148.387 11.3898C148.387 12.8433 147.213 14.0241 145.768 14.0241C144.323 14.0241 143.146 12.8433 143.146 11.3898C143.146 10.9589 143.251 10.5505 143.435 10.1912C143.2 10.1356 143.022 9.92229 143.022 9.67128ZM145.768 13.6456C147.006 13.6456 148.01 12.635 148.01 11.3898C148.01 10.1447 147.006 9.13408 145.768 9.13408C144.53 9.13408 143.522 10.1447 143.522 11.3898C143.522 12.6351 144.53 13.6456 145.768 13.6456Z" fill="#BEC8E9"/>
<path d="M156.171 10.3594C156.171 10.5203 156.203 10.6796 156.264 10.8282C156.325 10.9768 156.415 11.1119 156.528 11.2256C156.641 11.3394 156.775 11.4296 156.923 11.4911C157.071 11.5526 157.229 11.5841 157.389 11.584C158.057 11.584 158.602 11.0365 158.602 10.3594C158.602 9.68218 158.057 9.1347 157.389 9.1347C156.716 9.1346 156.171 9.68218 156.171 10.3594Z" fill="#FFD05E"/>
<path d="M151.688 12.3288C151.688 13.2653 152.447 14.0241 153.378 14.0241H157.369C158.3 14.0241 159.055 13.2653 159.055 12.3288C159.055 11.3923 158.3 10.6286 157.369 10.6286H157.364C157.298 9.58167 156.434 8.75555 155.374 8.75555C154.314 8.75555 153.45 9.58156 153.383 10.6286H153.378C152.447 10.6286 151.688 11.3923 151.688 12.3288Z" fill="#BEC8E9"/>
<path d="M121.007 110.156C121.399 98.6016 121.616 88.9043 121.688 85.3854H124.039C123.968 88.937 123.758 98.6124 123.37 110.156H121.007Z" fill="white"/>
<path d="M109.433 76.3708L111.65 80.1308C111.815 80.4122 115.818 86.9506 122.713 87.3836C122.909 87.3979 123.105 87.4051 123.301 87.4052C128.882 87.4052 132.527 82.3823 133.833 79.3153L134.17 78.5215C132.125 78.5936 131.193 78.1823 131.193 78.1823L126.845 78.2979C127.006 78.5451 127.184 78.7814 127.376 79.0051C126.415 80.2969 124.922 81.733 123.072 81.6175C120.754 81.4732 118.889 79.9144 117.755 78.6731C117.777 78.6298 117.806 78.5865 117.82 78.536L114.104 78.637C114.104 78.637 113.645 79.5824 112.289 78.9328C111.736 78.673 111.335 77.9803 110.947 77.3668C110.488 76.6306 110.065 76.0099 109.433 76.3708Z" fill="white"/>
<path d="M86.9109 46.7407L91.6845 50.2705C91.6845 50.2705 92.7543 48.9933 94.0441 48.1486C94.0762 48.1251 94.1095 48.1032 94.1439 48.0832C95.4786 47.2334 100.672 44.7647 98.9877 38.1927L94.9137 39.2537C94.9137 39.2537 90.14 39.676 88.8103 42.2203C88.6294 42.5692 88.4545 42.9213 88.2856 43.2762C87.3258 45.2926 86.9109 46.7407 86.9109 46.7407Z" fill="#FDB6B4"/>
<path d="M86.9098 46.7409L91.6834 50.2708C91.6834 50.2708 92.7532 48.9935 94.043 48.1489C93.918 47.4549 93.3581 46.8717 92.7383 46.5097C91.7836 45.9516 90.6888 45.7103 89.814 45.0012C89.2092 44.5135 88.7992 43.8497 88.2845 43.2765C87.3247 45.2928 86.9098 46.7409 86.9098 46.7409Z" fill="#F7888A"/>
<path d="M85.0892 45.4867L86.7305 43.9214L92.9336 50.5032L91.4977 52.1391" fill="#E5E9F6"/>
<path d="M45.5451 185.868C46.4298 186.436 47.6744 187.135 48.974 187.568C51.4583 188.382 53.2229 188.086 54.2775 186.507C54.6725 185.918 55.2173 185.013 55.9471 184.325L56.2921 180.498L56.7319 175.596L56.7969 174.881C56.347 174.892 55.8873 174.887 55.4223 174.876H55.4174C53.5228 174.826 51.5983 174.61 50.5537 174.414C50.2488 174.353 49.9238 174.333 49.5839 174.348C48.5691 174.374 47.4295 174.64 46.4447 174.781L46.4098 175.223L45.8249 182.449L45.5451 185.868Z" fill="#FDB6B4"/>
<path d="M74.6103 195.974C74.1578 198.295 69.1989 202.296 63.2341 200.587C57.2648 198.874 55.7644 198.764 51.8716 198.826C47.9833 198.888 43.5581 197.919 43.2923 194.631C43.1026 192.323 43.6415 188.487 43.9802 186.402C44.0885 185.736 44.8401 185.408 45.4032 185.776C46.2963 186.36 47.6031 187.115 48.976 187.568C51.4607 188.385 53.2271 188.087 54.2811 186.507C55.3347 184.931 57.4692 181.087 61.4109 185.191C65.357 189.299 64.4944 190.659 69.3876 192.647C74.2765 194.639 75.0626 193.657 74.6103 195.974Z" fill="#E55D5D"/>
<path d="M74.6099 195.973C74.1574 198.295 69.1985 202.296 63.2337 200.587C57.2644 198.874 55.764 198.764 51.8711 198.826C47.9829 198.888 43.5576 197.919 43.2919 194.63C43.2161 193.707 43.2585 192.543 43.3571 191.343C43.3605 191.504 43.3691 191.665 43.383 191.825C43.6487 195.114 48.074 196.083 51.9622 196.021C55.8551 195.959 57.3555 196.068 63.3248 197.782C68.4101 199.24 72.7655 196.546 74.2141 194.281C74.7662 194.558 74.8137 194.934 74.6099 195.973Z" fill="#453447"/>
<path d="M43.5089 189.805C44.4743 189.562 45.4765 189.502 46.4429 189.656C47.4059 189.81 48.3431 190.167 49.1048 190.771C49.8776 191.354 50.4518 192.189 50.7797 193.108C51.1081 194.027 51.172 195.057 50.8791 196.017C51.2905 195.096 51.295 194.01 50.9956 193.036C50.697 192.057 50.0913 191.173 49.2843 190.535C48.465 189.917 47.4788 189.54 46.473 189.43C45.4668 189.319 44.4401 189.444 43.5089 189.805ZM76.0742 190.753L75.8166 191.136C75.5621 190.963 75.4271 190.708 75.2964 190.462C75.2297 190.336 75.1669 190.217 75.0913 190.116C74.7502 189.66 74.1061 189.465 73.0669 189.504C72.4278 189.528 71.7769 189.59 71.1475 189.651C70.5975 189.704 70.0289 189.758 69.4654 189.787C68.0944 189.859 67.0016 189.753 66.0516 189.461C65.3377 189.405 64.6794 189.166 64.1623 188.79C63.0281 189.501 61.725 190.163 60.1513 190.83L59.9725 190.404C61.4662 189.771 62.7102 189.144 63.7945 188.475C63.6681 188.348 63.5545 188.209 63.4554 188.059C62.9053 187.225 62.82 186.032 63.2274 184.869C63.5521 183.941 64.1176 183.131 64.6645 182.347L64.8638 182.061C65.3355 181.38 65.8233 180.677 66.5395 180.217C67.2583 179.757 68.3832 179.561 69.1543 180.219C69.6372 180.632 69.8838 181.32 69.8139 182.06C69.7484 182.75 69.4322 183.374 69.1639 183.84C68.8096 184.455 68.3914 185.047 67.9113 185.615C68.0218 185.577 68.1339 185.544 68.2473 185.516C68.6666 185.412 69.2887 185.347 69.8718 185.617C70.4349 185.877 70.8223 186.429 70.8361 186.99C70.8477 187.463 70.6001 187.958 70.1737 188.316C69.7929 188.635 69.3345 188.814 68.9348 188.957C68.4934 189.115 67.9698 189.279 67.4041 189.379C68.0689 189.372 68.8269 189.357 69.4416 189.326C69.995 189.297 70.5586 189.243 71.1037 189.191C71.7397 189.13 72.3972 189.067 73.0497 189.042C73.8063 189.013 74.881 189.065 75.4586 189.838C75.5557 189.968 75.63 190.108 75.7019 190.244C75.811 190.45 75.9141 190.644 76.0742 190.753ZM64.1948 188.221C64.4508 188.055 64.7026 187.883 64.95 187.704C65.6378 187.206 66.2613 186.678 66.8178 186.121L66.8094 186.104L66.8601 186.079C67.6262 185.307 68.2639 184.48 68.7663 183.608C69.0112 183.183 69.2994 182.617 69.3564 182.016C69.4112 181.436 69.2198 180.882 68.8569 180.572C68.6157 180.366 68.3135 180.272 67.9998 180.262C67.576 180.248 67.131 180.387 66.7866 180.608C66.1478 181.017 65.6868 181.682 65.2408 182.325L65.0406 182.613C64.5116 183.371 63.9647 184.155 63.6608 185.022C63.3011 186.049 63.3676 187.089 63.8385 187.803C63.9401 187.956 64.0598 188.097 64.1948 188.221ZM64.5831 188.519C65.008 188.787 65.5289 188.957 66.0918 189C67.0749 189.072 68.0466 188.784 68.781 188.521C69.1432 188.392 69.5569 188.231 69.8796 187.96C70.1991 187.692 70.3848 187.334 70.3767 187.001C70.3671 186.612 70.0873 186.225 69.6799 186.037C69.2164 185.823 68.7041 185.88 68.3562 185.965C67.934 186.068 67.5266 186.263 67.1315 186.459C66.5604 187.029 65.9219 187.57 65.2184 188.079C65.0097 188.23 64.7979 188.377 64.5831 188.519Z" fill="#453447"/>
<path d="M18.528 179.266C19.2478 180.031 20.2926 181.011 21.4521 181.745C23.6667 183.133 25.451 183.274 26.8507 182.002C27.3756 181.524 28.1204 180.775 28.9952 180.282L29.355 179.231L31.7144 172.368L32.0742 171.327C29.8548 170.824 27.3305 169.909 26.1309 169.356C25.0112 168.833 23.3716 168.858 22.052 168.722L21.777 169.547L20.0774 174.625L18.528 179.266Z" fill="#FDB6B4"/>
<path d="M45.8273 182.449C47.9118 183.158 50.2211 183.199 52.3305 182.555C53.3852 182.233 55.0298 181.489 56.2945 180.498L56.7344 175.596C56.3394 175.319 55.8897 175.078 55.4247 174.877H55.4198C53.5253 174.826 51.6008 174.61 50.5561 174.414C50.2512 174.354 49.9262 174.334 49.5863 174.349C48.5116 174.55 47.4468 174.872 46.4122 175.224L45.8273 182.449ZM20.0791 174.625C20.1751 174.772 20.2768 174.914 20.3841 175.053C21.9187 177.049 24.1782 178.467 26.6324 178.985C27.3272 179.131 28.3168 179.241 29.3566 179.231L31.716 172.368C31.5167 172.189 31.3063 172.022 31.0861 171.87C29.2366 170.598 27.0023 170.055 24.8029 169.668C23.8081 169.496 22.7834 169.351 21.7937 169.542C21.7886 169.542 21.7837 169.542 21.7786 169.547L20.0791 174.625Z" fill="#F7888A"/>
<path d="M44.3262 196.102C43.3322 198.246 37.5626 200.931 32.1811 197.83C26.7963 194.723 25.3661 194.254 21.5725 193.373C17.7834 192.493 13.7195 190.482 14.2475 187.226C14.6148 184.94 16.0547 181.347 16.8815 179.405C17.146 178.784 17.9538 178.648 18.4125 179.142C19.1398 179.924 20.2278 180.973 21.4524 181.744C23.669 183.138 25.455 183.276 26.8555 181.997C28.2548 180.723 31.2453 177.508 34.0908 182.444C36.9394 187.386 35.7771 188.497 40.0518 191.61C44.321 194.727 45.3189 193.963 44.3262 196.102Z" fill="#E55D5D"/>
<path d="M44.3257 196.103C43.3317 198.247 37.5621 200.931 32.1806 197.83C26.7958 194.724 25.3656 194.255 21.572 193.373C17.7829 192.493 13.719 190.483 14.247 187.226C14.394 186.312 14.7135 185.192 15.0959 184.051C15.0597 184.214 15.0293 184.373 15.0058 184.525C14.4778 187.782 18.5418 189.792 22.3308 190.672C26.1243 191.554 27.5545 192.023 32.9394 195.129C37.5272 197.774 42.3984 196.213 44.346 194.364C44.8156 194.767 44.7718 195.144 44.3257 196.103Z" fill="#453447"/>
<path d="M15.6104 182.594C16.6055 182.592 17.5928 182.776 18.4939 183.159C19.392 183.541 20.2164 184.114 20.8114 184.885C21.4223 185.638 21.78 186.587 21.8787 187.559C21.978 188.53 21.7937 189.545 21.2801 190.407C21.8997 189.612 22.1633 188.559 22.1055 187.541C22.0496 186.519 21.673 185.514 21.0421 184.7C20.3946 183.901 19.5273 183.298 18.5773 182.947C17.6272 182.596 16.6005 182.469 15.6104 182.594ZM46.9941 191.389L46.6526 191.699C46.4471 191.469 46.3769 191.189 46.3087 190.919C46.2741 190.78 46.2414 190.65 46.1922 190.534C45.9702 190.008 45.3916 189.663 44.3734 189.45C43.7472 189.319 43.1007 189.222 42.4752 189.128C41.9288 189.046 41.3638 188.962 40.8098 188.854C39.462 188.592 38.4265 188.225 37.5742 187.711C36.8947 187.484 36.3126 187.094 35.9005 186.604C34.6298 187.019 33.2067 187.346 31.5197 187.614L31.4479 187.157C33.0492 186.903 34.4066 186.596 35.6189 186.209C35.5266 186.055 35.4497 185.892 35.3893 185.723C35.0548 184.78 35.2571 183.602 35.9304 182.571C36.4671 181.75 37.2098 181.1 37.9278 180.471L38.1898 180.241C38.8102 179.695 39.452 179.13 40.257 178.857C41.0648 178.584 42.2034 178.666 42.7946 179.492C43.1648 180.009 43.2396 180.736 42.995 181.438C42.7666 182.092 42.3106 182.62 41.9388 183.008C41.4478 183.52 40.9004 183.993 40.2987 184.428C40.415 184.418 40.5317 184.413 40.6484 184.413C41.0802 184.414 41.6998 184.501 42.2013 184.904C42.6858 185.293 42.93 185.922 42.8091 186.47C42.7074 186.932 42.3486 187.353 41.8493 187.597C41.4035 187.815 40.9156 187.878 40.4934 187.92C40.0272 187.966 39.4797 187.999 38.9068 187.959C39.5538 188.113 40.2931 188.282 40.8973 188.4C41.4413 188.506 42.0013 188.59 42.543 188.671C43.1748 188.766 43.8281 188.864 44.4674 188.998C45.2088 189.152 46.2394 189.463 46.6154 190.353C46.6786 190.503 46.7172 190.656 46.7547 190.805C46.811 191.031 46.8648 191.245 46.9941 191.389ZM36.068 186.059C36.3562 185.96 36.6419 185.853 36.9248 185.739C37.7114 185.423 38.4429 185.061 39.1161 184.655L39.112 184.637L39.1673 184.624C40.0955 184.06 40.9119 183.412 41.608 182.687C41.9474 182.333 42.3625 181.853 42.5613 181.284C42.7532 180.734 42.6997 180.15 42.4215 179.762C42.2366 179.503 41.9657 179.339 41.6637 179.253C41.2557 179.137 40.7905 179.164 40.4034 179.295C39.6857 179.538 39.0791 180.072 38.4925 180.589L38.2294 180.82C37.5348 181.428 36.8166 182.056 36.3144 182.825C35.7199 183.735 35.5358 184.76 35.8222 185.567C35.8842 185.741 35.9667 185.906 36.068 186.059ZM36.3739 186.442C36.7223 186.805 37.1872 187.096 37.7234 187.274C38.6604 187.581 39.6726 187.537 40.4482 187.459C40.8307 187.421 41.2708 187.365 41.6486 187.181C42.0227 186.998 42.2886 186.695 42.3604 186.37C42.4439 185.99 42.2648 185.547 41.9144 185.265C41.5157 184.946 41.0048 184.877 40.6467 184.876C40.2122 184.874 39.7703 184.964 39.3398 185.06C38.6492 185.475 37.9002 185.845 37.0957 186.169C36.8598 186.264 36.6197 186.355 36.3739 186.442Z" fill="#453447"/>
<path d="M25.1225 89.2508C25.1225 89.2508 23.0118 102.661 24.6439 112.022C26.276 121.383 28.6023 138.659 28.6023 138.659C28.6023 138.659 27.2637 139.567 27.9428 140.858C28.6218 142.148 29.7146 141.996 28.6023 142.907C27.4901 143.818 28.0182 144.046 27.641 146.323C27.2637 148.6 19.5671 169.398 19.718 171.143C19.8689 172.889 22.9626 171.827 24.5472 173.42C26.1319 175.014 28.9992 180.404 31.9421 178.278C34.8849 176.153 44.0907 158.771 46.4297 150.801C48.7689 142.831 49.9762 132.129 49.8254 128.485C49.6746 124.842 53.5312 94.6639 53.5312 94.6639" fill="#FFD05E"/>
<path d="M43.3056 178.017C43.0831 180.61 48.0116 180.722 51.0366 180.271C54.0584 179.82 57.3059 179.657 58.9869 177.628C60.6647 175.601 59.5493 167.875 59.6605 163.368C59.7718 158.861 62.5743 139.367 63.5086 129.902C64.4428 120.438 63.5086 93.1053 63.5086 93.1053L51.4403 94.2655L40.6175 95.3076L40.1694 99.9296L40.6175 110.407L39.8326 129.451L44.0651 157.081C44.0651 157.081 43.5312 175.425 43.3056 178.017Z" fill="#FFD05E"/>
<path d="M27.4575 96.6553L32.4993 92.012C38.8114 94.1712 45.5566 94.6463 51.1394 94.4986C51.7891 94.4813 52.4386 94.4558 53.0877 94.4223C59.2089 94.0948 63.5091 93.1051 63.5091 93.1051C65.0046 83.2817 64.5958 75.2729 63.563 69.1917L63.6682 69.5192C81.4897 81.1497 92.2832 52.4684 92.2832 52.4684L84.8078 44.8704L71.6055 55.9804C71.6055 55.9804 63.9082 42.8804 62.5498 42.6391C61.1963 42.4003 60.5575 41.0364 59.7596 39.8325C58.9642 38.6285 57.5104 39.5075 57.5104 39.5075L42.2086 36.5704C42.2086 36.5704 42.0495 37.2868 41.0754 36.8387C40.1037 36.3906 39.2153 36.0706 38.1311 37.0307C37.0469 37.9933 16.9798 42.7204 14.4099 61.5252C11.8425 80.3323 27.4575 96.6553 27.4575 96.6553Z" fill="#5C75C9"/>
<g opacity="0.1">
<path d="M54.5363 72.8879C55.4673 73.5585 56.3337 74.6039 57.2688 75.0864C58.7329 75.8419 59.5581 74.8222 59.6854 73.5598C59.8833 71.5962 59.1012 69.0873 58.6058 66.7494C57.973 63.7637 57.8022 60.962 58.1019 58.4866C58.2545 57.2256 58.5276 56.0165 58.2423 54.5106C57.957 53.0048 56.941 51.0746 55.4729 49.9724C54.1335 48.9666 52.8001 48.9447 52.0463 49.5241C51.2925 50.1035 50.9986 51.1747 50.7197 52.2216L49.3779 57.2578C49.1805 57.9988 48.9405 58.7815 48.2028 58.9015C47.4651 59.0214 46.0724 58.0591 45.8242 57.0617C45.6935 56.5364 45.9123 56.1681 45.7198 55.6247C45.4088 54.7469 44.2041 54.0694 43.6796 54.328C43.1551 54.5865 43.1396 55.3995 43.21 56.1863C43.2805 56.9732 43.4046 57.83 43.0836 58.3246C42.7625 58.8193 41.783 58.7232 41.1057 57.8979C40.477 57.1317 40.2708 55.9908 39.5126 55.5712C39.0222 55.2998 38.7344 55.6243 38.6499 56.0157C38.2393 57.9177 40.1849 60.9538 40.9299 63.4729C41.4521 65.2391 41.3747 66.759 41.3498 68.273C41.3248 69.787 41.3727 71.4036 42.1102 73.2188C42.8477 75.0341 44.4627 77.0972 46.1141 77.8434C47.8399 78.6232 48.9662 77.7515 49.5523 76.5979C50.3573 75.0137 51.1136 70.4226 54.5363 72.8879Z" fill="#231826"/>
</g>
<g opacity="0.1">
<path d="M45.2299 48.6848C45.2597 49.3087 45.3814 50.0084 45.7693 50.7335C46.1572 51.4586 46.8671 52.2038 47.5005 52.4029C48.3291 52.6632 48.6536 51.9455 48.7179 51.1929C48.8024 50.203 48.8658 48.0355 47.3406 46.9085C45.6325 45.646 45.1755 47.5463 45.2299 48.6848Z" fill="#231826"/>
</g>
<path d="M19.665 85.7029C19.6867 85.7028 19.7079 85.6971 19.7267 85.6862C19.7455 85.6754 19.7612 85.6599 19.7723 85.6411C19.7833 85.6224 19.7894 85.6011 19.7898 85.5793C19.7902 85.5575 19.785 85.536 19.7746 85.5168C19.4562 84.9296 19.1482 84.3367 18.8511 83.7383C18.8362 83.7085 18.8102 83.6859 18.7788 83.6754C18.7474 83.6648 18.7131 83.6671 18.6834 83.6818C18.6217 83.7128 18.5967 83.7884 18.6275 83.8503C18.9259 84.4517 19.2353 85.0476 19.5555 85.6377C19.5662 85.6574 19.582 85.674 19.6013 85.6854C19.6206 85.6969 19.6426 85.7029 19.665 85.7029ZM17.8806 82.1036C17.9015 82.1036 17.9221 82.0984 17.9404 82.0884C17.9588 82.0784 17.9744 82.0639 17.9857 82.0463C17.9971 82.0286 18.0038 82.0084 18.0054 81.9875C18.0069 81.9665 18.0033 81.9455 17.9947 81.9264C17.7208 81.3168 17.4592 80.7017 17.2102 80.0815C17.1841 80.0167 17.1119 79.9857 17.0473 80.0122C16.9834 80.0383 16.9523 80.1114 16.9783 80.1758C17.2286 80.7989 17.4915 81.417 17.7667 82.0295C17.7765 82.0516 17.7926 82.0703 17.8128 82.0835C17.833 82.0966 17.8565 82.1036 17.8806 82.1036ZM16.3851 78.3731C16.4051 78.3732 16.4249 78.3684 16.4426 78.3592C16.4604 78.35 16.4757 78.3366 16.4873 78.3202C16.4988 78.3038 16.5063 78.2848 16.5091 78.2649C16.5118 78.245 16.5098 78.2247 16.5031 78.2057C16.2811 77.5754 16.0734 76.9402 15.88 76.3004C15.8599 76.2337 15.7914 76.1988 15.724 76.2165C15.6581 76.2366 15.6208 76.3068 15.6408 76.3731C15.8352 77.0165 16.044 77.6553 16.2673 78.2892C16.2759 78.3137 16.2919 78.3349 16.313 78.3499C16.3341 78.3649 16.3593 78.3731 16.3851 78.3731ZM15.2263 74.5258C15.2453 74.5259 15.264 74.5215 15.2811 74.5132C15.2982 74.5048 15.3131 74.4926 15.3248 74.4776C15.3365 74.4625 15.3446 74.445 15.3486 74.4263C15.3525 74.4076 15.3521 74.3882 15.3475 74.3697C15.1857 73.7221 15.0405 73.0705 14.9121 72.4154C14.9055 72.3827 14.8865 72.354 14.859 72.3355C14.8315 72.3169 14.7979 72.31 14.7654 72.3162C14.6977 72.3294 14.6536 72.3957 14.6671 72.4634C14.7962 73.1228 14.9422 73.7788 15.1049 74.4306C15.1117 74.4578 15.1273 74.482 15.1493 74.4992C15.1713 74.5165 15.1984 74.5258 15.2263 74.5258ZM14.4569 70.5837C14.4629 70.5837 14.4686 70.5832 14.4745 70.5827C14.5073 70.5779 14.537 70.5602 14.5569 70.5336C14.5769 70.5069 14.5855 70.4733 14.5809 70.4402C14.4885 69.7791 14.415 69.1154 14.3602 68.45C14.3543 68.3808 14.2902 68.3238 14.2255 68.3351C14.2092 68.3364 14.1932 68.341 14.1786 68.3485C14.164 68.356 14.1511 68.3664 14.1404 68.379C14.1298 68.3916 14.1218 68.4061 14.1168 68.4219C14.1118 68.4376 14.1099 68.4541 14.1113 68.4706C14.1663 69.1409 14.2403 69.8095 14.3334 70.4755C14.3375 70.5055 14.3523 70.533 14.375 70.5528C14.3978 70.5727 14.4268 70.5837 14.4569 70.5837ZM14.1323 66.5802H14.135C14.1681 66.5796 14.1996 66.5657 14.2226 66.5416C14.2455 66.5176 14.258 66.4854 14.2573 66.4521C14.2524 66.2218 14.25 65.9915 14.25 65.7603C14.25 65.3213 14.259 64.8798 14.2771 64.4487C14.2785 64.4153 14.2667 64.3827 14.2442 64.3582C14.2217 64.3336 14.1905 64.3189 14.1573 64.3175C14.0919 64.3067 14.0303 64.3686 14.0272 64.4378C13.9997 65.1105 13.9931 65.7839 14.0075 66.457C14.0081 66.4899 14.0215 66.5212 14.0449 66.5443C14.0682 66.5673 14.0996 66.5802 14.1323 66.5802ZM14.2998 62.563C14.3306 62.563 14.3603 62.5515 14.3832 62.5307C14.4061 62.51 14.4206 62.4814 14.4238 62.4506C14.4561 62.1474 14.4928 61.8447 14.5339 61.5426C14.5829 61.1839 14.6389 60.8262 14.702 60.4697C14.7078 60.4369 14.7005 60.4031 14.6815 60.3758C14.6626 60.3484 14.6337 60.3298 14.601 60.3239C14.5849 60.3208 14.5683 60.321 14.5522 60.3245C14.5361 60.3279 14.5208 60.3346 14.5073 60.3441C14.4938 60.3535 14.4823 60.3656 14.4735 60.3796C14.4647 60.3936 14.4588 60.4092 14.456 60.4255C14.3924 60.7852 14.3358 61.1462 14.2864 61.5083C14.2446 61.8142 14.2075 62.1191 14.1753 62.4241C14.1718 62.4573 14.1816 62.4905 14.2024 62.5164C14.2232 62.5424 14.2534 62.559 14.2864 62.5626C14.2908 62.563 14.2952 62.563 14.2998 62.563ZM15.003 58.6111C15.0307 58.611 15.0576 58.6017 15.0795 58.5847C15.1014 58.5676 15.117 58.5438 15.1241 58.5168C15.2894 57.8715 15.4799 57.233 15.695 56.6027C15.7003 56.5871 15.7025 56.5706 15.7015 56.5541C15.7005 56.5376 15.6963 56.5215 15.6891 56.5067C15.6819 56.4919 15.6718 56.4786 15.6595 56.4677C15.6472 56.4568 15.6328 56.4484 15.6173 56.4431C15.6018 56.4377 15.5854 56.4355 15.569 56.4365C15.5526 56.4375 15.5366 56.4418 15.5218 56.449C15.5071 56.4563 15.4939 56.4664 15.4831 56.4788C15.4723 56.4912 15.4639 56.5056 15.4587 56.5212C15.2414 57.1577 15.049 57.8024 14.8819 58.454C14.8772 58.4726 14.8768 58.492 14.8806 58.5108C14.8845 58.5296 14.8926 58.5472 14.9043 58.5623C14.9159 58.5775 14.9309 58.5898 14.948 58.5982C14.9651 58.6067 14.9839 58.6111 15.003 58.6111ZM16.3017 54.8158C16.3498 54.8158 16.3956 54.7878 16.4161 54.7402C16.6816 54.1296 16.9715 53.5301 17.285 52.943C17.2928 52.9285 17.2977 52.9126 17.2993 52.8962C17.3009 52.8798 17.2993 52.8632 17.2946 52.8474C17.2899 52.8316 17.2821 52.817 17.2717 52.8042C17.2613 52.7915 17.2485 52.7809 17.234 52.7731C17.2196 52.7652 17.2038 52.7603 17.1874 52.7586C17.1711 52.7569 17.1546 52.7584 17.1389 52.7632C17.1231 52.768 17.1085 52.7758 17.0958 52.7863C17.0831 52.7968 17.0726 52.8097 17.0649 52.8243C16.748 53.4172 16.4552 54.0228 16.1872 54.6396C16.1739 54.6702 16.1733 54.7048 16.1854 54.7359C16.1974 54.767 16.2213 54.792 16.2516 54.8055C16.2675 54.8122 16.2845 54.8157 16.3017 54.8158ZM18.1901 51.2789C18.2311 51.2789 18.2711 51.2587 18.295 51.2214C18.6547 50.6613 19.0359 50.1154 19.4375 49.5848C19.4475 49.5717 19.4548 49.5567 19.459 49.5407C19.4632 49.5248 19.4642 49.5081 19.462 49.4917C19.4598 49.4754 19.4545 49.4596 19.4462 49.4453C19.4379 49.431 19.4269 49.4185 19.4139 49.4085C19.3874 49.3886 19.3542 49.38 19.3215 49.3845C19.2887 49.389 19.2591 49.4063 19.2389 49.4326C18.8332 49.9681 18.4483 50.5193 18.0851 51.0849C18.0729 51.1039 18.0661 51.1258 18.0652 51.1484C18.0644 51.171 18.0696 51.1934 18.0803 51.2133C18.0911 51.2331 18.1069 51.2497 18.1262 51.2612C18.1456 51.2728 18.1676 51.2789 18.1901 51.2789ZM20.6081 48.0817C20.6426 48.0817 20.677 48.0675 20.7016 48.0395C21.142 47.5401 21.5996 47.0564 22.0738 46.5895C22.0856 46.5779 22.0949 46.5642 22.1014 46.549C22.1078 46.5338 22.1113 46.5175 22.1114 46.501C22.1116 46.4845 22.1086 46.4681 22.1025 46.4528C22.0964 46.4375 22.0873 46.4235 22.0758 46.4117C22.0526 46.388 22.021 46.3745 21.9879 46.3741C21.9548 46.3737 21.9229 46.3866 21.8992 46.4098C21.4209 46.8811 20.9592 47.369 20.5148 47.8726C20.4987 47.8907 20.4882 47.9131 20.4845 47.937C20.4808 47.961 20.4841 47.9855 20.4939 48.0076C20.5038 48.0298 20.5198 48.0485 20.5401 48.0617C20.5604 48.0748 20.584 48.0818 20.6081 48.0817ZM23.4602 45.2656C23.4889 45.2656 23.518 45.2558 23.5414 45.2351C24.0458 44.8001 24.5632 44.3806 25.0927 43.977C25.1058 43.9671 25.1168 43.9546 25.1251 43.9404C25.1334 43.9261 25.1389 43.9104 25.1411 43.8941C25.1434 43.8777 25.1424 43.8611 25.1382 43.8451C25.1341 43.8291 25.1269 43.8141 25.117 43.801C25.1071 43.7878 25.0947 43.7768 25.0805 43.7684C25.0664 43.7601 25.0507 43.7546 25.0345 43.7524C25.0182 43.7501 25.0017 43.7511 24.9858 43.7552C24.9699 43.7594 24.955 43.7667 24.9419 43.7766C24.4083 44.1833 23.8871 44.6061 23.3789 45.0445C23.3595 45.0612 23.3456 45.0835 23.3392 45.1083C23.3328 45.1332 23.3341 45.1594 23.3429 45.1835C23.3518 45.2076 23.3678 45.2284 23.3887 45.2431C23.4097 45.2577 23.4346 45.2656 23.4602 45.2656ZM26.646 42.8344C26.6702 42.8344 26.6943 42.8275 26.7159 42.8128C27.2677 42.4399 27.8293 42.0818 28.4 41.7389C28.4141 41.7305 28.4264 41.7193 28.4362 41.706C28.4459 41.6928 28.453 41.6777 28.457 41.6617C28.461 41.6457 28.4618 41.6291 28.4594 41.6127C28.457 41.5964 28.4514 41.5807 28.443 41.5666C28.426 41.5379 28.3984 41.5172 28.3663 41.509C28.3342 41.5008 28.3001 41.5058 28.2716 41.5228C27.6973 41.8686 27.132 42.2293 26.5763 42.6046C26.554 42.6195 26.5371 42.6413 26.5281 42.6667C26.5191 42.6921 26.5185 42.7198 26.5263 42.7455C26.5341 42.7713 26.55 42.7939 26.5716 42.8099C26.5931 42.8259 26.6192 42.8345 26.646 42.8344ZM30.078 40.7646C30.0981 40.7646 30.1183 40.7597 30.1371 40.7499C30.7239 40.4343 31.3176 40.1319 31.9179 39.843C31.9478 39.8285 31.9708 39.8027 31.9818 39.7712C31.9928 39.7397 31.991 39.7051 31.9767 39.675C31.9622 39.6451 31.9366 39.6221 31.9053 39.6111C31.8741 39.6 31.8398 39.6018 31.8099 39.616C31.2063 39.9067 30.6092 40.2108 30.0189 40.5279C29.9944 40.5412 29.9751 40.5624 29.9638 40.588C29.9526 40.6136 29.9502 40.6423 29.957 40.6694C29.9638 40.6966 29.9794 40.7207 30.0013 40.7379C30.0232 40.7551 30.0502 40.7646 30.078 40.7646ZM33.6859 39.0205C33.7026 39.0205 33.7194 39.017 33.7354 39.0102C34.3472 38.7445 34.9632 38.4887 35.5831 38.2426C35.5983 38.2366 35.6122 38.2276 35.624 38.2161C35.6358 38.2046 35.6452 38.1909 35.6517 38.1758C35.6583 38.1606 35.6617 38.1444 35.662 38.1279C35.6623 38.1114 35.6593 38.095 35.6533 38.0796C35.6473 38.0643 35.6383 38.0503 35.6269 38.0384C35.6155 38.0266 35.6019 38.0171 35.5868 38.0106C35.5718 38.004 35.5556 38.0005 35.5392 38.0002C35.5228 37.9999 35.5065 38.0029 35.4913 38.009C34.8689 38.2559 34.2505 38.5127 33.6363 38.7794C33.5729 38.807 33.5438 38.8811 33.5712 38.945C33.581 38.9674 33.597 38.9865 33.6174 38.9999C33.6378 39.0133 33.6616 39.0204 33.6859 39.0205ZM37.4039 37.5149C37.4198 37.5149 37.4359 37.512 37.4512 37.5056C37.551 37.4643 37.6418 37.426 37.7236 37.3906C37.7868 37.3631 37.8159 37.289 37.7885 37.2251C37.7612 37.1612 37.6882 37.1323 37.624 37.1598C37.5437 37.1952 37.4543 37.2325 37.3565 37.2727C37.3298 37.2838 37.3077 37.3039 37.2941 37.3295C37.2804 37.3552 37.276 37.3848 37.2816 37.4133C37.2872 37.4419 37.3024 37.4676 37.3247 37.4861C37.347 37.5046 37.375 37.5148 37.4039 37.5149Z" fill="#453447"/>
<path d="M31.6292 98.3161C31.6392 99.1306 31.6992 99.9452 31.8691 100.735C32.1441 102.017 32.7539 103.264 33.7637 104.084C36.013 101.705 38.0225 98.6681 39.877 95.2137C39.8569 95.0176 39.8119 94.8316 39.742 94.6455C39.4621 93.9215 38.8322 93.3783 38.1324 93.0465C37.6775 92.8303 37.1927 92.6946 36.6978 92.5838C36.4334 92.5294 36.1685 92.4775 35.9031 92.428L31.6493 96.6065C31.6342 97.1746 31.6193 97.7478 31.6292 98.3161Z" fill="#FDB6B4"/>
<path d="M56.9211 14.367C59.3244 14.2026 61.588 12.7039 62.7188 10.5698C62.8189 10.381 63.0893 10.381 63.1925 10.5681C63.7977 11.6647 64.0267 12.9702 63.8188 14.2079C63.583 15.6119 62.7876 16.9127 61.6484 17.7576C62.5646 17.1561 63.623 16.6399 64.5761 16.0605C64.7615 15.9478 64.9951 16.0943 64.984 16.312C64.8932 18.0946 64.2606 19.8478 63.1861 21.2691C62.0081 22.8274 60.3063 23.9773 58.4268 24.485C56.9019 24.8969 55.2746 24.898 53.7975 25.4586C52.4388 25.9742 51.2631 26.964 50.5193 28.2185C49.956 29.1685 49.6347 30.2596 48.7642 31.0229C48.5506 31.2102 48.3045 31.3632 48.0362 31.4545C46.6536 31.9251 45.631 30.7876 44.8443 29.7674C44.1493 28.8663 43.4475 27.9539 42.9861 26.9122C42.5247 25.8705 42.3205 24.67 42.6587 23.5813C42.8154 23.077 43.083 22.6107 43.2115 22.0984C43.34 21.5861 43.2982 20.9801 42.9168 20.6168" fill="#453447"/>
<path d="M48.2966 41.9788C50.75 42.6316 53.5759 42.2074 55.6718 40.8736C55.8635 40.7511 56.0504 40.6212 56.232 40.4841L57.5098 39.5091C56.1582 39.2711 55.3177 39.272 55.3177 39.272L43.6783 36.1665C43.6783 36.1665 42.9429 36.1875 42.2065 36.5721L42.2893 36.7654C43.3744 39.3209 45.6201 41.2699 48.2966 41.9788Z" fill="white"/>
<path d="M43.6823 36.1673C44.577 38.2741 46.4765 39.9232 48.681 40.5066C50.8854 41.0949 53.5046 40.6575 55.3191 39.2747C54.9442 38.6412 54.6293 37.9272 54.4243 37.1829C54.2194 36.4488 54.1144 35.6946 54.1445 34.9655C54.1544 34.9655 54.1695 34.9705 54.1796 34.9705C55.7841 35.2421 57.4936 34.7693 58.7333 33.7134C59.9779 32.6575 60.6678 30.9981 60.6678 29.3639C60.7027 29.7563 61.2575 29.9523 61.5925 29.741C61.9373 29.5248 62.0473 29.0522 61.9673 28.6499C61.8874 28.2526 61.6575 27.8957 61.4574 27.5438C60.6027 26.0654 60.1178 24.3809 60.0377 22.6714C60.0179 22.2187 59.7028 21.8367 59.2581 21.7512C58.1532 21.535 57.0237 21.3388 55.929 21.1126C55.1792 20.9568 54.4042 20.8058 53.6545 20.9568C52.8247 21.1227 52.105 21.6507 51.5501 22.2943C50.9953 22.933 50.7954 23.8933 50.3955 24.6425C50.1654 24.2755 49.8706 23.9386 49.4907 23.7273C49.1158 23.5212 48.641 23.4557 48.2461 23.6218C47.9111 23.7626 47.6612 24.0492 47.4712 24.3609C46.7064 25.628 47.0364 27.368 48.071 28.4288C47.9061 31.5261 46.2616 34.4778 43.6823 36.1673Z" fill="#FDB6B4"/>
<path d="M58.9363 33.6399C59.0057 33.6399 59.0676 33.5903 59.0813 33.5191C59.085 33.5 59.0849 33.4803 59.081 33.4612C59.0771 33.4421 59.0694 33.4239 59.0585 33.4078C59.0477 33.3916 59.0337 33.3778 59.0175 33.3671C59.0013 33.3564 58.9832 33.349 58.9642 33.3453C57.6893 33.0983 56.5159 32.2906 55.8249 31.1842C55.8147 31.1676 55.8012 31.1532 55.7854 31.1418C55.7696 31.1304 55.7516 31.1223 55.7327 31.118C55.7137 31.1136 55.6941 31.1131 55.6749 31.1165C55.6557 31.1198 55.6374 31.127 55.6211 31.1376C55.552 31.1813 55.531 31.273 55.5745 31.3423C56.3084 32.5169 57.5547 33.3748 58.9081 33.637C58.9175 33.639 58.927 33.6399 58.9363 33.6399Z" fill="#F7888A"/>
<path d="M55.9711 26.6791C56.5895 27.6626 57.6871 28.0802 58.422 27.6125C58.51 27.5572 58.5902 27.49 58.6603 27.4129C59.0966 26.9402 59.1631 26.121 58.8227 25.3475C58.7682 25.2224 58.7042 25.1016 58.6314 24.9863C58.0143 24.0049 56.9167 23.5874 56.184 24.0537C55.4492 24.5213 55.354 25.6978 55.9711 26.6791Z" fill="white"/>
<path d="M57.2961 26.7088C57.6383 27.253 58.2065 27.5304 58.6603 27.4127C59.0966 26.94 59.1631 26.1208 58.8227 25.3473C58.4124 24.9034 57.8371 24.7475 57.4346 25.0036C56.9575 25.3072 56.8959 26.0725 57.2961 26.7088ZM57.0697 22.3869C55.9876 22.6582 55.024 23.2588 54.324 24.0627L54.4996 24.2444C55.2809 23.6 56.2421 23.2188 57.1969 23.1439L57.0697 22.3869Z" fill="#453447"/>
<path d="M50.1973 8.16291C49.8493 7.75898 49.4428 7.39366 48.9582 7.1742C48.4737 6.95465 47.9027 6.89315 47.4086 7.08993C46.8647 7.30656 46.4592 7.84054 46.3945 8.42552C46.3297 9.0105 46.6085 9.62098 47.0918 9.95274" fill="#AC4646"/>
<path d="M42.2961 23.0989C43.0166 23.1664 43.1016 22.5457 43.2777 22.0559C43.4971 21.4358 44.0526 21.0401 44.5737 20.6249C45.7888 19.6527 47.1484 18.8788 48.6027 18.3318C50.0981 17.7688 51.6748 17.4535 53.2028 16.9845C54.7275 16.5148 56.2447 15.8666 57.4007 14.7571C58.5581 13.6497 59.3027 12.009 59.0138 10.4278C58.6612 8.49828 56.8215 7.0895 54.8973 6.77821C52.9696 6.46622 51.0033 7.07076 49.2609 7.95453C46.7896 9.21109 44.595 11.0658 43.101 13.4114C41.6071 15.757 40.8415 18.5988 41.1396 21.3669C41.2194 22.1202 41.5491 23.0281 42.2961 23.0989Z" fill="#E55D5D"/>
<path d="M59.0375 55.2368C59.4839 56.4144 59.8855 57.5824 60.2859 58.7512C60.675 59.9232 61.059 61.0931 61.418 62.2722C61.6013 62.8607 61.7866 63.4487 61.9538 64.043C62.1476 64.63 62.2974 65.2291 62.4859 65.82L63.0203 67.6051C63.2064 68.2004 63.3755 68.8008 63.5977 69.395C63.5889 68.1328 63.4621 66.8788 63.2456 65.641C63.0411 64.3999 62.7312 63.1793 62.3721 61.9735C61.9864 60.7758 61.5521 59.5915 61.0054 58.4555C60.4611 57.3222 59.8447 56.21 59.0375 55.2368Z" fill="#231826"/>
<path d="M51.1406 94.4986C51.8078 94.4825 52.4593 94.4538 53.0884 94.4218C55.6877 76.6691 54.4992 58.6094 49.5613 40.7353L47.7247 41.2499C52.6436 59.0473 53.7017 76.8257 51.1406 94.4986Z" fill="white"/>
<path d="M37.2144 87.6668C36.6075 84.6477 35.8627 81.6685 35.0979 78.695C34.316 75.7265 33.4938 72.7696 32.6212 69.8272L32.5782 70.1997C33.1044 69.2491 33.588 68.2827 34.0774 67.3163C34.5689 66.3518 35.0217 65.3669 35.4756 64.3829C35.9153 63.392 36.3481 62.3969 36.7239 61.3764C37.091 60.3587 37.4735 59.3205 37.5781 58.234C37.3028 59.2809 36.8025 60.2395 36.3402 61.2085C35.8573 62.1695 35.3631 63.125 34.85 64.071C34.3493 65.0234 33.818 65.9599 33.3061 66.9064L31.7344 69.7236L31.6369 69.8984L31.6914 70.0963C32.5066 73.0552 33.374 75.9988 34.2783 78.9319C35.198 81.8605 36.1373 84.7835 37.2144 87.6668Z" fill="#231826"/>
<path d="M36.3244 88.4885L38.0488 90.452L30.536 97.5485L28.6021 95.6022" fill="#E5E9F6"/>
<path d="M30.4464 105.29C31.0963 105.467 31.8147 105.399 32.4745 105.184C33.1348 104.968 33.7527 104.586 34.2799 104.142C35.3541 103.233 36.1201 102.115 36.8992 101.036C37.2797 100.485 37.6398 99.9213 37.996 99.3549C38.3359 98.7782 38.6767 98.2023 38.9849 97.6079C39.609 96.4241 40.1701 95.2057 40.5605 93.913C40.1381 94.4432 39.7616 94.9886 39.3949 95.5427L38.2949 97.193L37.1917 98.8327C36.8312 99.3833 36.4557 99.9233 36.0815 100.464C35.3288 101.544 34.6143 102.656 33.7571 103.574C32.8985 104.478 31.7913 105.208 30.4464 105.29Z" fill="#EAAB2D"/>
<path d="M52.4551 103.293C51.7098 107.793 51.0405 112.303 50.4684 116.828C50.1706 119.089 49.9151 121.355 49.6732 123.626C49.5543 124.765 49.4555 125.905 49.3769 127.048L49.334 127.918L49.335 128.797C49.3485 129.348 49.3281 129.912 49.3027 130.473C49.2096 132.724 48.9676 134.985 48.6875 137.235C48.4162 139.488 48.0598 141.73 47.6674 143.966C47.2605 146.199 46.8017 148.423 46.2271 150.618C45.6705 152.812 44.8571 154.945 44.0659 157.081C45.0659 155.033 45.9711 152.937 46.6974 150.757C47.3896 148.576 47.9563 146.356 48.4326 144.119C49.3747 139.64 50.0525 135.112 50.301 130.516C50.3229 129.939 50.3404 129.363 50.3222 128.774L50.3154 127.944L50.3512 127.107C50.4168 125.98 50.5201 124.848 50.613 123.715C50.8001 121.449 51.0349 119.183 51.2409 116.915C51.6815 112.381 52.0933 107.84 52.4551 103.293Z" fill="#231826"/>
<path d="M99.813 31.0268L92.715 42.3588C92.6632 42.4415 92.6281 42.5337 92.6118 42.6301C92.5954 42.7264 92.5981 42.8251 92.6196 42.9204C92.6412 43.0157 92.6812 43.1059 92.7374 43.1856C92.7936 43.2654 92.8648 43.3332 92.9471 43.3853L94.3283 44.2598C94.4105 44.3119 94.5022 44.3472 94.598 44.3637C94.6938 44.3801 94.7919 44.3774 94.8866 44.3558C94.9814 44.3341 95.071 44.2938 95.1503 44.2373C95.2296 44.1808 95.297 44.1091 95.3488 44.0263L102.447 32.6943C102.499 32.6116 102.534 32.5194 102.55 32.4231C102.566 32.3267 102.564 32.228 102.542 32.1327C102.521 32.0374 102.481 31.9473 102.424 31.8675C102.368 31.7877 102.297 31.7199 102.215 31.6678L100.833 30.7933C100.751 30.7412 100.66 30.7059 100.564 30.6895C100.468 30.673 100.37 30.6757 100.275 30.6974C100.18 30.719 100.091 30.7593 100.011 30.8158C99.9322 30.8724 99.8647 30.944 99.813 31.0268Z" fill="#453447"/>
<path d="M32.8302 105.323C32.8656 109.875 32.8941 114.428 32.9106 118.98C32.9266 123.418 32.9093 127.857 32.9085 132.295C32.9077 136.735 32.9594 141.175 32.9569 145.615C32.9546 149.837 32.718 154.144 31.3544 158.172C30.1527 161.722 28.1395 164.99 25.5 167.64C25.1813 167.96 24.8524 168.268 24.5183 168.572C24.2493 168.816 23.93 168.351 24.194 168.109C26.932 165.597 29.0881 162.417 30.4353 158.946C31.9586 155.022 32.2879 150.82 32.3717 146.646C32.4594 142.273 32.4073 137.896 32.4145 133.523C32.4218 129.107 32.4191 124.69 32.4457 120.274C32.4722 115.855 32.4975 111.436 32.5151 107.017C32.5174 106.442 32.5191 105.867 32.5201 105.293C32.5203 105.091 32.8286 105.123 32.8302 105.323Z" fill="white"/>
<path d="M33.9183 175.581C34.2264 174.968 33.9786 174.172 33.4418 173.774C32.7912 173.292 32.0169 173.692 31.3593 173.944C30.7594 174.173 30.0783 174.332 29.5125 173.927C29.0738 173.613 28.9252 173.094 28.807 172.593C28.6802 172.054 28.6327 171.495 28.4442 170.972C28.2156 170.338 27.746 170.027 27.081 170.029C26.432 170.031 25.7216 170.214 25.0938 169.978C24.4657 169.742 24.2376 169.138 24.0099 168.552C23.8866 168.235 23.7375 167.839 23.4231 167.665C22.9768 167.417 22.4717 167.749 22.0612 167.917C21.5213 168.139 20.5452 168.124 20.4413 167.371C20.4114 167.154 20.7162 167.052 20.7788 167.277C21.0107 168.114 22.4581 167.234 22.9311 167.196C23.576 167.144 23.9662 167.586 24.2017 168.133C24.321 168.41 24.418 168.698 24.5623 168.964C24.7496 169.308 25.1112 169.52 25.4912 169.577C26.1627 169.677 26.8415 169.472 27.5123 169.618C28.8426 169.909 28.9232 171.275 29.1407 172.389C29.2433 172.915 29.4534 173.513 30.0052 173.705C30.7319 173.958 31.5263 173.376 32.2167 173.216C32.8848 173.061 33.5235 173.218 33.9719 173.761C34.4339 174.32 34.568 175.122 34.1729 175.752C34.0649 175.924 33.8318 175.752 33.9183 175.581ZM59.4015 174.53C59.1992 173.743 58.4439 173.371 57.6716 173.538C56.8553 173.714 56.2141 174.307 55.4854 174.678C54.8238 175.014 54.0319 175.229 53.3165 174.931C52.7786 174.707 52.4072 174.252 52.0931 173.777C51.5743 172.991 50.9794 171.531 49.7821 171.963C49.0727 172.218 48.6436 172.92 48.2707 173.532C47.8973 174.145 47.4947 174.796 46.8497 175.153C45.6634 175.81 44.0432 175.373 43.3611 174.195C43.1734 173.871 43.6647 173.574 43.8581 173.896C44.5587 175.061 46.2292 175.177 47.1205 174.191C47.6594 173.594 47.958 172.822 48.4983 172.228C49.0392 171.632 49.7992 171.172 50.6242 171.394C51.6849 171.679 52.0914 172.869 52.6711 173.678C53.0409 174.194 53.5077 174.583 54.1786 174.539C55.0335 174.483 55.7548 173.901 56.481 173.504C57.1299 173.15 57.8667 172.895 58.596 173.147C59.1539 173.34 59.739 173.863 59.6068 174.513C59.5872 174.61 59.4296 174.64 59.4015 174.53ZM45.111 112.349C45.3346 114.598 45.3913 116.871 45.2376 119.126C45.1611 120.252 45.0389 121.374 44.8715 122.49C44.7082 123.576 44.5338 124.693 44.1388 125.722C44.079 125.878 43.8686 125.782 43.8809 125.638C43.979 124.486 44.2529 123.348 44.42 122.205C44.5739 121.152 44.6874 120.095 44.7602 119.034C44.9125 116.816 44.9076 114.594 44.7184 112.378C44.6965 112.123 45.0858 112.096 45.111 112.349ZM60.3108 97.9907C61.4344 103.563 62.0163 109.216 62.106 114.901C62.1315 116.511 62.1462 118.135 61.9913 119.74C61.9725 119.935 61.6953 119.92 61.6908 119.726C61.6286 116.944 61.6904 114.165 61.5567 111.384C61.4169 108.48 61.1562 105.587 60.7994 102.702C60.6067 101.143 60.3951 99.5854 60.1416 98.0355C60.1235 97.9255 60.2881 97.8782 60.3108 97.9907ZM32.1676 182.472C31.6107 182.048 30.8768 181.874 30.1926 182.029C29.8948 182.097 29.6163 182.233 29.3682 182.41C29.1234 182.585 28.9264 182.932 28.6167 182.972C28.5476 182.981 28.4599 182.911 28.4481 182.842C28.3825 182.464 28.8269 182.148 29.099 181.964C29.4213 181.747 29.785 181.601 30.1669 181.534C30.9624 181.395 31.7913 181.634 32.3965 182.17C32.5764 182.33 32.3636 182.622 32.1676 182.472ZM23.4713 184.518C22.4556 184.281 21.5206 183.873 20.659 183.282C20.2447 182.998 19.8549 182.681 19.496 182.329C19.3079 182.144 19.1234 181.947 18.9629 181.737C18.8159 181.545 18.593 181.263 18.5417 181.022C18.5134 180.89 18.6569 180.797 18.7688 180.861C18.9714 180.977 19.1408 181.214 19.3066 181.378C19.4284 181.498 19.5449 181.624 19.6662 181.745C20.1604 182.237 20.6907 182.694 21.2752 183.077C21.982 183.54 22.758 183.939 23.5585 184.208C23.73 184.266 23.6499 184.56 23.4713 184.518ZM37.1966 192.197C37.7721 192.838 37.7556 193.872 37.1854 194.516C36.4092 195.393 35.111 195.113 34.241 194.555C33.7471 194.238 33.302 193.851 32.8303 193.503C32.3702 193.164 31.8974 192.843 31.4131 192.541C30.4307 191.925 29.3988 191.385 28.327 190.946C27.7307 190.701 27.1238 190.483 26.5082 190.292C25.8297 190.083 25.1316 189.941 24.4569 189.72C24.1751 189.628 24.3285 189.208 24.5987 189.239C25.6151 189.356 26.6204 189.686 27.5808 190.031C28.5367 190.375 29.4692 190.782 30.3722 191.249C31.274 191.715 32.1436 192.242 32.9699 192.833C33.7984 193.426 34.6464 194.36 35.707 194.476C36.1879 194.529 36.6655 194.379 36.9201 193.945C37.1723 193.514 37.1675 192.921 36.8561 192.523C36.673 192.289 36.9899 191.966 37.1966 192.197ZM59.9406 186.258C59.742 185.905 59.4603 185.654 59.0571 185.572C58.659 185.491 58.2598 185.603 57.9191 185.815C57.5722 186.031 57.29 186.341 57.0773 186.69C56.9574 186.886 56.8552 187.094 56.7632 187.305C56.6472 187.57 56.5573 187.847 56.3595 188.065C56.238 188.199 55.9822 188.149 55.9681 187.948C55.9298 187.403 56.2638 186.803 56.5508 186.355C56.8547 185.881 57.2453 185.47 57.7475 185.208C58.2478 184.947 58.84 184.888 59.3728 185.079C59.824 185.241 60.2724 185.608 60.384 186.095C60.4456 186.365 60.0724 186.491 59.9406 186.258ZM51.7781 189.274C50.646 189.508 49.4811 189.535 48.3399 189.347C47.7923 189.256 47.2449 189.123 46.7243 188.928C46.2182 188.739 45.5407 188.512 45.1669 188.104C45.0786 188.008 45.1409 187.827 45.2882 187.862C45.7667 187.974 46.2168 188.277 46.6806 188.448C47.2798 188.669 47.8963 188.844 48.5266 188.946C49.5904 189.119 50.6741 189.099 51.7315 188.892C51.9745 188.844 52.0172 189.224 51.7781 189.274ZM66.5466 193.546C67.5591 193.53 68.9919 193.807 68.9324 195.123C68.8678 196.555 67.2306 197.029 66.066 197.144C63.1003 197.438 60.4203 195.769 57.6413 195.041C56.8625 194.837 56.0596 194.702 55.2531 194.701C54.4617 194.7 53.7439 194.92 52.9827 195.096C52.7398 195.153 52.5643 194.842 52.788 194.688C53.7832 194.004 55.2224 194.02 56.3742 194.174C57.6163 194.34 58.8185 194.733 59.9882 195.172C61.2329 195.64 62.475 196.139 63.7808 196.409C64.993 196.66 66.5278 196.77 67.6465 196.125C68.1532 195.833 68.6515 195.124 68.2076 194.562C67.8418 194.099 67.0958 194.086 66.5593 194.069C66.2274 194.058 66.2095 193.552 66.5466 193.546ZM56.9837 149.853C57.5008 151.69 57.7349 153.592 57.665 155.5C57.6308 156.435 57.5272 157.365 57.3549 158.284C57.1722 159.257 56.9155 160.305 56.4498 161.182C56.3604 161.351 56.1458 161.201 56.1778 161.047C56.3783 160.08 56.6871 159.14 56.874 158.167C57.048 157.262 57.1537 156.344 57.1904 155.423C57.2629 153.596 57.0725 151.76 56.6202 149.99C56.5587 149.75 56.9151 149.609 56.9837 149.853ZM18.2566 61.9487C18.1193 62.8392 17.9971 63.7322 17.852 64.6213C17.72 65.4301 17.5565 66.2429 17.4689 67.058C17.4028 67.674 17.4312 68.47 18.082 68.761C18.3084 68.8622 18.6176 68.901 18.8107 68.7108C19.0004 68.5239 18.9531 68.2238 18.8262 68.0151C18.4713 67.4311 17.7289 67.6729 17.353 68.0993C16.9042 68.6082 16.8604 69.342 16.8623 69.9898C16.8666 71.453 17.0738 72.9206 17.4538 74.3323C17.8906 75.9549 18.6301 77.4208 19.3004 78.9491C19.4028 79.1826 19.0886 79.4458 18.913 79.2199C17.7966 77.7838 17.1676 75.9194 16.7647 74.1569C16.5581 73.2571 16.4174 72.3434 16.3439 71.423C16.2762 70.5677 16.198 69.6315 16.405 68.7899C16.5855 68.0554 17.0588 67.3716 17.8149 67.1621C18.4649 66.982 19.1342 67.2854 19.3882 67.9251C19.6186 68.5052 19.3699 69.1908 18.7336 69.3491C18.0387 69.5221 17.3218 69.0175 17.0939 68.3709C16.7766 67.4706 17.1093 66.4264 17.2772 65.5285C17.5047 64.3116 17.744 63.0973 17.98 61.882C18.0155 61.7001 18.2844 61.7686 18.2566 61.9487ZM79.7358 66.8353C78.8465 67.358 77.958 67.8831 77.0632 68.3965C76.3467 68.8074 75.5624 69.3772 74.7239 69.4761C74.0776 69.5523 73.3143 69.2468 73.1277 68.5659C72.9687 67.986 73.3376 67.3852 73.8365 67.1134C74.379 66.8178 75.0044 66.967 75.4336 67.393C75.9198 67.8756 76.0807 68.5876 75.8734 69.2382C75.3679 70.8251 73.5616 71.1389 72.1247 71.0094C71.2147 70.9275 70.3231 70.7027 69.4824 70.3429C69.0669 70.1655 68.6753 69.954 68.3017 69.6985C67.9312 69.4449 67.5232 69.1812 67.2852 68.7924C67.178 68.6173 67.3573 68.4322 67.5373 68.5054C67.8232 68.6218 68.0646 68.8073 68.3265 68.9708C68.6232 69.1562 68.9337 69.3136 69.2471 69.4677C69.7993 69.7393 70.371 69.9575 70.9675 70.1092C72.0575 70.3862 73.4841 70.5869 74.4919 69.9549C74.9526 69.666 75.3598 69.1877 75.3675 68.6153C75.3749 68.0656 74.9281 67.4217 74.3295 67.4778C73.8914 67.5188 73.4544 68.0696 73.6571 68.5055C73.9115 69.0526 74.6689 68.9995 75.1339 68.8319C75.8465 68.5753 76.5056 68.1271 77.1777 67.7805C77.9802 67.3668 78.7813 66.9505 79.5851 66.5392C79.7529 66.4533 79.8983 66.7398 79.7358 66.8353ZM63.4323 47.2189C63.1358 46.5968 62.7475 46.0234 62.2806 45.518C62.0562 45.2767 61.8171 45.0497 61.5647 44.8383C61.312 44.6256 61.0202 44.4578 60.7784 44.2344C60.6522 44.1177 60.7534 43.8878 60.9319 43.9583C61.2633 44.089 61.5577 44.3212 61.8343 44.5439C62.1171 44.7717 62.3784 45.0248 62.6197 45.2964C63.0952 45.8317 63.4914 46.4333 63.7961 47.0824C63.9034 47.3102 63.5394 47.4435 63.4323 47.2189ZM37.1887 41.4201C35.691 41.6992 34.267 42.2599 32.9696 43.0627C32.3235 43.4625 31.7179 43.9276 31.1606 44.4452C30.613 44.9537 30.1502 45.6013 29.5578 46.0538C29.4599 46.1286 29.3006 46.0066 29.3434 45.8914C29.6115 45.1705 30.2498 44.5575 30.8007 44.0459C31.3694 43.5179 31.9896 43.0469 32.645 42.6334C34.0062 41.7747 35.5297 41.2256 37.1133 40.9682C37.3683 40.9267 37.4451 41.3723 37.1887 41.4201ZM61.7955 79.9259C62.1862 81.551 62.5219 83.2151 62.6358 84.8858C62.6924 85.7019 62.7178 86.5198 62.7119 87.3377C62.7056 88.1049 62.7213 88.9112 62.5258 89.6586C62.3675 90.2639 62.0199 90.8284 61.4342 91.0922C60.9167 91.3253 60.3174 91.2439 59.9162 90.8329C59.5579 90.466 59.4088 89.9415 59.052 89.5764C58.4427 88.9529 57.8567 89.8309 57.644 90.3551C57.4264 90.8917 57.1608 91.6027 56.5099 91.7075C55.9857 91.7919 55.3788 91.4425 55.5062 90.8522C55.5501 90.6489 55.8679 90.7182 55.8578 90.9179C55.8451 91.1696 56.0903 91.2956 56.3095 91.3143C56.5889 91.338 56.7896 91.1652 56.9442 90.9476C57.271 90.4878 57.3697 89.9028 57.7613 89.4816C58.0466 89.1747 58.4781 88.9859 58.8883 89.134C59.2648 89.2699 59.4999 89.6214 59.7097 89.9421C59.9958 90.3793 60.333 90.8727 60.9297 90.7422C61.6902 90.576 62.0269 89.8418 62.133 89.1334C62.3353 87.7815 62.2905 86.3425 62.2213 84.9817C62.1351 83.2873 61.9931 81.6079 61.6492 79.9441C61.6294 79.8494 61.7736 79.8348 61.7955 79.9259ZM52.3475 8.73969C53.2946 8.02739 54.6431 8.02537 55.6251 8.67507C56.5785 9.30572 56.9672 10.4727 56.7526 11.5763C56.6438 12.136 56.3774 12.6614 55.9843 13.0725C55.5044 13.5744 54.834 13.826 54.1729 13.9793C53.447 14.1478 52.7051 14.2298 51.9865 14.4329C51.3242 14.6201 50.6808 14.8772 50.069 15.1935C49.3946 15.5423 48.7609 15.9752 48.1809 16.4663C47.9006 16.7038 47.634 16.9572 47.3826 17.2255C47.1023 17.5247 46.8594 17.9094 46.4934 18.1012C46.3431 18.18 46.1553 18.067 46.192 17.8876C46.3117 17.302 46.902 16.8059 47.32 16.4082C47.7666 15.9833 48.2455 15.595 48.758 15.2531C49.7852 14.5681 50.9214 14.065 52.1174 13.7654C53.2736 13.4753 54.7364 13.5858 55.6299 12.6617C56.342 11.9252 56.5191 10.6721 56.0066 9.7775C55.3335 8.6029 53.6262 8.29745 52.5326 9.02528C52.3489 9.14766 52.1743 8.86993 52.3475 8.73969ZM48.3418 7.89513C47.8913 7.8035 47.3616 8.03919 47.1393 8.42538C47.1117 8.47316 47.0876 8.53324 47.0517 8.57488C46.981 8.65703 46.825 8.66308 46.7831 8.54836C46.725 8.3898 46.8522 8.22366 46.9465 8.11005C47.1106 7.91406 47.3263 7.76843 47.5687 7.68979C47.8496 7.59967 48.1375 7.61751 48.4071 7.73344C48.5025 7.77447 48.4336 7.91378 48.3418 7.89513ZM62.3604 12.9161C62.5018 13.5725 62.498 14.2272 62.3033 14.8714C62.2135 15.1715 62.0869 15.4592 61.9266 15.7278C61.7959 15.9456 61.574 16.3471 61.303 16.3914C61.1999 16.4083 61.1115 16.3159 61.1223 16.2143C61.1382 16.0656 61.267 15.9382 61.3561 15.8229C61.4444 15.7093 61.5263 15.5908 61.6014 15.468C61.7528 15.2195 61.8766 14.9549 61.9706 14.6792C62.1574 14.1287 62.2429 13.5249 62.166 12.9472C62.149 12.8205 62.3335 12.7918 62.3604 12.9161ZM63.9217 17.8734C63.7951 18.4898 63.571 19.0723 63.211 19.5886C63.0508 19.8184 62.8708 20.0335 62.673 20.2316C62.453 20.4518 62.1988 20.6864 61.8988 20.777C61.7726 20.8151 61.6394 20.7079 61.6411 20.5779C61.6422 20.5226 61.6643 20.4697 61.703 20.4304C61.7282 20.4056 61.7593 20.3878 61.7934 20.3786C61.8285 20.3692 61.8655 20.3694 61.9005 20.3791L61.7091 20.4196C61.7285 20.3891 61.7513 20.3609 61.7771 20.3357C61.8012 20.3123 61.8268 20.2907 61.8539 20.271C61.9069 20.231 61.9591 20.1901 62.0106 20.1482C62.1373 20.0445 62.2591 19.9348 62.3756 19.8196C62.558 19.6391 62.7243 19.4428 62.8726 19.2331C63.187 18.7884 63.442 18.2983 63.5817 17.7699C63.6409 17.545 63.9673 17.6512 63.9217 17.8734ZM45.7363 22.0056C45.0613 22.5995 44.6067 23.4432 44.5049 24.3424C44.4511 24.8161 44.4913 25.2959 44.6232 25.754C44.6943 25.9991 44.7936 26.2306 44.9054 26.4592C45.0455 26.7458 45.2332 27.0041 45.3657 27.2922C45.4259 27.4228 45.2455 27.5768 45.1264 27.4968C44.6295 27.1628 44.3194 26.5028 44.1619 25.9403C44.0115 25.403 43.9577 24.8363 44.0345 24.282C44.1767 23.2548 44.689 22.3277 45.4718 21.6551C45.6865 21.4706 45.9473 21.82 45.7363 22.0056Z" fill="white"/>
<path d="M50.4599 32.5058C50.6449 33.8937 51.3647 35.2111 52.4344 36.1112C53.0143 36.5989 53.6991 36.9659 54.4238 37.1821C54.2189 36.448 54.114 35.6938 54.144 34.9647C54.154 34.9647 54.1691 34.9697 54.1791 34.9697C52.8944 34.2205 51.6545 33.3909 50.4599 32.5058ZM31.6299 98.3159C31.7948 98.2556 31.9599 98.1852 32.1098 98.1048C33.6444 97.3203 34.9189 96.0532 35.7638 94.5498C36.0737 93.9966 36.4286 93.3028 36.6985 92.5836C36.4341 92.5293 36.1692 92.4774 35.9038 92.4279L31.65 96.6063C31.635 97.1745 31.62 97.7477 31.6299 98.3159Z" fill="#F7888A"/>
<path d="M52.1046 136.932C52.7999 136.624 53.6367 136.746 54.2359 137.21C54.8287 137.67 55.1418 138.442 55.0527 139.188C55.0422 139.275 54.9529 139.321 54.8767 139.277C54.4612 139.035 53.9868 138.916 53.5073 138.92C53.2596 138.922 53.0134 138.958 52.7754 139.027C52.5205 139.102 52.2972 139.242 52.049 139.329C51.9623 139.36 51.9031 139.241 51.9623 139.18C52.1531 138.983 52.4479 138.879 52.7054 138.805C52.9592 138.733 53.2214 138.693 53.4853 138.689C54.0169 138.679 54.541 138.816 55.0009 139.084L54.8249 139.173C54.9146 138.481 54.636 137.747 54.075 137.323C53.5311 136.911 52.7977 136.839 52.164 137.062C52.079 137.092 52.0192 136.969 52.1046 136.932ZM66.8942 137.721C67.7528 137.518 68.6753 137.763 69.3045 138.392C69.9329 139.02 70.2059 139.978 70.0056 140.845C69.981 140.952 69.8401 141.027 69.7611 140.919C69.2987 140.29 68.4572 139.967 67.6991 140.185C66.9104 140.411 66.4645 141.092 66.2765 141.856C66.2512 141.959 66.0877 141.962 66.0837 141.845C66.0526 140.94 66.839 140.108 67.6813 139.898C68.528 139.687 69.4603 140.04 69.975 140.743L69.7306 140.818C69.9081 140.058 69.7348 139.238 69.218 138.645C68.6601 138.005 67.7521 137.72 66.9277 137.879C66.8256 137.899 66.7931 137.745 66.8942 137.721Z" fill="#231826"/>
<path d="M98.7208 190.973C98.7208 191.46 98.9209 191.908 99.2408 192.23C99.5607 192.552 100.006 192.753 100.49 192.753H140.17C141.15 192.753 141.939 191.953 141.939 190.973C141.939 190.48 141.744 190.033 141.425 189.711C141.105 189.389 140.66 189.193 140.17 189.193H100.49C99.5157 189.193 98.7208 189.987 98.7208 190.973Z" fill="#BEC8E9"/>
<path d="M120.405 130.317C136.308 130.317 149.2 117.371 149.2 101.402C149.2 85.4319 136.308 72.486 120.405 72.486C104.501 72.486 91.6094 85.4319 91.6094 101.402C91.6094 117.371 104.501 130.317 120.405 130.317Z" fill="#4E7BD6"/>
<path d="M111.687 105.422L114.122 113.783L115.162 114.73L130.853 94.4185L129.792 93.5903L110.391 101.402L111.687 105.422Z" fill="#C6D8E9"/>
<path d="M119.141 105.974C118.953 105.974 115.654 107.236 115.654 107.236L115.04 114.488C115.021 114.719 115.291 114.856 115.465 114.704L120.956 109.879L119.141 105.974Z" fill="#A9C9DD"/>
<path d="M129.717 114.774C130.926 109.467 133.658 97.0118 134.843 91.6008C135.087 90.488 134.004 89.5475 132.943 89.9497L104.192 100.842C103.105 101.254 103.156 102.815 104.267 103.154L111.687 105.422L128.614 94.458C129.061 94.1718 129.493 94.6582 129.125 95.0101L115.654 107.236L127.109 115.743C128.072 116.459 129.45 115.946 129.717 114.774Z" fill="#EDF6FB"/>
<path d="M19.8276 26.6724C25.9979 24.2824 29.0625 17.3428 26.6724 11.1724C24.2824 5.00206 17.3428 1.93753 11.1724 4.32759C5.00206 6.71765 1.93753 13.6572 4.32759 19.8276C6.71765 25.9979 13.6572 29.0625 19.8276 26.6724Z" fill="white"/>
<path d="M27.4824 15.5002C27.4824 15.5002 27.4738 15.4344 27.4649 15.3064C27.4563 15.1732 27.4444 14.9839 27.4288 14.7376C27.4214 14.6122 27.4132 14.4724 27.4039 14.3187C27.3879 14.1655 27.3551 13.9992 27.328 13.8184C27.2993 13.6376 27.2685 13.443 27.2353 13.2354C27.2104 13.026 27.1327 12.8132 27.0791 12.5822C26.8682 11.6566 26.4355 10.5629 25.7525 9.40366C25.0639 8.24929 24.0706 7.04322 22.718 6.01943C22.548 5.89294 22.3761 5.76497 22.2023 5.63513C22.0212 5.51646 21.8303 5.40746 21.6417 5.29139C21.449 5.18202 21.2667 5.04884 21.0603 4.95509C20.856 4.85725 20.6496 4.75829 20.4412 4.65822C20.3367 4.60874 20.2318 4.55889 20.1265 4.50904C20.0168 4.46924 19.9066 4.42906 19.7958 4.38851C19.5744 4.30778 19.3505 4.22631 19.125 4.1441C18.897 4.06895 18.6585 4.02021 18.4227 3.95623C18.1842 3.90228 17.9498 3.81821 17.7013 3.79291C17.2084 3.72297 16.7106 3.62141 16.1947 3.61844C15.9376 3.60951 15.6787 3.58458 15.4179 3.58868C15.1571 3.60207 14.8941 3.61583 14.6292 3.62923C14.4972 3.63853 14.3636 3.63741 14.2312 3.65489L13.8339 3.71591C13.5686 3.7598 13.2989 3.79105 13.0325 3.84611C12.5069 3.98897 11.9622 4.09573 11.4444 4.31225C10.9102 4.48337 10.4076 4.74713 9.89086 4.99489C9.63937 5.13142 9.39831 5.29028 9.14906 5.43797C9.02741 5.51609 8.8972 5.58231 8.78114 5.67048L8.4307 5.93312C7.9467 6.26533 7.52335 6.68087 7.07991 7.08116C6.87902 7.30214 6.67739 7.5246 6.47464 7.74781L6.32248 7.91559L6.18558 8.09676L5.91289 8.46171L5.63909 8.82815L5.39914 9.21988L5.15956 9.61421L5.0394 9.81213L4.93747 10.0205C4.80317 10.2991 4.6685 10.5792 4.53309 10.8601C4.42595 11.1529 4.31806 11.4468 4.21018 11.7418C3.82179 12.9371 3.61272 14.2064 3.59561 15.498C3.61272 16.7904 3.82105 18.0601 4.20943 19.2558C4.31769 19.5508 4.4252 19.845 4.53234 20.1378C4.66776 20.419 4.80243 20.6988 4.93672 20.9778L5.03828 21.1861L5.15844 21.3841L5.39802 21.7784L5.6376 22.1705L5.91141 22.5369L6.18409 22.9019L6.32062 23.083L6.47278 23.2508C6.67553 23.474 6.87753 23.6965 7.07805 23.9179C7.52149 24.3181 7.94484 24.7341 8.42921 25.0663L8.78002 25.3289C8.89609 25.4171 9.02629 25.4837 9.14831 25.5614C9.39719 25.7091 9.63863 25.868 9.89011 26.0045C10.4068 26.2523 10.9091 26.5164 11.4437 26.6871C11.9615 26.9037 12.5061 27.01 13.0322 27.1533C13.2989 27.2083 13.5686 27.2396 13.8339 27.2835L14.2312 27.3445C14.3636 27.362 14.4972 27.3612 14.6292 27.3702C14.8941 27.3839 15.1567 27.3973 15.4179 27.4111C15.6787 27.4152 15.9376 27.3899 16.1947 27.3813C16.711 27.3783 17.2088 27.2768 17.7017 27.2068C17.9502 27.1815 18.1846 27.0975 18.423 27.0435C18.6589 26.9792 18.8974 26.9308 19.1254 26.8557C19.3512 26.7734 19.5748 26.692 19.7961 26.6112C19.907 26.5707 20.0171 26.5309 20.1269 26.4907C20.2322 26.4409 20.3374 26.391 20.4416 26.3415C20.6499 26.2415 20.8564 26.1425 21.0606 26.0447C21.2671 25.9509 21.4498 25.8177 21.6421 25.7084C21.8307 25.5919 22.0219 25.4833 22.2027 25.3646C22.3764 25.2352 22.5483 25.1068 22.7183 24.9803C24.0714 23.9565 25.0643 22.7505 25.7529 21.5957C26.4355 20.4365 26.8685 19.3428 27.0791 18.4172C27.133 18.1862 27.2108 17.9738 27.2353 17.764C27.2685 17.556 27.2993 17.3618 27.328 17.181C27.3548 17.0002 27.3875 16.8339 27.4039 16.6807C27.4128 16.527 27.4214 16.3875 27.4288 16.2621C27.4444 16.0159 27.4567 15.8269 27.4649 15.6933C27.4738 15.5661 27.4824 15.5002 27.4824 15.5002C27.4824 15.5002 27.4842 15.5661 27.4805 15.6944C27.4757 15.828 27.4686 16.0177 27.4593 16.2647C27.4541 16.3909 27.4481 16.5307 27.4418 16.6851C27.4281 16.8391 27.3975 17.0062 27.373 17.1881C27.3462 17.37 27.3176 17.5657 27.2871 17.7748C27.2644 17.9857 27.1885 18.2 27.1368 18.4325C26.9336 19.3647 26.5066 20.4681 25.8262 21.6396C25.1398 22.8063 24.1446 24.0272 22.7838 25.0659C22.6127 25.1942 22.4401 25.3241 22.2648 25.4554C22.0826 25.5759 21.8902 25.6864 21.7005 25.8047C21.5067 25.9159 21.3225 26.051 21.1146 26.1462C20.9088 26.2459 20.7009 26.3464 20.4907 26.4483C20.3854 26.4985 20.2798 26.5491 20.1734 26.6001C20.0629 26.641 19.9517 26.6819 19.8397 26.7228C19.6161 26.8051 19.3907 26.888 19.1626 26.9717C18.9327 27.0487 18.692 27.0986 18.4535 27.1641C18.2128 27.2191 17.9762 27.3047 17.7251 27.3311C17.2274 27.4033 16.724 27.5071 16.2025 27.5112C15.9428 27.5208 15.6809 27.5465 15.4172 27.5431C15.1534 27.5301 14.8874 27.5171 14.6199 27.5037C14.4864 27.4948 14.351 27.4959 14.2174 27.4784L13.8156 27.4174C13.5474 27.3735 13.2743 27.3426 13.0046 27.2872C12.4723 27.144 11.9209 27.0365 11.3968 26.8185C10.8559 26.6462 10.3466 26.3802 9.82389 26.1299C9.56906 25.9922 9.32465 25.8319 9.07242 25.6827C8.94891 25.6038 8.81722 25.5365 8.69966 25.4476L8.34439 25.1823C7.85407 24.8464 7.42477 24.4264 6.97574 24.0213C6.77225 23.7977 6.56764 23.5726 6.36229 23.3468L6.2079 23.1772L6.06914 22.9941L5.79273 22.6251L5.51521 22.2542L5.27228 21.8576L5.02973 21.4585L4.90808 21.2583L4.80503 21.0474C4.66887 20.765 4.53234 20.4815 4.39507 20.197C4.28644 19.9005 4.17707 19.6025 4.06732 19.3037C3.67373 18.0932 3.46205 16.8068 3.44531 15.4984C3.46243 14.1904 3.67447 12.9047 4.06807 11.6945C4.17781 11.3958 4.28681 11.0982 4.39581 10.8017C4.53309 10.5171 4.66962 10.234 4.80577 9.95163L4.90919 9.74107L5.03084 9.54093L5.2734 9.14176L5.5167 8.74519L5.79422 8.37429L6.07063 8.00525L6.20939 7.82221L6.3634 7.65258C6.56876 7.42676 6.77337 7.20206 6.97686 6.97848C7.42588 6.57336 7.85519 6.15372 8.3455 5.81779L8.70078 5.55255C8.81834 5.46363 8.95003 5.3963 9.07354 5.31743C9.32577 5.16826 9.57018 5.00792 9.82464 4.87027C10.3477 4.6199 10.8566 4.35428 11.3975 4.18167C11.9221 3.96404 12.473 3.85653 13.0054 3.7133C13.2751 3.65787 13.5481 3.62699 13.8164 3.5831L14.2181 3.52246C14.3521 3.50497 14.4871 3.50609 14.6207 3.49716C14.8885 3.48414 15.1541 3.47075 15.4179 3.45773C15.6817 3.45438 15.9432 3.48005 16.2028 3.48972C16.7244 3.49418 17.2278 3.5976 17.7251 3.66978C17.9762 3.69619 18.2128 3.78138 18.4535 3.83681C18.6916 3.90228 18.9323 3.95213 19.1626 4.02877C19.3903 4.11247 19.6161 4.19543 19.8397 4.27765C19.9513 4.31894 20.0625 4.35986 20.1734 4.40041C20.2798 4.45138 20.3854 4.5016 20.4911 4.5522C20.7013 4.65376 20.9092 4.75457 21.1149 4.85427C21.3233 4.94951 21.507 5.08455 21.7009 5.19578C21.891 5.31371 22.0829 5.4242 22.2652 5.54474C22.4401 5.67606 22.6134 5.80589 22.7842 5.93424C24.145 6.97253 25.1402 8.19349 25.8265 9.3605C26.5073 10.5324 26.9344 11.6357 27.1375 12.568C27.1892 12.8005 27.2651 13.0148 27.2878 13.2257C27.3183 13.4348 27.347 13.6305 27.3737 13.8124C27.3983 13.9943 27.4288 14.1614 27.4426 14.3154C27.4489 14.4698 27.4548 14.61 27.46 14.7361C27.4693 14.9831 27.4764 15.1729 27.4813 15.3064C27.4842 15.4344 27.4824 15.5002 27.4824 15.5002Z" fill="#263238"/>
<path d="M11.2348 13.4479H13.5112C13.5112 13.4479 13.5112 11.5365 15.4973 11.5022C16.5289 11.4844 17.0635 12.1603 17.2812 12.6778C17.5334 13.279 17.4571 13.9639 17.119 14.5215C16.7328 15.158 15.8868 15.7365 14.3527 15.4664V18.8068H16.6033V17.5925C16.6033 17.5925 19.7599 16.7763 19.7599 13.2976C19.7599 9.96916 16.7748 9.19574 15.4973 9.19574C14.5204 9.19574 11.1916 9.43197 11.2348 13.4479Z" fill="#E55D5D"/>
<path d="M16.6299 19.6737H14.3457V21.8072H16.6299V19.6737Z" fill="#E55D5D"/>
<path d="M28.0236 26.711C28.0236 27.721 27.2048 28.5402 26.1944 28.5402C25.184 28.5402 24.3652 27.7214 24.3652 26.711C24.3652 25.701 25.184 24.8818 26.1944 24.8818C27.2048 24.8818 28.0236 25.701 28.0236 26.711Z" fill="white"/>
<path d="M28.023 26.7107C28.007 26.7115 28.0126 26.5478 27.9374 26.2714C27.8626 26.0002 27.677 25.6036 27.2682 25.2993C26.8731 24.9939 26.2232 24.8239 25.5945 25.0582C25.2849 25.1706 24.9899 25.3819 24.7805 25.6732C24.5651 25.9608 24.4442 26.3298 24.4405 26.7104C24.4442 27.0909 24.5651 27.46 24.7805 27.7479C24.9899 28.0396 25.2849 28.2509 25.5945 28.3632C26.2232 28.5976 26.8731 28.4272 27.2682 28.1222C27.677 27.8179 27.8626 27.4213 27.937 27.1501C28.0126 26.8737 28.007 26.71 28.023 26.7107C28.0282 26.7107 28.0312 26.7509 28.0323 26.8283C28.0349 26.9053 28.026 27.0203 27.9943 27.1646C27.9348 27.4488 27.7577 27.8729 27.3333 28.2074C26.9233 28.5422 26.2291 28.7401 25.5472 28.4946C25.2117 28.377 24.8902 28.1508 24.6611 27.8361C24.426 27.5255 24.2924 27.1241 24.2891 26.7107C24.2924 26.2978 24.426 25.8964 24.6611 25.5861C24.8899 25.2714 25.2113 25.0452 25.5468 24.9277C26.2284 24.6821 26.9226 24.8801 27.3329 25.2145C27.7577 25.5486 27.9348 25.973 27.9943 26.2573C28.026 26.4012 28.0349 26.5162 28.0323 26.5936C28.0312 26.6706 28.0282 26.7107 28.023 26.7107Z" fill="#263238"/>
<path d="M205.984 84.4844C193.843 79.7814 187.813 66.1261 192.516 53.9844C197.219 41.8428 210.874 35.8126 223.016 40.5156C235.157 45.2186 241.187 58.8739 236.484 71.0156C231.781 83.1572 218.126 89.1875 205.984 84.4844Z" fill="white"/>
<path d="M190.924 62.5005C190.924 62.5005 190.941 62.3709 190.958 62.1191C190.975 61.857 190.999 61.4844 191.029 60.9998C191.044 60.7531 191.06 60.4779 191.078 60.1755C191.11 59.874 191.174 59.5467 191.228 59.191C191.284 58.8352 191.345 58.4523 191.41 58.0439C191.459 57.6317 191.612 57.213 191.717 56.7584C192.133 54.9371 192.984 52.785 194.328 50.504C195.683 48.2325 197.637 45.8592 200.299 43.8447C200.634 43.5958 200.972 43.344 201.314 43.0885C201.67 42.855 202.046 42.6405 202.417 42.4121C202.796 42.1969 203.155 41.9348 203.561 41.7503C203.963 41.5578 204.369 41.3631 204.779 41.1662C204.985 41.0688 205.191 40.9707 205.398 40.8726C205.614 40.7943 205.831 40.7152 206.049 40.6354C206.485 40.4766 206.925 40.3163 207.369 40.1545C207.818 40.0066 208.287 39.9107 208.751 39.7848C209.22 39.6787 209.681 39.5132 210.17 39.4635C211.14 39.3258 212.12 39.126 213.135 39.1201C213.641 39.1026 214.151 39.0535 214.664 39.0616C215.177 39.0879 215.694 39.115 216.216 39.1414C216.475 39.1597 216.738 39.1575 216.999 39.1919L217.781 39.3119C218.303 39.3983 218.833 39.4598 219.357 39.5681C220.392 39.8492 221.464 40.0593 222.483 40.4854C223.534 40.8221 224.523 41.3411 225.539 41.8287C226.034 42.0973 226.509 42.4099 226.999 42.7005C227.239 42.8542 227.495 42.9845 227.723 43.158L228.413 43.6748C229.365 44.3285 230.198 45.1462 231.071 45.9339C231.466 46.3687 231.863 46.8065 232.262 47.2457L232.561 47.5758L232.831 47.9323L233.367 48.6504L233.906 49.3715L234.378 50.1423L234.849 50.9183L235.086 51.3077L235.286 51.7177C235.551 52.266 235.816 52.8172 236.082 53.3699C236.293 53.946 236.505 54.5243 236.718 55.1048C237.482 57.4568 237.893 59.9545 237.927 62.4961C237.893 65.0392 237.483 67.5376 236.719 69.8903C236.506 70.4708 236.294 71.0499 236.084 71.626C235.817 72.1794 235.552 72.7299 235.288 73.2789L235.088 73.6888L234.852 74.0783L234.38 74.8542L233.909 75.6258L233.37 76.3468L232.833 77.065L232.565 77.4215L232.265 77.7516C231.866 78.1908 231.469 78.6286 231.074 79.0641C230.202 79.8518 229.369 80.6702 228.416 81.3239L227.725 81.8407C227.497 82.0142 227.241 82.1453 227.001 82.2983C226.511 82.5889 226.036 82.9015 225.541 83.1701C224.524 83.6576 223.536 84.1774 222.484 84.5134C221.465 84.9394 220.393 85.1488 219.358 85.4306C218.833 85.539 218.303 85.6004 217.781 85.6868L216.999 85.8069C216.738 85.8413 216.475 85.8398 216.216 85.8574C215.694 85.8845 215.178 85.9108 214.664 85.9379C214.151 85.946 213.641 85.8962 213.135 85.8794C212.119 85.8735 211.14 85.6737 210.17 85.536C209.681 85.4863 209.22 85.3208 208.75 85.2147C208.286 85.088 207.817 84.9929 207.368 84.845C206.924 84.6832 206.484 84.5229 206.048 84.364C205.83 84.2843 205.614 84.2059 205.398 84.1269C205.19 84.0288 204.983 83.9307 204.778 83.8333C204.368 83.6364 203.962 83.4417 203.56 83.2492C203.154 83.0647 202.795 82.8026 202.416 82.5874C202.045 82.3583 201.669 82.1445 201.313 81.911C200.971 81.6563 200.633 81.4037 200.298 81.1548C197.636 79.1403 195.682 76.767 194.327 74.4948C192.984 72.2138 192.132 70.0616 191.717 68.2403C191.611 67.7857 191.458 67.3678 191.41 66.9549C191.345 66.5457 191.284 66.1636 191.228 65.8078C191.175 65.452 191.111 65.1248 191.078 64.8232C191.061 64.5209 191.044 64.2464 191.029 63.9997C190.999 63.5151 190.974 63.1432 190.958 62.8804C190.941 62.63 190.924 62.5005 190.924 62.5005C190.924 62.5005 190.92 62.63 190.928 62.8826C190.937 63.1454 190.951 63.5187 190.969 64.0048C190.98 64.253 190.991 64.5282 191.004 64.832C191.031 65.1351 191.091 65.4637 191.139 65.8217C191.192 66.1797 191.248 66.5647 191.308 66.9761C191.353 67.3912 191.502 67.8128 191.604 68.2703C192.004 70.1048 192.844 72.276 194.183 74.5812C195.534 76.8768 197.492 79.2794 200.169 81.3232C200.506 81.5757 200.846 81.8312 201.191 82.0896C201.549 82.3268 201.928 82.5442 202.301 82.777C202.683 82.9959 203.045 83.2616 203.454 83.449C203.859 83.6452 204.268 83.8428 204.682 84.0434C204.889 84.1423 205.097 84.2418 205.306 84.3421C205.524 84.4226 205.742 84.5031 205.963 84.5837C206.403 84.7454 206.846 84.9087 207.295 85.0734C207.747 85.2249 208.221 85.323 208.69 85.4519C209.164 85.5602 209.63 85.7286 210.124 85.7805C211.103 85.9225 212.094 86.1268 213.12 86.1348C213.631 86.1539 214.146 86.2044 214.665 86.1978C215.184 86.1722 215.708 86.1465 216.234 86.1202C216.497 86.1026 216.763 86.1048 217.026 86.0704L217.817 85.9504C218.344 85.864 218.882 85.8032 219.412 85.6941C220.46 85.4123 221.545 85.2008 222.576 84.7718C223.641 84.4329 224.643 83.9095 225.671 83.4168C226.173 83.146 226.654 82.8304 227.15 82.5369C227.393 82.3817 227.652 82.2492 227.883 82.0743L228.583 81.5523C229.547 80.8913 230.392 80.0648 231.276 79.2677C231.676 78.8277 232.079 78.3848 232.483 77.9405L232.787 77.6067L233.06 77.2465L233.604 76.5203L234.15 75.7905L234.628 75.0102L235.105 74.2247L235.344 73.8309L235.547 73.4158C235.815 72.8602 236.084 72.3024 236.354 71.7424C236.568 71.1589 236.783 70.5726 236.999 69.9848C237.773 67.6027 238.19 65.0714 238.223 62.4968C238.189 59.923 237.772 57.3931 236.997 55.0118C236.781 54.424 236.567 53.8384 236.352 53.2549C236.082 52.6949 235.814 52.1378 235.546 51.5822L235.342 51.1679L235.103 50.7741L234.625 49.9886L234.147 49.2083L233.601 48.4784L233.057 47.7522L232.784 47.3921L232.481 47.0583C232.077 46.6139 231.674 46.1718 231.273 45.7318C230.39 44.9347 229.545 44.1089 228.58 43.4479L227.881 42.926C227.65 42.751 227.391 42.6185 227.148 42.4633C226.651 42.1698 226.17 41.8543 225.67 41.5834C224.641 41.0908 223.639 40.5681 222.575 40.2284C221.543 39.8002 220.458 39.5886 219.411 39.3068C218.88 39.1977 218.343 39.137 217.815 39.0506L217.024 38.9313C216.761 38.8969 216.495 38.8991 216.232 38.8815C215.705 38.8559 215.183 38.8295 214.664 38.8039C214.145 38.7973 213.63 38.8478 213.119 38.8669C212.093 38.8756 211.102 39.0791 210.124 39.2212C209.63 39.2731 209.164 39.4408 208.69 39.5498C208.222 39.6787 207.748 39.7768 207.295 39.9276C206.847 40.0923 206.403 40.2555 205.963 40.4173C205.743 40.4986 205.524 40.5791 205.306 40.6589C205.097 40.7592 204.889 40.858 204.681 40.9575C204.267 41.1574 203.858 41.3558 203.453 41.5519C203.043 41.7393 202.682 42.0051 202.3 42.2239C201.926 42.456 201.549 42.6734 201.19 42.9106C200.846 43.169 200.505 43.4245 200.169 43.677C197.491 45.7201 195.533 48.1227 194.182 50.419C192.843 52.7249 192.002 54.8961 191.603 56.7306C191.501 57.1881 191.351 57.6098 191.307 58.0248C191.247 58.4362 191.19 58.8213 191.138 59.1793C191.089 59.5372 191.029 59.8659 191.002 60.169C190.99 60.4728 190.978 60.7487 190.968 60.9969C190.95 61.483 190.936 61.8563 190.926 62.1191C190.92 62.3709 190.924 62.5005 190.924 62.5005Z" fill="#263238"/>
<path d="M206.118 58.462H210.597C210.597 58.462 210.597 54.7008 214.506 54.6335C216.536 54.5983 217.587 55.9284 218.016 56.9467C218.512 58.1297 218.362 59.4773 217.697 60.5746C216.937 61.8271 215.272 62.9655 212.253 62.434V69.0069H216.682V66.6175C216.682 66.6175 222.893 65.0115 222.893 58.1663C222.893 51.6168 217.019 50.0949 214.506 50.0949C212.583 50.0949 206.033 50.5597 206.118 58.462Z" fill="#E55D5D"/>
<path d="M216.735 70.7128H212.24V74.911H216.735V70.7128Z" fill="#E55D5D"/>
<path d="M189.858 84.5603C189.858 86.5478 191.469 88.1597 193.457 88.1597C195.445 88.1597 197.057 86.5485 197.057 84.5603C197.057 82.5729 195.445 80.9609 193.457 80.9609C191.469 80.9609 189.858 82.5729 189.858 84.5603Z" fill="white"/>
<path d="M189.858 84.5599C189.889 84.5613 189.878 84.2392 190.026 83.6953C190.173 83.1617 190.538 82.3813 191.343 81.7825C192.12 81.1815 193.399 80.847 194.636 81.3082C195.245 81.5293 195.826 81.945 196.238 82.5182C196.662 83.0841 196.9 83.8103 196.907 84.5591C196.9 85.308 196.662 86.0342 196.238 86.6008C195.826 87.1747 195.245 87.5905 194.636 87.8115C193.399 88.2727 192.12 87.9374 191.343 87.3372C190.538 86.7384 190.173 85.958 190.027 85.4244C189.878 84.8805 189.889 84.5584 189.858 84.5599C189.847 84.5599 189.842 84.6389 189.839 84.7912C189.834 84.9427 189.852 85.1689 189.914 85.4529C190.031 86.0122 190.38 86.8467 191.215 87.5048C192.022 88.1636 193.388 88.5531 194.729 88.0699C195.39 87.8386 196.022 87.3935 196.473 86.7742C196.936 86.163 197.198 85.3731 197.205 84.5599C197.198 83.7473 196.936 82.9574 196.473 82.3469C196.023 81.7276 195.39 81.2825 194.73 81.0512C193.389 80.5681 192.023 80.9575 191.216 81.6156C190.38 82.273 190.031 83.1082 189.914 83.6675C189.852 83.9508 189.834 84.177 189.839 84.3293C189.842 84.4808 189.847 84.5599 189.858 84.5599Z" fill="#263238"/>
</svg>
