<svg width="33" height="32" viewBox="0 0 33 32" fill="none" xmlns="http://www.w3.org/2000/svg">
<path fill-rule="evenodd" clip-rule="evenodd" d="M11.0123 2.02312C10.8786 2.08016 10.8541 2.16214 10.8533 2.55665L10.8525 2.93567L11.6214 3.73339L12.3903 4.5311L12.0878 4.79923C11.4219 5.38957 10.7647 6.2672 10.3501 7.11986C9.97789 7.88534 9.68033 9.08496 9.68033 9.8199V10.1411H16.5H23.3197V9.79138C23.3197 9.12338 23.0787 8.08495 22.7467 7.32243C22.2992 6.29484 21.6321 5.41935 20.7796 4.741L20.5038 4.52158L21.2494 3.76009C21.6595 3.34129 22.0314 2.9279 22.076 2.84148C22.26 2.48446 21.9691 2.02586 21.5588 2.02586C21.3432 2.02586 21.3132 2.05071 20.4149 2.97239L19.4923 3.91893L18.9951 3.663C18.2692 3.28929 17.816 3.18415 16.7842 3.15C15.5845 3.11026 14.6918 3.26236 13.7601 3.66519L13.4421 3.80273L13.0655 3.40067C12.8584 3.17955 12.4879 2.77755 12.2422 2.50734L11.7954 2.01606L11.4438 2.00255C11.2505 1.99516 11.0563 2.00441 11.0123 2.02312ZM14.209 7.21296V7.78765H13.6496H13.0902V7.21296V6.63828H13.6496H14.209V7.21296ZM19.9098 7.21296V7.78765H19.3504H18.791V7.21296V6.63828H19.3504H19.9098V7.21296ZM6.33975 11.3891C5.8124 11.5826 5.47989 11.8969 5.24147 12.4271L5.125 12.6861V17.1479V21.6097L5.30039 21.9757C5.49113 22.3738 5.7637 22.6518 6.15989 22.8523C6.51579 23.0325 7.15369 23.0275 7.52116 22.8418C7.8762 22.6623 8.21921 22.2991 8.39258 21.9192L8.53484 21.6074V17.1468V12.6861L8.39375 12.377C8.01915 11.5563 7.09519 11.1118 6.33975 11.3891ZM9.68033 17.2854C9.68033 23.7846 9.66759 23.4901 9.9626 23.815C10.2192 24.0976 10.4192 24.1525 11.1934 24.1525H11.9115L11.9281 26.3841L11.9447 28.6157L12.1201 28.9816C12.7295 30.2527 14.3706 30.3555 15.1002 29.1682C15.3619 28.7423 15.3798 28.5571 15.3805 26.2733L15.3811 24.1525H16.5H17.6189L17.6195 26.2733C17.6202 28.5571 17.6381 28.7423 17.8998 29.1682C18.6294 30.3555 20.2705 30.2527 20.8799 28.9816L21.0553 28.6157L21.0719 26.3841L21.0885 24.1525H21.8066C22.5808 24.1525 22.7808 24.0976 23.0374 23.815C23.3324 23.4901 23.3197 23.7846 23.3197 17.2854V11.2905H16.5H9.68033V17.2854ZM25.6799 11.3891C25.1526 11.5826 24.8201 11.8969 24.5816 12.4271L24.4652 12.6861V17.1468V21.6074L24.6074 21.9192C24.7808 22.2991 25.1238 22.6623 25.4788 22.8418C25.8463 23.0275 26.4842 23.0325 26.8401 22.8523C27.2363 22.6518 27.5089 22.3738 27.6996 21.9757L27.875 21.6097V17.1479V12.6861L27.7339 12.377C27.3593 11.5563 26.4354 11.1118 25.6799 11.3891Z" fill="white" fill-opacity="0.6"/>
</svg>
