<svg width="32" height="32" viewBox="0 0 32 32" fill="none" xmlns="http://www.w3.org/2000/svg">
<path d="M24.2102 17.042C24.1781 13.5456 27.1345 11.8446 27.2697 11.7654C25.5954 9.37547 23.0002 9.04893 22.0882 9.02289C19.9086 8.79833 17.7943 10.2998 16.684 10.2998C15.5515 10.2998 13.8417 9.04459 11.9989 9.08148C9.62759 9.11728 7.40909 10.4614 6.19246 12.5486C3.68146 16.8045 5.55412 23.0586 7.95987 26.4986C9.16322 28.1834 10.5694 30.0645 12.41 29.9983C14.2107 29.9256 14.8833 28.8744 17.0563 28.8744C19.2094 28.8744 19.841 29.9983 21.7181 29.956C23.6507 29.9256 24.8674 28.2636 26.0287 26.5637C27.4193 24.6327 27.9778 22.7309 28 22.6333C27.9546 22.6181 24.2469 21.2328 24.2102 17.042Z" fill="white" fill-opacity="0.6"/>
<path d="M20.4478 6.16451C21.465 5.05132 22.1609 3.53687 21.9678 2C20.4954 2.05703 18.6543 2.89116 17.594 3.97991C16.6559 4.93929 15.818 6.51181 16.0344 7.99063C17.6883 8.09859 19.3863 7.26039 20.4478 6.16451Z" fill="white" fill-opacity="0.6"/>
</svg>
