<svg width="24" height="24" viewBox="0 0 24 24" fill="none" xmlns="http://www.w3.org/2000/svg">
<path d="M6.76875 5C10.5072 5 13.5375 8.13423 13.5375 12.0001C13.5375 15.8661 10.5069 19 6.76875 19C3.03075 19 0 15.8661 0 12.0001C0 8.13433 3.03047 5 6.76875 5ZM17.5781 5.41001C19.4473 5.41001 20.9626 8.36023 20.9626 12.0001H20.9629C20.9629 15.6391 19.4476 18.5902 17.5785 18.5902C15.7094 18.5902 14.194 15.6391 14.194 12.0001C14.194 8.36119 15.709 5.41001 17.5782 5.41001H17.5781ZM22.8097 6.09649C23.4669 6.09649 24 8.73962 24 12.0002C24 15.2597 23.4671 17.9039 22.8097 17.9039C22.1522 17.9039 21.6196 15.2605 21.6196 12.0002C21.6196 8.73982 22.1525 6.09649 22.8097 6.09649Z" fill="#5C75C9"/>
</svg>
