<svg width="33" height="32" viewBox="0 0 33 32" fill="none" xmlns="http://www.w3.org/2000/svg">
<path d="M17 19.5C18.933 19.5 20.5 17.933 20.5 16C20.5 14.067 18.933 12.5 17 12.5C15.067 12.5 13.5 14.067 13.5 16C13.5 17.933 15.067 19.5 17 19.5Z" fill="white" fill-opacity="0.6"/>
<path d="M16.9997 2C13.1784 2 9.71931 3.5344 7.19336 6.01489L11.6359 13.7072C12.5266 11.6257 14.5913 10.1655 16.9997 10.1662H29.7145C27.4997 5.35057 22.6462 2 16.9997 2Z" fill="white" fill-opacity="0.6"/>
<path d="M30.5409 12.498L21.666 12.4991C23.0243 14.3117 23.2567 16.8296 22.0523 18.9156L15.6914 29.9329C16.123 29.9725 16.5583 29.9988 17.0004 29.9988C24.7302 29.9988 31.0005 23.7327 31.0005 15.9991C31.0005 14.7881 30.8304 13.6191 30.5409 12.498Z" fill="white" fill-opacity="0.6"/>
<path d="M11.9485 18.9157L5.59103 7.9043C3.96531 10.1909 3 12.98 3 15.9991C2.99932 22.4353 7.34562 27.841 13.2585 29.4783L17.6972 21.7902C15.4495 22.0601 13.1514 21.0016 11.9485 18.9157Z" fill="white" fill-opacity="0.6"/>
</svg>
