<svg width="33" height="32" viewBox="0 0 33 32" fill="none" xmlns="http://www.w3.org/2000/svg">
<path d="M4.82643 3.94434C2.63242 6.22327 3.08146 8.64413 3.08146 15.9986C3.08146 22.106 2.01586 28.2285 7.59279 29.6699C9.33428 30.1178 24.7645 30.1178 26.5036 29.6676C28.8256 29.0684 30.7148 27.185 30.9731 23.901C31.0092 23.4427 31.0092 8.5627 30.9719 8.09504C30.6974 4.59696 28.5441 2.58093 25.7068 2.17261C25.0565 2.07838 24.9262 2.05046 21.5898 2.04464C9.7554 2.05046 7.1612 1.52348 4.82643 3.94434Z" fill="white" fill-opacity="0.6"/>
<path d="M17.0394 5.6955C12.8154 5.6955 8.80424 5.31974 7.27216 9.25175C6.63932 10.8757 6.73122 12.9848 6.73122 16.0048C6.73122 18.6548 6.6463 21.1455 7.27216 22.7567C8.80076 26.691 12.8444 26.3141 17.037 26.3141C21.0819 26.3141 25.2524 26.7352 26.8031 22.7567C27.4371 21.1164 27.344 19.0387 27.344 16.0048C27.344 11.9774 27.5662 9.37739 25.613 7.42534C23.6353 5.44771 20.9609 5.6955 17.0347 5.6955H17.0394ZM16.1157 7.55331C24.9266 7.53935 26.0481 6.55984 25.4292 20.1671C25.2093 24.9798 21.5449 24.4516 17.0405 24.4516C8.82751 24.4516 8.59136 24.2166 8.59136 16.0001C8.59136 7.68825 9.24281 7.55796 16.1157 7.55098V7.55331ZM22.5418 9.26455C21.859 9.26455 21.3052 9.81828 21.3052 10.5011C21.3052 11.184 21.859 11.7378 22.5418 11.7378C23.2247 11.7378 23.7784 11.184 23.7784 10.5011C23.7784 9.81828 23.2247 9.26455 22.5418 9.26455ZM17.0394 10.7105C14.1159 10.7105 11.7463 13.0814 11.7463 16.0048C11.7463 18.9282 14.1159 21.2979 17.0394 21.2979C19.9628 21.2979 22.3313 18.9282 22.3313 16.0048C22.3313 13.0814 19.9628 10.7105 17.0394 10.7105ZM17.0394 12.5684C21.5821 12.5684 21.5879 19.4412 17.0394 19.4412C12.4978 19.4412 12.4908 12.5684 17.0394 12.5684Z" fill="#5C75C9"/>
</svg>
