<svg width="32" height="32" viewBox="0 0 32 32" fill="none" xmlns="http://www.w3.org/2000/svg">
<path d="M30.546 16.0009C30.546 20.3097 28.6717 24.1802 25.6952 26.8433C21.9646 28.6612 18.4873 27.3886 17.3359 26.5947C21.0007 25.7904 23.7695 21.3597 23.7695 16.0002C23.7695 10.6407 21.0014 6.2111 17.3359 5.40638C18.4866 4.61287 21.9639 3.3403 25.6952 5.1578C28.6724 7.82091 30.546 11.6915 30.546 16.0009Z" fill="white" fill-opacity="0.6"/>
<path d="M11.2128 7.80384C9.6048 9.70203 8.56306 12.5088 8.49178 15.6582V16.3435C8.5627 19.4929 9.6048 22.2993 11.2128 24.1979C13.2996 26.908 16.4016 28.6257 19.8655 28.6257C21.996 28.6257 23.9894 27.9755 25.6947 26.8447C23.1213 29.146 19.7244 30.5463 16.001 30.5463C15.7684 30.5463 15.5379 30.5405 15.3081 30.53C7.59623 30.1678 1.45508 23.8013 1.45508 16.0009C1.45508 7.96703 7.96748 1.45508 16.001 1.45508L16.0553 1.4558C19.7588 1.46955 23.1347 2.86696 25.6955 5.15738C23.9905 4.02701 21.9967 3.37642 19.8655 3.37642C16.4016 3.37642 13.2996 5.09514 11.2128 7.80457V7.80384Z" fill="white" fill-opacity="0.6"/>
</svg>
