<svg width="32" height="32" viewBox="0 0 32 32" fill="none" xmlns="http://www.w3.org/2000/svg">
<mask id="mask0_4141_119010" style="mask-type:luminance" maskUnits="userSpaceOnUse" x="2" y="2" width="28" height="28">
<path d="M2.9082 2.9082H29.09V29.09H2.9082V2.9082Z" fill="white"/>
</mask>
<g mask="url(#mask0_4141_119010)">
<path d="M25.818 12.7257C25.818 12.1232 25.3296 11.6348 24.7271 11.6348H7.27255C6.67006 11.6348 6.18164 12.1232 6.18164 12.7257V23.6347C6.18164 24.2372 6.67006 24.7256 7.27255 24.7256H24.7271C25.3296 24.7256 25.818 24.2372 25.818 23.6347V12.7257Z" fill="white" fill-opacity="0.6"/>
<path fill-rule="evenodd" clip-rule="evenodd" d="M8.61312 3.30373C8.99719 2.83952 9.68485 2.77455 10.1491 3.15861L13.6657 6.06806C14.2593 5.4644 15.0855 5.09005 15.9991 5.09005C16.9127 5.09005 17.7389 5.4644 18.3326 6.06806L21.8491 3.15861C22.3134 2.77455 23.001 2.83952 23.3851 3.30373C23.7691 3.76794 23.7042 4.4556 23.24 4.83967L19.2843 8.1124L19.2637 8.12909C19.2691 8.20628 19.2718 8.2842 19.2718 8.36278H25.8173C27.6248 8.36278 29.09 9.82804 29.09 11.6355V24.7264C29.09 26.5339 27.6248 27.9991 25.8173 27.9991C25.8173 28.6016 25.3289 29.09 24.7264 29.09H22.5446C21.9421 29.09 21.4537 28.6016 21.4537 27.9991H10.5446C10.5446 28.6016 10.0561 29.09 9.45366 29.09H7.27184C6.66935 29.09 6.18093 28.6016 6.18093 27.9991C4.37345 27.9991 2.9082 26.5339 2.9082 24.7264V11.6355C2.9082 9.82804 4.37346 8.36278 6.18093 8.36278H12.7264C12.7264 8.2842 12.7292 8.20629 12.7346 8.1291L12.7139 8.1124L8.75825 4.83967C8.29403 4.4556 8.22906 3.76794 8.61312 3.30373ZM5.09002 11.6355C5.09002 11.033 5.57844 10.5446 6.18093 10.5446H25.8173C26.4198 10.5446 26.9082 11.033 26.9082 11.6355V24.7264C26.9082 25.3289 26.4198 25.8173 25.8173 25.8173H6.18093C5.57844 25.8173 5.09002 25.3289 5.09002 24.7264V11.6355Z" fill="white" fill-opacity="0.6"/>
</g>
</svg>
