<svg width="32" height="32" viewBox="0 0 32 32" fill="none" xmlns="http://www.w3.org/2000/svg">
<path d="M2.5 16C2.5 8.2678 8.7664 2 16.5 2C24.2308 2 30.5 8.2678 30.5 16C30.5 23.7322 24.2308 30 16.5 30C8.7664 30 2.5 23.7322 2.5 16Z" fill="white" fill-opacity="0.6"/>
<path d="M18.2909 9.93199H16.9973C14.6257 9.93199 13.3783 11.1332 13.3783 12.9042C13.3783 14.9062 14.2407 15.8442 16.0117 17.0468L17.4747 18.0324L13.2705 24.3142H10.1289L13.9019 18.6946C11.7319 17.1392 10.5139 15.6286 10.5139 13.0736C10.5139 9.87039 12.7469 7.68359 16.9819 7.68359H21.1861V24.2988H18.2909V9.93199Z" fill="#5C75C9"/>
</svg>
