<svg width="33" height="32" viewBox="0 0 33 32" fill="none" xmlns="http://www.w3.org/2000/svg">
<g clip-path="url(#clip0_4141_119047)">
<path d="M21.8335 15.7053C18.9076 14.3105 16.106 13.0282 13.2422 11.6895V19.6984C16.2557 18.2371 19.4321 16.8988 21.8459 15.7053H21.8335Z" fill="#5C75C9"/>
<path d="M21.8335 15.7053C18.9076 14.3105 13.2422 11.6895 13.2422 11.6895L20.7956 16.2181C20.7956 16.2181 19.4197 16.8988 21.8335 15.7053Z" fill="white" fill-opacity="0.6"/>
<path d="M13.7926 25.9672C7.71511 25.8674 5.63936 25.7776 4.36348 25.5431C3.50027 25.3873 2.75013 25.0414 2.20011 24.5397C1.77502 24.1599 1.43696 23.5806 1.17467 22.7768C0.949694 22.1071 0.862069 21.55 0.737145 20.189C0.545912 17.1175 0.500323 14.6062 0.737145 11.8003C0.932524 10.2508 1.02725 8.4114 2.32504 7.33826C2.93781 6.83601 3.65065 6.5128 4.45111 6.37919C5.70153 6.16741 11.0288 6 16.5438 6C22.0464 6 27.3856 6.16741 28.6372 6.37919C29.6371 6.5466 30.575 7.04832 31.1256 7.69527C32.3097 9.35673 32.3304 11.4227 32.4506 13.0388C32.5003 13.8088 32.5003 18.1811 32.4506 18.9511C32.2635 21.5051 32.1131 22.4087 31.688 23.3456C31.4251 23.9371 31.2008 24.2492 30.8124 24.5951C30.2032 25.1274 29.4267 25.4815 28.5862 25.6102C23.327 25.9629 18.8611 26.0395 13.7926 25.9672ZM21.8463 15.7047C18.9203 14.31 16.1187 13.0166 13.255 11.6778V19.6873C16.2685 18.226 19.4455 16.8872 21.8587 15.6936L21.8463 15.7047Z" fill="white" fill-opacity="0.6"/>
</g>
<defs>
<clipPath id="clip0_4141_119047">
<rect width="32" height="32" fill="white" transform="translate(0.5)"/>
</clipPath>
</defs>
</svg>
