<svg width="15" height="14" viewBox="0 0 15 14" fill="none" xmlns="http://www.w3.org/2000/svg">
<path d="M6.01634 11.1528C5.95947 11.1528 5.90232 11.1312 5.85884 11.0877L2.31509 7.54395C2.22814 7.45699 2.22814 7.31617 2.31509 7.22922L3.66451 5.8798C3.75146 5.79285 3.89228 5.79285 3.97923 5.8798L5.97205 7.87262C5.99638 7.89695 6.03603 7.89695 6.06064 7.87262L11.0205 2.91273C11.0624 2.8709 11.119 2.84766 11.178 2.84766C11.2371 2.84766 11.2937 2.87117 11.3355 2.91273L12.6849 4.26215C12.7719 4.3491 12.7719 4.48992 12.6849 4.57688L6.17384 11.0877C6.13037 11.1312 6.07322 11.1528 6.01634 11.1528Z" fill="#2C2C35"/>
</svg>
