<svg width="16" height="16" viewBox="0 0 16 16" fill="none" xmlns="http://www.w3.org/2000/svg">
<g clip-path="url(#clip0_4526_3501)">
<path d="M8 16C12.4183 16 16 12.4183 16 8C16 3.58172 12.4183 0 8 0C3.58172 0 0 3.58172 0 8C0 12.4183 3.58172 16 8 16Z" fill="url(#paint0_linear_4526_3501)"/>
<path fill-rule="evenodd" clip-rule="evenodd" d="M3.62131 7.91547C5.95347 6.89938 7.50862 6.2295 8.28672 5.90588C10.5084 4.98182 10.9701 4.82129 11.2709 4.81597C11.3371 4.81482 11.4851 4.83122 11.5809 4.909C11.7231 5.02438 11.7239 5.27482 11.7082 5.44057C11.5877 6.70557 11.0668 9.77535 10.8018 11.1922C10.6896 11.7917 10.4688 11.9927 10.2551 12.0123C9.7905 12.0551 9.43772 11.7053 8.98775 11.4104C8.28365 10.9488 7.88587 10.6615 7.2024 10.2111C6.41256 9.69063 6.92459 9.40457 7.37472 8.93704C7.49253 8.81469 9.53944 6.95285 9.57906 6.78394C9.58403 6.76282 9.58862 6.68407 9.54184 6.64251C9.49506 6.60094 9.42603 6.61513 9.37622 6.62644C9.30559 6.64247 8.18078 7.38594 6.00178 8.85682C5.6825 9.07607 5.39331 9.18288 5.13422 9.17729C4.84856 9.17113 4.29912 9.01579 3.89065 8.88301C3.38965 8.72016 2.99147 8.63404 3.02615 8.35747C3.04422 8.21338 3.24259 8.06607 3.62131 7.91547Z" fill="white"/>
</g>
<defs>
<linearGradient id="paint0_linear_4526_3501" x1="8" y1="0" x2="8" y2="15.875" gradientUnits="userSpaceOnUse">
<stop stop-color="#2AABEE"/>
<stop offset="1" stop-color="#229ED9"/>
</linearGradient>
<clipPath id="clip0_4526_3501">
<rect width="16" height="16" fill="white"/>
</clipPath>
</defs>
</svg>
