<svg width="24" height="24" viewBox="0 0 24 24" fill="none" xmlns="http://www.w3.org/2000/svg">
<path fill-rule="evenodd" clip-rule="evenodd" d="M1.87404 12.0003C1.87404 11.7019 1.99256 11.4157 2.20354 11.2048C2.41452 10.9938 2.70067 10.8753 2.99904 10.8753L18.284 10.8753L14.204 6.79526C14.0053 6.582 13.8971 6.29993 13.9023 6.00847C13.9074 5.71702 14.0255 5.43894 14.2316 5.23283C14.4377 5.02671 14.7158 4.90864 15.0073 4.9035C15.2987 4.89835 15.5808 5.00654 15.794 5.20526L21.794 11.2053C22.0047 11.4162 22.123 11.7021 22.123 12.0003C22.123 12.2984 22.0047 12.5843 21.794 12.7953L15.794 18.7953C15.5808 18.994 15.2987 19.1022 15.0073 19.097C14.7158 19.0919 14.4377 18.9738 14.2316 18.7677C14.0255 18.5616 13.9074 18.2835 13.9023 17.992C13.8971 17.7006 14.0053 17.4185 14.204 17.2053L18.284 13.1253L2.99904 13.1253C2.70067 13.1253 2.41452 13.0067 2.20354 12.7958C1.99256 12.5848 1.87404 12.2986 1.87404 12.0003Z" fill="#2C2C35"/>
</svg>
