<svg width="20" height="14" viewBox="0 0 20 14" fill="none" xmlns="http://www.w3.org/2000/svg">
<g clip-path="url(#clip0_4477_162)">
<path d="M17.9987 0H1.9987C1.07822 0 0.332031 0.746192 0.332031 1.66667V12.3333C0.332031 13.2538 1.07822 14 1.9987 14H17.9987C18.9192 14 19.6654 13.2538 19.6654 12.3333V1.66667C19.6654 0.746192 18.9192 0 17.9987 0Z" fill="#5C75C9"/>
<path fill-rule="evenodd" clip-rule="evenodd" d="M15.6667 11.0002C15.6657 11.6078 15.254 12.1379 14.6656 12.2893C14.0772 12.4408 13.4608 12.1752 13.1667 11.6436C12.9444 11.2435 12.9444 10.757 13.1667 10.3569C13.4608 9.82526 14.0772 9.55972 14.6656 9.71114C15.254 9.86256 15.6657 10.3926 15.6667 11.0002Z" fill="url(#paint0_linear_4477_162)"/>
<path d="M4 2.3335H2.66667C2.29848 2.3335 2 2.63197 2 3.00016V4.3335C2 4.70169 2.29848 5.00016 2.66667 5.00016H4C4.36819 5.00016 4.66667 4.70169 4.66667 4.3335V3.00016C4.66667 2.63197 4.36819 2.3335 4 2.3335Z" fill="url(#paint1_linear_4477_162)"/>
<path fill-rule="evenodd" clip-rule="evenodd" d="M17.9987 11.0002C17.9977 11.6078 17.5861 12.1379 16.9976 12.2893C16.4092 12.4408 15.7928 12.1752 15.4987 11.6436C15.2765 11.2435 15.2765 10.757 15.4987 10.3569C15.7928 9.82526 16.4092 9.55972 16.9976 9.71114C17.5861 9.86256 17.9977 10.3926 17.9987 11.0002Z" fill="url(#paint2_linear_4477_162)"/>
<path fill-rule="evenodd" clip-rule="evenodd" d="M18.3346 2.33333C18.1505 2.33333 18.0013 2.18409 18.0013 2V1.66667H16.0013C15.8172 1.66667 15.668 1.51743 15.668 1.33333C15.668 1.14924 15.8172 1 16.0013 1H18.0013C18.3695 1 18.668 1.29848 18.668 1.66667V2C18.668 2.18409 18.5187 2.33333 18.3346 2.33333Z" fill="#5C75C9"/>
<path fill-rule="evenodd" clip-rule="evenodd" d="M14.6667 1.66667H14.3333C14.1492 1.66667 14 1.51743 14 1.33333C14 1.14924 14.1492 1 14.3333 1H14.6667C14.8508 1 15 1.14924 15 1.33333C15 1.51743 14.8508 1.66667 14.6667 1.66667Z" fill="#5C75C9"/>
<path fill-rule="evenodd" clip-rule="evenodd" d="M4 8.00016H2.33333C2.14924 8.00016 2 7.85092 2 7.66683C2 7.48273 2.14924 7.3335 2.33333 7.3335H4C4.18409 7.3335 4.33333 7.48273 4.33333 7.66683C4.33333 7.85092 4.18409 8.00016 4 8.00016Z" fill="url(#paint3_linear_4477_162)"/>
<path fill-rule="evenodd" clip-rule="evenodd" d="M5.66667 12.3337H2.33333C2.14924 12.3337 2 12.1844 2 12.0003C2 11.8162 2.14924 11.667 2.33333 11.667H5.66667C5.85076 11.667 6 11.8162 6 12.0003C6 12.1844 5.85076 12.3337 5.66667 12.3337Z" fill="url(#paint4_linear_4477_162)"/>
<path fill-rule="evenodd" clip-rule="evenodd" d="M10.6667 12.3337H7.33333C7.14924 12.3337 7 12.1844 7 12.0003C7 11.8162 7.14924 11.667 7.33333 11.667H10.6667C10.8508 11.667 11 11.8162 11 12.0003C11 12.1844 10.8508 12.3337 10.6667 12.3337Z" fill="url(#paint5_linear_4477_162)"/>
<path fill-rule="evenodd" clip-rule="evenodd" d="M7.33203 8.00016H5.66536C5.48127 8.00016 5.33203 7.85092 5.33203 7.66683C5.33203 7.48273 5.48127 7.3335 5.66536 7.3335H7.33203C7.51613 7.3335 7.66536 7.48273 7.66536 7.66683C7.66536 7.85092 7.51613 8.00016 7.33203 8.00016Z" fill="url(#paint6_linear_4477_162)"/>
<path fill-rule="evenodd" clip-rule="evenodd" d="M10.668 8.00016H9.0013C8.81721 8.00016 8.66797 7.85092 8.66797 7.66683C8.66797 7.48273 8.81721 7.3335 9.0013 7.3335H10.668C10.8521 7.3335 11.0013 7.48273 11.0013 7.66683C11.0013 7.85092 10.8521 8.00016 10.668 8.00016Z" fill="url(#paint7_linear_4477_162)"/>
<path fill-rule="evenodd" clip-rule="evenodd" d="M10.668 10.3337H9.0013C8.81721 10.3337 8.66797 10.1844 8.66797 10.0003C8.66797 9.81623 8.81721 9.66699 9.0013 9.66699H10.668C10.8521 9.66699 11.0013 9.81623 11.0013 10.0003C11.0013 10.1844 10.8521 10.3337 10.668 10.3337Z" fill="url(#paint8_linear_4477_162)"/>
<path fill-rule="evenodd" clip-rule="evenodd" d="M14 8.00016H12.3333C12.1492 8.00016 12 7.85092 12 7.66683C12 7.48273 12.1492 7.3335 12.3333 7.3335H14C14.1841 7.3335 14.3333 7.48273 14.3333 7.66683C14.3333 7.85092 14.1841 8.00016 14 8.00016Z" fill="url(#paint9_linear_4477_162)"/>
<path fill-rule="evenodd" clip-rule="evenodd" d="M17.332 8.00016H15.6654C15.4813 8.00016 15.332 7.85092 15.332 7.66683C15.332 7.48273 15.4813 7.3335 15.6654 7.3335H17.332C17.5161 7.3335 17.6654 7.48273 17.6654 7.66683C17.6654 7.85092 17.5161 8.00016 17.332 8.00016Z" fill="url(#paint10_linear_4477_162)"/>
</g>
<defs>
<linearGradient id="paint0_linear_4477_162" x1="90.3332" y1="9.66895" x2="90.3332" y2="121.498" gradientUnits="userSpaceOnUse">
<stop stop-color="#FFE14A"/>
<stop offset="1" stop-color="#FDBF24"/>
</linearGradient>
<linearGradient id="paint1_linear_4477_162" x1="79.3333" y1="2.3335" x2="79.3333" y2="114.333" gradientUnits="userSpaceOnUse">
<stop stop-color="#FFE14A"/>
<stop offset="1" stop-color="#FDBF24"/>
</linearGradient>
<linearGradient id="paint2_linear_4477_162" x1="92.6652" y1="9.66895" x2="92.6652" y2="121.498" gradientUnits="userSpaceOnUse">
<stop stop-color="#F74F6C"/>
<stop offset="1" stop-color="#EB273A"/>
</linearGradient>
<linearGradient id="paint3_linear_4477_162" x1="69.6667" y1="7.3335" x2="69.6667" y2="35.3335" gradientUnits="userSpaceOnUse">
<stop stop-color="#FAFBFC"/>
<stop offset="1" stop-color="#F3F5F8"/>
</linearGradient>
<linearGradient id="paint4_linear_4477_162" x1="118" y1="11.667" x2="118" y2="39.667" gradientUnits="userSpaceOnUse">
<stop stop-color="#FAFBFC"/>
<stop offset="1" stop-color="#F3F5F8"/>
</linearGradient>
<linearGradient id="paint5_linear_4477_162" x1="123" y1="11.667" x2="123" y2="39.667" gradientUnits="userSpaceOnUse">
<stop stop-color="#FAFBFC"/>
<stop offset="1" stop-color="#F3F5F8"/>
</linearGradient>
<linearGradient id="paint6_linear_4477_162" x1="72.9987" y1="7.3335" x2="72.9987" y2="35.3335" gradientUnits="userSpaceOnUse">
<stop stop-color="#FAFBFC"/>
<stop offset="1" stop-color="#F3F5F8"/>
</linearGradient>
<linearGradient id="paint7_linear_4477_162" x1="76.3346" y1="7.3335" x2="76.3346" y2="35.3335" gradientUnits="userSpaceOnUse">
<stop stop-color="#FAFBFC"/>
<stop offset="1" stop-color="#F3F5F8"/>
</linearGradient>
<linearGradient id="paint8_linear_4477_162" x1="76.3346" y1="9.66699" x2="76.3346" y2="37.667" gradientUnits="userSpaceOnUse">
<stop stop-color="#FAFBFC"/>
<stop offset="1" stop-color="#F3F5F8"/>
</linearGradient>
<linearGradient id="paint9_linear_4477_162" x1="79.6667" y1="7.3335" x2="79.6667" y2="35.3335" gradientUnits="userSpaceOnUse">
<stop stop-color="#FAFBFC"/>
<stop offset="1" stop-color="#F3F5F8"/>
</linearGradient>
<linearGradient id="paint10_linear_4477_162" x1="82.9987" y1="7.3335" x2="82.9987" y2="35.3335" gradientUnits="userSpaceOnUse">
<stop stop-color="#FAFBFC"/>
<stop offset="1" stop-color="#F3F5F8"/>
</linearGradient>
<clipPath id="clip0_4477_162">
<rect width="19.3333" height="14" fill="white" transform="translate(0.332031)"/>
</clipPath>
</defs>
</svg>
