<svg width="50" height="50" viewBox="0 0 50 50" fill="none" xmlns="http://www.w3.org/2000/svg">
<path fill-rule="evenodd" clip-rule="evenodd" d="M24.9993 4.1665C27.7352 4.16649 30.4443 4.70535 32.9719 5.75232C35.4995 6.79928 37.7962 8.33385 39.7307 10.2684C41.6653 12.203 43.1999 14.4996 44.2469 17.0272C45.2938 19.5548 45.8327 22.2639 45.8327 24.9998C45.8327 36.5058 36.5053 45.8332 24.9993 45.8332C13.4935 45.8332 4.16602 36.5058 4.16602 24.9998C4.16602 13.4939 13.4935 4.1665 24.9993 4.1665Z" fill="#5C75C9"/>
<path d="M27.7145 18.0496V17.5076C27.7145 16.6764 27.0381 16 26.2067 16H17.5078C16.6764 16 16 16.6764 16 17.5076V18.0496H27.7145Z" fill="white"/>
<path d="M16 19.4897V22.4122C16 23.2437 16.6764 23.92 17.5078 23.92H26.2067C27.0381 23.92 27.7145 23.2436 27.7145 22.4122V19.4897H16ZM17.9537 22.3785V20.9385H22.4597V22.3785H17.9537Z" fill="white"/>
<path d="M21.6378 31.4274L19.0655 28.8551V30.7074H18.9935C18.1369 30.7074 17.44 30.0106 17.44 29.154V25.5923H16V29.154C16 30.8046 17.3428 32.1474 18.9935 32.1474H19.0655V33.9997L21.6378 31.4274Z" fill="white"/>
<path d="M33.9997 28.1292V27.5872C33.9997 26.7558 33.3232 26.0796 32.4918 26.0796H23.793C22.9616 26.0796 22.2852 26.756 22.2852 27.5872V28.1292H33.9997Z" fill="white"/>
<path d="M22.2852 29.5693V32.4918C22.2852 33.3232 22.9616 33.9996 23.793 33.9996H32.4918C33.3232 33.9996 33.9997 33.3232 33.9997 32.4918V29.5693H22.2852ZM24.2387 32.4579V31.0179H27.4847V32.4579H24.2387Z" fill="white"/>
<path d="M28.3613 18.5723L30.9337 21.1446V19.2923H31.0056C31.8622 19.2923 32.5592 19.9891 32.5592 20.8457V24.4074H33.9992V20.8457C33.9992 19.1951 32.6564 17.8523 31.0056 17.8523H30.9337V16L28.3613 18.5723Z" fill="white"/>
</svg>
