<svg width="14" height="15" viewBox="0 0 14 15" fill="none" xmlns="http://www.w3.org/2000/svg">
<path d="M5.51647 11.6528C5.45959 11.6528 5.40244 11.6312 5.35897 11.5877L1.81521 8.04395C1.72826 7.95699 1.72826 7.81617 1.81521 7.72922L3.16463 6.3798C3.25158 6.29285 3.3924 6.29285 3.47936 6.3798L5.47217 8.37262C5.4965 8.39695 5.53615 8.39695 5.56076 8.37262L10.5206 3.41273C10.5625 3.3709 10.6191 3.34766 10.6781 3.34766C10.7372 3.34766 10.7938 3.37117 10.8356 3.41273L12.1851 4.76215C12.272 4.8491 12.272 4.98992 12.1851 5.07688L5.67397 11.5877C5.63049 11.6312 5.57334 11.6528 5.51647 11.6528Z" fill="#5C75C9"/>
</svg>
