<svg width="20" height="20" viewBox="0 0 20 20" fill="none" xmlns="http://www.w3.org/2000/svg">
<path fill-rule="evenodd" clip-rule="evenodd" d="M12.5007 6.42836H17.8571C18.0464 6.42836 18.2282 6.50372 18.3621 6.63765C18.4961 6.77158 18.5714 6.95336 18.5714 7.14265V19.2855C18.5714 19.4748 18.4961 19.6566 18.3621 19.7905C18.2282 19.9244 18.0464 19.9998 17.8571 19.9998H1.07143C0.48 19.9998 0 19.5198 0 18.9284V5.35693" fill="#343434"/>
<path fill-rule="evenodd" clip-rule="evenodd" d="M3.92786 6.4285H1.07143C0.48 6.4285 0 5.9485 0 5.35707C0 4.76564 0.48 4.28564 1.07143 4.28564H3.585C3.57607 4.4035 12.8525 4.4035 12.8436 4.28564H15C15.3946 4.28564 15.7143 4.60529 15.7143 4.99993V6.4285" fill="#4D4D4D"/>
<path fill-rule="evenodd" clip-rule="evenodd" d="M12.8577 11.0713H19.2863C19.4756 11.0713 19.6573 11.1466 19.7913 11.2806C19.9252 11.4145 20.0006 11.5963 20.0006 11.7856V14.6427C20.0006 14.832 19.9252 15.0138 19.7913 15.1477C19.6573 15.2816 19.4756 15.357 19.2863 15.357H12.8577C11.6752 15.357 10.7148 14.3966 10.7148 13.2141C10.7148 12.0316 11.6752 11.0713 12.8577 11.0713Z" fill="#4D4D4D"/>
<path fill-rule="evenodd" clip-rule="evenodd" d="M8.21317 0C10.7757 0 12.856 2.08036 12.856 4.64286C12.856 7.20536 10.7757 9.28571 8.21317 9.28571C5.65067 9.28571 3.57031 7.20536 3.57031 4.64286C3.57031 2.08036 5.65067 0 8.21317 0Z" fill="#F7931A"/>
<path fill-rule="evenodd" clip-rule="evenodd" d="M7.49944 2.49993V4.64279C7.49944 4.83993 7.33944 4.99993 7.1423 4.99993C6.94516 4.99993 6.78516 4.83993 6.78516 4.64279V2.476C6.78516 2.29314 6.85801 2.11743 6.9873 1.98779C7.11694 1.8585 7.29266 1.78564 7.47551 1.78564H8.6423C9.0023 1.78564 9.3473 1.9285 9.60194 2.18314C9.85658 2.43779 9.99944 2.78279 9.99944 3.14279V3.64279C9.99944 4.00279 9.85658 4.34779 9.60194 4.60243C9.3473 4.85707 9.0023 4.99993 8.6423 4.99993C8.44516 4.99993 8.28516 4.83993 8.28516 4.64279C8.28516 4.44564 8.44516 4.28564 8.6423 4.28564C8.81266 4.28564 8.97623 4.21779 9.09694 4.09743C9.2173 3.97672 9.28516 3.81314 9.28516 3.64279V3.14279C9.28516 2.97243 9.2173 2.80886 9.09694 2.68814C8.97623 2.56779 8.81266 2.49993 8.6423 2.49993H7.49944Z" fill="white"/>
<path fill-rule="evenodd" clip-rule="evenodd" d="M8.79797 4.28564C9.20333 4.28564 9.59047 4.42279 9.87725 4.661C10.1894 4.92064 10.3583 5.27564 10.3583 5.64279V6.14279C10.3583 6.50993 10.1894 6.86493 9.87725 7.12457C9.59047 7.36279 9.20333 7.49993 8.79797 7.49993H7.55118C7.35868 7.49993 7.17511 7.43279 7.03904 7.31993C6.87725 7.18529 6.79297 6.99957 6.79297 6.80957V4.64279C6.79297 4.44564 6.95261 4.28564 7.15011 4.28564H8.79797ZM7.50725 6.77779C7.52011 6.78386 7.53547 6.78564 7.55118 6.78564H8.79797C9.03118 6.78564 9.25583 6.71207 9.42047 6.57529C9.5594 6.45957 9.64404 6.30636 9.64404 6.14279V5.64279C9.64404 5.47922 9.5594 5.326 9.42047 5.21029C9.25583 5.0735 9.03118 4.99993 8.79797 4.99993H7.50725V6.77779Z" fill="white"/>
<path fill-rule="evenodd" clip-rule="evenodd" d="M7.85547 1.42843C7.85547 1.23129 8.01547 1.07129 8.21261 1.07129C8.40975 1.07129 8.56975 1.23129 8.56975 1.42843V2.14272C8.56975 2.33986 8.40975 2.49986 8.21261 2.49986C8.01547 2.49986 7.85547 2.33986 7.85547 2.14272V1.42843Z" fill="white"/>
<path fill-rule="evenodd" clip-rule="evenodd" d="M7.85547 7.14279C7.85547 6.94564 8.01547 6.78564 8.21261 6.78564C8.40975 6.78564 8.56975 6.94564 8.56975 7.14279V7.85707C8.56975 8.05422 8.40975 8.21422 8.21261 8.21422C8.01547 8.21422 7.85547 8.05422 7.85547 7.85707V7.14279Z" fill="white"/>
<path fill-rule="evenodd" clip-rule="evenodd" d="M12.8588 12.5C13.2531 12.5 13.5731 12.82 13.5731 13.2143C13.5731 13.6086 13.2531 13.9286 12.8588 13.9286C12.4645 13.9286 12.1445 13.6086 12.1445 13.2143C12.1445 12.82 12.4645 12.5 12.8588 12.5Z" fill="white"/>
</svg>
