<svg width="16" height="16" viewBox="0 0 16 16" fill="none" xmlns="http://www.w3.org/2000/svg">
<path d="M6.30453 12.746C6.23953 12.746 6.17422 12.7213 6.12453 12.6716L2.07453 8.62158C1.97516 8.52221 1.97516 8.36127 2.07453 8.26189L3.61672 6.71971C3.71609 6.62033 3.87703 6.62033 3.97641 6.71971L6.25391 8.99721C6.28172 9.02502 6.32703 9.02502 6.35516 8.99721L12.0236 3.32877C12.0714 3.28096 12.1361 3.25439 12.2036 3.25439C12.2711 3.25439 12.3358 3.28127 12.3836 3.32877L13.9258 4.87096C14.0252 4.97033 14.0252 5.13127 13.9258 5.23064L6.48453 12.6716C6.43484 12.7213 6.36953 12.746 6.30453 12.746Z" fill="#60AC71"/>
</svg>
