<svg width="28" height="28" viewBox="0 0 28 28" fill="none" xmlns="http://www.w3.org/2000/svg">
<circle cx="14" cy="14" r="14" fill="#B3BAEA" fill-opacity="0.5"/>
<circle cx="14" cy="14" r="10" fill="#5C75C9"/>
<path d="M13.836 18.096C13.556 18.096 13.276 18.068 12.996 18.012C12.724 17.956 12.464 17.872 12.216 17.76C11.968 17.648 11.74 17.512 11.532 17.352C11.332 17.184 11.164 16.996 11.028 16.788L12.216 15.756C12.304 15.852 12.4 15.952 12.504 16.056C12.608 16.152 12.728 16.24 12.864 16.32C13 16.4 13.148 16.468 13.308 16.524C13.476 16.572 13.664 16.596 13.872 16.596C14.064 16.596 14.248 16.568 14.424 16.512C14.6 16.448 14.752 16.36 14.88 16.248C15.008 16.136 15.108 16 15.18 15.84C15.26 15.672 15.3 15.484 15.3 15.276C15.3 14.916 15.164 14.648 14.892 14.472C14.628 14.288 14.28 14.196 13.848 14.196H13.332V12.852H13.848C14.192 12.852 14.452 12.752 14.628 12.552C14.812 12.344 14.904 12.108 14.904 11.844C14.904 11.564 14.804 11.348 14.604 11.196C14.412 11.044 14.144 10.968 13.8 10.968C13.512 10.968 13.26 11.036 13.044 11.172C12.836 11.308 12.668 11.48 12.54 11.688L11.436 10.776C11.676 10.384 12.008 10.072 12.432 9.84C12.856 9.6 13.348 9.48 13.908 9.48C14.276 9.48 14.616 9.532 14.928 9.636C15.248 9.732 15.524 9.876 15.756 10.068C15.996 10.252 16.184 10.476 16.32 10.74C16.456 11.004 16.524 11.304 16.524 11.64C16.524 12.08 16.416 12.452 16.2 12.756C15.992 13.052 15.736 13.28 15.432 13.44C15.648 13.52 15.852 13.62 16.044 13.74C16.236 13.86 16.4 14.004 16.536 14.172C16.68 14.34 16.792 14.528 16.872 14.736C16.96 14.944 17.004 15.172 17.004 15.42C17.004 15.828 16.924 16.196 16.764 16.524C16.604 16.852 16.384 17.132 16.104 17.364C15.824 17.596 15.488 17.776 15.096 17.904C14.712 18.032 14.292 18.096 13.836 18.096Z" fill="white"/>
</svg>
