<svg width="18" height="18" viewBox="0 0 18 18" fill="none" xmlns="http://www.w3.org/2000/svg">
<path d="M13.4444 14H12.8889V12.3635C12.8889 11.5495 12.5039 10.7705 11.8317 10.2265L10.8911 9.465C10.7428 9.3445 10.6611 9.1795 10.6611 9C10.6611 8.8205 10.7428 8.6555 10.8911 8.5355L11.8317 7.774C12.5039 7.229 12.8889 6.4505 12.8889 5.6365V4H13.4444C13.7517 4 14 3.776 14 3.5C14 3.224 13.7517 3 13.4444 3H4.55556C4.24833 3 4 3.224 4 3.5C4 3.776 4.24833 4 4.55556 4H5.11111V5.6365C5.11111 6.4505 5.49611 7.2295 6.16833 7.7735L7.10889 8.535C7.25722 8.6555 7.33889 8.8205 7.33889 9C7.33889 9.1795 7.25722 9.3445 7.10889 9.4645L6.16833 10.226C5.49611 10.771 5.11111 11.5495 5.11111 12.3635V14H4.55556C4.24833 14 4 14.224 4 14.5C4 14.776 4.24833 15 4.55556 15H13.4444C13.7517 15 14 14.776 14 14.5C14 14.224 13.7517 14 13.4444 14ZM6.77778 5.375C6.77778 5.168 6.96444 5 7.19444 5H10.8056C11.0356 5 11.2222 5.168 11.2222 5.375C11.2222 5.878 11.0044 6.351 10.6089 6.707L9.29444 7.89C9.21333 7.9635 9.10667 8 9 8C8.89333 8 8.78667 7.9635 8.70556 7.89L7.39111 6.707C6.99556 6.351 6.77778 5.878 6.77778 5.375ZM6.77778 13.7895C6.77778 13.422 6.93667 13.077 7.22556 12.817L8.70556 11.485C8.86833 11.3385 9.13222 11.3385 9.295 11.485L10.775 12.817C11.0639 13.077 11.2228 13.422 11.2228 13.7895V14H6.77778V13.7895Z" fill="#737781"/>
</svg>
