<svg width="18" height="19" viewBox="0 0 18 19" fill="none" xmlns="http://www.w3.org/2000/svg">
<g clip-path="url(#clip0_4299_120142)">
<path d="M10.2243 12.457C10.1571 12.3834 10.072 12.3283 9.98416 12.2824C9.7928 12.1826 9.58353 12.1221 9.37573 12.0675V13.6776C9.713 13.6395 10.1002 13.5171 10.2773 13.2022C10.3618 13.0518 10.3787 12.8671 10.3442 12.6996C10.3255 12.6089 10.287 12.5256 10.2243 12.457Z" fill="#60AC71"/>
<path d="M10.2756 13.2053C10.2763 13.2042 10.2767 13.2035 10.2774 13.2023C10.2768 13.2033 10.2762 13.2043 10.2756 13.2053Z" fill="#60AC71"/>
<path d="M7.79382 9.88299C7.73584 9.96765 7.69946 10.0638 7.68942 10.1661C7.67938 10.2685 7.68501 10.3825 7.72394 10.479C7.761 10.5709 7.83863 10.6387 7.91877 10.6934C8.00869 10.7545 8.10759 10.8023 8.20831 10.8428C8.29281 10.8768 8.38785 10.9093 8.49031 10.9408V9.48375C8.23148 9.53898 7.94867 9.6569 7.79382 9.88299Z" fill="#60AC71"/>
<path d="M10.284 13.1904C10.2819 13.1941 10.2796 13.1981 10.2773 13.2022C10.28 13.1974 10.282 13.1938 10.284 13.1904Z" fill="#60AC71"/>
<path d="M10.2925 13.1766C10.2939 13.1739 10.2942 13.1737 10.2925 13.1766V13.1766Z" fill="#60AC71"/>
<path d="M11.6642 0.561507C12.2272 0.674849 11.3123 3.26625 9.943 4.41653C15.1045 6.54147 22.6422 19.5333 7.58882 18.4342C-3.29051 17.6399 2.94566 6.6931 7.38243 4.5125C5.8953 3.54876 4.94477 1.33656 5.49839 0.728258C6.17929 -0.0198992 7.39234 1.32233 8.5061 1.18785C9.29136 1.07146 10.916 0.41085 11.6642 0.561507Z" fill="#60AC71"/>
<path d="M10.2708 13.2137C10.2682 13.2183 10.2659 13.2223 10.2642 13.2254C10.2657 13.2228 10.268 13.2187 10.2708 13.2137Z" fill="#60AC71"/>
<path d="M6.75 11.6911H7.63411V8.75H8.88576C9.65397 8.75 10.2401 8.89786 10.644 9.19357C11.048 9.48929 11.25 9.94571 11.25 10.5629C11.25 11.18 11.0447 11.6493 10.6341 11.9707C10.2301 12.2857 9.64735 12.4432 8.88576 12.4432H8.48841V13.2339H10.5844V13.9764H8.48841V15.5H7.63411V13.9764H6.75V13.2339H7.63411V12.4432H6.75V11.6911ZM8.48841 9.51179V11.6911H8.83609C9.33278 11.6911 9.71027 11.6043 9.96854 11.4307C10.2268 11.2571 10.356 10.9679 10.356 10.5629C10.356 10.2157 10.2368 9.95536 9.99834 9.78179C9.75993 9.60179 9.36258 9.51179 8.80629 9.51179H8.48841Z" fill="white"/>
</g>
<defs>
<clipPath id="clip0_4299_120142">
<rect width="18" height="18" fill="white" transform="translate(0 0.5)"/>
</clipPath>
</defs>
</svg>
