<svg width="24" height="25" viewBox="0 0 24 25" fill="none" xmlns="http://www.w3.org/2000/svg">
<g clip-path="url(#clip0_4477_29727)">
<path d="M13.6324 16.4426C13.5428 16.3445 13.4294 16.271 13.3122 16.2099C13.0571 16.0768 12.778 15.9961 12.501 15.9233V18.0702C12.9507 18.0193 13.467 17.8561 13.7031 17.4363C13.8158 17.2358 13.8382 16.9894 13.7923 16.7661C13.7674 16.6452 13.7159 16.5341 13.6324 16.4426Z" fill="#CED1D7"/>
<path d="M13.7012 17.4404C13.7021 17.4389 13.7026 17.4379 13.7035 17.4363C13.7028 17.4377 13.702 17.439 13.7012 17.4404Z" fill="#CED1D7"/>
<path d="M10.3921 13.0106C10.3148 13.1235 10.2663 13.2518 10.2529 13.3881C10.2395 13.5247 10.247 13.6767 10.2989 13.8053C10.3483 13.9278 10.4518 14.0183 10.5587 14.0911C10.6786 14.1727 10.8104 14.2364 10.9447 14.2904C11.0574 14.3357 11.1841 14.3791 11.3207 14.421V12.4783C10.9756 12.5519 10.5986 12.7092 10.3921 13.0106Z" fill="#CED1D7"/>
<path d="M13.712 17.4204C13.7092 17.4255 13.7061 17.4307 13.7031 17.4363C13.7066 17.4298 13.7094 17.4251 13.712 17.4204Z" fill="#CED1D7"/>
<path d="M13.7236 17.4014C13.7251 17.3987 13.7253 17.3985 13.7236 17.4014V17.4014Z" fill="#CED1D7"/>
<path d="M15.5526 0.581989C16.3033 0.733111 15.0834 4.18831 13.2577 5.72201C20.1396 8.55528 30.19 25.8777 10.1188 24.4122C-4.38702 23.3532 3.92788 8.75745 9.84356 5.84998C7.86073 4.56499 6.59336 1.61539 7.33152 0.804324C8.23938 -0.193219 9.85678 1.59642 11.3418 1.41712C12.3888 1.26193 14.555 0.381114 15.5526 0.581989Z" fill="#CED1D7"/>
<path d="M13.6944 17.4515C13.6909 17.4577 13.6879 17.4631 13.6855 17.4672C13.6876 17.4636 13.6906 17.4583 13.6944 17.4515Z" fill="#CED1D7"/>
<path d="M9 15.4214H10.1788V11.5H11.8477C12.872 11.5 13.6534 11.6971 14.1921 12.0914C14.7307 12.4857 15 13.0943 15 13.9171C15 14.74 14.7263 15.3657 14.1788 15.7943C13.6402 16.2143 12.8631 16.4243 11.8477 16.4243H11.3179V17.4786H14.1126V18.4686H11.3179V20.5H10.1788V18.4686H9V17.4786H10.1788V16.4243H9V15.4214ZM11.3179 12.5157V15.4214H11.7815C12.4437 15.4214 12.947 15.3057 13.2914 15.0743C13.6358 14.8429 13.8079 14.4571 13.8079 13.9171C13.8079 13.4543 13.649 13.1071 13.3311 12.8757C13.0132 12.6357 12.4834 12.5157 11.7417 12.5157H11.3179Z" fill="white"/>
</g>
<defs>
<clipPath id="clip0_4477_29727">
<rect width="24" height="24" fill="white" transform="translate(0 0.5)"/>
</clipPath>
</defs>
</svg>
