<svg width="20" height="20" viewBox="0 0 20 20" fill="none" xmlns="http://www.w3.org/2000/svg">
<g clip-path="url(#clip0_4477_24124)">
<path d="M18.0616 5.73211C18.223 5.57084 18.3511 5.37933 18.4385 5.16852C18.5259 4.95771 18.5709 4.73175 18.5709 4.50354C18.5709 4.27534 18.5259 4.04937 18.4385 3.83856C18.3511 3.62775 18.223 3.43624 18.0616 3.27497L16.7244 1.93711C16.3982 1.61207 15.9564 1.42957 15.4959 1.42957C15.0353 1.42957 14.5936 1.61207 14.2673 1.93711L13.4102 2.79426L17.2052 6.58854L18.0616 5.73211Z" fill="#C2C4CA"/>
<path d="M18.0616 5.73211C18.223 5.57084 18.3511 5.37933 18.4385 5.16852C18.5259 4.95771 18.5709 4.73175 18.5709 4.50354C18.5709 4.27534 18.5259 4.04937 18.4385 3.83856C18.3511 3.62775 18.223 3.43624 18.0616 3.27497L16.7244 1.93711C16.3982 1.61207 15.9564 1.42957 15.4959 1.42957C15.0353 1.42957 14.5936 1.61207 14.2673 1.93711L13.4102 2.79426L17.2052 6.58854L18.0616 5.73211Z" fill="black" fill-opacity="0.2"/>
<path d="M6.42773 10.0714V12.8571C6.42773 13.0466 6.50299 13.2283 6.63694 13.3622C6.7709 13.4962 6.95258 13.5714 7.14202 13.5714H9.92773C10.1172 13.5714 10.2988 13.4961 10.4327 13.3621L16.1934 7.60141L12.397 3.80713L6.63702 9.57141C6.50427 9.70411 6.42909 9.88372 6.42773 10.0714Z" fill="#C2C4CA"/>
<path d="M6.42773 10.0714V12.8571C6.42773 13.0466 6.50299 13.2283 6.63694 13.3622C6.7709 13.4962 6.95258 13.5714 7.14202 13.5714H9.92773C10.1172 13.5714 10.2988 13.4961 10.4327 13.3621L16.1934 7.60141L12.397 3.80713L6.63702 9.57141C6.50427 9.70411 6.42909 9.88372 6.42773 10.0714Z" fill="black" fill-opacity="0.2"/>
<path d="M18.572 9.28572C18.3825 9.28572 18.2009 9.36098 18.0669 9.49493C17.933 9.62889 17.8577 9.81057 17.8577 10V15.6093C17.8569 16.2052 17.6199 16.7765 17.1985 17.1979C16.7771 17.6193 16.2058 17.8564 15.6098 17.8572H4.39127C3.79534 17.8564 3.22402 17.6193 2.80263 17.1979C2.38124 16.7765 2.14417 16.2052 2.14342 15.6093V4.39072C2.14417 3.79479 2.38124 3.22347 2.80263 2.80208C3.22402 2.38069 3.79534 2.14362 4.39127 2.14287H10.0006C10.19 2.14287 10.3717 2.06761 10.5056 1.93366C10.6396 1.7997 10.7148 1.61802 10.7148 1.42858C10.7148 1.23914 10.6396 1.05746 10.5056 0.923504C10.3717 0.789549 10.19 0.714294 10.0006 0.714294H4.39127C3.41663 0.715617 2.48228 1.10338 1.79311 1.79256C1.10393 2.48173 0.716167 3.41608 0.714844 4.39072V15.6093C0.716167 16.5839 1.10393 17.5183 1.79311 18.2075C2.48228 18.8966 3.41663 19.2844 4.39127 19.2857H15.6098C16.5845 19.2844 17.5188 18.8966 18.208 18.2075C18.8972 17.5183 19.285 16.5839 19.2863 15.6093V10C19.2863 9.81057 19.211 9.62889 19.0771 9.49493C18.9431 9.36098 18.7614 9.28572 18.572 9.28572Z" fill="#C2C4CA"/>
<path d="M18.572 9.28572C18.3825 9.28572 18.2009 9.36098 18.0669 9.49493C17.933 9.62889 17.8577 9.81057 17.8577 10V15.6093C17.8569 16.2052 17.6199 16.7765 17.1985 17.1979C16.7771 17.6193 16.2058 17.8564 15.6098 17.8572H4.39127C3.79534 17.8564 3.22402 17.6193 2.80263 17.1979C2.38124 16.7765 2.14417 16.2052 2.14342 15.6093V4.39072C2.14417 3.79479 2.38124 3.22347 2.80263 2.80208C3.22402 2.38069 3.79534 2.14362 4.39127 2.14287H10.0006C10.19 2.14287 10.3717 2.06761 10.5056 1.93366C10.6396 1.7997 10.7148 1.61802 10.7148 1.42858C10.7148 1.23914 10.6396 1.05746 10.5056 0.923504C10.3717 0.789549 10.19 0.714294 10.0006 0.714294H4.39127C3.41663 0.715617 2.48228 1.10338 1.79311 1.79256C1.10393 2.48173 0.716167 3.41608 0.714844 4.39072V15.6093C0.716167 16.5839 1.10393 17.5183 1.79311 18.2075C2.48228 18.8966 3.41663 19.2844 4.39127 19.2857H15.6098C16.5845 19.2844 17.5188 18.8966 18.208 18.2075C18.8972 17.5183 19.285 16.5839 19.2863 15.6093V10C19.2863 9.81057 19.211 9.62889 19.0771 9.49493C18.9431 9.36098 18.7614 9.28572 18.572 9.28572Z" fill="black" fill-opacity="0.2"/>
</g>
<defs>
<clipPath id="clip0_4477_24124">
<rect width="20" height="20" fill="white"/>
</clipPath>
</defs>
</svg>
