<svg width="24" height="24" viewBox="0 0 24 24" fill="none" xmlns="http://www.w3.org/2000/svg">
<path d="M12.0342 3.86523C13.2021 3.86524 14.3151 4.10616 15.3721 4.58887L15.7617 4.77832C16.5826 5.2033 17.3148 5.75254 17.9609 6.42285V4.17383H19.165V8.54688H14.7939V7.3418H17.1514C16.4981 6.66121 15.7556 6.11964 14.9209 5.71875V5.71777C14.0214 5.28519 13.0598 5.06934 12.0352 5.06934C10.102 5.06934 8.46598 5.74137 7.12109 7.08691C5.77618 8.43249 5.10418 10.0682 5.10352 12C5.10285 13.9318 5.77484 15.5678 7.12109 16.9141C8.46734 18.2603 10.1031 18.932 12.0342 18.9307C13.7679 18.9307 15.2745 18.367 16.5576 17.2383C17.8414 16.109 18.6165 14.6937 18.8848 12.9893L18.8984 12.9043H20.1123L20.0996 13.0156C19.8584 15.0627 18.9692 16.7631 17.4346 18.1113C15.9001 19.4601 14.0988 20.1348 12.0352 20.1348C10.9081 20.1348 9.85059 19.9228 8.86328 19.498C7.87774 19.074 7.0154 18.4936 6.27832 17.7559C5.54128 17.0181 4.96082 16.1557 4.53613 15.1709C4.1107 14.1842 3.89905 13.127 3.90039 12C3.90175 10.873 4.11371 9.81572 4.53711 8.8291C4.95981 7.84416 5.54021 6.98189 6.2793 6.24414C7.01819 5.50661 7.87934 4.92597 8.86133 4.50195C9.84546 4.07708 10.9038 3.86523 12.0342 3.86523ZM12.6367 6.87793V11.75L16.0469 15.1602L15.9756 15.2305L15.2656 15.9414L15.1953 16.0127L15.124 15.9414L11.4609 12.2793L11.4316 12.25V6.87793H12.6367Z" fill="#737781" stroke="#737781" stroke-width="0.2"/>
</svg>
