<svg width="24" height="24" viewBox="0 0 24 24" fill="none" xmlns="http://www.w3.org/2000/svg">
<path d="M19.2233 11.932C19.6893 11.932 20 11.6214 20 11.1553V5.40777C20 4.08738 18.9126 3 17.5922 3H6.71845C5.16505 3 4 4.24272 4 5.71845V20.8641C4 21.1748 4.15534 21.4854 4.46602 21.5631C4.7767 21.7184 5.08738 21.6408 5.32039 21.4078L10.3689 16.7476L15.4175 21.4078C15.5728 21.5631 15.7282 21.6408 15.9612 21.6408C16.0388 21.6408 16.1942 21.6408 16.2718 21.5631C16.5825 21.4078 16.7379 21.1748 16.7379 20.8641V5.40777C16.7379 4.94175 17.1262 4.5534 17.5922 4.5534C18.0583 4.5534 18.4466 4.94175 18.4466 5.40777V11.1553C18.4466 11.6214 18.835 11.932 19.2233 11.932ZM13.3204 9.91262L12.233 11L12.466 12.4757C12.5437 12.7864 12.3883 13.0194 12.1553 13.2524C11.9223 13.4078 11.6117 13.4854 11.3786 13.3301L10.0583 12.5534L8.73786 13.2524C8.58252 13.3301 8.50485 13.3301 8.34951 13.3301C8.19418 13.3301 8.03884 13.2524 7.8835 13.1748C7.65049 13.0194 7.49515 12.7087 7.57282 12.3981L7.80583 10.9223L6.79612 9.91262C6.56311 9.67961 6.48544 9.36893 6.56311 9.13592C6.64078 8.90291 6.87379 8.6699 7.18447 8.59223L8.66019 8.35922L9.35922 7.03883C9.51456 6.80582 9.74757 6.65049 10.0583 6.65049C10.3689 6.65049 10.6019 6.80582 10.7573 7.03883L11.4563 8.35922L12.932 8.59223C13.2427 8.59223 13.4757 8.82524 13.5534 9.13592C13.6311 9.4466 13.5534 9.67961 13.3204 9.91262Z" fill="#5C75C9"/>
</svg>
