<svg width="80" height="74" viewBox="0 0 80 74" fill="none" xmlns="http://www.w3.org/2000/svg">
<g opacity="0.2">
<path d="M41.9324 14.7691C41.9324 14.7691 32.5317 1.84871 37.4252 2.86211C42.3187 3.87546 42.8338 6.53555 48.3712 3.62217C53.9085 0.708718 55.1963 -1.95132 56.2265 1.97547C57.2567 5.90227 56.2265 7.29561 60.4761 6.53561C64.7257 5.77556 65.6271 6.91561 58.9308 13.5024C51.7194 13.5024 41.9324 14.7691 41.9324 14.7691Z" fill="#CED1D7"/>
<path d="M41.2453 15.8318C41.2453 15.8318 12.2278 40.5923 20.8128 61.0284C20.8128 61.0284 25.277 73.9997 49.4869 73.9997C73.6968 73.9997 75.4138 65.2674 77.9894 60.7073C80.0498 54.1205 85.9735 45.584 58.9305 15.8318H41.2453Z" fill="#CED1D7"/>
<path d="M60.509 14.8252C60.509 15.4898 59.9612 16.0286 59.2856 16.0286H41.0047C40.329 16.0286 39.7812 15.4898 39.7812 14.8252V14.5902C39.7812 13.9256 40.329 13.3868 41.0047 13.3868H59.2857C59.9613 13.3868 60.5091 13.9256 60.5091 14.5902L60.509 14.8252Z" fill="#C3C6CC"/>
<path d="M49.0393 59.8736V57.5233C46.5485 57.4252 44.0848 56.8471 42.335 56.0936C41.7102 55.8245 41.3917 55.1347 41.5712 54.4875L42.1782 52.2983C42.4008 51.4952 43.2888 51.0798 44.0692 51.4016C45.805 52.1173 47.9482 52.6837 50.2592 52.6837C52.6582 52.6837 54.4473 51.8836 54.4473 50.2436C54.4473 48.7639 53.0649 47.884 49.7305 47.0041C44.9731 45.7242 41.5574 43.6842 41.5574 39.5646C41.5574 35.8447 44.3226 33.005 49.1206 32.2452V29.8948C49.1206 29.1385 49.744 28.5254 50.5128 28.5254H51.9166C52.6855 28.5254 53.3088 29.1385 53.3088 29.8948V32.0051C55.6136 32.0959 57.2913 32.4836 58.6227 32.9437C59.3048 33.1795 59.6776 33.9023 59.4883 34.5887L58.9301 36.6134C58.715 37.3941 57.8667 37.8217 57.0975 37.5356C55.8716 37.0796 54.1384 36.6049 51.8856 36.6049C49.0392 36.6049 48.2262 37.7647 48.2262 38.8047C48.2262 40.0846 49.9339 40.9644 53.6341 42.0845C58.9202 43.6444 61.1159 45.8042 61.1159 49.6839C61.1159 53.2437 58.4323 56.4435 53.2275 57.2435V59.8737C53.2275 60.6299 52.6042 61.243 51.8354 61.243H50.4314C49.6625 61.243 49.0393 60.6299 49.0393 59.8736Z" fill="#A8AFB9"/>
<path d="M51.8358 61.3206H50.4318C49.6206 61.3206 48.9607 60.6715 48.9607 59.8735V57.5978C46.6409 57.497 44.1579 56.963 42.3038 56.1647C41.6523 55.8842 41.3047 55.1543 41.4954 54.467L42.1024 52.2779C42.2759 51.6519 42.8594 51.2146 43.5213 51.2146C43.7198 51.2146 43.9145 51.2535 44.1001 51.33C46.1246 52.1648 48.2545 52.606 50.2596 52.606C52.8326 52.606 54.3688 51.7228 54.3688 50.2435C54.3688 48.8509 53.0627 47.9637 49.7105 47.0792C47.0671 46.3679 45.137 45.4945 43.8099 44.409C42.2413 43.126 41.4789 41.5414 41.4789 39.5646C41.4789 37.6987 42.1723 36.0304 43.4843 34.7399C44.8042 33.4417 46.7249 32.557 49.0421 32.1791V29.8947C49.0421 29.0968 49.702 28.4476 50.5132 28.4476H51.9171C52.7283 28.4476 53.3882 29.0968 53.3882 29.8947V31.9305C55.3381 32.0133 57.0597 32.3209 58.6493 32.8704C59.3636 33.1173 59.7658 33.881 59.565 34.609L59.0068 36.6336C58.8334 37.2629 58.251 37.7024 57.5904 37.7024C57.4131 37.7024 57.238 37.6707 57.0699 37.6082C55.3951 36.9853 53.6994 36.6825 51.886 36.6825C48.6544 36.6825 48.3055 38.1666 48.3055 38.8046C48.3055 39.9603 49.7561 40.8291 53.6577 42.0101C59.0113 43.5899 61.1952 45.8132 61.1952 49.6838C61.1952 51.5276 60.4986 53.2112 59.1806 54.5525C57.789 55.9687 55.7591 56.9214 53.3069 57.3097V59.8736C53.3069 60.6715 52.647 61.3206 51.8358 61.3206ZM43.5213 51.37C42.9304 51.37 42.4096 51.7602 42.2547 52.3187L41.6478 54.5079C41.4776 55.1215 41.7869 55.7725 42.3671 56.0224C44.2244 56.8222 46.72 57.3542 49.0428 57.4458L49.1186 57.4487V59.8737C49.1186 60.586 49.7077 61.1654 50.4317 61.1654H51.8358C52.5598 61.1654 53.1489 60.5859 53.1489 59.8737V57.177L53.2157 57.1667C57.9671 56.4363 61.0373 53.4991 61.0373 49.6838C61.0373 45.8953 58.886 43.7153 53.6118 42.1588C51.613 41.5538 50.3459 41.0642 49.5026 40.5712C48.5782 40.0308 48.1475 39.4695 48.1475 38.8046C48.1475 38.1198 48.5118 36.5271 51.886 36.5271C53.7187 36.5271 55.4327 36.8332 57.1257 37.4629C57.2759 37.5187 57.4322 37.5471 57.5904 37.5471C58.1797 37.547 58.6994 37.1547 58.8542 36.593L59.4125 34.5684C59.5917 33.9184 59.2335 33.237 58.5969 33.017C57.0017 32.4656 55.271 32.16 53.306 32.0827L53.2302 32.0797V29.8947C53.2302 29.1825 52.6411 28.603 51.917 28.603H50.5132C49.7891 28.603 49.2 29.1825 49.2 29.8947V32.3113L49.1336 32.3219C44.5094 33.0541 41.6367 35.8294 41.6367 39.5646C41.6367 41.4923 42.3805 43.0378 43.9107 44.2896C45.2202 45.3606 47.1307 46.2241 49.7517 46.9292C53.2324 47.8476 54.5265 48.746 54.5265 50.2436C54.5265 51.8201 52.9314 52.7613 50.2595 52.7613C48.2335 52.7613 46.0825 52.3159 44.0389 51.4732C43.8728 51.4047 43.6987 51.37 43.5213 51.37Z" fill="#A8AFB9"/>
<path d="M36.8222 69.6373C36.8133 69.6373 36.8043 69.6364 36.7953 69.6343C31.3327 68.3885 27.4956 65.6995 25.3907 61.6424C22.9723 56.981 23.3106 51.3236 24.0202 47.3984C24.788 43.1519 26.1443 39.9607 26.158 39.929C26.1834 39.8697 26.2529 39.8421 26.3131 39.867C26.3734 39.8919 26.4017 39.9603 26.3762 40.0197C26.3627 40.0512 25.0152 43.2226 24.2525 47.4447C23.55 51.3334 23.214 56.9348 25.6021 61.5372C27.6739 65.5299 31.4577 68.1777 36.8487 69.4073C36.9125 69.4219 36.9521 69.4845 36.9374 69.5472C36.9247 69.601 36.876 69.6373 36.8222 69.6373Z" fill="white"/>
<path d="M45.3456 7.76465C43.5554 7.76465 42.3006 6.4069 42.2479 6.35035C42.2037 6.3029 42.207 6.21311 42.2552 6.16963C42.3035 6.12609 42.3784 6.1008 42.4226 6.14819C42.4348 6.16126 43.662 7.42603 45.346 7.42603C45.3512 7.42603 45.3562 7.42603 45.3613 7.42603C46.4563 7.42603 47.5076 6.89716 48.4862 5.82902C48.53 5.78132 48.6049 5.7877 48.6534 5.83064C48.7021 5.87376 48.706 5.98487 48.6621 6.03269C47.6364 7.15244 46.5254 7.76471 45.3602 7.76471C45.3553 7.76465 45.3504 7.76465 45.3456 7.76465Z" fill="white"/>
<path d="M57.4969 8.99325C56.8431 8.99331 56.379 8.82692 56.1151 8.49721C55.7291 8.01514 55.9283 7.37637 55.937 7.34945C55.9567 7.28809 56.0232 7.25406 56.0856 7.27345C56.1479 7.29284 56.1825 7.35824 56.1629 7.41955C56.1601 7.42852 55.9944 7.97154 56.3022 8.35437C56.5537 8.66703 57.0506 8.8003 57.779 8.75014C57.8442 8.74598 57.9009 8.79404 57.9055 8.8583C57.91 8.92249 57.8608 8.97814 57.7955 8.98265C57.692 8.9897 57.5924 8.99325 57.4969 8.99325Z" fill="white"/>
<path d="M32.7669 56.4533L30.3566 72.2102L8.99917 69.0492L8.99883 69.0491L0 67.7173L2.41047 51.9609L19.2129 54.4474L32.7669 56.4533Z" fill="#B6BBC3"/>
<path d="M30.7619 57.9582L28.8905 70.1911L1.60547 66.1529L3.47689 53.9201L30.7619 57.9582ZM28.7411 68.6341L30.1525 59.4087C30.2483 58.7825 29.8098 58.1985 29.1731 58.1042L4.97232 54.5226C4.32422 54.4267 3.71973 54.8656 3.62222 55.5031L2.21658 64.6916C2.11988 65.3237 2.56248 65.9133 3.2052 66.0085L27.4216 69.5925C28.0551 69.6862 28.6458 69.2571 28.7411 68.6341Z" fill="#ECECEC"/>
<path d="M15.6786 65.347C13.8306 65.0735 12.5579 63.3783 12.836 61.5606C13.1141 59.743 14.8376 58.4912 16.6856 58.7647C18.5337 59.0382 19.8063 60.7334 19.5283 62.551C19.2502 64.3687 17.5266 65.6205 15.6786 65.347Z" fill="#ECECEC"/>
<path d="M34.731 56.5268L22.0254 66.4125L8.62633 49.7516L8.62617 49.7514L2.98047 42.7315L15.6859 32.8463L26.2275 45.9535L34.731 56.5268Z" fill="#B6BBC3"/>
<path d="M32.2223 56.2783L22.3582 63.9529L5.24023 42.6681L15.1043 34.9935L32.2223 56.2783ZM23.3307 62.7156L30.7697 56.9279C31.2747 56.535 31.3602 55.8139 30.9608 55.3173L15.7778 36.4384C15.3712 35.9328 14.6248 35.8471 14.1108 36.2471L6.70156 42.0117C6.19182 42.4083 6.10542 43.1363 6.50865 43.6377L21.7015 62.5287C22.0989 63.0228 22.8283 63.1065 23.3307 62.7156Z" fill="#E1E3E6"/>
<path d="M16.0767 51.5382C14.9174 50.0965 15.1656 48.0035 16.6313 46.8631C18.097 45.7227 20.225 45.9669 21.3845 47.4086C22.5438 48.8501 22.2956 50.9432 20.8299 52.0836C19.3641 53.224 17.2361 52.9798 16.0767 51.5382Z" fill="#E1E3E6"/>
</g>
</svg>
