<svg width="24" height="24" viewBox="0 0 24 24" fill="none" xmlns="http://www.w3.org/2000/svg">
<g clip-path="url(#clip0_3743_64587)">
<path d="M16.7344 14.625C14.1497 14.625 12.0469 16.7278 12.0469 19.3125C12.0469 21.8972 14.1497 24 16.7344 24C19.3191 24 21.4219 21.8972 21.4219 19.3125C21.4219 16.7278 19.3191 14.625 16.7344 14.625ZM18.6094 20.0156H17.4375V21.1875C17.4375 21.5758 17.1227 21.8906 16.7344 21.8906C16.3461 21.8906 16.0312 21.5758 16.0312 21.1875V20.0156H14.8594C14.4711 20.0156 14.1562 19.7008 14.1562 19.3125C14.1562 18.9242 14.4711 18.6094 14.8594 18.6094H16.0312V17.4375C16.0312 17.0492 16.3461 16.7344 16.7344 16.7344C17.1227 16.7344 17.4375 17.0492 17.4375 17.4375V18.6094H18.6094C18.9977 18.6094 19.3125 18.9242 19.3125 19.3125C19.3125 19.7008 18.9977 20.0156 18.6094 20.0156Z" fill="#5C75C9"/>
<path d="M16.7344 7.96875C14.5374 7.96875 12.75 6.18136 12.75 3.98438C12.75 1.78739 14.5374 0 16.7344 0C18.9314 0 20.7188 1.78739 20.7188 3.98438C20.7188 6.18136 18.9314 7.96875 16.7344 7.96875Z" fill="#5C75C9"/>
<path d="M7.26562 7.96875C5.06864 7.96875 3.28125 6.18136 3.28125 3.98438C3.28125 1.78739 5.06864 0 7.26562 0C9.46261 0 11.25 1.78739 11.25 3.98438C11.25 6.18136 9.46261 7.96875 7.26562 7.96875Z" fill="#5C75C9"/>
<path d="M19.995 8.27399C19.089 8.96436 17.9588 9.37499 16.7344 9.37499C15.51 9.37499 14.3798 8.96436 13.4738 8.27399C11.1005 9.47089 9.46875 11.9311 9.46875 14.7656V18.6094C9.46875 18.9977 9.78356 19.3125 10.1719 19.3125H10.6406C10.6406 15.9523 13.3742 13.2187 16.7344 13.2187C20.0945 13.2187 22.8281 15.9523 22.8281 19.3125H23.2969C23.6852 19.3125 24 18.9977 24 18.6094V14.7656C24 11.9311 22.3683 9.47089 19.995 8.27399Z" fill="#5C75C9"/>
<path d="M4.00505 8.27408C1.63177 9.47098 0 11.9312 0 14.7657V18.6094C0 18.9977 0.314812 19.3125 0.703125 19.3125H8.0625V14.8407C8.0625 12.3359 9.13955 10.0497 10.8529 8.44301C10.7469 8.38259 10.6391 8.32578 10.5303 8.27094C9.62358 8.96319 8.49187 9.37503 7.26562 9.37503C6.0412 9.37503 4.91109 8.9644 4.00505 8.27408Z" fill="#5C75C9"/>
</g>
<defs>
<clipPath id="clip0_3743_64587">
<rect width="24" height="24" fill="white"/>
</clipPath>
</defs>
</svg>
