<svg width="28" height="28" viewBox="0 0 28 28" fill="none" xmlns="http://www.w3.org/2000/svg">
<circle cx="14" cy="14" r="14" fill="#B3BAEA" fill-opacity="0.5"/>
<circle cx="14" cy="14" r="10" fill="#5C75C9"/>
<path d="M11.1053 17.1634L13.6447 14.1465C14.4781 13.1662 14.8947 12.3803 14.8947 11.7887C14.8947 11.1549 14.6009 10.838 14.0132 10.838C13.7149 10.838 13.4561 10.931 13.2368 11.1169C13.0263 11.3028 12.8289 11.5437 12.6447 11.8394L11 10.8507C11.3246 10.3014 11.7544 9.85775 12.2895 9.51972C12.8246 9.17324 13.4254 9 14.0921 9C14.5044 9 14.886 9.05915 15.2368 9.17746C15.5965 9.29577 15.9035 9.46479 16.1579 9.68451C16.4211 9.90423 16.6272 10.1704 16.7763 10.4831C16.9254 10.7873 17 11.1296 17 11.5099C17 12 16.8772 12.5324 16.6316 13.107C16.386 13.6732 15.9737 14.2901 15.3947 14.9577L14.3947 16.0986H16.9605V18H11.1053V17.1634Z" fill="white"/>
</svg>
