<svg width="24" height="24" viewBox="0 0 24 24" fill="none" xmlns="http://www.w3.org/2000/svg">
<path d="M18.2857 5.14286H17.7143V4.57143C17.7143 4.41988 17.6541 4.27453 17.5469 4.16737C17.4398 4.0602 17.2944 4 17.1429 4C16.9913 4 16.846 4.0602 16.7388 4.16737C16.6316 4.27453 16.5714 4.41988 16.5714 4.57143V5.14286H14.2857V4.57143C14.2857 4.41988 14.2255 4.27453 14.1183 4.16737C14.0112 4.0602 13.8658 4 13.7143 4C13.5627 4 13.4174 4.0602 13.3102 4.16737C13.2031 4.27453 13.1429 4.41988 13.1429 4.57143V5.14286H10.8571V4.57143C10.8571 4.41988 10.7969 4.27453 10.6898 4.16737C10.5826 4.0602 10.4373 4 10.2857 4C10.1342 4 9.98882 4.0602 9.88165 4.16737C9.77449 4.27453 9.71429 4.41988 9.71429 4.57143V5.14286H7.42857V4.57143C7.42857 4.41988 7.36837 4.27453 7.2612 4.16737C7.15404 4.0602 7.0087 4 6.85714 4C6.70559 4 6.56025 4.0602 6.45308 4.16737C6.34592 4.27453 6.28571 4.41988 6.28571 4.57143V5.14286H5.71429C5.25963 5.14286 4.82359 5.32347 4.5021 5.64496C4.18061 5.96645 4 6.40249 4 6.85714V8.57143H20V6.85714C20 6.40249 19.8194 5.96645 19.4979 5.64496C19.1764 5.32347 18.7404 5.14286 18.2857 5.14286Z" fill="#5C75C9"/>
<path d="M4 18.2857C4 18.7404 4.18061 19.1764 4.5021 19.4979C4.82359 19.8194 5.25963 20 5.71429 20H18.2857C18.7404 20 19.1764 19.8194 19.4979 19.4979C19.8194 19.1764 20 18.7404 20 18.2857V9.71428H4V18.2857ZM15.4286 12.5714H16.5714C16.723 12.5714 16.8683 12.6316 16.9755 12.7388C17.0827 12.846 17.1429 12.9913 17.1429 13.1429C17.1429 13.2944 17.0827 13.4397 16.9755 13.5469C16.8683 13.6541 16.723 13.7143 16.5714 13.7143H15.4286C15.277 13.7143 15.1317 13.6541 15.0245 13.5469C14.9173 13.4397 14.8571 13.2944 14.8571 13.1429C14.8571 12.9913 14.9173 12.846 15.0245 12.7388C15.1317 12.6316 15.277 12.5714 15.4286 12.5714ZM15.4286 15.4286H16.5714C16.723 15.4286 16.8683 15.4888 16.9755 15.5959C17.0827 15.7031 17.1429 15.8484 17.1429 16C17.1429 16.1515 17.0827 16.2969 16.9755 16.4041C16.8683 16.5112 16.723 16.5714 16.5714 16.5714H15.4286C15.277 16.5714 15.1317 16.5112 15.0245 16.4041C14.9173 16.2969 14.8571 16.1515 14.8571 16C14.8571 15.8484 14.9173 15.7031 15.0245 15.5959C15.1317 15.4888 15.277 15.4286 15.4286 15.4286ZM11.4286 12.5714H12.5714C12.723 12.5714 12.8683 12.6316 12.9755 12.7388C13.0827 12.846 13.1429 12.9913 13.1429 13.1429C13.1429 13.2944 13.0827 13.4397 12.9755 13.5469C12.8683 13.6541 12.723 13.7143 12.5714 13.7143H11.4286C11.277 13.7143 11.1317 13.6541 11.0245 13.5469C10.9173 13.4397 10.8571 13.2944 10.8571 13.1429C10.8571 12.9913 10.9173 12.846 11.0245 12.7388C11.1317 12.6316 11.277 12.5714 11.4286 12.5714ZM11.4286 15.4286H12.5714C12.723 15.4286 12.8683 15.4888 12.9755 15.5959C13.0827 15.7031 13.1429 15.8484 13.1429 16C13.1429 16.1515 13.0827 16.2969 12.9755 16.4041C12.8683 16.5112 12.723 16.5714 12.5714 16.5714H11.4286C11.277 16.5714 11.1317 16.5112 11.0245 16.4041C10.9173 16.2969 10.8571 16.1515 10.8571 16C10.8571 15.8484 10.9173 15.7031 11.0245 15.5959C11.1317 15.4888 11.277 15.4286 11.4286 15.4286ZM7.42857 12.5714H8.57143C8.72298 12.5714 8.86833 12.6316 8.97549 12.7388C9.08265 12.846 9.14286 12.9913 9.14286 13.1429C9.14286 13.2944 9.08265 13.4397 8.97549 13.5469C8.86833 13.6541 8.72298 13.7143 8.57143 13.7143H7.42857C7.27702 13.7143 7.13167 13.6541 7.02451 13.5469C6.91735 13.4397 6.85714 13.2944 6.85714 13.1429C6.85714 12.9913 6.91735 12.846 7.02451 12.7388C7.13167 12.6316 7.27702 12.5714 7.42857 12.5714ZM7.42857 15.4286H8.57143C8.72298 15.4286 8.86833 15.4888 8.97549 15.5959C9.08265 15.7031 9.14286 15.8484 9.14286 16C9.14286 16.1515 9.08265 16.2969 8.97549 16.4041C8.86833 16.5112 8.72298 16.5714 8.57143 16.5714H7.42857C7.27702 16.5714 7.13167 16.5112 7.02451 16.4041C6.91735 16.2969 6.85714 16.1515 6.85714 16C6.85714 15.8484 6.91735 15.7031 7.02451 15.5959C7.13167 15.4888 7.27702 15.4286 7.42857 15.4286Z" fill="#5C75C9"/>
</svg>
