<svg width="18" height="18" viewBox="0 0 18 18" fill="none" xmlns="http://www.w3.org/2000/svg">
<path d="M7.11316 12.6455L6.41004 11.3565C6.33799 11.2244 6.29527 11.0775 6.28432 10.9277L4.68654 11.3272C3.69354 11.5755 3 12.4637 3 13.4873V14.6483C3 14.8425 3.15741 14.9999 3.35156 14.9999H4.40625V14.1327C4.40625 13.9385 4.56366 13.7811 4.75781 13.7811C4.95197 13.7811 5.10938 13.9385 5.10938 14.1327V14.9999H7.6875V13.1349C7.44607 13.0495 7.23977 12.8777 7.11316 12.6455Z" fill="#737781"/>
<path d="M11.3916 11.3272L9.7938 10.9277C9.78286 11.0775 9.74011 11.2245 9.66804 11.3566L8.96496 12.6455C8.83835 12.8777 8.63205 13.0495 8.39062 13.1349V14.9999H10.9688V14.1327C10.9688 13.9385 11.1262 13.7811 11.3203 13.7811C11.5145 13.7811 11.6719 13.9385 11.6719 14.1327V14.9999H12.7266C12.9207 14.9999 13.0781 14.8425 13.0781 14.6483V13.4873C13.0781 12.4637 12.3846 11.5755 11.3916 11.3272Z" fill="#737781"/>
<path d="M6.5014 5.18391C6.70062 4.98469 6.96546 4.875 7.24718 4.875C8.2729 4.875 9.28809 5.21611 10.1057 5.83552L10.4878 6.12499C11.0735 5.76982 11.4375 5.13614 11.4375 4.43316V3.82031C11.4375 3.62616 11.2801 3.46875 11.0859 3.46875H10.196C9.87593 3.16608 9.45914 3 9.01678 3H7.37616C6.25547 3 5.34375 3.91172 5.34375 5.03241C5.34375 5.39337 5.4548 5.73708 5.65997 6.02536L6.5014 5.18391Z" fill="#737781"/>
<path d="M9.09375 10.8518V10.7725C8.76633 10.8992 8.41071 10.969 8.03906 10.969C7.66741 10.969 7.3118 10.8992 6.98438 10.7725V10.8518C6.98438 10.9106 6.99914 10.9685 7.02731 11.0201L7.73044 12.3092C7.86368 12.5535 8.21447 12.5535 8.34771 12.3092L9.05084 11.0201C9.07898 10.9685 9.09375 10.9106 9.09375 10.8518Z" fill="#737781"/>
<path d="M7.24718 5.57812C7.15395 5.57812 7.06451 5.61516 6.99858 5.68109L5.8125 6.86719V8.03906C5.8125 9.26876 6.80937 10.2656 8.03906 10.2656C9.26876 10.2656 10.2656 9.26876 10.2656 8.03906V6.83878L9.68112 6.39598C8.98066 5.86533 8.12597 5.57812 7.24718 5.57812Z" fill="#737781"/>
<path d="M13.951 12.0812C14.0163 12.4729 14.5793 12.4729 14.6446 12.0812L14.9472 10.2656H13.6484L13.951 12.0812Z" fill="#737781"/>
<path d="M14.5312 4.17188H14.0625C13.8036 4.17188 13.5938 4.38173 13.5938 4.64062V9.5625H15V4.64062C15 4.38173 14.7901 4.17188 14.5312 4.17188Z" fill="#737781"/>
</svg>
