<svg width="14" height="12" viewBox="0 0 14 12" fill="none" xmlns="http://www.w3.org/2000/svg">
<path d="M4.8426 11.3391C4.76947 11.3391 4.696 11.3114 4.6401 11.2555L0.0838477 6.69922C-0.0279492 6.58742 -0.0279492 6.40637 0.0838477 6.29457L1.81881 4.55961C1.93061 4.44781 2.11166 4.44781 2.22346 4.55961L4.78565 7.1218C4.81693 7.15309 4.86791 7.15309 4.89955 7.1218L11.2765 0.744805C11.3303 0.691016 11.4031 0.661133 11.479 0.661133C11.555 0.661133 11.6278 0.691367 11.6815 0.744805L13.4165 2.47977C13.5283 2.59156 13.5283 2.77262 13.4165 2.88441L5.0451 11.2555C4.9892 11.3114 4.91572 11.3391 4.8426 11.3391Z" fill="#5C75C9"/>
</svg>
