<svg width="10" height="12" viewBox="0 0 10 12" fill="none" xmlns="http://www.w3.org/2000/svg">
<g opacity="0.99" clip-path="url(#clip0_4539_3843)">
<path fill-rule="evenodd" clip-rule="evenodd" d="M0.64059 4.63923H1.07438V3.72008C1.07438 2.70283 1.51303 1.77502 2.21969 1.10121C2.93244 0.422027 3.91605 0 4.99995 0C6.08351 0 7.06795 0.421582 7.77969 1.10121C8.48687 1.77502 8.92564 2.70238 8.92564 3.72008V4.63923H9.35941C9.71167 4.63923 10 4.90288 10 5.22501V11.4142C10 11.7364 9.71167 12 9.35941 12H0.64059C0.287846 12 2.88881e-07 11.7364 2.88881e-07 11.4142V5.22501C-0.000333044 4.90288 0.287846 4.63923 0.64059 4.63923ZM4.47415 8.7166L3.78267 10.3717H6.21659L5.57644 8.69365C5.9829 8.50256 6.26074 8.11524 6.26074 7.66861C6.26074 7.03161 5.69626 6.5158 4.99962 6.5158C4.30339 6.5158 3.73928 7.03161 3.73928 7.66861C3.73887 8.13345 4.04023 8.53389 4.47415 8.7166ZM2.28685 4.63923H7.71254V3.72008C7.71254 2.99658 7.40423 2.34092 6.90803 1.86773C6.41708 1.39965 5.74162 1.10883 4.99962 1.10883C4.25795 1.10883 3.58197 1.39965 3.09136 1.86773C2.59469 2.34092 2.28685 2.99658 2.28685 3.72008V4.63923Z" fill="white"/>
</g>
<defs>
<clipPath id="clip0_4539_3843">
<rect width="10" height="12" fill="white"/>
</clipPath>
</defs>
</svg>
