<svg width="24" height="24" viewBox="0 0 24 24" fill="none" xmlns="http://www.w3.org/2000/svg">
<path fill-rule="evenodd" clip-rule="evenodd" d="M11.9993 22.125C11.7009 22.125 11.4148 22.0065 11.2038 21.7955C10.9928 21.5845 10.8743 21.2984 10.8743 21V5.71499L6.79428 9.79499C6.58102 9.99371 6.29895 10.1019 6.0075 10.0967C5.71605 10.0916 5.43797 9.97354 5.23185 9.76742C5.02573 9.5613 4.90766 9.28322 4.90252 8.99177C4.89738 8.70032 5.00556 8.41825 5.20428 8.20499L11.2043 2.20499C11.4152 1.99431 11.7012 1.87598 11.9993 1.87598C12.2974 1.87598 12.5833 1.99431 12.7943 2.20499L18.7943 8.20499C18.993 8.41825 19.1012 8.70032 19.096 8.99177C19.0909 9.28322 18.9728 9.5613 18.7667 9.76742C18.5606 9.97354 18.2825 10.0916 17.9911 10.0967C17.6996 10.1019 17.4175 9.99371 17.2043 9.79499L13.1243 5.71499V21C13.1243 21.2984 13.0058 21.5845 12.7948 21.7955C12.5838 22.0065 12.2976 22.125 11.9993 22.125Z" fill="white"/>
</svg>
