<svg width="50" height="50" viewBox="0 0 50 50" fill="none" xmlns="http://www.w3.org/2000/svg">
<path fill-rule="evenodd" clip-rule="evenodd" d="M25.0013 4.16675C27.7371 4.16674 30.4462 4.70559 32.9739 5.75256C35.5015 6.79953 37.7981 8.33409 39.7327 10.2686C41.6673 12.2032 43.2018 14.4998 44.2488 17.0275C45.2958 19.5551 45.8347 22.2642 45.8347 25C45.8347 36.506 36.5072 45.8335 25.0013 45.8335C13.4954 45.8335 4.16797 36.506 4.16797 25C4.16797 13.4942 13.4954 4.16675 25.0013 4.16675Z" fill="#5C75C9"/>
<path d="M22.6769 32C22.5879 32 22.4984 31.9662 22.4304 31.8981L16.8833 26.3511C16.7472 26.215 16.7472 25.9946 16.8833 25.8585L18.9956 23.7462C19.1317 23.6101 19.3521 23.6101 19.4882 23.7462L22.6076 26.8656C22.6457 26.9037 22.7077 26.9037 22.7462 26.8656L30.5099 19.1019C30.5754 19.0364 30.664 19 30.7565 19C30.8489 19 30.9375 19.0368 31.003 19.1019L33.1152 21.2141C33.2514 21.3502 33.2514 21.5706 33.1152 21.7067L22.9234 31.8981C22.8554 31.9662 22.7659 32 22.6769 32Z" fill="white"/>
</svg>
