<svg width="20" height="20" viewBox="0 0 20 20" fill="none" xmlns="http://www.w3.org/2000/svg">
<path d="M15.5 5.97236H13.46C13.3338 5.14511 12.9155 4.39042 12.2807 3.84512C11.6459 3.29983 10.8368 3 10 3C9.16318 3 8.35405 3.29983 7.71929 3.84512C7.08453 4.39042 6.66615 5.14511 6.54 5.97236H4.5C4.10218 5.97236 3.72064 6.1304 3.43934 6.4117C3.15804 6.69301 3 7.07454 3 7.47236V15.4724C3 15.8702 3.15804 16.2517 3.43934 16.533C3.72064 16.8143 4.10218 16.9724 4.5 16.9724H15.5C15.8978 16.9724 16.2794 16.8143 16.5607 16.533C16.842 16.2517 17 15.8702 17 15.4724V7.47236C17 7.07454 16.842 6.69301 16.5607 6.4117C16.2794 6.1304 15.8978 5.97236 15.5 5.97236ZM16 7.47236V8.97236H12.445C12.9881 8.43297 13.3393 7.73044 13.445 6.97236H15.5C15.6326 6.97236 15.7598 7.02504 15.8536 7.11881C15.9473 7.21258 16 7.33976 16 7.47236ZM4.5 6.97236H6.54C6.64568 7.73044 6.99695 8.43297 7.54 8.97236H4V7.47236C4 7.33976 4.05268 7.21258 4.14645 7.11881C4.24021 7.02504 4.36739 6.97236 4.5 6.97236ZM15.5 15.9724H4.5C4.36739 15.9724 4.24021 15.9197 4.14645 15.8259C4.05268 15.7321 4 15.605 4 15.4724V9.97236H16V15.4724C16 15.605 15.9473 15.7321 15.8536 15.8259C15.7598 15.9197 15.6326 15.9724 15.5 15.9724Z" fill="#5C75C9"/>
<path d="M8.5 12.9724H5.5C5.36739 12.9724 5.24021 13.025 5.14645 13.1188C5.05268 13.2126 5 13.3397 5 13.4724C5 13.605 5.05268 13.7321 5.14645 13.8259C5.24021 13.9197 5.36739 13.9724 5.5 13.9724H8.5C8.63261 13.9724 8.75979 13.9197 8.85355 13.8259C8.94732 13.7321 9 13.605 9 13.4724C9 13.3397 8.94732 13.2126 8.85355 13.1188C8.75979 13.025 8.63261 12.9724 8.5 12.9724Z" fill="#5C75C9"/>
<path d="M14.5 12.9724H14C13.8674 12.9724 13.7402 13.025 13.6464 13.1188C13.5527 13.2126 13.5 13.3397 13.5 13.4724C13.5 13.605 13.5527 13.7321 13.6464 13.8259C13.7402 13.9197 13.8674 13.9724 14 13.9724H14.5C14.6326 13.9724 14.7598 13.9197 14.8536 13.8259C14.9473 13.7321 15 13.605 15 13.4724C15 13.3397 14.9473 13.2126 14.8536 13.1188C14.7598 13.025 14.6326 12.9724 14.5 12.9724Z" fill="#5C75C9"/>
<path d="M12.5 12.9724H12C11.8674 12.9724 11.7402 13.025 11.6464 13.1188C11.5527 13.2126 11.5 13.3397 11.5 13.4724C11.5 13.605 11.5527 13.7321 11.6464 13.8259C11.7402 13.9197 11.8674 13.9724 12 13.9724H12.5C12.6326 13.9724 12.7598 13.9197 12.8536 13.8259C12.9473 13.7321 13 13.605 13 13.4724C13 13.3397 12.9473 13.2126 12.8536 13.1188C12.7598 13.025 12.6326 12.9724 12.5 12.9724Z" fill="#5C75C9"/>
<path d="M9 6.97235H9.5V7.47235C9.5 7.60496 9.55268 7.73214 9.64645 7.8259C9.74021 7.91967 9.86739 7.97235 10 7.97235C10.1326 7.97235 10.2598 7.91967 10.3536 7.8259C10.4473 7.73214 10.5 7.60496 10.5 7.47235V6.97235H11C11.1326 6.97235 11.2598 6.91967 11.3536 6.8259C11.4473 6.73214 11.5 6.60496 11.5 6.47235C11.5 6.33974 11.4473 6.21257 11.3536 6.1188C11.2598 6.02503 11.1326 5.97235 11 5.97235H10.5V5.47235C10.5 5.33974 10.4473 5.21257 10.3536 5.1188C10.2598 5.02503 10.1326 4.97235 10 4.97235C9.86739 4.97235 9.74021 5.02503 9.64645 5.1188C9.55268 5.21257 9.5 5.33974 9.5 5.47235V5.97235H9C8.86739 5.97235 8.74021 6.02503 8.64645 6.1188C8.55268 6.21257 8.5 6.33974 8.5 6.47235C8.5 6.60496 8.55268 6.73214 8.64645 6.8259C8.74021 6.91967 8.86739 6.97235 9 6.97235Z" fill="white"/>
</svg>
