<svg width="252" height="29" viewBox="0 0 252 29" fill="none" xmlns="http://www.w3.org/2000/svg">
<path fill-rule="evenodd" clip-rule="evenodd" d="M12.882 0.0873222C11.5842 0.228454 9.63305 0.822735 8.22318 1.50627C5.30463 2.92125 3.01158 5.21049 1.57559 8.14314C0.910836 9.5009 0.137168 11.8501 0.298317 12.0222C0.331616 12.0578 0.650402 11.8657 1.00692 11.5953C1.89148 10.9247 3.90393 9.95649 5.01548 9.6669C7.59814 8.99389 10.6719 9.32742 13.0946 10.5431L13.6893 10.8416L13.0746 11.4554L12.4601 12.0694L11.4873 11.6829C8.90612 10.6576 6.16964 10.7555 3.64075 11.9641C2.53455 12.4927 1.14775 13.5632 0.418835 14.4512L0 14.9613L0.184521 16.3584C0.596023 19.4752 1.97182 22.3009 4.17536 24.5553C6.34729 26.7774 8.76406 28.1096 11.6951 28.7005L13.1814 29L13.7783 28.5279C15.5308 27.1415 16.8502 25.1312 17.3939 23.0192C17.7169 21.764 17.6361 19.0449 17.2419 17.9079C16.7285 16.4269 16.0358 15.2232 15.1269 14.2326L14.2078 13.2306L16.4312 10.992L18.6545 8.75344L18.7249 7.94738C18.8072 7.0037 19.2189 6.46893 20.052 6.22267C21.1825 5.88869 22.5051 6.81543 22.5051 7.94174C22.5051 9.1007 21.7208 9.91804 20.5619 9.96687C19.9273 9.99357 19.8065 10.0807 18.2363 11.6443L16.5799 13.2936L17.1094 13.9866C17.8168 14.9121 18.4278 16.1475 18.863 17.5318C19.1645 18.4912 19.221 18.9956 19.221 20.7306C19.221 22.4631 19.1642 22.9722 18.8633 23.9347C18.3968 25.427 17.6321 26.8697 16.6866 28.042L15.9253 28.9857L16.504 28.8892C19.9125 28.3215 22.5699 26.9732 24.8776 24.6408C26.7688 22.7293 28.0425 20.4405 28.7213 17.7345C29.1281 16.1123 29.0823 12.6583 28.6314 10.9658C26.7459 3.88843 20.1054 -0.698287 12.882 0.0873222ZM7.2734 14.6842C8.06555 15.0214 8.4879 15.59 8.55908 16.4153C8.66936 17.6936 7.82222 18.62 6.54296 18.62C4.28366 18.62 3.6994 15.6137 5.77922 14.6904C6.36944 14.4283 6.66943 14.4271 7.2734 14.6842ZM13.5886 20.7548C15.2554 22.4199 13.2843 25.0866 11.1874 24.0035C10.243 23.5157 9.85361 22.1695 10.3691 21.174C10.9809 19.9923 12.6124 19.7799 13.5886 20.7548Z" fill="#5C75C9"/>
<path d="M150.453 7.0625C152.057 5.48958 154.099 4.70312 156.578 4.70312C159.047 4.70312 161.068 5.48438 162.641 7.04688C164.214 8.61979 165 10.6562 165 13.1562C165 13.2292 164.974 13.6458 164.922 14.4062H151.203C151.484 15.75 152.188 16.8125 153.312 17.5938C154.417 18.3854 155.844 18.7812 157.594 18.7812C159.833 18.7812 161.672 18.25 163.109 17.1875L163.688 19.875C162.125 21.0312 160.094 21.6094 157.594 21.6094C154.667 21.6094 152.344 20.8281 150.625 19.2656C148.896 17.724 148.031 15.6875 148.031 13.1562C148.031 10.6771 148.839 8.64583 150.453 7.0625ZM151.203 11.6875H161.953C161.839 10.4792 161.276 9.47917 160.266 8.6875C159.224 7.88542 157.995 7.48438 156.578 7.48438C155.224 7.48438 154.068 7.86458 153.109 8.625C152.13 9.39583 151.495 10.4167 151.203 11.6875Z" fill="white"/>
<path d="M137.609 21.5781C134.953 21.5781 132.896 20.4688 131.438 18.25H131.344V28.2969H128.359V5.09375H130.094L131.047 8.51562H131.156C131.812 7.31771 132.708 6.38021 133.844 5.70312C134.979 5.01562 136.234 4.67188 137.609 4.67188C139.766 4.67188 141.573 5.46354 143.031 7.04688C144.479 8.64062 145.214 10.6667 145.234 13.125C145.234 15.5938 144.51 17.6146 143.062 19.1875C141.604 20.7812 139.786 21.5781 137.609 21.5781ZM140.625 9.0625C139.573 8.01042 138.281 7.48438 136.75 7.48438C135.219 7.48438 133.938 8.01042 132.906 9.0625C131.865 10.1146 131.344 11.4688 131.344 13.125C131.344 14.7604 131.87 16.1146 132.922 17.1875C133.964 18.25 135.25 18.7812 136.781 18.7812C138.302 18.7812 139.583 18.25 140.625 17.1875C141.667 16.1354 142.188 14.7812 142.188 13.125C142.188 11.4688 141.667 10.1146 140.625 9.0625Z" fill="white"/>
<path d="M118.297 17.4375L123.125 5.09375H126.141L119.312 22.5625C118.385 24.9062 117.391 26.5052 116.328 27.3594C115.255 28.2135 113.714 28.6406 111.703 28.6406C110.984 28.6406 110.312 28.5573 109.688 28.3906V25.6094C110.365 25.8177 111.099 25.9219 111.891 25.9219C113.078 25.9219 114.021 25.6198 114.719 25.0156C115.406 24.4219 116.01 23.401 116.531 21.9531L116.688 21.5L109.812 5.09375H112.984L118.203 17.4375H118.297Z" fill="white"/>
<path d="M103.188 17.9531C103.729 18.5781 104.583 18.8906 105.75 18.8906C106.917 18.8906 107.938 18.6979 108.812 18.3125L109.172 21C109.141 21 108.964 21.0469 108.641 21.1406C108.276 21.2448 107.99 21.3177 107.781 21.3594C107.021 21.526 106.234 21.6094 105.422 21.6094C103.505 21.6094 102.016 21.0729 100.953 20C99.8802 18.9375 99.3438 17.4688 99.3438 15.5938V7.6875H95.4062V5.09375H99.4062L100.141 0.359375H102.359V5.09375H109.141V7.6875H102.359V15.0781C102.359 16.3802 102.635 17.3385 103.188 17.9531Z" fill="white"/>
<path d="M84.8125 7.48438C83.3438 7.48438 82.1146 7.99479 81.125 9.01562C80.125 10.0469 79.625 11.3542 79.625 12.9375V21.1875H76.6094V5.09375H78.3438L79.2969 8.51562H79.4062C80.0417 7.31771 80.9167 6.38542 82.0312 5.71875C83.1562 5.04167 84.401 4.70312 85.7656 4.70312C87.8594 4.70312 89.5938 5.46354 90.9688 6.98438C92.3438 8.51562 93.0312 10.4635 93.0312 12.8281V21.1875H90.0625V12.9375C90.0625 11.3542 89.5625 10.0469 88.5625 9.01562C87.5417 7.99479 86.2917 7.48438 84.8125 7.48438Z" fill="#5C75C9"/>
<path d="M65.3906 21.5781C62.7344 21.5781 60.6771 20.4688 59.2188 18.25H59.125V28.2969H56.1406V5.09375H57.875L58.8281 8.51562H58.9375C59.5938 7.31771 60.4896 6.38021 61.625 5.70312C62.7604 5.01562 64.0156 4.67188 65.3906 4.67188C67.5469 4.67188 69.3542 5.46354 70.8125 7.04688C72.2604 8.64062 72.9948 10.6667 73.0156 13.125C73.0156 15.5938 72.2917 17.6146 70.8438 19.1875C69.3854 20.7812 67.5677 21.5781 65.3906 21.5781ZM68.4062 9.0625C67.3542 8.01042 66.0625 7.48438 64.5312 7.48438C63 7.48438 61.7188 8.01042 60.6875 9.0625C59.6458 10.1146 59.125 11.4688 59.125 13.125C59.125 14.7604 59.651 16.1146 60.7031 17.1875C61.7448 18.25 63.0312 18.7812 64.5625 18.7812C66.0833 18.7812 67.3646 18.25 68.4062 17.1875C69.4479 16.1354 69.9688 14.7812 69.9688 13.125C69.9688 11.4688 69.4479 10.1146 68.4062 9.0625Z" fill="#5C75C9"/>
<path d="M45.375 17.6719H45.5156L50.6875 5.09375H53.8906L47.1719 21.1875H43.7188L37 5.09375H40.1719L45.375 17.6719Z" fill="#5C75C9"/>
<path d="M241.337 25.2999V11.5799H243.017V12.9999C243.244 12.5733 243.631 12.2066 244.177 11.8999C244.724 11.5799 245.391 11.4199 246.177 11.4199C246.751 11.4199 247.297 11.5333 247.817 11.7599C248.337 11.9733 248.791 12.2799 249.177 12.6799C249.564 13.0799 249.871 13.5666 250.097 14.1399C250.324 14.7133 250.437 15.3466 250.437 16.0399C250.437 16.7466 250.317 17.3866 250.077 17.9599C249.851 18.5333 249.537 19.0199 249.137 19.4199C248.751 19.8199 248.297 20.1266 247.777 20.3399C247.271 20.5533 246.737 20.6599 246.177 20.6599C245.497 20.6599 244.891 20.5266 244.357 20.2599C243.837 19.9799 243.424 19.6199 243.117 19.1799V25.2999H241.337ZM245.837 13.0399C245.411 13.0399 245.031 13.1133 244.697 13.2599C244.364 13.4066 244.084 13.6066 243.857 13.8599C243.631 14.1133 243.451 14.4066 243.317 14.7399C243.197 15.0733 243.131 15.4266 243.117 15.7999V16.0999C243.117 16.4866 243.177 16.8599 243.297 17.2199C243.431 17.5666 243.611 17.8799 243.837 18.1599C244.077 18.4266 244.364 18.6466 244.697 18.8199C245.044 18.9799 245.431 19.0599 245.857 19.0599C246.257 19.0599 246.617 18.9866 246.937 18.8399C247.271 18.6933 247.557 18.4933 247.797 18.2399C248.037 17.9733 248.224 17.6533 248.357 17.2799C248.491 16.9066 248.557 16.4866 248.557 16.0199C248.557 15.0599 248.291 14.3266 247.757 13.8199C247.237 13.2999 246.597 13.0399 245.837 13.0399Z" fill="white"/>
<path d="M234.89 20.6599C234.21 20.6599 233.583 20.5533 233.01 20.3399C232.45 20.1266 231.956 19.8199 231.53 19.4199C231.116 19.0199 230.79 18.5399 230.55 17.9799C230.323 17.4066 230.21 16.7666 230.21 16.0599C230.21 15.3266 230.336 14.6733 230.59 14.0999C230.843 13.5266 231.176 13.0399 231.59 12.6399C232.016 12.2399 232.503 11.9399 233.05 11.7399C233.61 11.5266 234.196 11.4199 234.81 11.4199C235.503 11.4199 236.116 11.5466 236.65 11.7999C237.196 12.0399 237.656 12.3733 238.03 12.7999C238.403 13.2133 238.683 13.6933 238.87 14.2399C239.07 14.7733 239.17 15.3333 239.17 15.9199V16.4199H231.97C232.063 17.2733 232.383 17.9399 232.93 18.4199C233.49 18.8999 234.183 19.1399 235.01 19.1399C235.57 19.1399 236.083 19.0333 236.55 18.8199C237.03 18.6066 237.423 18.3133 237.73 17.9399L238.81 18.9399C238.37 19.5133 237.803 19.9466 237.11 20.2399C236.416 20.5199 235.676 20.6599 234.89 20.6599ZM234.69 12.9599C234.023 12.9599 233.45 13.1533 232.97 13.5399C232.503 13.9133 232.196 14.4333 232.05 15.0999H237.37C237.263 14.4866 236.963 13.9799 236.47 13.5799C235.99 13.1666 235.396 12.9599 234.69 12.9599Z" fill="white"/>
<path d="M226.248 16.6001H221.848V20.5001H220.068V11.5801H221.848V15.0201H226.248V11.5801H228.028V20.5001H226.248V16.6001Z" fill="white"/>
<path d="M213.551 13.1801H210.651V11.5801H218.231V13.1801H215.331V20.5001H213.551V13.1801Z" fill="white"/>
<path d="M200.634 25.2999V11.5799H202.314V12.9999C202.541 12.5733 202.928 12.2066 203.474 11.8999C204.021 11.5799 204.688 11.4199 205.474 11.4199C206.048 11.4199 206.594 11.5333 207.114 11.7599C207.634 11.9733 208.088 12.2799 208.474 12.6799C208.861 13.0799 209.168 13.5666 209.394 14.1399C209.621 14.7133 209.734 15.3466 209.734 16.0399C209.734 16.7466 209.614 17.3866 209.374 17.9599C209.148 18.5333 208.834 19.0199 208.434 19.4199C208.048 19.8199 207.594 20.1266 207.074 20.3399C206.568 20.5533 206.034 20.6599 205.474 20.6599C204.794 20.6599 204.188 20.5266 203.654 20.2599C203.134 19.9799 202.721 19.6199 202.414 19.1799V25.2999H200.634ZM205.134 13.0399C204.708 13.0399 204.328 13.1133 203.994 13.2599C203.661 13.4066 203.381 13.6066 203.154 13.8599C202.928 14.1133 202.748 14.4066 202.614 14.7399C202.494 15.0733 202.428 15.4266 202.414 15.7999V16.0999C202.414 16.4866 202.474 16.8599 202.594 17.2199C202.728 17.5666 202.908 17.8799 203.134 18.1599C203.374 18.4266 203.661 18.6466 203.994 18.8199C204.341 18.9799 204.728 19.0599 205.154 19.0599C205.554 19.0599 205.914 18.9866 206.234 18.8399C206.568 18.6933 206.854 18.4933 207.094 18.2399C207.334 17.9733 207.521 17.6533 207.654 17.2799C207.788 16.9066 207.854 16.4866 207.854 16.0199C207.854 15.0599 207.588 14.3266 207.054 13.8199C206.534 13.2999 205.894 13.0399 205.134 13.0399Z" fill="white"/>
<path d="M193.005 20.6599C192.445 20.6599 191.905 20.5533 191.385 20.3399C190.878 20.1266 190.425 19.8199 190.025 19.4199C189.638 19.0199 189.325 18.5333 189.085 17.9599C188.858 17.3866 188.745 16.7466 188.745 16.0399C188.745 15.3466 188.858 14.7133 189.085 14.1399C189.311 13.5666 189.618 13.0799 190.005 12.6799C190.391 12.2799 190.838 11.9733 191.345 11.7599C191.865 11.5333 192.418 11.4199 193.005 11.4199C193.778 11.4199 194.431 11.5799 194.965 11.8999C195.511 12.2066 195.905 12.5733 196.145 12.9999V11.5799H197.845V20.4999H196.145V19.0399C195.851 19.5066 195.431 19.8933 194.885 20.1999C194.351 20.5066 193.725 20.6599 193.005 20.6599ZM193.305 19.0599C193.745 19.0599 194.131 18.9799 194.465 18.8199C194.811 18.6466 195.098 18.4266 195.325 18.1599C195.565 17.8799 195.745 17.5666 195.865 17.2199C195.985 16.8599 196.045 16.4866 196.045 16.0999V15.7999C196.031 15.4266 195.958 15.0733 195.825 14.7399C195.705 14.4066 195.531 14.1133 195.305 13.8599C195.078 13.6066 194.798 13.4066 194.465 13.2599C194.131 13.1133 193.758 13.0399 193.345 13.0399C192.958 13.0399 192.598 13.1066 192.265 13.2399C191.931 13.3733 191.638 13.5666 191.385 13.8199C191.145 14.0599 190.951 14.3666 190.805 14.7399C190.671 15.1133 190.605 15.5399 190.605 16.0199C190.605 16.4866 190.671 16.9066 190.805 17.2799C190.938 17.6533 191.125 17.9733 191.365 18.2399C191.605 18.4933 191.885 18.6933 192.205 18.8399C192.538 18.9866 192.905 19.0599 193.305 19.0599Z" fill="white"/>
<path d="M175.9 6.5H186.32V20.5H184.44V8.2H177.78V20.5H175.9V6.5Z" fill="white"/>
</svg>
