<svg width="247" height="22" viewBox="0 0 247 22" fill="none" xmlns="http://www.w3.org/2000/svg">
<g opacity="0.25">
<path fill-rule="evenodd" clip-rule="evenodd" d="M29.142 15.6924C29.142 15.6924 28.912 14.3195 28.835 13.9744H25.5173C25.4254 14.244 24.9664 15.6924 24.9664 15.6924H22.2597L26.0983 6.71373C26.1937 6.44699 26.379 6.21949 26.6236 6.06945C26.8683 5.9204 27.1578 5.85666 27.4442 5.89H29.444L31.5438 15.6964H29.144L29.142 15.6924ZM27.8111 9.37615L27.6271 8.53869C27.5052 8.91231 27.2752 9.49579 27.2912 9.48108C27.2912 9.48108 26.4653 11.6503 26.2663 12.219H28.4071C28.3001 11.7258 27.8111 9.37615 27.8111 9.37615ZM22.2437 8.15036C21.639 7.88264 20.9799 7.75419 20.3168 7.77577C19.2919 7.77577 18.833 8.1945 18.817 8.61323C18.817 9.07805 19.3679 9.37616 20.2849 9.82529C21.7687 10.5117 22.4566 11.3669 22.4416 12.4887C22.4266 14.5078 20.6678 15.8229 17.9421 15.8229C16.959 15.8258 15.9841 15.6483 15.0674 15.3002L15.4183 13.1006L15.7703 13.2654C16.5213 13.6272 17.3502 13.8077 18.1871 13.789C18.5224 13.8528 18.8702 13.79 19.1599 13.6125C19.4495 13.434 19.6593 13.1546 19.7469 12.8309C19.7469 12.3975 19.4109 12.0827 18.401 11.6042C17.4221 11.1413 16.1223 10.3627 16.1373 8.95646C16.1532 7.05697 17.9421 5.72034 20.4968 5.72034C21.2903 5.71544 22.0779 5.85176 22.8216 6.12339L22.4696 8.24843L22.2437 8.15036ZM10.8648 15.6924L12.4866 5.88608H15.0714L13.4505 15.6924H10.8648ZM4.64036 15.6924L2.63355 8.3102L2.47656 7.71103C2.83023 7.88461 3.1652 8.0925 3.47647 8.33177C4.41778 9.0849 5.2226 9.98906 5.85724 11.005L5.84924 10.9628L5.89923 11.2168L6.17521 12.5632L8.70896 5.88608H11.4467L7.37809 15.6924H4.63635H4.64036Z" fill="white"/>
<path opacity="0.35" fill-rule="evenodd" clip-rule="evenodd" d="M3.47 8.3305C3.1587 8.09123 2.8237 7.88334 2.47 7.70977L2.323 7.16651C1.5927 6.74483 0.8126 6.41239 0 6.17704V5.87305H3.971C4.2091 5.87403 4.4397 5.95443 4.6244 6.10152C4.8092 6.24862 4.9368 6.45358 4.986 6.68207L5.846 11.0037C5.2128 9.98779 4.4096 9.08461 3.47 8.3305Z" fill="white"/>
<path fill-rule="evenodd" clip-rule="evenodd" d="M66.0299 18.6341H53.0312C52.766 18.6341 52.5116 18.5311 52.3241 18.3467C52.1366 18.1634 52.0312 17.9133 52.0312 17.6534V8.80219C52.0313 8.50114 52.1495 8.21088 52.3612 7.9922L52.8082 7.59993L62.2553 0L63.0302 0.0019602V6.86642L63.0192 12.001L53.5341 17.8966L65.023 14.2124L65.03 7.84705H67.0298V18.6341H66.0299ZM58.9576 7.34007C59.0816 7.23416 59.2272 7.15571 59.3846 7.10962C59.5421 7.06353 59.7078 7.05078 59.8706 7.07333C60.0335 7.0949 60.1895 7.15081 60.3284 7.2371C60.4674 7.32242 60.5864 7.43714 60.6764 7.57149C60.7954 7.89902 60.7914 8.25597 60.6674 8.58154C60.5424 8.90613 60.3055 9.17778 59.9965 9.34743C59.8724 9.45334 59.7267 9.5318 59.5691 9.57789C59.4116 9.62398 59.2459 9.63574 59.0831 9.61416C58.9202 9.59259 58.764 9.5367 58.625 9.4504C58.4859 9.36509 58.3671 9.25035 58.2767 9.116C58.1582 8.78847 58.1615 8.43054 58.2861 8.10595C58.4107 7.78136 58.6486 7.50972 58.9576 7.34007Z" fill="white"/>
<path opacity="0.4" fill-rule="evenodd" clip-rule="evenodd" d="M63.0312 7.84766H65.0311L65.024 14.213L53.5352 17.8972L63.0202 12.0016L63.0312 7.84766Z" fill="white"/>
<path fill-rule="evenodd" clip-rule="evenodd" d="M105.616 15.0873C105.474 14.3705 105.095 13.7203 104.537 13.2379C104.343 13.0535 104.123 12.8986 103.884 12.776C103.762 12.7064 103.634 12.6475 103.502 12.5995C103.161 12.4563 102.79 12.3965 102.421 12.4249C102.709 12.3229 103.016 12.2847 103.321 12.3131C103.581 12.3494 103.836 12.4082 104.085 12.4896C104.285 12.5985 104.492 12.7083 104.692 12.8201C105.138 11.2727 105.051 9.6242 104.446 8.12971C103.957 6.86077 103.162 5.72814 102.128 4.82693C101.079 3.86493 99.777 3.20888 98.3691 2.93332C97.5502 2.7774 96.7083 2.78524 95.8923 2.95587C95.2014 3.13337 94.5525 3.43933 93.9795 3.85709C93.4486 4.27484 92.9996 4.78183 92.6516 5.3555C92.5487 5.49475 92.4587 5.64185 92.3817 5.79581C92.3127 5.96252 92.2347 6.12235 92.1567 6.28023C91.7267 7.41973 91.5897 8.64456 91.7567 9.8478C91.8557 10.599 92.0597 11.3325 92.3647 12.0278C92.5287 12.3367 92.6776 12.6602 92.8586 12.9515C93.0386 13.2339 93.2336 13.5065 93.4446 13.7674C93.8935 14.2577 94.3995 14.6941 94.9524 15.0667C96.2193 15.9081 97.7002 16.3886 99.229 16.4534C99.23 16.3475 99.207 16.2416 99.161 16.1454C99.134 16.0395 99.124 15.9179 99.093 15.815C99.064 15.5659 99.064 15.3158 99.093 15.0667C99.146 15.105 99.186 15.1589 99.206 15.2207C99.232 15.2727 99.271 15.3188 99.319 15.3521C99.378 15.46 99.445 15.5629 99.519 15.661C99.669 15.8512 99.843 16.0209 100.037 16.167C100.425 16.4769 100.857 16.7299 101.32 16.9153C101.843 17.131 102.398 17.2634 102.964 17.3075C103.564 17.3869 104.145 17.487 104.695 17.6154C105.197 17.7576 105.681 17.9567 106.136 18.2097C106.354 18.3273 106.565 18.4588 106.766 18.6019C106.872 18.6647 106.97 18.7382 107.059 18.8226C107.177 18.8687 107.229 18.9785 107.351 19.0187C107.708 19.3384 108.04 19.6846 108.343 20.0543C108.487 20.2573 108.615 20.471 108.725 20.6936C108.807 20.7819 108.831 20.927 108.905 21.0241C108.936 21.081 108.954 21.1447 108.957 21.2095C108.961 21.2742 108.951 21.3379 108.927 21.3987C108.76 21.4223 108.794 21.2497 108.727 21.1781C108.664 21.0967 108.611 21.0075 108.569 20.9143C108.305 20.6427 108.069 20.3455 107.781 20.0994C107.503 19.8434 107.202 19.614 106.881 19.4129C106.212 18.955 105.465 18.6196 104.675 18.4215C103.746 18.1714 102.779 18.0822 101.818 18.1567C101.366 18.2058 100.92 18.3019 100.489 18.4431C100.036 18.5411 99.577 18.6147 99.116 18.6637C97.3072 18.7549 95.5014 18.4225 93.8495 17.6948C93.1346 17.384 92.4677 16.977 91.8687 16.4838C91.5677 16.2523 91.2888 15.9944 91.0368 15.713C90.7788 15.4374 90.5518 15.1344 90.3609 14.8098C90.1429 14.4852 89.9479 14.1469 89.7759 13.7968C89.6139 13.4173 89.4789 13.027 89.371 12.6299C89.229 12.2013 89.139 11.7581 89.101 11.3089C89.093 11.1766 89.032 10.9216 89.033 10.7147C89.043 10.6931 89.051 10.6705 89.056 10.648C89.023 10.4362 89.023 10.2214 89.056 10.0096C89.059 9.5428 89.112 9.078 89.213 8.62201C89.292 8.2023 89.405 7.79042 89.5509 7.38836C89.6849 6.9961 89.8619 6.63719 90.0229 6.26651C90.1319 6.10765 90.2139 5.92426 90.3159 5.7605C90.4019 5.58692 90.5308 5.4565 90.6088 5.27018C90.6738 5.20055 90.7338 5.12799 90.7888 5.05052C90.8238 4.95245 90.9168 4.91127 90.9458 4.8083C91.0198 4.74652 91.0808 4.67199 91.1258 4.58765C91.2008 4.52784 91.2618 4.45233 91.3058 4.36799C91.5748 4.1091 91.8147 3.82276 92.0937 3.57564C92.3727 3.32852 92.6846 3.09611 92.9726 2.84899C93.1546 2.76368 93.2866 2.62835 93.4666 2.54009C93.6036 2.41751 93.8035 2.35573 93.9395 2.23217C94.2965 2.04389 94.6635 1.87522 95.0394 1.72518C95.4194 1.55848 95.8103 1.41922 96.2103 1.30742C97.1262 1.0603 98.0741 0.94852 99.023 0.976959C99.062 0.976959 99.081 0.938714 99.09 0.976959C100.801 1.00246 102.468 1.51337 103.89 2.44791C105.144 3.26675 106.154 4.39937 106.815 5.72912C107.592 7.32461 107.852 9.11525 107.558 10.8598C107.365 12.0523 106.92 13.1927 106.252 14.2067C106.163 14.3705 106.057 14.5264 105.937 14.6696C105.896 14.75 105.843 14.8235 105.78 14.8892C105.753 14.9285 105.722 14.9648 105.69 15.0001C105.687 15.0109 105.681 15.0197 105.673 15.0275C105.665 15.0354 105.656 15.0412 105.645 15.0442C105.645 15.104 105.623 15.1118 105.616 15.0873ZM105.077 15.661C104.855 15.5012 104.702 15.2648 104.648 15.0001C104.618 14.8991 104.618 14.7932 104.648 14.6922C104.662 14.6823 104.677 14.6745 104.693 14.6696C104.731 14.6598 104.772 14.6578 104.811 14.6657C104.85 14.6735 104.886 14.6902 104.918 14.7137C105.05 14.8746 105.142 15.0628 105.189 15.2638C105.212 15.3335 105.214 15.408 105.194 15.4786C105.174 15.5492 105.133 15.6129 105.077 15.661ZM103.097 15.2864C103.097 15.2619 103.119 15.2737 103.119 15.2864C103.298 15.3041 103.462 15.3913 103.575 15.5267C103.689 15.663 103.744 15.8375 103.727 16.0131C103.718 16.1141 103.676 16.2092 103.607 16.2847C103.538 16.3602 103.445 16.4112 103.344 16.4308C103.225 16.4357 103.107 16.4102 103.001 16.3563C102.895 16.3033 102.805 16.2249 102.74 16.1268C102.674 16.0297 102.635 15.9179 102.626 15.8012C102.618 15.6845 102.64 15.5688 102.691 15.4629C102.738 15.4021 102.8 15.3541 102.871 15.3237C102.942 15.2923 103.02 15.2795 103.097 15.2864Z" fill="white"/>
<path d="M146.015 9.02627C146.019 9.12335 146.021 9.22043 146.021 9.31751C146.021 13.3793 142.663 16.6723 138.522 16.6723C134.38 16.6723 131.022 13.3793 131.022 9.31751C131.022 5.25572 134.38 1.96274 138.522 1.96274C140.045 1.96274 141.462 2.40795 142.645 3.17383L144.278 1.90586C142.681 0.711447 140.685 0.00146484 138.522 0.00146484C133.275 0.00146484 129.022 4.17211 129.022 9.31751C129.022 14.4629 133.275 18.6336 138.522 18.6336C143.768 18.6336 148.021 14.4629 148.021 9.31751C148.021 8.72423 147.964 8.14369 147.856 7.58081L146.015 9.02627Z" fill="white"/>
<path d="M138.522 11.7693L147.07 5.24904C146.778 4.66164 146.426 4.10857 146.02 3.59766L138.522 9.3177L135.022 7.17305V9.61679L138.522 11.7693Z" fill="white"/>
<path opacity="0.3" fill-rule="evenodd" clip-rule="evenodd" d="M184.019 17.6544C182.614 17.6544 181.234 17.2896 180.02 16.5963C181.235 15.9089 182.245 14.9204 182.947 13.7289C183.649 12.5375 184.019 11.1851 184.019 9.80931C184.019 8.43348 183.649 7.08119 182.947 5.88971C182.245 4.69824 181.235 3.70975 180.02 3.02232C181.082 2.41825 182.272 2.06229 183.497 1.98188C184.723 1.90146 185.951 2.09857 187.086 2.55849C188.221 3.01841 189.233 3.72838 190.043 4.63351C190.853 5.53864 191.44 6.6144 191.758 7.77841C192.076 8.94145 192.116 10.1613 191.876 11.342C191.636 12.5237 191.122 13.6348 190.375 14.5899C189.626 15.5451 188.664 16.3178 187.562 16.8493C186.459 17.3808 185.247 17.6564 184.019 17.6544Z" fill="white"/>
<path fill-rule="evenodd" clip-rule="evenodd" d="M176.019 9.80946C176.019 11.1853 176.389 12.5376 177.091 13.7291C177.794 14.9205 178.803 15.909 180.019 16.5964C178.803 17.2878 177.423 17.6526 176.017 17.6545C174.612 17.6565 173.231 17.2947 172.013 16.6072C170.796 15.9188 169.784 14.9284 169.081 13.7349C168.378 12.5415 168.008 11.1882 168.008 9.80946C168.008 8.43068 168.378 7.0774 169.081 5.88396C169.784 4.69053 170.796 3.70008 172.013 3.01168C173.231 2.32425 174.612 1.9624 176.017 1.96436C177.423 1.96632 178.803 2.33112 180.019 3.02247C178.803 3.70989 177.794 4.69838 177.091 5.88986C176.389 7.08133 176.019 8.43362 176.019 9.80946Z" fill="white"/>
<path opacity="0.65" fill-rule="evenodd" clip-rule="evenodd" d="M180.016 16.5964C178.8 15.909 177.79 14.9205 177.088 13.7291C176.386 12.5376 176.016 11.1853 176.016 9.80945C176.016 8.43362 176.386 7.08133 177.088 5.88985C177.79 4.69838 178.8 3.70989 180.016 3.02246C181.232 3.70989 182.242 4.69838 182.944 5.88985C183.646 7.08133 184.016 8.43362 184.016 9.80945C184.016 11.1853 183.646 12.5376 182.944 13.7291C182.242 14.9205 181.232 15.909 180.016 16.5964Z" fill="white"/>
<path fill-rule="evenodd" clip-rule="evenodd" d="M221.009 14.7127V9.47117H220.765L219.025 14.7127H216.96H216.954L215.218 9.47117H214.976V14.7127H212V5.88695H214.976C215.343 5.88204 215.702 5.99285 216 6.20173C216.299 6.4106 216.522 6.70774 216.636 7.04998L217.858 11.1294H218.115L219.34 7.04998C219.455 6.70676 219.679 6.40864 219.98 6.19977C220.28 5.98991 220.641 5.88106 221.009 5.88695H223.985V14.7127H221.009Z" fill="white"/>
<path fill-rule="evenodd" clip-rule="evenodd" d="M231.977 14.7124V9.47094H231.75L229.869 13.8691C229.753 14.1202 229.566 14.3339 229.33 14.484C229.094 14.633 228.818 14.7124 228.537 14.7124H226.012V5.88672H229.012V11.1282H229.25L231.155 6.72516L231.17 6.69182C231.29 6.45156 231.477 6.24858 231.709 6.10737C231.941 5.96518 232.209 5.89064 232.482 5.89064H235.007V14.7164H231.979L231.977 14.7124Z" fill="white"/>
<path fill-rule="evenodd" clip-rule="evenodd" d="M243.548 11.7841H240.02V14.7123H237.02V9.80225H246.973C246.664 10.4259 246.174 10.9467 245.565 11.2987C244.956 11.6517 244.254 11.8204 243.548 11.7841Z" fill="white"/>
<path opacity="0.55" fill-rule="evenodd" clip-rule="evenodd" d="M246.915 8.83452H241.503C239.032 8.83452 236.976 7.55968 236.543 5.88672H243.565C245.455 5.88672 246.987 6.98208 246.987 8.33241C246.987 8.50206 246.963 8.67076 246.915 8.83452Z" fill="white"/>
</g>
</svg>
