<svg width="22" height="18" viewBox="0 0 22 18" fill="none" xmlns="http://www.w3.org/2000/svg">
<path d="M18.8965 0H11.9336V18H18.8965V0Z" fill="#248341"/>
<path d="M9.95067 0H4.97656V18H9.95067V0Z" fill="#A6CE39"/>
<path d="M3.48187 0H0V18H3.48187V0Z" fill="#FFCB05"/>
<path d="M21.0992 1.06812H21.2712C21.2411 1.17205 21.1926 1.26975 21.1281 1.3566C21.0429 1.41446 20.9578 1.47232 20.8437 1.47232C20.706 1.47335 20.5731 1.42159 20.4724 1.32767C20.3793 1.21394 20.329 1.07123 20.3302 0.92428C20.3302 0.750709 20.3872 0.634994 20.4732 0.520084C20.5584 0.404369 20.7006 0.375441 20.8429 0.375441C20.9578 0.375441 21.0429 0.404369 21.1281 0.462227C21.2141 0.520084 21.2712 0.606869 21.2712 0.72178H21.1281C21.1281 0.663923 21.0719 0.606869 21.0429 0.577137C20.9859 0.549012 20.9288 0.520084 20.8718 0.520084C20.7577 0.520084 20.6725 0.549012 20.6146 0.635798C20.5584 0.692851 20.5295 0.808566 20.5295 0.92428C20.5295 1.03919 20.5584 1.12517 20.6154 1.21196C20.6717 1.29874 20.7577 1.32767 20.8726 1.32767C20.9578 1.32767 21.0148 1.29874 21.0429 1.26982C21.0719 1.18383 21.0992 1.12517 21.0992 1.06812ZM20.0738 0.895351C20.0738 1.09624 20.1301 1.26982 20.2731 1.41446C20.34 1.48194 20.4202 1.53472 20.5086 1.56945C20.597 1.60418 20.6917 1.62009 20.7866 1.61616C20.8814 1.61998 20.9759 1.60401 21.0642 1.56929C21.1525 1.53456 21.2325 1.48183 21.2993 1.41446C21.3664 1.34623 21.4188 1.26496 21.4532 1.17567C21.4876 1.08637 21.5033 0.990966 21.4994 0.895351C21.5034 0.799604 21.4878 0.704044 21.4534 0.614605C21.4189 0.525167 21.3665 0.44376 21.2993 0.375441C21.2325 0.308211 21.1524 0.25563 21.0641 0.221044C20.9758 0.186457 20.8813 0.170623 20.7866 0.174548C20.6918 0.17051 20.5971 0.186289 20.5087 0.220879C20.4203 0.255468 20.3401 0.308109 20.2731 0.375441C20.159 0.520084 20.0738 0.692852 20.0738 0.895351ZM20.7866 1.78892C20.5295 1.78892 20.3302 1.70294 20.1598 1.52937C20.0754 1.44705 20.009 1.34815 19.9648 1.23889C19.9205 1.12963 19.8994 1.01238 19.9027 0.894548C19.9027 0.635798 19.9879 0.433298 20.1598 0.259727C20.3302 0.0869587 20.5295 0.000976562 20.7866 0.000976562C21.0148 0.000976562 21.2422 0.0869587 21.4134 0.26053C21.5846 0.433298 21.6705 0.635798 21.6705 0.895351C21.6705 1.15491 21.5846 1.3566 21.4134 1.53017C21.3329 1.61483 21.2355 1.68161 21.1275 1.72619C21.0195 1.77076 20.9034 1.79214 20.7866 1.78892Z" fill="#248341"/>
</svg>
