<svg width="22" height="23" viewBox="0 0 22 23" fill="none" xmlns="http://www.w3.org/2000/svg">
<path d="M19.5547 4.30664C20.0705 4.98085 20.5015 5.71953 20.8663 6.50243L10.9281 13.9169L6.75391 11.2643V8.09032L10.906 10.7208L19.5547 4.30664Z" fill="#21A038"/>
<path d="M2.51631 11.046C2.51631 10.8931 2.51631 10.7642 2.53842 10.6113L0.0221052 10.4805C0.0221052 10.6555 0 10.8507 0 11.0239C0 14.0689 1.22684 16.8302 3.20526 18.8307L4.99026 17.0255C3.46316 15.5039 2.51631 13.3947 2.51631 11.046Z" fill="url(#paint0_linear_4477_13166)"/>
<path d="M10.905 2.56641C11.056 2.56641 11.185 2.56641 11.336 2.58851L11.465 0.0445657C11.2918 0.0445657 11.0984 0.0224609 10.9271 0.0224609C7.91523 0.0224609 5.18339 1.2622 3.20312 3.26272L4.98812 5.06798C6.49496 3.5243 8.60233 2.56641 10.905 2.56641Z" fill="url(#paint1_linear_4477_13166)"/>
<path d="M10.9077 19.5289C10.7566 19.5289 10.6277 19.5289 10.4766 19.5068L10.3477 22.0508C10.5208 22.0508 10.7142 22.0729 10.8856 22.0729C13.8974 22.0729 16.6311 20.8331 18.6095 18.8326L16.8245 17.0273C15.3177 18.5931 13.2305 19.5289 10.9077 19.5289Z" fill="url(#paint2_linear_4477_13166)"/>
<path d="M15.6386 4.04526L17.7681 2.45737C15.8965 0.935789 13.5091 0 10.9062 0V2.54395C12.671 2.56605 14.3049 3.10947 15.6386 4.04526Z" fill="url(#paint3_linear_4477_13166)"/>
<path d="M21.8353 11.0468C21.8353 10.3726 21.7709 9.72046 21.6622 9.06836L19.3172 10.8294C19.3172 10.8939 19.3172 10.9823 19.3172 11.0468C19.3172 13.5484 18.2414 15.7884 16.543 17.332L18.2414 19.2239C20.4372 17.2234 21.8353 14.287 21.8353 11.0468Z" fill="#21A038"/>
<path d="M10.9051 19.5282C8.43114 19.5282 6.21509 18.4413 4.68798 16.7227L2.81641 18.4413C4.81693 20.6813 7.69982 22.0721 10.9051 22.0721V19.5282Z" fill="url(#paint4_linear_4477_13166)"/>
<path d="M5.29236 4.76196L3.5921 2.87012C1.37605 4.89275 0 7.80695 0 11.0472H2.51631C2.51631 8.56774 3.5921 6.30748 5.29236 4.76196Z" fill="url(#paint5_linear_4477_13166)"/>
<defs>
<linearGradient id="paint0_linear_4477_13166" x1="2.93692" y1="18.5214" x2="0.352568" y2="11.0173" gradientUnits="userSpaceOnUse">
<stop offset="0.1444" stop-color="#F2E913"/>
<stop offset="0.3037" stop-color="#E7E518"/>
<stop offset="0.5823" stop-color="#CADB26"/>
<stop offset="0.891" stop-color="#A3CD39"/>
</linearGradient>
<linearGradient id="paint1_linear_4477_13166" x1="3.92087" y1="2.97554" x2="10.4506" y2="0.475881" gradientUnits="userSpaceOnUse">
<stop offset="0.0592" stop-color="#0FA8E0"/>
<stop offset="0.5385" stop-color="#0099F9"/>
<stop offset="0.9234" stop-color="#0291EB"/>
</linearGradient>
<linearGradient id="paint2_linear_4477_13166" x1="10.2006" y1="19.9092" x2="17.9813" y2="18.1428" gradientUnits="userSpaceOnUse">
<stop offset="0.1226" stop-color="#A3CD39"/>
<stop offset="0.2846" stop-color="#86C339"/>
<stop offset="0.8693" stop-color="#21A038"/>
</linearGradient>
<linearGradient id="paint3_linear_4477_13166" x1="10.3892" y1="1.62094" x2="16.8598" y2="3.62648" gradientUnits="userSpaceOnUse">
<stop offset="0.0566" stop-color="#0291EB"/>
<stop offset="0.79" stop-color="#0C8ACB"/>
</linearGradient>
<linearGradient id="paint4_linear_4477_13166" x1="3.45627" y1="18.8438" x2="10.408" y2="21.453" gradientUnits="userSpaceOnUse">
<stop offset="0.1324" stop-color="#F2E913"/>
<stop offset="0.2977" stop-color="#EBE716"/>
<stop offset="0.5306" stop-color="#D9E01F"/>
<stop offset="0.8023" stop-color="#BBD62D"/>
<stop offset="0.9829" stop-color="#A3CD39"/>
</linearGradient>
<linearGradient id="paint5_linear_4477_13166" x1="1.92867" y1="11.3546" x2="4.72222" y2="4.05462" gradientUnits="userSpaceOnUse">
<stop offset="0.0698" stop-color="#A3CD39"/>
<stop offset="0.2599" stop-color="#81C55F"/>
<stop offset="0.9216" stop-color="#0FA8E0"/>
</linearGradient>
</defs>
</svg>
