<svg width="17" height="20" viewBox="0 0 17 20" fill="none" xmlns="http://www.w3.org/2000/svg">
<path d="M0 4.35352L2.422 8.68268V11.3233L0.00283333 15.644L0 4.35352Z" fill="#5B57A2"/>
<path d="M9.30078 7.10725L11.5703 5.71625L16.2149 5.71191L9.30078 9.94758V7.10725Z" fill="#D90751"/>
<path d="M9.28592 4.32783L9.29876 10.0595L6.87109 8.56782V0L9.28592 4.32783Z" fill="#FAB718"/>
<path d="M16.2129 5.71183L11.5681 5.71616L9.28592 4.32783L6.87109 0L16.2129 5.71183Z" fill="#ED6F26"/>
<path d="M9.29876 15.668V12.8872L6.87109 11.4238L6.87243 20.0002L9.29876 15.668Z" fill="#63B22F"/>
<path d="M11.5633 14.2897L2.42183 8.68268L0 4.35352L16.2038 14.284L11.5633 14.2897Z" fill="#1487C9"/>
<path d="M6.87109 19.9999L9.29709 15.6677L11.5609 14.2894L16.2014 14.2837L6.87109 19.9999Z" fill="#017F36"/>
<path d="M0.00390625 15.6439L6.89273 11.4239L4.57674 10.0029L2.42307 11.3233L0.00390625 15.6439Z" fill="#984995"/>
</svg>
