<svg width="20" height="20" viewBox="0 0 20 20" fill="none" xmlns="http://www.w3.org/2000/svg">
<path d="M0 0.344727H20V9.71362C20 12.2922 18.6244 14.675 16.3914 15.9644L10.0001 19.6551L3.60859 15.9644C1.37557 14.675 2.29226e-06 12.2922 2.29226e-06 9.71362L0 0.344727Z" fill="#FFDD2D"/>
<path fill-rule="evenodd" clip-rule="evenodd" d="M5.51562 5.17285V8.28161C5.94073 7.80154 6.71366 7.47671 7.59742 7.47671H8.55776V11.0906C8.55776 12.052 8.29652 12.9935 7.90894 13.4564H12.0864C11.6996 12.993 11.439 12.0527 11.439 11.0924V7.47671H12.3994C13.2831 7.47671 14.056 7.80154 14.4811 8.28161V5.17285H5.51562Z" fill="#333333"/>
</svg>
