<svg width="22" height="15" viewBox="0 0 22 15" fill="none" xmlns="http://www.w3.org/2000/svg">
<path d="M12.7111 0.122595C9.64107 0.706413 7.35613 2.98129 6.69178 6.11176L6.5106 6.96736V4.57169L6.50053 2.18609H3.48078C1.81992 2.18609 0.461036 2.21629 0.461036 2.25655C0.45097 2.30688 1.21597 4.77301 2.14203 7.74243L3.83309 13.1578H5.16178H6.50053L6.5106 10.6112V8.0746L6.69178 8.93019C7.12461 10.9434 8.12113 12.5036 9.6914 13.6209C11.0201 14.5771 12.3689 14.9999 14.1002 14.9999C16.0731 15.01 17.7441 14.3456 19.1935 12.9867C20.1599 12.0707 20.7739 11.1145 21.2067 9.83612C21.5087 8.96039 21.5389 8.77921 21.5389 7.57131C21.5489 6.09163 21.408 5.41722 20.8443 4.24958C19.4049 1.24997 15.9624 -0.49142 12.7111 0.122595ZM15.2075 4.94413C15.8718 5.2461 16.5966 6.05137 16.7777 6.68551C17.0696 7.75249 16.818 8.75908 16.053 9.52408C15.5296 10.0475 15.0364 10.2689 14.2814 10.3193C13.3755 10.3797 12.7212 10.1381 12.077 9.48381C11.0402 8.4571 10.9597 7.04788 11.8455 5.79972C12.5602 4.79314 14.06 4.40057 15.2075 4.94413Z" fill="#8B3FFD"/>
</svg>
