<svg width="730" height="398" viewBox="0 0 730 398" fill="none" xmlns="http://www.w3.org/2000/svg">
<path fill-rule="evenodd" clip-rule="evenodd" d="M284.81 -217.588C248.965 -213.69 195.071 -197.276 156.13 -178.396C75.5175 -139.313 12.1819 -76.0827 -27.481 4.91902C-45.8421 42.4214 -67.2113 107.308 -62.7603 112.062C-61.8405 113.043 -53.0354 107.738 -43.1883 100.27C-18.7561 81.7487 36.8293 55.0051 67.531 47.0065C138.866 28.4176 223.765 37.6299 290.682 71.2088L307.107 79.4519L290.13 96.4057L273.157 113.364L246.286 102.689C174.993 74.3695 99.4097 77.075 29.5599 110.456C-0.994064 125.058 -39.2984 154.625 -59.4315 179.152L-71 193.24L-65.9034 231.83C-54.5374 317.918 -16.5369 395.966 44.3265 458.235C104.316 519.611 171.069 556.406 252.028 572.727L293.079 581L309.567 567.961C357.971 529.667 394.415 474.14 409.43 415.806C418.354 381.136 416.122 306.034 405.233 274.63C391.052 233.722 371.919 200.476 346.816 173.113L321.43 145.438L382.842 83.6071L444.25 21.7759L446.195 -0.487854C448.469 -26.5529 459.839 -41.3237 482.85 -48.1255C514.074 -57.3504 550.607 -31.7532 550.607 -0.643784C550.607 31.3675 528.942 53.9431 496.933 55.2917C479.407 56.0292 476.07 58.4355 432.698 101.623L386.947 147.179L401.575 166.32C421.113 191.883 437.989 226.006 450.009 264.242C458.337 290.741 459.898 304.673 459.898 352.593C459.898 400.445 458.329 414.508 450.017 441.092C437.132 482.311 416.012 522.161 389.896 554.539L368.869 580.604L384.851 577.94C478.998 562.259 552.396 525.018 616.136 460.595C668.372 407.799 703.554 344.582 722.303 269.838C733.539 225.032 732.273 129.631 719.818 82.8823C667.739 -112.599 484.326 -239.287 284.81 -217.588ZM129.896 185.587C151.776 194.901 163.442 210.607 165.408 233.402C168.454 268.709 145.055 294.298 109.721 294.298C47.3177 294.298 31.18 211.26 88.626 185.76C104.928 178.52 113.214 178.486 129.896 185.587ZM304.327 353.263C350.364 399.253 295.922 472.909 238.004 442.992C211.918 429.52 201.164 392.337 215.403 364.84C232.3 332.2 277.363 326.334 304.327 353.263Z" fill="white" fill-opacity="0.02"/>
</svg>
