<svg width="150" height="150" viewBox="0 0 150 150" fill="none" xmlns="http://www.w3.org/2000/svg">
<path d="M105.462 15.011H46.5385C43.5802 15.011 41.1818 17.4092 41.1818 20.3677V129.64C41.1818 132.598 43.5797 134.996 46.538 134.996L105.461 135C108.42 135 110.818 132.602 110.818 129.643V20.3677C110.818 17.4094 108.42 15.011 105.462 15.011Z" fill="#5C75C9"/>
<path d="M46.5383 131.15C45.7055 131.15 45.0282 130.473 45.0282 129.64V20.3678C45.0282 19.5351 45.7055 18.8578 46.5383 18.8578H105.462C106.294 18.8578 106.972 19.5351 106.972 20.3678V129.643C106.972 130.188 106.694 130.546 106.53 130.711C106.364 130.876 106.006 131.153 105.462 131.153C105.461 131.153 46.5383 131.15 46.5383 131.15Z" fill="white"/>
<path d="M65.5097 42.485H64.7723C58.231 42.485 53.3148 36.5283 54.5684 30.1211L57.5267 15.0002H75.9065V32.1097C75.9062 37.8396 71.2516 42.485 65.5097 42.485Z" fill="#FFD863"/>
<path d="M58.1589 30.1211L61.1172 15.0002H57.5269L54.5689 30.1211C53.3153 36.5281 58.2315 42.485 64.7728 42.485H65.5102C65.9949 42.485 66.4709 42.4493 66.9379 42.3852C61.1277 41.5953 56.9984 36.0531 58.1589 30.1211Z" fill="#FFB31A"/>
<path d="M43.5863 42.485C35.6916 42.485 30.6775 34.0491 34.4626 27.1348L39.646 17.6659C40.546 16.0223 42.2709 15 44.1449 15H57.5269L53.7908 34.0976C52.8372 38.9691 48.5602 42.485 43.5863 42.485Z" fill="#FE7272"/>
<path d="M38.3091 27.1348L44.952 15H44.1447C42.2709 15 40.546 16.022 39.646 17.6659L34.4626 27.1348C30.6775 34.0491 35.6916 42.485 43.5863 42.485C44.2395 42.485 44.8802 42.4229 45.5037 42.3065C38.7574 41.0688 34.843 33.4662 38.3091 27.1348Z" fill="#E55D5D"/>
<path d="M108.413 42.485C103.44 42.485 99.1626 38.9694 98.2096 34.0976L94.4734 15H107.855C109.729 15 111.454 16.0223 112.354 17.6659L117.538 27.1348C121.322 34.0489 116.308 42.485 108.413 42.485Z" fill="#FFD863"/>
<path d="M101.8 34.0976L98.0634 15H94.4731L98.2096 34.0976C99.1626 38.9694 103.44 42.485 108.414 42.485C109.031 42.485 109.628 42.4278 110.208 42.3293C106.03 41.6004 102.636 38.371 101.8 34.0976Z" fill="#FFB31A"/>
<path d="M87.2277 42.485H86.3032C80.5612 42.485 75.9066 37.8397 75.9066 32.1095V15H94.4736L97.4319 30.1209C98.6852 36.5281 93.7691 42.485 87.2277 42.485Z" fill="#FE7272"/>
<path d="M79.4964 32.1095V15H75.9061V32.1092C75.9061 37.8394 80.5607 42.4847 86.3027 42.4847H87.2272C87.6817 42.4847 88.1271 42.4532 88.5644 42.3975C83.4505 41.7464 79.4964 37.3903 79.4964 32.1095Z" fill="#E55D5D"/>
<path d="M76.0001 106.286C88.7465 106.286 99.0795 95.9533 99.0795 83.2069C99.0795 70.4605 88.7465 60.1274 76.0001 60.1274C63.2537 60.1274 52.9207 70.4605 52.9207 83.2069C52.9207 95.9533 63.2537 106.286 76.0001 106.286Z" fill="#02AF8E"/>
<path d="M56.5109 83.2069C56.5109 71.0646 65.8877 61.1125 77.7951 60.1964C77.2027 60.1508 76.6041 60.1274 76.0001 60.1274C63.2538 60.1274 52.9207 70.4604 52.9207 83.2069C52.9207 95.9534 63.2536 106.286 76.0001 106.286C76.6041 106.286 77.2027 106.263 77.7951 106.217C65.8877 105.301 56.5109 95.3492 56.5109 83.2069Z" fill="#02AF8E"/>
<path d="M125.678 101.757C125.35 101.757 125.021 101.632 124.771 101.382L119.813 96.4235C119.312 95.9229 119.312 95.1109 119.813 94.6103C120.313 94.1094 121.126 94.1094 121.626 94.6103L126.584 99.5685C127.402 100.33 126.775 101.796 125.678 101.757Z" fill="#FFD65A"/>
<path d="M133.448 84.4892H126.436C125.728 84.4892 125.154 83.9152 125.154 83.2069C125.154 82.4985 125.728 81.9246 126.436 81.9246H133.448C134.156 81.9246 134.73 82.4985 134.73 83.2069C134.73 83.9152 134.156 84.4892 133.448 84.4892Z" fill="#FFD65A"/>
<path d="M120.719 72.1792C119.622 72.2179 118.995 70.7519 119.813 69.9902L124.771 65.032C125.271 64.5312 126.084 64.5312 126.584 65.032C127.085 65.5326 127.085 66.3446 126.584 66.8452L121.626 71.8034C121.376 72.054 121.048 72.1792 120.719 72.1792Z" fill="#FFD65A"/>
<path d="M26.3222 101.757C25.225 101.796 24.5979 100.33 25.4156 99.5685L30.3738 94.6103C30.8741 94.1094 31.6866 94.1094 32.187 94.6103C32.6878 95.1109 32.6878 95.9229 32.187 96.4235L27.2288 101.382C26.9784 101.632 26.6502 101.757 26.3222 101.757Z" fill="#FFD65A"/>
<path d="M25.5641 84.4892H18.5521C17.8437 84.4892 17.2698 83.9152 17.2698 83.2069C17.2698 82.4985 17.8437 81.9246 18.5521 81.9246H25.5641C26.2724 81.9246 26.8464 82.4985 26.8464 83.2069C26.8464 83.9152 26.2722 84.4892 25.5641 84.4892Z" fill="#FFD65A"/>
<path d="M31.2804 72.1792C30.9524 72.1792 30.6238 72.054 30.3738 71.8034L25.4156 66.8452C24.9147 66.3446 24.9147 65.5326 25.4156 65.032C25.9159 64.5312 26.7284 64.5312 27.2288 65.032L32.187 69.9902C33.0049 70.7522 32.377 72.2179 31.2804 72.1792Z" fill="#FFD65A"/>
<path d="M86.04 76.5466C86.4253 76.9109 86.6502 77.4134 86.6652 77.9434C86.6802 78.4735 86.4841 78.9878 86.12 79.3733L74.7866 91.3733C74.6029 91.5675 74.3822 91.7228 74.1375 91.8302C73.8927 91.9376 73.629 91.9948 73.3617 91.9986C73.0945 92.0023 72.8292 91.9524 72.5816 91.8519C72.334 91.7514 72.109 91.6023 71.92 91.4133L65.92 85.4133C65.5667 85.0342 65.3743 84.5327 65.3835 84.0146C65.3926 83.4965 65.6025 83.0021 65.969 82.6357C66.3354 82.2692 66.8298 82.0593 67.3479 82.0502C67.866 82.041 68.3675 82.2334 68.7466 82.5866L73.2933 87.1306L83.2133 76.6266C83.5776 76.2413 84.08 76.0164 84.6101 76.0014C85.1401 75.9864 85.6545 76.1825 86.04 76.5466Z" fill="white"/>
<path d="M70.6344 106.865C70.6344 104.637 68.8287 102.832 66.6012 102.832L47.3909 102.853L47.3065 102.866L47.7556 102.064C48.7806 100.759 52.0168 97.7878 52.9209 95.2838C54.6532 90.4392 54.1218 86.0369 53.6496 83.7474C53.0223 79.8631 49.1117 76.9526 46.6596 80.8303C45.2391 83.5645 43.3493 89.5493 42.1049 92.2728C36.1331 92.8906 32.6166 99.1827 32.6166 99.1827V133.466C35.3792 134.538 38.338 135.097 41.3424 135.097H66.6012C68.8287 135.097 70.6344 133.292 70.6344 131.064C70.6344 128.837 68.8287 127.031 66.6012 127.031C68.8287 127.031 70.6344 125.225 70.6344 122.998C70.6344 120.77 68.8287 118.964 66.6012 118.964C68.8287 118.964 70.6344 117.159 70.6344 114.931C70.6344 112.704 68.8287 110.898 66.6012 110.898C68.8287 110.898 70.6344 109.092 70.6344 106.865Z" fill="#FFDDCC"/>
<path d="M43.9708 132.294C40.9664 132.294 38.0077 131.735 35.2451 130.662V96.3795C35.2451 96.3795 35.5728 95.7948 36.1948 94.9662C33.8872 96.9132 32.6169 99.1829 32.6169 99.1829V133.466C35.3795 134.539 38.3384 135.097 41.3426 135.097H66.6014C68.4753 135.097 70.0503 133.819 70.5032 132.088C70.1027 132.221 69.6748 132.294 69.2296 132.294H43.9708V132.294Z" fill="#FFC8C0"/>
<path d="M23.4789 97.9685C23.1362 97.9685 22.0579 97.9685 21.827 97.9685C19.1611 97.9685 17 106.123 17 116.182C17 126.241 19.1611 134.395 21.827 134.395H30.7469C31.7796 134.395 32.6168 133.558 32.6168 132.525V99.8384C32.6168 98.8057 31.7796 97.9685 30.7469 97.9685H23.4789Z" fill="#FE7272"/>
<path d="M19.6283 116.182C19.6283 106.123 21.7894 97.9685 24.4553 97.9685H23.479C23.1363 97.9685 22.0582 97.9685 21.8271 97.9685C19.1612 97.9685 17.0001 106.123 17.0001 116.182C17.0001 126.241 19.1612 134.395 21.8271 134.395H24.4553C21.7894 134.395 19.6283 126.241 19.6283 116.182Z" fill="#E55D5D"/>
</svg>
