<svg width="120" height="120" viewBox="0 0 120 120" fill="none" xmlns="http://www.w3.org/2000/svg">
<g clip-path="url(#clip0_3747_64883)">
<path d="M42.4166 82.5068L27.9852 96.9383H23.0073C13.1291 87.0577 7.68677 73.9211 7.68677 59.9471L11.2055 56.4283H31.6141L35.1329 59.9471C35.1329 66.5881 37.7203 72.8327 42.4166 77.529V82.5068Z" fill="#4E7BD6"/>
<path d="M112.31 59.9471L108.792 63.4658H88.383L84.8643 59.9471C84.8643 46.2357 73.7099 35.0814 59.9986 35.0814L56.4799 31.5626V11.154L59.9986 7.63525C73.9726 7.63525 87.1092 13.0776 96.9898 22.9558C106.868 32.8364 112.31 45.973 112.31 59.9471Z" fill="#FFD863"/>
<path d="M59.9985 54.9692L64.0749 57.1588L59.9985 64.9249L52.9704 71.953C52.2831 72.638 51.3823 72.9828 50.4815 72.9828C49.5807 72.9828 48.6799 72.638 47.9926 71.953C46.6203 70.5783 46.6203 68.3498 47.9926 66.9751L59.9985 54.9692Z" fill="#474751"/>
<path d="M59.9985 3.52065V35.0813C46.2919 35.0813 35.1399 46.2287 35.1328 59.9353H3.57333C1.55124 59.9353 -0.0640955 58.2341 0.0588255 56.2158C0.949534 41.5774 7.07611 27.9439 17.5347 17.483C27.9971 7.02296 41.638 0.895676 56.2807 0.00660967C58.2978 -0.115373 59.9985 1.49855 59.9985 3.52065Z" fill="#E55D5D"/>
<path d="M59.9985 84.8127V120C45.2034 120 31.227 114.687 20.2439 104.961C18.7308 103.621 18.6698 101.276 20.0984 99.8471L42.4259 77.5195C47.127 82.2229 53.3692 84.8127 59.9985 84.8127Z" fill="#2EE6A8"/>
<path d="M119.941 63.6488C119.055 78.2984 112.93 91.9441 102.463 102.411C91.1182 113.753 76.0393 120 59.9985 120V84.8128C73.7052 84.8128 84.8572 73.6654 84.8642 59.9588V59.9307H116.425C118.447 59.9307 120.061 61.6314 119.941 63.6488Z" fill="#02AF8E"/>
<path d="M50.2863 53.7745C52.2297 53.7745 53.805 52.1991 53.805 50.2558C53.805 48.3125 52.2297 46.7371 50.2863 46.7371C48.343 46.7371 46.7676 48.3125 46.7676 50.2558C46.7676 52.1991 48.343 53.7745 50.2863 53.7745Z" fill="#515151"/>
<path d="M69.6899 73.1781C71.6332 73.1781 73.2086 71.6027 73.2086 69.6594C73.2086 67.716 71.6332 66.1406 69.6899 66.1406C67.7465 66.1406 66.1711 67.716 66.1711 69.6594C66.1711 71.6027 67.7465 73.1781 69.6899 73.1781Z" fill="#515151"/>
<path d="M72.0044 52.9189L59.9985 64.9248V54.9692L67.0266 47.9411C68.4013 46.5688 70.6298 46.5688 72.0044 47.9411C73.3767 49.3157 73.3767 51.5443 72.0044 52.9189Z" fill="#515151"/>
</g>
<defs>
<clipPath id="clip0_3747_64883">
<rect width="120" height="120" fill="white"/>
</clipPath>
</defs>
</svg>
