<svg width="150" height="150" viewBox="0 0 150 150" fill="none" xmlns="http://www.w3.org/2000/svg">
<g clip-path="url(#clip0_3747_64856)">
<path d="M10.1983 62.9132C8.05254 63.2675 6.05371 62.5373 4.25832 60.7419C3.84915 60.3327 3.49565 59.9127 3.19706 59.4825C2.1861 58.0275 1.81324 56.4588 2.08701 54.8018C3.15681 48.3158 14.0511 42.8717 14.5137 42.6426C14.8301 42.4871 15.2083 42.5498 15.4573 42.7989L22.201 49.5425C22.45 49.7916 22.5127 50.1699 22.3573 50.4862C22.1283 50.9489 16.6843 61.8434 10.1983 62.9132Z" fill="#FFD863"/>
<path d="M22.3572 50.4863C22.1283 50.9489 16.6842 61.8434 10.1982 62.9132C8.05251 63.2675 6.05368 62.5373 4.25829 60.7419C3.84912 60.3327 3.49562 59.9127 3.19702 59.4825C4.65204 60.4936 6.22069 60.8664 7.87761 60.5926C14.3637 59.5228 19.8077 48.6284 20.0366 48.1657C20.1921 47.8493 20.1295 47.4711 19.8803 47.222L22.2009 49.5427C22.4501 49.7917 22.5128 50.1699 22.3572 50.4863Z" fill="#FFB31A"/>
<path d="M23.9716 52.1765C23.6815 52.431 23.2522 52.4488 22.9413 52.2183C22.3418 51.7735 21.723 51.2815 21.0864 50.7455C19.9539 49.7894 18.7666 48.6917 17.5375 47.4626C15.6192 45.5442 14.0196 43.7264 12.7819 42.0587C12.5475 41.7423 12.5699 41.3037 12.8368 41.0136C15.2061 38.44 16.8816 36.9626 16.9511 36.9008C17.276 36.6161 17.7664 36.6316 18.0728 36.9379L28.0621 46.9273C28.3731 47.2382 28.3839 47.7395 28.0861 48.0636C25.7174 50.6379 24.042 52.1138 23.9716 52.1765Z" fill="#85A0FC"/>
<path d="M23.9716 52.1765C23.6816 52.431 23.2523 52.4487 22.9413 52.2182C22.3418 51.7734 21.723 51.2815 21.0864 50.7454C23.4217 48.735 25.5721 46.3308 26.4508 45.3159L28.062 46.9272C28.373 47.2382 28.3838 47.7394 28.086 48.0635C25.7175 50.6379 24.0421 52.1138 23.9716 52.1765Z" fill="#566FC1"/>
<path d="M51.6669 43.9615C43.2231 52.4054 29.483 52.4046 21.0391 43.9608C20.5502 43.4719 20.0892 42.9645 19.6576 42.4416C12.6239 33.9428 13.0842 21.2885 21.0391 13.3335C28.9949 5.37765 41.6489 4.91741 50.1477 11.9512C50.6706 12.3828 51.178 12.8438 51.6669 13.3327C60.1106 21.7766 60.1115 35.5169 51.6669 43.9615Z" fill="#6884E3"/>
<path d="M51.6668 43.9615C43.2231 52.4054 29.483 52.4046 21.0391 43.9608C20.5502 43.4718 20.0892 42.9645 19.6576 42.4415C28.1564 49.4753 40.8112 49.0158 48.7661 41.0608C56.7218 33.105 57.1813 20.4499 50.1476 11.9512C50.6705 12.3828 51.1779 12.8438 51.6668 13.3327C60.1106 21.7765 60.1115 35.5169 51.6668 43.9615Z" fill="#5C75C9"/>
<path d="M48.7661 16.2334C48.3747 15.842 47.9694 15.4738 47.5517 15.1273C44.3161 12.4424 40.3347 11.1003 36.3526 11.1003C31.8568 11.1003 27.362 12.8106 23.9398 16.2343C17.4855 22.6871 17.1174 32.9565 22.8337 39.8456C23.1802 40.2633 23.5485 40.6687 23.9398 41.0601C30.7847 47.9051 41.9212 47.9059 48.7661 41.0609C55.611 34.2159 55.611 23.0784 48.7661 16.2334Z" fill="#F4F2F1"/>
<path d="M48.7661 16.2334C48.3747 15.842 47.9694 15.4738 47.5517 15.1273C53.2689 22.0172 52.8991 32.2866 46.4456 38.7402C39.9922 45.1937 29.7236 45.5628 22.8337 39.8455C23.1802 40.2632 23.5485 40.6686 23.9399 41.06C30.7848 47.905 41.9212 47.9058 48.7661 41.0608C55.611 34.2158 55.611 23.0784 48.7661 16.2334Z" fill="#DED6D4"/>
<path d="M48.3488 25.7045C48.2361 26.0151 45.4773 33.3905 36.8101 39.2035C36.6712 39.2965 36.5126 39.3424 36.3528 39.3424C36.193 39.3424 36.0345 39.2965 35.8955 39.2035C27.2282 33.3902 24.4693 26.015 24.3565 25.7042C24.2417 25.3903 24.3292 25.0391 24.5775 24.8149L36.3526 22.4105L44.5024 24.0744L48.1278 24.815C48.3761 25.0394 48.4636 25.3906 48.3488 25.7045Z" fill="#A1D7F3"/>
<path d="M48.3488 25.7045C48.2361 26.0151 45.4773 33.3905 36.8101 39.2035C42.8835 32.3074 44.9609 25.3095 44.9609 25.3095C44.7837 24.8993 44.6316 24.4847 44.5025 24.0745L48.1279 24.815C48.3761 25.0394 48.4636 25.3906 48.3488 25.7045Z" fill="#7BC7EF"/>
<path d="M48.1278 24.8152C48.1278 24.8152 46.9387 25.058 44.9609 25.3097C42.8365 25.5798 39.8019 25.8599 36.3527 25.8598C29.6918 25.8598 24.5776 24.8151 24.5776 24.8151C27.2862 22.3657 28.9347 19.352 28.9512 19.3214C29.0803 19.0818 29.321 18.922 29.5923 18.8947C29.7246 18.8827 32.8631 18.5775 36.3527 18.5775C39.8423 18.5775 42.9809 18.8828 43.1132 18.8948C43.3845 18.9222 43.6252 19.0818 43.7542 19.3226C43.7707 19.352 45.4192 22.3658 48.1278 24.8152Z" fill="#7BC7EF"/>
<path d="M48.1278 24.8152C48.1278 24.8152 46.9387 25.058 44.9609 25.3097C43.7182 22.4404 43.7543 19.3226 43.7543 19.3226C43.7707 19.3521 45.4192 22.3659 48.1278 24.8152Z" fill="#29B0EA"/>
</g>
<path fill-rule="evenodd" clip-rule="evenodd" d="M82.1417 100.539H94.3193C95.9924 100.539 97.3568 101.591 97.3568 102.881V148.166H79.1041V102.881C79.1041 101.591 80.4685 100.539 82.1417 100.539Z" fill="#02AF8E"/>
<path fill-rule="evenodd" clip-rule="evenodd" d="M53.6782 91.1431H65.8558C67.529 91.1431 68.8934 92.1953 68.8934 93.4857V148.166H50.6382V93.4857C50.6407 92.1953 52.0051 91.1431 53.6782 91.1431Z" fill="#FFD863"/>
<path fill-rule="evenodd" clip-rule="evenodd" d="M25.215 108.054H37.3926C39.0658 108.054 40.4302 109.106 40.4302 110.397V148.166H22.1775V110.397C22.1775 109.106 23.5419 108.054 25.215 108.054Z" fill="#E55D5D"/>
<path fill-rule="evenodd" clip-rule="evenodd" d="M110.605 81.7478H122.783C124.456 81.7478 125.82 82.8 125.82 84.0904V148.166H107.565V84.0904C107.568 82.8 108.932 81.7478 110.605 81.7478Z" fill="#5C75C9"/>
<path fill-rule="evenodd" clip-rule="evenodd" d="M111.384 60.6222L90.3276 76.6527C89.3235 77.4177 87.9839 77.6207 86.7997 77.1751L60.3894 67.1235L33.7743 85.355C32.0893 86.5087 29.7924 86.0729 28.6428 84.382C27.4931 82.6911 27.9273 80.3861 29.6123 79.2324L57.8162 59.9092C58.7759 59.2531 60.0292 59.06 61.1986 59.5032L87.5077 69.5176L107.032 54.6556L105.076 54.3759C103.055 54.0887 101.652 52.2096 101.94 50.1844C102.226 48.1568 104.099 46.7481 106.117 47.0378L116.827 48.5678C118.847 48.855 120.251 50.734 119.962 52.7592L118.438 63.5065C118.152 65.5341 116.279 66.9428 114.261 66.6531C112.24 66.3659 110.837 64.4869 111.125 62.4617L111.384 60.6222Z" fill="#02AF8E"/>
<path fill-rule="evenodd" clip-rule="evenodd" d="M14.2449 149.126C13.5577 149.126 13 148.696 13 148.166C13 147.636 13.5577 147.206 14.2449 147.206H133.755C134.442 147.206 135 147.636 135 148.166C135 148.696 134.442 149.126 133.755 149.126H14.2449Z" fill="#D5D4D3"/>
<defs>
<clipPath id="clip0_3747_64856">
<rect width="56" height="56" fill="white" transform="translate(2 7)"/>
</clipPath>
</defs>
</svg>
