<svg width="120" height="120" viewBox="0 0 120 120" fill="none" xmlns="http://www.w3.org/2000/svg">
<path fill-rule="evenodd" clip-rule="evenodd" d="M73.0075 1.42761L113.298 16.8483V62.3743C107.476 83.0714 92.7913 94.9132 73.0075 101.642C53.2169 94.9132 38.5394 83.0717 32.7173 62.3743V16.8483L73.0075 1.42761Z" fill="#5C75C9"/>
<path fill-rule="evenodd" clip-rule="evenodd" d="M73.0076 66.8667C84.5287 66.8667 93.9229 57.4725 93.9229 45.9581C93.9229 34.4369 84.5287 25.0427 73.0076 25.0427C61.4864 25.0427 52.0922 34.4369 52.0922 45.9581C52.0922 57.4725 61.4864 66.8667 73.0076 66.8667Z" fill="#02AF8E"/>
<path d="M79.6955 42.6793V40.9953C79.6955 38.2222 77.4551 35.9649 74.6916 35.9392V32.0033H71.3239V35.9987C68.4978 36.4098 66.3199 38.848 66.3199 41.7863C66.3199 45.672 68.8521 47.6424 73.8462 47.6424C75.2145 47.6424 76.3278 48.7555 76.3278 50.1238C76.3278 51.492 75.2145 52.6053 73.8462 52.6053H71.3717C70.4431 52.6053 69.6877 51.8469 69.6877 50.9148V49.2308H66.3199V50.9148C66.3199 53.6879 68.5606 55.9449 71.3239 55.9707V59.9063H74.6916V55.911C77.5174 55.4999 79.6955 53.0617 79.6955 50.1233C79.6955 46.8981 77.0714 44.274 73.8462 44.274C70.0006 44.274 69.6877 43.1471 69.6877 41.7859C69.6877 40.4176 70.801 39.3043 72.1692 39.3043H74.644C75.5724 39.3043 76.3278 40.0627 76.3278 40.9951V42.6791H79.6955V42.6793Z" fill="white"/>
<path fill-rule="evenodd" clip-rule="evenodd" d="M21.1554 60.6699H45.1317C54.7781 68.1144 64.4316 75.5588 74.078 83.0033C77.9707 86.0096 79.0409 91.3681 76.8321 95.5881L105.499 81.6877C110.462 79.2812 116.481 81.3741 118.888 86.3302C121.287 91.2863 119.195 97.3128 114.239 99.7126C62.9454 124.582 72.8576 125.523 21.1554 98.5536V60.6699Z" fill="#FFCEBF"/>
<path d="M47.695 81.9329L45.7521 80.4331L42.7457 84.319L63.5929 100.401C66.3063 102.501 69.633 103.291 72.7964 102.882C75.9733 102.473 78.9864 100.865 81.0862 98.1446C81.4406 97.681 81.768 97.197 82.0474 96.6992C82.3542 96.1674 82.6064 95.6426 82.8042 95.138L84.0449 92.0907L76.8323 95.5878C75.5847 96.965 73.9213 97.7897 72.183 98.0147C70.2536 98.2669 68.2359 97.7829 66.5929 96.515L47.695 81.9329Z" fill="#FFB09E"/>
<path fill-rule="evenodd" clip-rule="evenodd" d="M0.117188 53.7913H21.1554V105.425H0.117188V53.7913Z" fill="#E55D5D"/>
</svg>
