<svg width="120" height="120" viewBox="0 0 120 120" fill="none" xmlns="http://www.w3.org/2000/svg">
<path d="M62 48V106L60 108H42.16C42.0026 107.996 41.8489 107.951 41.7137 107.87C41.5785 107.79 41.4664 107.676 41.388 107.539C41.3097 107.402 41.2678 107.248 41.2664 107.091C41.265 106.933 41.3041 106.778 41.38 106.64C41.9873 105.421 42.1568 104.03 41.86 102.7C41.6778 101.866 41.3198 101.081 40.8101 100.397C40.3003 99.7124 39.6505 99.1447 38.9039 98.7315C38.1572 98.3182 37.3311 98.069 36.4805 98.0004C35.6299 97.9318 34.7745 98.0455 33.9713 98.3338C33.1682 98.622 32.4357 99.0783 31.8229 99.6722C31.2101 100.266 30.731 100.984 30.4176 101.777C30.1042 102.571 29.9637 103.423 30.0055 104.275C30.0473 105.127 30.2704 105.961 30.66 106.72C30.7246 106.857 30.7533 107.009 30.7434 107.161C30.7335 107.312 30.6853 107.459 30.6034 107.586C30.5215 107.714 30.4085 107.819 30.275 107.892C30.1415 107.964 29.9918 108.001 29.84 108H20C17.8782 108 15.8434 107.157 14.3431 105.657C12.8428 104.157 12 102.122 12 100V90.16C11.9958 90.0026 11.9512 89.8489 11.8704 89.7137C11.7897 89.5786 11.6756 89.4664 11.539 89.3881C11.4024 89.3098 11.248 89.2679 11.0905 89.2665C10.9331 89.265 10.7779 89.3041 10.64 89.38C9.4206 89.9874 8.02946 90.1568 6.69995 89.86C5.86629 89.6778 5.08108 89.3199 4.39673 88.8101C3.71239 88.3004 3.14465 87.6505 2.73141 86.9039C2.31817 86.1573 2.06895 85.3311 2.00037 84.4806C1.93179 83.63 2.04543 82.7746 2.33371 81.9714C2.62199 81.1682 3.07827 80.4358 3.67211 79.823C4.26594 79.2101 4.98367 78.731 5.77737 78.4176C6.57107 78.1042 7.4225 77.9637 8.27481 78.0055C9.12712 78.0473 9.96072 78.2705 10.72 78.66C10.8574 78.7246 11.0089 78.7533 11.1605 78.7434C11.312 78.7335 11.4585 78.6854 11.5864 78.6035C11.7143 78.5216 11.8193 78.4086 11.8916 78.275C11.9639 78.1415 12.0012 77.9918 12 77.84V60L14 48H62Z" fill="#02AF8E"/>
<path d="M72 60H12V42.16C12.0042 42.0026 12.0488 41.8489 12.1295 41.7137C12.2103 41.5785 12.3244 41.4664 12.461 41.388C12.5976 41.3097 12.752 41.2678 12.9095 41.2664C13.0669 41.265 13.2221 41.3041 13.36 41.38C14.5794 41.9873 15.9705 42.1568 17.3 41.86C18.1337 41.6778 18.9189 41.3198 19.6033 40.8101C20.2876 40.3003 20.8553 39.6505 21.2686 38.9039C21.6818 38.1572 21.931 37.3311 21.9996 36.4805C22.0682 35.6299 21.9546 34.7745 21.6663 33.9713C21.378 33.1682 20.9217 32.4357 20.3279 31.8229C19.734 31.2101 19.0163 30.731 18.2226 30.4176C17.4289 30.1042 16.5775 29.9637 15.7252 30.0055C14.8729 30.0473 14.0393 30.2704 13.28 30.66C13.1426 30.7246 12.9911 30.7533 12.8395 30.7434C12.688 30.7335 12.5415 30.6853 12.4136 30.6034C12.2857 30.5215 12.1807 30.4085 12.1084 30.275C12.0361 30.1415 11.9988 29.9918 12 29.84V20C12 17.8782 12.8429 15.8434 14.3432 14.3431C15.8435 12.8428 17.8783 12 20 12H29.84C29.9974 11.9958 30.1511 11.9512 30.2863 11.8704C30.4215 11.7897 30.5336 11.6756 30.6119 11.539C30.6903 11.4024 30.7322 11.248 30.7336 11.0905C30.735 10.9331 30.6959 10.7779 30.62 10.64C30.0127 9.4206 29.8432 8.02946 30.14 6.69995C30.3222 5.86629 30.6801 5.08108 31.1899 4.39673C31.6997 3.71239 32.3495 3.14465 33.0961 2.73141C33.8427 2.31817 34.6689 2.06895 35.5195 2.00037C36.3701 1.93179 37.2255 2.04543 38.0287 2.33371C38.8318 2.62199 39.5643 3.07827 40.1771 3.67211C40.7899 4.26594 41.269 4.98367 41.5824 5.77737C41.8958 6.57107 42.0363 7.4225 41.9945 8.27481C41.9527 9.12712 41.7296 9.96072 41.34 10.72C41.2754 10.8574 41.2467 11.0089 41.2566 11.1605C41.2665 11.312 41.3147 11.4585 41.3966 11.5864C41.4785 11.7143 41.5915 11.8193 41.725 11.8916C41.8585 11.9639 42.0082 12.0012 42.16 12H60L72 14V60Z" fill="#5C75C9"/>
<path d="M60 72V42.16C59.9988 42.0082 60.0361 41.8585 60.1084 41.725C60.1807 41.5915 60.2857 41.4785 60.4136 41.3966C60.5415 41.3147 60.688 41.2665 60.8395 41.2566C60.991 41.2467 61.1426 41.2754 61.28 41.34C62.1212 41.7736 63.0537 41.9999 64 42C65.4801 42.0029 66.909 41.4585 68.0121 40.4717C69.1151 39.4848 69.8145 38.1251 69.9758 36.6538C70.1371 35.1825 69.7488 33.7036 68.8857 32.5012C68.0226 31.2988 66.7456 30.4579 65.3 30.14C63.9705 29.8432 62.5794 30.0127 61.36 30.62C61.2221 30.6959 61.0669 30.735 60.9095 30.7336C60.752 30.7322 60.5976 30.6903 60.461 30.6119C60.3244 30.5336 60.2103 30.4215 60.1295 30.2863C60.0488 30.1511 60.0042 29.9974 60 29.84V12H77.84C77.9974 12.0042 78.1511 12.0488 78.2863 12.1295C78.4215 12.2103 78.5336 12.3244 78.6119 12.461C78.6903 12.5976 78.7322 12.752 78.7336 12.9095C78.735 13.0669 78.6959 13.2221 78.62 13.36C78.0127 14.5794 77.8432 15.9705 78.14 17.3C78.3222 18.1337 78.6801 18.9189 79.1899 19.6033C79.6997 20.2876 80.3495 20.8553 81.0961 21.2686C81.8427 21.6818 82.6689 21.931 83.5195 21.9996C84.3701 22.0682 85.2255 21.9546 86.0287 21.6663C86.8318 21.378 87.5643 20.9217 88.1771 20.3279C88.7899 19.734 89.269 19.0163 89.5824 18.2226C89.8958 17.4289 90.0363 16.5775 89.9945 15.7252C89.9527 14.8729 89.7296 14.0393 89.34 13.28C89.2754 13.1426 89.2467 12.9911 89.2566 12.8395C89.2665 12.688 89.3147 12.5415 89.3966 12.4136C89.4785 12.2857 89.5915 12.1807 89.725 12.1084C89.8585 12.0361 90.0082 11.9988 90.16 12H100C102.122 12 104.157 12.8429 105.657 14.3432C107.157 15.8435 108 17.8783 108 20V29.84C108.004 29.9974 108.049 30.1511 108.13 30.2863C108.21 30.4215 108.324 30.5336 108.461 30.6119C108.598 30.6903 108.752 30.7322 108.909 30.7336C109.067 30.735 109.222 30.6959 109.36 30.62C110.579 30.0127 111.971 29.8432 113.3 30.14C114.134 30.3222 114.919 30.6801 115.603 31.1899C116.288 31.6997 116.855 32.3495 117.269 33.0961C117.682 33.8427 117.931 34.6689 118 35.5195C118.068 36.3701 117.955 37.2255 117.666 38.0287C117.378 38.8318 116.922 39.5643 116.328 40.1771C115.734 40.7899 115.016 41.269 114.223 41.5824C113.429 41.8958 112.577 42.0363 111.725 41.9945C110.873 41.9527 110.039 41.7296 109.28 41.34C109.143 41.2754 108.991 41.2467 108.84 41.2566C108.688 41.2665 108.541 41.3147 108.414 41.3966C108.286 41.4785 108.181 41.5915 108.108 41.725C108.036 41.8585 107.999 42.0082 108 42.16V60L106 72H60Z" fill="#FFD863"/>
<path d="M98.1 82.86C97.9318 83.7292 97.958 84.6249 98.1768 85.4828C98.3956 86.3407 98.8016 87.1395 99.3655 87.822C99.9295 88.5045 100.637 89.0537 101.439 89.4303C102.24 89.8068 103.115 90.0014 104 90C104.946 89.9999 105.879 89.7736 106.72 89.34C106.857 89.2754 107.009 89.2467 107.161 89.2566C107.312 89.2665 107.459 89.3147 107.586 89.3966C107.714 89.4785 107.819 89.5915 107.892 89.725C107.964 89.8585 108.001 90.0082 108 90.16V100C108 102.122 107.157 104.157 105.657 105.657C104.157 107.157 102.122 108 100 108H90.16C90.0026 108.004 89.849 108.049 89.7138 108.13C89.5786 108.21 89.4664 108.324 89.3881 108.461C89.3098 108.598 89.2679 108.752 89.2665 108.909C89.2651 109.067 89.3042 109.222 89.38 109.36C89.9874 110.579 90.1569 111.971 89.86 113.3C89.6778 114.134 89.3199 114.919 88.8102 115.603C88.3004 116.288 87.6505 116.855 86.9039 117.269C86.1573 117.682 85.3312 117.931 84.4806 118C83.63 118.068 82.7746 117.955 81.9714 117.666C81.1682 117.378 80.4358 116.922 79.823 116.328C79.2102 115.734 78.7311 115.016 78.4177 114.223C78.1043 113.429 77.9638 112.577 78.0056 111.725C78.0474 110.873 78.2705 110.039 78.66 109.28C78.7246 109.143 78.7533 108.991 78.7434 108.84C78.7335 108.688 78.6854 108.541 78.6035 108.414C78.5216 108.286 78.4086 108.181 78.2751 108.108C78.1416 108.036 77.9919 107.999 77.84 108H60V90.16C60.0013 90.0082 59.964 89.8585 59.8916 89.725C59.8193 89.5915 59.7143 89.4785 59.5865 89.3966C59.4586 89.3147 59.3121 89.2665 59.1605 89.2566C59.009 89.2467 58.8574 89.2754 58.72 89.34C57.8789 89.7736 56.9463 89.9999 56 90C54.5199 90.0029 53.091 89.4585 51.988 88.4717C50.8849 87.4848 50.1855 86.1251 50.0243 84.6538C49.863 83.1825 50.2512 81.7036 51.1143 80.5012C51.9774 79.2988 53.2545 78.4579 54.7 78.14C56.0295 77.8432 57.4207 78.0127 58.64 78.62C58.778 78.6959 58.9332 78.735 59.0906 78.7336C59.248 78.7322 59.4025 78.6903 59.5391 78.6119C59.6756 78.5336 59.7898 78.4215 59.8705 78.2863C59.9512 78.1511 59.9958 77.9974 60 77.84V60H77.84C77.9974 60.0042 78.1511 60.0488 78.2863 60.1295C78.4215 60.2103 78.5336 60.3244 78.6119 60.461C78.6903 60.5976 78.7322 60.752 78.7336 60.9095C78.735 61.0669 78.6959 61.2221 78.62 61.36C78.0127 62.5794 77.8432 63.9705 78.14 65.3C78.3222 66.1337 78.6801 66.9189 79.1899 67.6032C79.6997 68.2876 80.3495 68.8553 81.0961 69.2686C81.8427 69.6818 82.6689 69.931 83.5195 69.9996C84.3701 70.0682 85.2255 69.9546 86.0286 69.6663C86.8318 69.378 87.5643 68.9217 88.1771 68.3279C88.7899 67.734 89.269 67.0163 89.5824 66.2226C89.8958 65.4289 90.0363 64.5775 89.9945 63.7252C89.9527 62.8729 89.7296 62.0393 89.34 61.28C89.2754 61.1426 89.2467 60.991 89.2566 60.8395C89.2665 60.688 89.3147 60.5415 89.3966 60.4136C89.4785 60.2857 89.5915 60.1807 89.725 60.1084C89.8585 60.0361 90.0082 59.9988 90.16 60H108V77.84C107.996 77.9974 107.951 78.1511 107.871 78.2863C107.79 78.4215 107.676 78.5336 107.539 78.6119C107.402 78.6903 107.248 78.7322 107.091 78.7336C106.933 78.735 106.778 78.6959 106.64 78.62C105.421 78.0127 104.03 77.8432 102.7 78.14C101.556 78.392 100.511 78.9732 99.6939 79.8119C98.8765 80.6506 98.3224 81.7102 98.1 82.86Z" fill="#E55D5D"/>
<g clip-path="url(#clip0_3784_63192)">
<path fill-rule="evenodd" clip-rule="evenodd" d="M46.2133 43.0493H44.0291C43.202 43.0493 42.9475 42.4398 41.4631 41.0439C40.1694 39.8839 39.5968 39.7266 39.2787 39.7266C38.8334 39.7266 38.7061 39.8446 38.7061 40.4147V42.2432C38.7061 42.7347 38.5365 43.0295 37.1368 43.0295C34.8253 43.0295 32.2593 41.732 30.4567 39.3137C27.7422 35.7748 27 33.1206 27 32.5702C27 32.2752 27.1272 32 27.7422 32H29.9265C30.4779 32 30.69 32.2359 30.902 32.7864C31.9836 35.6765 33.7862 38.2127 34.5284 38.2127C34.8041 38.2127 34.9313 38.0948 34.9313 37.446V34.4576C34.8465 33.0813 34.0619 32.9634 34.0619 32.4719C34.0619 32.2359 34.2739 32 34.6132 32H38.0487C38.5153 32 38.6849 32.2359 38.6849 32.7471V36.7775C38.6849 37.2101 38.8971 37.3673 39.0242 37.3673C39.2999 37.3673 39.5332 37.2101 40.0421 36.7382C41.6115 35.1064 42.7354 32.5898 42.7354 32.5898C42.8839 32.2949 43.1384 32.0197 43.6898 32.0197H45.874C46.5314 32.0197 46.6799 32.3342 46.5314 32.7668C46.2558 33.9464 43.5836 37.446 43.5836 37.446C43.3505 37.7999 43.2656 37.9572 43.5836 38.3504C43.8169 38.6453 44.5805 39.2548 45.0894 39.8052C46.0225 40.7883 46.7435 41.614 46.9344 42.1842C47.1465 42.7543 46.8284 43.0493 46.2133 43.0493Z" fill="white"/>
</g>
<path fill-rule="evenodd" clip-rule="evenodd" d="M89.0427 80.4282C89.8137 80.6588 90.4217 81.3341 90.6293 82.1906C91.0148 83.7553 90.9999 87.0165 90.9999 87.0165C90.9999 87.0165 90.9999 90.2612 90.6293 91.8259C90.4217 92.6824 89.8137 93.3577 89.0427 93.5883C87.6342 94 82 94 82 94C82 94 76.3805 94 74.9572 93.5718C74.1862 93.3412 73.5783 92.6659 73.3707 91.8094C73 90.2612 73 87 73 87C73 87 73 83.7553 73.3707 82.1906C73.5783 81.3341 74.201 80.6424 74.9572 80.4118C76.3657 80 82 80 82 80C82 80 87.6342 80 89.0427 80.4282ZM84.891 86.9179L80.2057 89.9156V83.9202L84.891 86.9179Z" fill="white"/>
<g clip-path="url(#clip1_3784_63192)">
<path d="M85 41.5C86.0355 41.5 86.875 40.3807 86.875 39C86.875 37.6193 86.0355 36.5 85 36.5C83.9645 36.5 83.125 37.6193 83.125 39C83.125 40.3807 83.9645 41.5 85 41.5Z" fill="white"/>
<path d="M85 29C83.0222 29 81.0888 29.5865 79.4443 30.6853C77.7998 31.7841 76.5181 33.3459 75.7612 35.1732C75.0043 37.0004 74.8063 39.0111 75.1922 40.9509C75.578 42.8907 76.5304 44.6725 77.9289 46.0711C79.3275 47.4696 81.1093 48.422 83.0491 48.8079C84.9889 49.1937 86.9996 48.9957 88.8268 48.2388C90.6541 47.4819 92.2159 46.2002 93.3147 44.5557C94.4135 42.9112 95 40.9778 95 39C95 36.3478 93.9464 33.8043 92.0711 31.9289C90.1957 30.0536 87.6522 29 85 29ZM91.8269 39.95C91.7413 40.8519 91.6019 42.0356 90.9369 42.7188C90.675 43.0297 90.3456 43.2768 89.9738 43.4414C89.602 43.6059 89.1975 43.6834 88.7913 43.6681C88.5085 43.6501 88.2331 43.5701 87.9847 43.4338C87.7363 43.2975 87.5209 43.1082 87.3538 42.8794C87.1434 42.607 86.9925 42.2936 86.9106 41.9594C86.3982 42.4574 85.7145 42.7403 85 42.75C83.2769 42.75 81.875 41.0681 81.875 39C81.875 36.9319 83.2769 35.25 85 35.25C85.6977 35.2589 86.3667 35.529 86.875 36.0069V35.875C86.875 35.7092 86.9409 35.5503 87.0581 35.4331C87.1753 35.3158 87.3342 35.25 87.5 35.25C87.6658 35.25 87.8247 35.3158 87.9419 35.4331C88.0592 35.5503 88.125 35.7092 88.125 35.875V41.6338C88.1588 41.8253 88.2439 42.0042 88.3713 42.1512C88.432 42.2312 88.5096 42.2968 88.5984 42.3436C88.6873 42.3903 88.7853 42.4171 88.8856 42.4219C89.1081 42.4138 89.3264 42.3583 89.5257 42.259C89.725 42.1597 89.9008 42.019 90.0413 41.8463C90.4431 41.4338 90.5031 40.5487 90.5644 40.0175C90.6894 39.1541 90.6345 38.2742 90.4031 37.4331C90.0688 36.3249 89.4057 35.3444 88.5016 34.6215C87.5976 33.8986 86.4952 33.4674 85.3406 33.385C84.529 33.3461 83.7184 33.4815 82.9635 33.7821C82.2086 34.0828 81.5269 34.5418 80.9643 35.1281C80.4017 35.7143 79.9713 36.4144 79.702 37.181C79.4327 37.9477 79.3308 38.7632 79.4031 39.5725C79.4877 40.4043 79.7567 41.2067 80.1904 41.9215C80.6241 42.6362 81.2117 43.2453 81.9105 43.7044C82.6092 44.1635 83.4015 44.461 84.2297 44.5754C85.0578 44.6898 85.9011 44.6181 86.6981 44.3656C86.7774 44.3369 86.8617 44.3246 86.9458 44.3293C87.03 44.334 87.1123 44.3557 87.1879 44.3931C87.2635 44.4304 87.3307 44.4827 87.3855 44.5467C87.4404 44.6108 87.4817 44.6852 87.507 44.7656C87.5323 44.8461 87.5411 44.9308 87.5328 45.0147C87.5246 45.0985 87.4994 45.1799 87.4589 45.2538C87.4183 45.3277 87.3633 45.3927 87.297 45.4448C87.2307 45.4969 87.1545 45.535 87.0731 45.5569C86.0987 45.8654 85.0678 45.9529 84.0553 45.8128C83.0429 45.6727 82.0744 45.3086 81.2204 44.747C80.3664 44.1855 79.6483 43.4406 79.1185 42.5665C78.5886 41.6925 78.2603 40.7113 78.1575 39.6944C78.0691 38.7057 78.1936 37.7096 78.5226 36.7731C78.8516 35.8366 79.3776 34.9815 80.0649 34.2655C80.7523 33.5494 81.5851 32.9889 82.5074 32.6218C83.4296 32.2548 84.4198 32.0896 85.4113 32.1375C86.8205 32.2347 88.1668 32.758 89.2719 33.6379C90.3769 34.5178 91.1884 35.7127 91.5988 37.0644C91.8639 38.0019 91.9414 38.9825 91.8269 39.95Z" fill="white"/>
</g>
<g clip-path="url(#clip2_3784_63192)">
<path d="M45.9794 85.8259C45.9302 86.9418 45.7498 87.7089 45.4913 88.3736C45.2247 89.0791 44.8144 89.7108 44.277 90.236C43.7518 90.7693 43.1159 91.1837 42.4185 91.4462C41.75 91.7047 40.9869 91.8851 39.8711 91.9343C38.7469 91.9877 38.3901 92 35.5389 92C32.6878 92 32.3309 91.9877 31.2109 91.9385C30.0951 91.8893 29.328 91.7087 28.6635 91.4503C27.9577 91.1837 27.326 90.7735 26.8009 90.236C26.2676 89.7108 25.8533 89.075 25.5907 88.3776C25.3322 87.7089 25.1518 86.9459 25.1026 85.8301C25.0492 84.706 25.0369 84.3491 25.0369 81.4979C25.0369 78.6468 25.0492 78.2899 25.0984 77.17C25.1476 76.0541 25.3282 75.287 25.5867 74.6223C25.8533 73.9167 26.2676 73.285 26.8009 72.7599C27.326 72.2266 27.9619 71.8122 28.6593 71.5497C29.328 71.2912 30.0909 71.1108 31.2069 71.0616C32.3267 71.0122 32.6838 71.0001 35.5349 71.0001C38.3861 71.0001 38.7429 71.0122 39.8629 71.0616C40.9787 71.1108 41.7458 71.2912 42.4104 71.5497C43.8217 72.0954 44.9375 73.2112 45.4831 74.6223C45.7415 75.291 45.9221 76.0541 45.9713 77.17C46.0205 78.2899 46.0328 78.6468 46.0328 81.4979C46.0328 84.3491 46.0286 84.706 45.9794 85.8259ZM44.0883 77.252C44.0431 76.2264 43.8709 75.6726 43.7273 75.3034C43.3744 74.3885 42.6483 73.6624 41.7335 73.3096C41.3643 73.166 40.8064 72.9937 39.7849 72.9487C38.6772 72.8993 38.345 72.8872 35.5431 72.8872C32.7411 72.8872 32.4048 72.8993 31.3011 72.9487C30.2756 72.9937 29.7217 73.166 29.3525 73.3096C28.8973 73.4778 28.4829 73.7445 28.1465 74.0932C27.7978 74.4337 27.5311 74.8439 27.3629 75.2992C27.2193 75.6684 27.047 76.2264 27.002 77.2478C26.9526 78.3555 26.9405 78.6878 26.9405 81.4898C26.9405 84.2917 26.9526 84.6281 27.002 85.7316C27.047 86.7571 27.2193 87.311 27.3629 87.6802C27.5311 88.1356 27.7978 88.5498 28.1507 88.8864C28.491 89.2351 28.9013 89.5017 29.3567 89.6698C29.7259 89.8134 30.2839 89.9857 31.3053 90.0309C32.4129 90.0801 32.7453 90.0924 35.5471 90.0924C38.3532 90.0924 38.6854 90.0801 39.789 90.0309C40.8146 89.9857 41.3684 89.8134 41.7377 89.6698C42.1929 89.5017 42.6073 89.2351 42.9437 88.8864C43.2924 88.5458 43.559 88.1356 43.7273 87.6802C43.8709 87.311 44.0431 86.7531 44.0883 85.7316C44.1375 84.6239 44.1499 84.2917 44.1499 81.4898C44.1499 78.6878 44.1375 78.3596 44.0883 77.252Z" fill="white"/>
<path d="M35.5389 86.8926C32.5607 86.8926 30.1443 84.4763 30.1443 81.498C30.1443 78.5196 32.5607 76.1034 35.5389 76.1034C38.5173 76.1034 40.9335 78.5196 40.9335 81.498C40.9335 84.4763 38.5173 86.8926 35.5389 86.8926ZM35.5389 77.9986C33.6068 77.9986 32.0395 79.5657 32.0395 81.498C32.0395 83.4302 33.6068 84.9973 35.5389 84.9973C37.4712 84.9973 39.0382 83.4302 39.0382 81.498C39.0382 79.5657 37.4712 77.9986 35.5389 77.9986Z" fill="white"/>
<path d="M42.4064 87.1058C42.4064 86.4104 41.8425 85.8464 41.1468 85.8464C40.4514 85.8464 39.8875 86.4104 39.8875 87.1058C39.8875 87.8015 40.4514 88.3652 41.1468 88.3652C41.8425 88.3652 42.4064 87.8015 42.4064 87.1058Z" fill="white"/>
</g>
<defs>
<clipPath id="clip0_3784_63192">
<rect width="20" height="12" fill="white" transform="translate(27 32)"/>
</clipPath>
<clipPath id="clip1_3784_63192">
<rect width="20" height="20" fill="white" transform="translate(75 29)"/>
</clipPath>
<clipPath id="clip2_3784_63192">
<rect width="21" height="21" fill="white" transform="matrix(1 0 0 -1 25 92)"/>
</clipPath>
</defs>
</svg>
