<svg width="150" height="150" viewBox="0 0 150 150" fill="none" xmlns="http://www.w3.org/2000/svg">
<path fill-rule="evenodd" clip-rule="evenodd" d="M126.365 56.8515C125.955 56.85 125.55 56.8809 125.157 56.9461L55.7467 69.5496C51.5668 70.3085 48.0784 72.9696 48.0784 77.2179V89.4405H134.84V64.6144C134.84 59.922 130.33 56.8659 126.365 56.8515Z" fill="#6884E3"/>
<path fill-rule="evenodd" clip-rule="evenodd" d="M128.949 57.2695C129.075 57.7929 129.143 58.3428 129.143 58.9179V76.6652C129.143 78.8047 128.657 81.1149 125.144 81.1149H48.0784V89.4405H134.84V64.6143C134.84 60.9313 132.061 58.2568 128.949 57.2695Z" fill="#5C75C9"/>
<path fill-rule="evenodd" clip-rule="evenodd" d="M121.427 76.3687C121.427 80.9761 119.559 85.3948 116.234 88.6527C112.908 91.9106 108.398 93.7409 103.695 93.7409C101.366 93.7409 99.0603 93.2916 96.9089 92.4185C94.7575 91.5455 92.8027 90.2659 91.156 88.6527C89.5094 87.0395 88.2032 85.1245 87.3121 83.0168C86.4209 80.9091 85.9623 78.6501 85.9623 76.3687C85.9623 71.7613 87.8305 67.3427 91.156 64.0848C94.4815 60.8269 98.9919 58.9966 103.695 58.9966C108.398 58.9966 112.908 60.8269 116.234 64.0848C119.559 67.3427 121.427 71.7614 121.427 76.3687Z" fill="#FFD54F"/>
<path fill-rule="evenodd" clip-rule="evenodd" d="M113.371 76.3688C113.371 77.6129 113.12 78.8447 112.634 79.9941C112.148 81.1434 111.435 82.1877 110.537 83.0674C109.638 83.9471 108.572 84.6449 107.398 85.1209C106.224 85.597 104.965 85.842 103.695 85.842C101.129 85.842 98.6676 84.8439 96.853 83.0674C95.0385 81.2908 94.019 78.8813 94.019 76.3688C94.019 73.8564 95.0385 71.4468 96.853 69.6703C98.6676 67.8937 101.129 66.8956 103.695 66.8956C104.965 66.8956 106.224 67.1407 107.398 67.6167C108.572 68.0928 109.638 68.7906 110.537 69.6703C111.435 70.5499 112.148 71.5942 112.634 72.7436C113.12 73.8929 113.371 75.1248 113.371 76.3688Z" fill="#FFA14E"/>
<path fill-rule="evenodd" clip-rule="evenodd" d="M101.255 59.2068C92.534 60.4417 86.0469 67.7718 86.0377 76.4288C86.0449 79.3857 86.8212 82.292 88.2933 84.8734C97.0422 83.6558 103.547 76.3222 103.556 67.665C103.549 64.7081 102.728 61.7881 101.255 59.2068Z" fill="#FFBB4F"/>
<path fill-rule="evenodd" clip-rule="evenodd" d="M103.537 66.9436C98.2795 67.0777 94.1108 71.2981 94.1074 76.4288C94.1117 78.3994 94.734 80.342 95.9141 81.9456C100.689 78.7036 103.542 73.3565 103.556 67.6651C103.548 67.4268 103.555 67.1814 103.537 66.9436Z" fill="#FFB31A"/>
<path fill-rule="evenodd" clip-rule="evenodd" d="M98.2025 63.2437C98.2025 65.5251 97.7438 67.7841 96.8527 69.8918C95.9615 71.9995 94.6554 73.9146 93.0087 75.5277C91.3621 77.1409 89.4073 78.4205 87.2559 79.2935C85.1045 80.1666 82.7986 80.6159 80.4699 80.6159C78.1412 80.6159 75.8353 80.1666 73.6839 79.2935C71.5325 78.4205 69.5777 77.1409 67.9311 75.5277C66.2844 73.9146 64.9783 71.9995 64.0871 69.8918C63.196 67.7841 62.7373 65.5251 62.7373 63.2437C62.7373 58.6364 64.6056 54.2177 67.9311 50.9598C71.2566 47.7019 75.7669 45.8716 80.4699 45.8716C85.1729 45.8716 89.6832 47.7019 93.0087 50.9598C96.3342 54.2177 98.2025 58.6364 98.2025 63.2437Z" fill="#FFD54F"/>
<path fill-rule="evenodd" clip-rule="evenodd" d="M90.1459 63.2437C90.1459 64.4878 89.8956 65.7196 89.4093 66.869C88.9231 68.0183 88.2103 69.0626 87.3119 69.9423C86.4134 70.822 85.3467 71.5197 84.1728 71.9958C82.9988 72.4719 81.7406 72.7169 80.47 72.7169C77.9038 72.7169 75.4427 71.7188 73.6282 69.9423C71.8136 68.1657 70.7942 65.7562 70.7942 63.2437C70.7942 60.7313 71.8136 58.3217 73.6282 56.5452C75.4427 54.7686 77.9038 53.7705 80.47 53.7705C81.7406 53.7705 82.9988 54.0155 84.1728 54.4916C85.3467 54.9677 86.4134 55.6655 87.3119 56.5451C88.2103 57.4248 88.9231 58.4691 89.4093 59.6185C89.8956 60.7678 90.1459 61.9997 90.1459 63.2437Z" fill="#FFA14E"/>
<path fill-rule="evenodd" clip-rule="evenodd" d="M48.0625 78.2366C48.0625 83.9945 53.5192 86.1252 56.4175 86.1252H134.469C138.71 86.1252 142.125 89.5399 142.125 93.7815V134.469C142.125 138.711 138.71 142.125 134.469 142.125H55.7188C51.4772 142.125 48.0625 138.711 48.0625 134.469V78.2366Z" fill="#6F8AE7"/>
<path fill-rule="evenodd" clip-rule="evenodd" d="M48.0784 115.012V134.621C48.0784 138.869 51.4984 142.289 55.7467 142.289H81.0521C82.4783 142.289 83.6264 141.141 83.6264 139.715V135.771C83.6264 134.345 82.4783 133.197 81.0521 133.197H77.6013C79.0275 133.197 80.1757 132.048 80.1757 130.622V126.679C80.1757 125.252 79.0275 124.104 77.6013 124.104H81.0521C82.4783 124.104 83.6264 122.956 83.6264 121.53V117.586C83.6264 116.16 82.4783 115.012 81.0521 115.012H48.0784Z" fill="#6884E3"/>
<path fill-rule="evenodd" clip-rule="evenodd" d="M128.924 86.2007C133.057 87.1836 136.593 89.6207 136.593 93.869V107.265H131.839C115.33 107.265 115.146 130.194 131.839 130.194H136.593V134.621C136.593 138.869 133.172 142.289 128.924 142.289H134.621C138.869 142.289 142.289 138.869 142.289 134.621V130.194V107.265V93.869C142.289 89.6207 138.869 86.2007 134.621 86.2007H128.924Z" fill="#6884E3"/>
<path fill-rule="evenodd" clip-rule="evenodd" d="M131.691 102.344H142.125C145.761 102.344 148.687 105.271 148.687 108.906V118.674C148.687 122.31 145.761 125.237 142.125 125.237H131.691C115.024 125.237 115.208 102.344 131.691 102.344Z" fill="#475993"/>
<path fill-rule="evenodd" clip-rule="evenodd" d="M144.199 102.726C144.381 103.33 144.48 103.971 144.48 104.636V114.419C144.48 117.789 141.969 120.548 138.709 120.942C139.343 120.483 139.858 119.886 140.214 119.197C140.569 118.509 140.755 117.748 140.756 116.977C140.756 116.328 140.626 115.686 140.372 115.087C140.119 114.488 139.747 113.944 139.279 113.485C138.811 113.027 138.255 112.663 137.643 112.415C137.031 112.167 136.375 112.039 135.713 112.039C134.375 112.039 133.093 112.559 132.147 113.485C131.201 114.411 130.67 115.667 130.67 116.977C130.67 117.762 130.863 118.537 131.231 119.235C131.598 119.933 132.131 120.536 132.784 120.992H127.456C124.791 120.992 122.555 120.405 120.748 119.422C122.581 122.822 126.271 125.374 131.838 125.374H142.289C145.93 125.374 148.862 122.442 148.862 118.801V109.018C148.862 106.041 146.903 103.541 144.199 102.726Z" fill="#475993"/>
<path fill-rule="evenodd" clip-rule="evenodd" d="M53.3118 92.8369V93.7119H55.0622V92.8369H53.3118ZM57.6855 92.8369V93.7119H59.4363V92.8369H57.6855ZM62.0618 92.8369V93.7119H63.8122V92.8369H62.0618ZM66.4368 92.8369V93.7119H68.1868V92.8369H66.4368ZM70.8105 92.8369V93.7119H72.5613V92.8369H70.8105ZM75.1868 92.8369V93.7119H76.9372V92.8369H75.1868ZM79.5613 92.8369V93.7119H81.3118V92.8369H79.5613ZM83.9355 92.8369V93.7119H85.6863V92.8369H83.9355ZM88.3118 92.8369V93.7119H90.0622V92.8369H88.3118ZM92.6863 92.8369V93.7119H94.4368V92.8369H92.6863ZM97.0605 92.8369V93.7119H98.8113V92.8369H97.0605ZM101.437 92.8369V93.7119H103.187V92.8369H101.437ZM105.812 92.8369V93.7119H107.562V92.8369H105.812ZM110.185 92.8369V93.7119H111.936V92.8369H110.185ZM114.562 92.8369V93.7119H116.312V92.8369H114.562ZM118.937 92.8369V93.7119H120.687V92.8369H118.937ZM123.749 92.8369V93.7119H125.5V92.8369H123.749ZM128.126 92.8369V93.7119H129.876V92.8369H128.126ZM132.5 92.8702V93.7452H134.251V92.8702H132.5ZM133.376 95.7499V97.5003H134.251V95.7499H133.376ZM133.376 130.223V131.974H134.251V130.223H133.376ZM132.5 133.978V134.853H134.251V133.978H132.5ZM83.9355 134.011V134.886H85.6863V134.011H83.9355ZM88.3118 134.011V134.886H90.0622V134.011H88.3118ZM92.6863 134.011V134.886H94.4368V134.011H92.6863ZM97.0605 134.011V134.886H98.8113V134.011H97.0605ZM101.437 134.011V134.886H103.187V134.011H101.437ZM105.812 134.011V134.886H107.562V134.011H105.812ZM110.185 134.011V134.886H111.936V134.011H110.185ZM114.562 134.011V134.886H116.312V134.011H114.562ZM118.937 134.011V134.886H120.687V134.011H118.937ZM123.749 134.011V134.886H125.5V134.011H123.749ZM128.126 134.011V134.886H129.876V134.011H128.126Z" fill="#5C75C9"/>
<path fill-rule="evenodd" clip-rule="evenodd" d="M45.3281 133.047H76.1719C77.5958 133.047 78.7422 134.193 78.7422 135.617V139.555C78.7422 140.979 77.5958 142.125 76.1719 142.125H45.3281C43.9042 142.125 42.7578 140.979 42.7578 139.555V135.617C42.7578 134.193 43.9042 133.047 45.3281 133.047Z" fill="#FFD54F"/>
<path fill-rule="evenodd" clip-rule="evenodd" d="M74.3672 133.047V135.18C74.3672 136.604 73.2208 137.75 71.7969 137.75H42.7578V139.555C42.7578 140.979 43.9042 142.125 45.3281 142.125H76.1719C77.5958 142.125 78.7422 140.979 78.7422 139.555V135.617C78.7422 134.193 77.5958 133.047 76.1719 133.047H74.3672Z" fill="#FFBB4F"/>
<path fill-rule="evenodd" clip-rule="evenodd" d="M41.8828 123.969H72.7266C74.1505 123.969 75.2969 125.115 75.2969 126.539V130.477C75.2969 131.901 74.1505 133.047 72.7266 133.047H41.8828C40.4589 133.047 39.3125 131.901 39.3125 130.477V126.539C39.3125 125.115 40.4589 123.969 41.8828 123.969Z" fill="#FFD54F"/>
<path fill-rule="evenodd" clip-rule="evenodd" d="M45.3281 114.891H76.1719C77.5958 114.891 78.7422 116.037 78.7422 117.461V121.399C78.7422 122.823 77.5958 123.969 76.1719 123.969H45.3281C43.9042 123.969 42.7578 122.823 42.7578 121.399V117.461C42.7578 116.037 43.9042 114.891 45.3281 114.891Z" fill="#FFD54F"/>
<path fill-rule="evenodd" clip-rule="evenodd" d="M74.4245 115.012V117.148C74.4245 118.574 73.2764 119.722 71.8502 119.722H42.7654V121.53C42.7654 122.956 43.9135 124.104 45.3397 124.104H76.2321C77.6583 124.104 78.8064 122.956 78.8064 121.53V117.586C78.8064 116.16 77.6583 115.012 76.2321 115.012H74.4245Z" fill="#FFBB4F"/>
<path fill-rule="evenodd" clip-rule="evenodd" d="M70.9219 123.969V126.102C70.9219 127.526 69.7755 128.672 68.3516 128.672H39.3125V130.477C39.3125 131.901 40.4589 133.047 41.8828 133.047H72.7266C74.1505 133.047 75.2969 131.901 75.2969 130.477V126.539C75.2969 125.115 74.1505 123.969 72.7266 123.969H70.9219Z" fill="#FFBB4F"/>
<path fill-rule="evenodd" clip-rule="evenodd" d="M84.893 54.8082C88.1471 63.2712 79.047 70.8856 71.7885 67.3651C73.3945 70.6645 76.8037 72.7675 80.5368 72.7714C85.8891 72.7714 90.228 68.5234 90.2279 63.2832C90.2234 59.7023 88.1602 56.4178 84.893 54.8082Z" fill="#FFB31A"/>
<path fill-rule="evenodd" clip-rule="evenodd" d="M137.095 113.79C137.095 114.438 136.965 115.079 136.712 115.677C136.458 116.275 136.088 116.819 135.62 117.276C135.152 117.734 134.597 118.097 133.986 118.345C133.375 118.593 132.721 118.72 132.059 118.72C130.724 118.72 129.443 118.201 128.499 117.276C127.554 116.352 127.024 115.098 127.024 113.79C127.024 112.483 127.554 111.229 128.499 110.304C129.443 109.38 130.724 108.86 132.059 108.86C132.721 108.86 133.375 108.988 133.986 109.236C134.597 109.483 135.152 109.847 135.62 110.304C136.088 110.762 136.458 111.306 136.712 111.904C136.965 112.502 137.095 113.143 137.095 113.79Z" fill="#D9DEFB"/>
<path fill-rule="evenodd" clip-rule="evenodd" d="M133.911 109.262C134.087 109.768 134.181 110.307 134.183 110.842C134.183 113.569 131.925 115.78 129.14 115.78C128.558 115.778 127.973 115.677 127.426 115.482C128.115 117.49 130.043 118.844 132.207 118.847C134.993 118.847 137.251 116.636 137.251 113.909C137.248 111.829 135.91 109.966 133.911 109.262Z" fill="#BBCDFB"/>
<path d="M19.0959 53.1851C18.3539 53.1851 17.7522 52.5835 17.7522 51.8414V1.34375C17.7522 0.601664 18.3539 0 19.0959 0C19.838 0 20.4397 0.601664 20.4397 1.34375V51.8414C20.4397 52.5835 19.838 53.1851 19.0959 53.1851Z" fill="#FFD863"/>
<path d="M41.9397 24.168C41.1976 24.168 40.5959 23.5663 40.5959 22.8243V1.34375C40.5959 0.601664 41.1976 0 41.9397 0C42.6818 0 43.2834 0.601664 43.2834 1.34375V22.8243C43.2834 23.5663 42.6818 24.168 41.9397 24.168Z" fill="#FFD863"/>
<path d="M60.8377 40.3571L40.7055 47.9033C40.0106 48.1638 39.2361 47.8116 38.9756 47.1167L32.3727 29.501C32.1122 28.8061 32.4644 28.0316 33.1593 27.7711L53.2916 20.2249C53.9865 19.9644 54.761 20.3166 55.0215 21.0115L61.6243 38.6272C61.8848 39.3223 61.5326 40.0968 60.8377 40.3571Z" fill="#FE7272"/>
<path d="M33.1593 27.7712C32.4644 28.0315 32.1122 28.8062 32.3727 29.5011L38.9756 47.1168C39.2361 47.8117 40.0106 48.1639 40.7055 47.9035L43.1973 46.9695L35.6481 26.8383L33.1593 27.7712Z" fill="#E55D5D"/>
<path d="M43.234 25.3356C42.9558 25.3356 42.6805 25.2491 42.4486 25.0821C42.0903 24.8243 41.8817 24.4067 41.8904 23.9655C41.9151 22.7112 42.113 16.3514 43.5842 14.3084C44.4234 13.1432 45.6658 12.3748 47.083 12.1443C48.5003 11.9139 49.922 12.249 51.0872 13.0881C52.2522 13.9271 53.0207 15.1696 53.2511 16.5868C53.4816 18.0039 53.1463 19.4258 52.3073 20.591C50.8357 22.6338 44.8663 24.8367 43.6846 25.2576C43.538 25.31 43.3857 25.3356 43.234 25.3356ZM47.9516 14.7614C47.8064 14.7614 47.6605 14.773 47.5143 14.7969C46.8058 14.9123 46.1845 15.2964 45.7649 15.8789C45.2451 16.6007 44.8394 19.3094 44.6641 22.0059C47.1661 20.9852 49.6065 19.7419 50.1266 19.0203C50.5462 18.4378 50.7136 17.7268 50.5984 17.0183C50.4832 16.3096 50.0989 15.6885 49.5164 15.269C49.0539 14.9356 48.5104 14.7614 47.9516 14.7614Z" fill="#FFD863"/>
<path d="M35.0762 27.492C34.7292 27.492 34.414 27.4635 34.1418 27.3998C32.7436 27.0734 31.5562 26.222 30.7985 25.0027C30.0406 23.7833 29.8031 22.3418 30.1297 20.9436C30.456 19.5456 31.3075 18.358 32.5269 17.6005C33.7464 16.8425 35.188 16.605 36.5861 16.9317C39.0379 17.5041 43.3675 22.1672 44.2103 23.0961C44.507 23.423 44.6242 23.8748 44.5238 24.3046C44.4233 24.7345 44.1183 25.0875 43.7074 25.2493C42.6699 25.6578 37.8551 27.492 35.0762 27.492ZM35.3589 19.4771C34.8635 19.4771 34.3768 19.615 33.9454 19.8829C33.3357 20.2618 32.9099 20.8556 32.7468 21.5547C32.5835 22.2536 32.7023 22.9743 33.0812 23.5841C33.4602 24.1938 34.0538 24.6196 34.7528 24.7829C35.6199 24.9851 38.2767 24.3181 40.8321 23.4426C38.9277 21.5258 36.841 19.7507 35.975 19.5483C35.7704 19.5007 35.564 19.4771 35.3589 19.4771Z" fill="#FFD863"/>
<path d="M47.3136 31.0761L57.3796 27.303L56.4363 24.7863L46.3703 28.5594L44.4838 23.5264L41.9672 24.4697L43.8538 29.5027L33.7876 33.2758L34.7309 35.7925L44.7971 32.0194L49.5133 44.6019L52.0298 43.6586L47.3136 31.0761Z" fill="#FFD863"/>
<path d="M33.901 73.6611L12.7811 77.6858C12.0521 77.8247 11.3485 77.3464 11.2096 76.6174L7.68781 58.1375C7.5489 57.4085 8.02728 56.7049 8.75626 56.566L29.8761 52.5411C30.6051 52.4022 31.3088 52.8805 31.4477 53.6095L34.9695 72.0895C35.1084 72.8186 34.63 73.5221 33.901 73.6611Z" fill="#11C8A5"/>
<path d="M8.75626 56.566C8.02728 56.7049 7.5489 57.4085 7.68781 58.1375L11.2096 76.6174C11.3485 77.3464 12.0521 77.8248 12.7811 77.6859L15.2687 77.2118L11.4226 56.0579L8.75626 56.566Z" fill="#02AF8E"/>
<path d="M19.3252 55.8927C18.968 55.8927 18.6215 55.7499 18.3665 55.4904C18.0572 55.1754 17.9222 54.7286 18.0057 54.2951C18.2425 53.0632 19.5154 46.8289 21.3118 45.0647C23.4269 42.9883 26.8366 43.0197 28.9129 45.1338C29.9189 46.1582 30.4656 47.5129 30.4527 48.9487C30.4396 50.3843 29.8683 51.7289 28.8439 52.7349C27.0474 54.499 20.7911 55.6583 19.5552 55.8728C19.4784 55.8861 19.4015 55.8927 19.3252 55.8927ZM25.0777 46.2136C24.3976 46.2136 23.7173 46.4693 23.1949 46.9823C22.5603 47.6054 21.7013 50.2063 21.0716 52.8341C23.7102 52.2521 26.3263 51.4405 26.9609 50.8173C27.4732 50.3144 27.7588 49.642 27.7655 48.9241C27.7721 48.2064 27.4986 47.5288 26.9957 47.0169C26.4701 46.4819 25.7741 46.2136 25.0777 46.2136Z" fill="#FFD863"/>
<path d="M12.44 56.7413C11.3803 56.7413 10.4321 56.6391 9.78729 56.3667C7.05713 55.2134 5.77418 52.0539 6.92762 49.3238C7.48629 48.0014 8.52652 46.9756 9.85666 46.4354C11.187 45.8949 12.6478 45.9053 13.9704 46.4641C16.2897 47.4439 19.7661 52.7732 20.4395 53.8315C20.6765 54.2039 20.7153 54.669 20.5437 55.0757C20.3718 55.4823 20.0114 55.7788 19.579 55.8685C18.6923 56.0526 15.1912 56.7413 12.44 56.7413ZM11.879 48.7263C11.5367 48.7263 11.1944 48.7927 10.8677 48.9254C10.2027 49.1953 9.68248 49.7083 9.40315 50.3697C8.82634 51.7348 9.46782 53.3144 10.8331 53.8912C11.6524 54.2377 14.3834 54.0301 17.0513 53.6006C15.4992 51.3886 13.744 49.2858 12.9246 48.9398C12.588 48.7975 12.2338 48.7263 11.879 48.7263Z" fill="#FFD863"/>
<path d="M32.2022 57.5696L21.6424 59.5821L20.6361 54.3021L17.9961 54.8052L19.0024 60.0851L8.44238 62.0976L8.94545 64.7375L19.5055 62.7251L22.021 75.9251L24.6609 75.422V75.4218L22.1454 62.222L32.7053 60.2096L32.2022 57.5696Z" fill="#FFD863"/>
</svg>
