<svg width="18" height="18" viewBox="0 0 18 18" fill="none" xmlns="http://www.w3.org/2000/svg">
<path d="M7.0926 14.3392C7.01947 14.3392 6.946 14.3114 6.8901 14.2555L2.33385 9.69928C2.22205 9.58748 2.22205 9.40643 2.33385 9.29463L4.06881 7.55967C4.18061 7.44787 4.36166 7.44787 4.47346 7.55967L7.03565 10.1219C7.06693 10.1531 7.11791 10.1531 7.14955 10.1219L13.5265 3.74487C13.5803 3.69108 13.6531 3.66119 13.729 3.66119C13.805 3.66119 13.8778 3.69143 13.9315 3.74487L15.6665 5.47983C15.7783 5.59162 15.7783 5.77268 15.6665 5.88448L7.2951 14.2555C7.2392 14.3114 7.16572 14.3392 7.0926 14.3392Z" fill="#60AC71"/>
</svg>
