<svg width="18" height="18" viewBox="0 0 18 18" fill="none" xmlns="http://www.w3.org/2000/svg">
<g clip-path="url(#clip0_4209_119579)">
<path opacity="0.1" fill-rule="evenodd" clip-rule="evenodd" d="M9 3.375C7.50816 3.375 6.07742 3.96763 5.02252 5.02252C3.96763 6.07742 3.375 7.50816 3.375 9C3.375 10.4918 3.96763 11.9226 5.02252 12.9775C6.07742 14.0324 7.50816 14.625 9 14.625C10.4918 14.625 11.9226 14.0324 12.9775 12.9775C14.0324 11.9226 14.625 10.4918 14.625 9C14.625 7.50816 14.0324 6.07742 12.9775 5.02252C11.9226 3.96763 10.4918 3.375 9 3.375ZM1.125 9C1.125 4.65075 4.65075 1.125 9 1.125C13.3492 1.125 16.875 4.65075 16.875 9C16.875 13.3492 13.3492 16.875 9 16.875C4.65075 16.875 1.125 13.3492 1.125 9Z" fill="black"/>
<path fill-rule="evenodd" clip-rule="evenodd" d="M8.9997 3.37501C7.54946 3.37175 6.15464 3.93188 5.10945 4.93726C4.89291 5.13748 4.6064 5.24466 4.31162 5.23572C4.01683 5.22678 3.73734 5.10245 3.53333 4.88948C3.32931 4.67652 3.21708 4.39195 3.22079 4.09706C3.22451 3.80216 3.34388 3.52051 3.5532 3.31276C5.01714 1.9061 6.96948 1.12189 8.9997 1.12501C9.29807 1.12501 9.58422 1.24354 9.7952 1.45451C10.0062 1.66549 10.1247 1.95164 10.1247 2.25001C10.1247 2.54838 10.0062 2.83453 9.7952 3.0455C9.58422 3.25648 9.29807 3.37501 8.9997 3.37501Z" fill="#5C75C9"/>
</g>
<defs>
<clipPath id="clip0_4209_119579">
<rect width="18" height="18" fill="white"/>
</clipPath>
</defs>
</svg>
