<svg width="60" height="60" viewBox="0 0 60 60" fill="none" xmlns="http://www.w3.org/2000/svg">
<g clip-path="url(#clip0_4526_1999)">
<path d="M54.7266 1.75781H5.27344C3.33176 1.75781 1.75781 3.33176 1.75781 5.27344V40.4297C1.75781 42.3714 3.33176 43.9453 5.27344 43.9453H54.7266C56.6682 43.9453 58.2422 42.3714 58.2422 40.4297V5.27344C58.2422 3.33176 56.6682 1.75781 54.7266 1.75781Z" fill="#F6F9FF"/>
<path d="M54.7266 1.75781H30V43.9453H54.7266C56.6682 43.9453 58.2422 42.3714 58.2422 40.4297V5.27344C58.2422 3.33176 56.6682 1.75781 54.7266 1.75781Z" fill="#E6EAF3"/>
<path d="M40.6172 54.1406H19.3828L22.8607 43.3594H37.1393L40.6172 54.1406Z" fill="#394F99"/>
<path d="M30 54.1406H40.6172L37.1393 43.3594H30V54.1406Z" fill="#4A62B4"/>
<path d="M43.4766 60H16.5234C15.5527 60 14.7656 59.213 14.7656 58.2422V56.4844C14.7656 53.5719 17.1266 51.2109 20.0391 51.2109H39.9609C42.8734 51.2109 45.2344 53.5719 45.2344 56.4844V58.2422C45.2344 59.213 44.4473 60 43.4766 60Z" fill="#5067B8"/>
<path d="M54.7266 45.7031H5.27344C2.36566 45.7031 0 43.3375 0 40.4297V5.27344C0 2.36566 2.36566 0 5.27344 0H54.7266C57.6343 0 60 2.36566 60 5.27344V40.4297C60 43.3375 57.6343 45.7031 54.7266 45.7031ZM5.27344 3.51562C4.30418 3.51562 3.51562 4.30418 3.51562 5.27344V40.4297C3.51562 41.3989 4.30418 42.1875 5.27344 42.1875H54.7266C55.6958 42.1875 56.4844 41.3989 56.4844 40.4297V5.27344C56.4844 4.30418 55.6958 3.51562 54.7266 3.51562H5.27344Z" fill="#5067B8"/>
<path d="M54.7266 0H30V3.51562H54.7266C55.6958 3.51562 56.4844 4.30418 56.4844 5.27344V40.4297C56.4844 41.3989 55.6958 42.1875 54.7266 42.1875H30V45.7031H54.7266C57.6343 45.7031 60 43.3375 60 40.4297V5.27344C60 2.36566 57.6343 0 54.7266 0Z" fill="#5C75C9"/>
<path d="M39.9609 51.2109H30V60H43.4766C44.4473 60 45.2344 59.213 45.2344 58.2422V56.4844C45.2344 53.5719 42.8734 51.2109 39.9609 51.2109Z" fill="#5C75C9"/>
<path d="M37.1979 26.3307L36.1373 25.7183C36.3384 24.7942 36.4453 23.8351 36.4453 22.8516C36.4453 21.868 36.3384 20.9089 36.1373 19.9847L37.1979 19.3723C38.0387 18.8869 38.3268 17.8118 37.8413 16.9711L35.4976 12.9116C35.0122 12.0709 33.9371 11.7827 33.0964 12.2682L32.0296 12.8842C30.6171 11.5989 28.9308 10.6098 27.0703 10.0139V8.78906C27.0703 7.81828 26.2832 7.03125 25.3124 7.03125H20.6249C19.6542 7.03125 18.8671 7.81828 18.8671 8.78906V10.0139C17.0065 10.6097 15.3203 11.5989 13.9078 12.8842L12.841 12.2682C12.0003 11.7829 10.9252 12.0709 10.4398 12.9116L8.09607 16.9711C7.61068 17.8118 7.89873 18.8869 8.73943 19.3723L9.80009 19.9847C9.599 20.9089 9.49213 21.868 9.49213 22.8516C9.49213 23.8351 9.599 24.7942 9.80009 25.7184L8.73943 26.3309C7.89873 26.8162 7.61056 27.8913 8.09607 28.732L10.4398 32.7915C10.9252 33.6322 12.0003 33.9204 12.841 33.4349L13.9078 32.8189C15.3203 34.1043 17.0065 35.0933 18.8671 35.6892V36.9141C18.8671 37.8848 19.6542 38.6719 20.6249 38.6719H25.3124C26.2832 38.6719 27.0703 37.8848 27.0703 36.9141V35.6892C28.9308 35.0934 30.6171 34.1043 32.0296 32.8189L33.0964 33.4349C33.9371 33.9203 35.0122 33.6322 35.4976 32.7915L37.8413 28.732C38.3268 27.8912 38.0387 26.8161 37.1979 26.3307ZM22.9687 27.5391C20.3799 27.5391 18.2812 25.4404 18.2812 22.8516C18.2812 20.2628 20.3799 18.1641 22.9687 18.1641C25.5575 18.1641 27.6562 20.2628 27.6562 22.8516C27.6562 25.4404 25.5575 27.5391 22.9687 27.5391Z" fill="#E2E5EB"/>
<path d="M37.8414 16.9711L35.4976 12.9116C35.0122 12.0709 33.9371 11.7828 33.0964 12.2683L32.0297 12.8842C31.404 12.3149 30.7245 11.8041 30 11.3594V34.3438C30.7245 33.8992 31.404 33.3883 32.0297 32.819L33.0964 33.4349C33.9371 33.9203 35.0122 33.6323 35.4976 32.7916L37.8414 28.7321C38.3268 27.8914 38.0387 26.8163 37.198 26.3309L36.1373 25.7185C36.3384 24.7942 36.4453 23.8352 36.4453 22.8516C36.4453 21.868 36.3384 20.909 36.1373 19.9847L37.198 19.3723C38.0387 18.887 38.3269 17.812 37.8414 16.9711Z" fill="#CED1D7"/>
<path d="M22.9688 29.2969C19.4148 29.2969 16.5234 26.4055 16.5234 22.8516C16.5234 19.2976 19.4148 16.4062 22.9688 16.4062C26.5227 16.4062 29.4141 19.2976 29.4141 22.8516C29.4141 26.4055 26.5227 29.2969 22.9688 29.2969ZM22.9688 19.9219C21.3533 19.9219 20.0391 21.2361 20.0391 22.8516C20.0391 24.467 21.3533 25.7812 22.9688 25.7812C24.5842 25.7812 25.8984 24.467 25.8984 22.8516C25.8984 21.2361 24.5842 19.9219 22.9688 19.9219Z" fill="#CED1D7"/>
<path d="M51.0938 10.5469H42.8906C41.9198 10.5469 41.1328 9.75984 41.1328 8.78906C41.1328 7.81828 41.9198 7.03125 42.8906 7.03125H51.0938C52.0645 7.03125 52.8516 7.81828 52.8516 8.78906C52.8516 9.75984 52.0645 10.5469 51.0938 10.5469Z" fill="#60AC71"/>
<path d="M51.0938 17.5781H42.8906C41.9198 17.5781 41.1328 16.7911 41.1328 15.8203C41.1328 14.8495 41.9198 14.0625 42.8906 14.0625H51.0938C52.0645 14.0625 52.8516 14.8495 52.8516 15.8203C52.8516 16.7911 52.0645 17.5781 51.0938 17.5781Z" fill="#60AC71"/>
<path d="M51.0938 24.6094H42.8906C41.9198 24.6094 41.1328 23.8223 41.1328 22.8516C41.1328 21.8808 41.9198 21.0938 42.8906 21.0938H51.0938C52.0645 21.0938 52.8516 21.8808 52.8516 22.8516C52.8516 23.8223 52.0645 24.6094 51.0938 24.6094Z" fill="#60AC71"/>
<path d="M51.0938 31.6406H42.8906C41.9198 31.6406 41.1328 30.8536 41.1328 29.8828C41.1328 28.912 41.9198 28.125 42.8906 28.125H51.0938C52.0645 28.125 52.8516 28.912 52.8516 29.8828C52.8516 30.8536 52.0645 31.6406 51.0938 31.6406Z" fill="#60AC71"/>
<path d="M51.0938 38.6719H42.8906C41.9198 38.6719 41.1328 37.8848 41.1328 36.9141C41.1328 35.9433 41.9198 35.1562 42.8906 35.1562H51.0938C52.0645 35.1562 52.8516 35.9433 52.8516 36.9141C52.8516 37.8848 52.0645 38.6719 51.0938 38.6719Z" fill="#60AC71"/>
</g>
<defs>
<clipPath id="clip0_4526_1999">
<rect width="60" height="60" fill="white"/>
</clipPath>
</defs>
</svg>
