<svg width="60" height="60" viewBox="0 0 60 60" fill="none" xmlns="http://www.w3.org/2000/svg">
<path d="M26.8829 30.9254L26.8986 30.9107C26.9293 30.8816 27.1037 30.7276 28.0585 29.9263C28.8672 29.2735 29.6285 28.564 30.3366 27.8033C31.2064 26.7737 31.6475 25.7361 31.6475 24.7196C31.6672 24.1825 31.5629 23.6481 31.3426 23.1578C31.1224 22.6675 30.7921 22.2346 30.3774 21.8926C29.5534 21.245 28.527 20.9095 27.4796 20.9455C24.8961 20.9455 23.4104 22.2772 23.183 24.7967L23.1296 25.3899L25.8076 25.6578L25.8148 25.0016C25.7883 24.5391 25.9443 24.0846 26.2494 23.736C26.4094 23.5843 26.5994 23.4677 26.8071 23.3938C27.0149 23.3198 27.2358 23.29 27.4557 23.3064C27.8689 23.2903 28.2732 23.4295 28.5889 23.6966C28.7287 23.8188 28.8385 23.9715 28.91 24.1428C28.9815 24.3142 29.0127 24.4996 29.0012 24.6849C28.9839 25.0233 28.8797 25.3514 28.6986 25.6377C28.3781 26.1584 27.9863 26.6318 27.5347 27.0439C27.2691 27.3017 26.7676 27.7314 26.0415 28.3234C23.9237 30.066 22.894 31.599 22.894 33.0109V33.6123H31.647V31.0604H26.7383C26.7848 31.0157 26.833 30.9707 26.8829 30.9254Z" fill="#5C75C9"/>
<path d="M40.5883 28.3887V20.9937H38.5298L33.0281 28.7995V30.8796H37.9781V33.611H40.5883V30.8796H42.127V28.3887H40.5883ZM36.1647 28.3887L37.9778 25.774V28.3887H36.1647Z" fill="#5C75C9"/>
<path d="M54.267 27.2785C54.267 22.9755 52.991 18.7691 50.6004 15.1912C48.2098 11.6134 44.8118 8.8248 40.8364 7.1781C36.8609 5.5314 32.4863 5.10055 28.266 5.94003C24.0456 6.77951 20.169 8.85162 17.1263 11.8943C14.0836 14.937 12.0114 18.8137 11.172 23.034C10.3325 27.2544 10.7633 31.6289 12.41 35.6044C14.0567 39.5799 16.8453 42.9778 20.4232 45.3685C24.001 47.7591 28.2074 49.0351 32.5105 49.0351C32.8548 49.0351 33.1967 49.0262 33.537 49.0103C33.0517 47.9657 32.5623 46.903 32.0893 45.8727C28.0396 45.783 24.1298 44.3743 20.9534 41.8607C17.777 39.347 15.5075 35.8656 14.4895 31.9449C13.4715 28.0243 13.7605 23.8785 15.3126 20.137C16.8648 16.3955 19.5954 13.2626 23.0898 11.214C26.5842 9.16534 30.6517 8.31281 34.6746 8.78581C38.6976 9.25882 42.4563 11.0315 45.3803 13.8348C48.3043 16.6381 50.2337 20.3189 50.8757 24.3184C51.5177 28.3178 50.8372 32.4176 48.9376 35.9952L46.3979 34.3546L46.7914 41.9975L53.9211 39.216L51.5973 37.7143C53.3533 34.5167 54.2718 30.9267 54.267 27.2785Z" fill="#60AC71"/>
<path d="M31.8984 42.3679L28.8888 44.1798C28.8888 44.1798 24.7806 42.8439 19.9298 37.2875C15.2992 31.5454 14.6978 27.2678 14.6978 27.2678L17.0041 24.6193L20.9547 22.3553L16.7812 12.0146L11.5094 13.4C10.5107 13.6596 9.59343 14.1666 8.84243 14.8743C6.98906 16.6457 5.58586 18.8343 4.74978 21.2579C3.28845 27.3789 13.8161 41.4072 13.8161 41.4072L14.8101 42.5917L14.8274 42.5767C17.8157 45.9421 26.797 55.3954 33.0787 55.0192C35.6108 54.6168 38.0101 53.6151 40.0767 52.0975C40.904 51.4807 41.5625 50.6655 41.9915 49.727L44.2713 44.7761L34.8128 38.8698L31.8984 42.3679Z" fill="#5C75C9"/>
<path d="M32.0271 42.2121L34.8131 38.8704L44.2713 44.7761L42.3591 48.929L32.0271 42.2121Z" fill="#7691ED"/>
<path d="M17.18 24.5181L20.9548 22.3548L16.7811 12.0146L12.3591 13.1767L17.18 24.5181Z" fill="#7691ED"/>
<path d="M46.7721 21.3387C51.3682 21.3387 55.0941 17.6129 55.0941 13.0168C55.0941 8.42069 51.3682 4.69482 46.7721 4.69482C42.1761 4.69482 38.4502 8.42069 38.4502 13.0168C38.4502 17.6129 42.1761 21.3387 46.7721 21.3387Z" fill="#E2E5EB"/>
<path d="M44.7024 7.48749L48.784 7.46265L46.9578 11.193H50.5943L45.3509 19.3473L46.0671 13.345H42.95L44.7024 7.48749Z" fill="#60AC71"/>
</svg>
