<svg width="60" height="60" viewBox="0 0 60 60" fill="none" xmlns="http://www.w3.org/2000/svg">
<g clip-path="url(#clip0_4526_3920)">
<path d="M51.0916 14.1782H17.6965V44.058C17.6965 48.9091 21.6336 52.8462 26.4847 52.8462H42.0222L49.9667 59.572C50.4941 60.029 51.2322 60.1344 51.8299 59.8181C52.4627 59.5368 52.8492 58.9041 52.8492 58.2362V52.6704C56.8566 51.8618 59.9969 48.3112 59.9969 44.058V22.9664C59.9969 18.1153 55.9426 14.1782 51.0916 14.1782Z" fill="#5067B8"/>
<path d="M59.997 22.9664V44.058C59.997 48.3114 56.8567 51.8618 52.8493 52.6704V58.2362C52.8493 58.9041 52.4626 59.5369 51.83 59.8181C51.2323 60.1344 50.4942 60.029 49.9668 59.572L42.0223 52.8462H38.7883V14.1782H51.0918C55.9427 14.1782 59.997 18.1153 59.997 22.9664Z" fill="#394F99"/>
<path d="M44.0611 0H8.9084C4.05733 0 0.00305176 4.05428 0.00305176 8.90535V37.0275C0.00305176 41.2808 3.14336 44.8313 7.15076 45.6399V51.0886C7.15076 51.7565 7.53744 52.3892 8.17007 52.6704C8.41614 52.7758 8.66221 52.8462 8.9084 52.8462C9.29508 52.8462 9.71679 52.7055 10.0333 52.4244L17.9778 45.8157H44.0611C48.9121 45.8157 52.8492 41.8786 52.8492 37.0275V8.90535C52.8492 4.05428 48.9121 0 44.0611 0Z" fill="#7691ED"/>
<path d="M52.8493 8.90534V37.0275C52.8493 41.8786 48.9122 45.8157 44.0611 45.8157H26.4847V0H44.0611C48.9122 0 52.8493 4.05428 52.8493 8.90534Z" fill="#5C75C9"/>
<path d="M26.4847 7.14771C17.767 7.14771 10.666 14.2484 10.666 22.9664C10.666 31.6842 17.767 38.7851 26.4847 38.7851C35.2025 38.7851 42.3034 31.6842 42.3034 22.9664C42.3034 14.2484 35.2025 7.14771 26.4847 7.14771Z" fill="#8BD79C"/>
<path d="M42.3034 22.9664C42.3034 31.6842 35.2025 38.7851 26.4847 38.7851V7.14771C35.2025 7.14771 42.3034 14.2484 42.3034 22.9664Z" fill="#60AC71"/>
<path d="M34.148 21.314L26.4847 28.9423L25.9573 29.4695C25.641 29.8211 25.1841 29.9969 24.7271 29.9969C24.2701 29.9969 23.8131 29.8211 23.4968 29.4695L18.2239 24.1965C17.5209 23.5286 17.5209 22.4038 18.2239 21.7359C18.8918 21.0329 20.0165 21.0329 20.6845 21.7359L24.7272 25.7433L31.6522 18.8183C32.3201 18.1504 33.4449 18.1504 34.1481 18.8183C34.8159 19.5212 34.8159 20.6461 34.148 21.314Z" fill="white"/>
<path d="M34.148 21.314L26.4847 28.9423V23.9856L31.6521 18.8183C32.32 18.1504 33.4449 18.1504 34.148 18.8183C34.8159 19.5212 34.8159 20.6461 34.148 21.314Z" fill="#D8D8D8"/>
</g>
<defs>
<clipPath id="clip0_4526_3920">
<rect width="60" height="60" fill="white"/>
</clipPath>
</defs>
</svg>
